<?xml version="1.0" encoding="UTF-8"?>
<svg id="Layer_1" data-name="Layer 1" xmlns="http://www.w3.org/2000/svg" viewBox="0 0 229.87 229.87">
  <defs>
    <style>
      .cls-1 {
        fill: #6e0a30;
      }

      .cls-2 {
        fill: #1d0f14;
      }

      .cls-3 {
        fill: #9fcc44;
      }

      .cls-4 {
        fill: #e94296;
      }

      .cls-5 {
        fill: #ffd695;
      }

      .cls-6 {
        fill: #1a4f27;
      }

      .cls-7 {
        fill: #fbf9dc;
      }
    </style>
  </defs>
  <g>
    <path class="cls-4" d="M223.66,77.59c4.02,11.71,6.2,24.27,6.2,37.33,0,7.93-.8,15.67-2.33,23.13-5.12-6.62-11.53-12.19-18.85-16.34,1.55-4.41,2.39-9.16,2.39-14.11,0-7.8-2.09-15.1-5.75-21.38,6.63-1.87,12.81-4.81,18.33-8.64Z"/>
    <path class="cls-5" d="M227.54,138.06c-.91,4.47-2.09,8.83-3.49,13.08-9.24-15.94-26.48-26.65-46.22-26.65-14.51,0-27.67,5.79-37.28,15.18-2.65-2.3-5-4.95-7.01-7.84,4.12-4.08,8.8-7.59,13.91-10.42,2.69-1.5,5.51-2.79,8.42-3.88,6.82-2.53,14.21-3.92,21.92-3.92,5.23,0,10.3.64,15.14,1.85,5.59,1.36,10.88,3.49,15.76,6.26,7.33,4.15,13.73,9.72,18.85,16.34Z"/>
    <path class="cls-5" d="M219.32,66.76c1.63,3.52,3.08,7.13,4.35,10.83-5.52,3.82-11.7,6.77-18.33,8.64-5.4,1.54-11.11,2.35-17.01,2.35-.41,0-.83,0-1.23-.01-9.52-.19-18.51-2.5-26.52-6.49-5.47-2.71-10.5-6.23-14.91-10.38-7.39-6.94-13.09-15.66-16.42-25.47-2.13-6.27-3.28-13-3.28-20,0-8.45,1.67-16.5,4.72-23.84.17-.43.35-.84.52-1.24,3.73.52,7.41,1.23,11,2.11-2.62,6.22-4.06,13.04-4.06,20.19,0,1.55.07,3.09.2,4.61,2.34,26.64,24.7,47.52,51.93,47.52,10.74,0,20.73-3.25,29.03-8.83Z"/>
    <path class="cls-1" d="M207.46,46.75c4.6,6.22,8.58,12.92,11.86,20.02-8.3,5.58-18.29,8.83-29.03,8.83-27.24,0-49.59-20.89-51.93-47.52,9.17,14.92,25.65,24.87,44.45,24.87,8.92,0,17.32-2.25,24.66-6.19Z"/>
    <path class="cls-6" d="M224.05,151.14c-7.9,23.85-23.41,44.23-43.66,58.29-1.58-4.85-3.68-9.45-6.24-13.76,12.94-2.61,22.7-14.05,22.7-27.79,0-15.66-12.69-28.36-28.35-28.36-6.91,0-13.24,2.46-18.16,6.58-3.01-1.42-5.83-3.18-8.4-5.24-.48-.39-.95-.78-1.4-1.19,9.61-9.39,22.77-15.18,37.28-15.18,19.75,0,36.99,10.71,46.22,26.65Z"/>
    <path class="cls-7" d="M205.33,86.23c3.66,6.28,5.75,13.59,5.75,21.38,0,4.95-.84,9.69-2.39,14.11-4.88-2.77-10.18-4.89-15.76-6.26h0c1-2.77,1.55-5.74,1.55-8.83,0-7.03-2.81-13.41-7.38-18.06.4.01.82.01,1.23.01,5.9,0,11.61-.82,17.01-2.35Z"/>
    <path class="cls-3" d="M201.77,39.65c1.98,2.29,3.88,4.65,5.68,7.1-7.34,3.94-15.74,6.19-24.66,6.19-18.8,0-35.27-9.95-44.45-24.87-.13-1.52-.2-3.06-.2-4.61,0-7.15,1.44-13.97,4.06-20.19.33.08.67.16,1,.25.71.17,1.4.36,2.1.55.68.19,1.36.37,2.05.59.57.16,1.14.33,1.7.51.4.12.8.24,1.2.37.45.15.91.29,1.36.45,3.33,1.12,6.59,2.39,9.77,3.8.49.21.99.44,1.47.67.49.21.98.44,1.46.68.86.4,1.71.83,2.55,1.26.72.36,1.42.72,2.13,1.1,2.66,1.43,5.27,2.96,7.8,4.57.76.49,1.54.99,2.29,1.51.79.52,1.56,1.06,2.33,1.6.7.49,1.39.99,2.07,1.51.6.44,1.19.88,1.78,1.35.47.36.94.72,1.4,1.11.2.15.4.31.59.48.51.39,1,.8,1.5,1.23.05.03.09.07.13.11.62.51,1.22,1.03,1.81,1.55.63.55,1.24,1.1,1.85,1.66,2.87,2.62,5.6,5.39,8.2,8.3.33.37.68.76,1.03,1.16Z"/>
    <path class="cls-2" d="M194.47,106.64c0,3.09-.55,6.06-1.55,8.81h0c-4.84-1.19-9.91-1.83-15.14-1.83-7.7,0-15.1,1.39-21.92,3.92-2.91,1.08-5.74,2.38-8.42,3.88-2.93-4.19-4.64-9.28-4.64-14.78,0-11.46,7.45-21.17,17.77-24.55,8.01,3.98,17,6.3,26.52,6.49,4.57,4.65,7.38,11.03,7.38,18.06Z"/>
    <path class="cls-4" d="M168.51,139.52c15.66,0,28.35,12.7,28.35,28.36,0,13.73-9.76,25.18-22.7,27.79-1.83.37-3.72.56-5.64.56-6.54,0-12.56-2.21-17.36-5.92l-.2-.16c-.56-.52-1.15-1.02-1.74-1.5-.03-.03-.05-.04-.08-.07-5.54-5.16-8.99-12.53-8.99-20.7,0-.39.01-.78.03-1.16.33-8.28,4.21-15.64,10.18-20.62,4.92-4.12,11.25-6.58,18.16-6.58Z"/>
    <path class="cls-3" d="M174.15,195.66c2.57,4.31,4.67,8.91,6.24,13.76-4.11,2.83-8.38,5.42-12.86,7.72-2.71-10.52-8.53-19.8-16.38-26.84,4.8,3.72,10.82,5.92,17.36,5.92,1.93,0,3.81-.19,5.64-.56Z"/>
    <path class="cls-1" d="M151.15,190.3c7.85,7.03,13.67,16.31,16.38,26.84-5.27,2.73-10.78,5.05-16.49,6.94-2.77-17.45-17.89-30.79-36.13-30.79s-33.35,13.33-36.13,30.78c-5.71-1.89-11.22-4.21-16.49-6.94,2.69-10.38,8.38-19.55,16.07-26.54.01-.03.04-.04.07-.05h0s.04-.04.05-.05c.8-.62,1.56-1.26,2.3-1.95.07-.07.12-.11.19-.16.56-.45,1.12-.88,1.71-1.31,9.01-6.67,20.16-10.59,32.23-10.59h.01c12.06,0,23.2,3.93,32.21,10.59h.01c.67.49,1.32,1,1.97,1.52h.01s.05.04.08.07c.56.53,1.14,1.03,1.74,1.5.05.04.11.08.16.13.01,0,.03.03.04.03Z"/>
    <path class="cls-5" d="M150.35,146.1c-5.96,4.97-9.84,12.34-10.18,20.62-7.33-2.89-15.26-4.56-23.56-4.76-.56-.01-1.12-.01-1.7-.01s-1.11,0-1.67.01c-8.29.2-16.23,1.86-23.55,4.75-.33-8.28-4.23-15.63-10.18-20.61,3-1.42,5.82-3.2,8.38-5.23,7.29,6.18,16.71,9.89,27.01,9.89s19.74-3.72,27.04-9.91c2.57,2.06,5.39,3.82,8.4,5.24Z"/>
    <path class="cls-3" d="M82.69,187.05c-.59.43-1.15.86-1.71,1.31-.07.05-.12.09-.19.16,5.5-5.16,8.93-12.5,8.93-20.65,0-.4-.01-.79-.03-1.18,7.31-2.89,15.26-4.55,23.55-4.75.56-.01,1.11-.01,1.67-.01s1.14,0,1.7.01c8.3.2,16.23,1.87,23.56,4.76-.01.39-.03.78-.03,1.16,0,8.17,3.45,15.54,8.99,20.7h-.01c-.64-.52-1.3-1.03-1.97-1.52h-.01c-9.01-6.66-20.15-10.59-32.21-10.59h-.01c-12.06,0-23.21,3.92-32.23,10.59Z"/>
    <path class="cls-7" d="M160.58,82.09c-10.32,3.38-17.77,13.09-17.77,24.55,0,5.5,1.71,10.59,4.64,14.78-5.11,2.82-9.79,6.34-13.91,10.42-4.77-6.87-7.57-15.22-7.57-24.22,0-12.72,5.58-24.14,14.41-31.93,1.64-1.46,3.42-2.78,5.28-3.97,4.41,4.15,9.44,7.66,14.91,10.38Z"/>
    <path class="cls-4" d="M151.04,224.08c-3.46,1.15-6.99,2.13-10.59,2.94-8.21,1.87-16.75,2.85-25.53,2.85s-17.3-.98-25.51-2.85c-3.61-.82-7.15-1.81-10.63-2.96,2.78-17.45,17.89-30.78,36.13-30.78s33.36,13.34,36.13,30.79Z"/>
    <path class="cls-6" d="M140.55,139.66c.45.41.92.8,1.4,1.19-7.3,6.19-16.73,9.91-27.04,9.91s-19.72-3.72-27.01-9.89c.48-.4.96-.79,1.42-1.2,2.65-2.3,5-4.93,7.01-7.82,4.77-6.87,7.57-15.23,7.57-24.23,0-15.08-7.86-28.35-19.7-35.9,7.39-6.94,13.09-15.66,16.42-25.47,4.63-.91,9.4-1.38,14.29-1.38s9.71.47,14.33,1.38c3.33,9.81,9.03,18.53,16.42,25.47-1.86,1.19-3.64,2.51-5.28,3.97-8.84,7.8-14.41,19.21-14.41,31.93,0,9,2.79,17.34,7.57,24.22,2.01,2.89,4.36,5.54,7.01,7.84Z"/>
    <path class="cls-4" d="M130.67,1.07c0,.44.01.88.03,1.32-3.05,7.34-4.72,15.39-4.72,23.84,0,7.01,1.15,13.73,3.28,20-4.63-.91-9.43-1.38-14.33-1.38s-9.67.47-14.29,1.38c2.13-6.27,3.28-13,3.28-20,0-8.45-1.68-16.5-4.72-23.84.01-.44.01-.88.01-1.32,5.15-.71,10.4-1.07,15.74-1.07s10.59.36,15.74,1.07Z"/>
    <path class="cls-7" d="M103.9,107.61c0,9-2.79,17.36-7.57,24.23-4.2-4.16-8.99-7.74-14.23-10.6,2.86-4.15,4.53-9.19,4.53-14.6,0-11.35-7.34-20.98-17.5-24.47,5.54-2.73,10.62-6.27,15.07-10.46,11.83,7.55,19.7,20.82,19.7,35.9Z"/>
    <path class="cls-3" d="M92.37,26.58h0c-8.97,15.75-25.9,26.35-45.3,26.35-8.93,0-17.32-2.23-24.66-6.19.56-.76,1.12-1.51,1.7-2.25,1.15-1.48,2.34-2.94,3.57-4.37.6-.71,1.23-1.42,1.86-2.11.63-.7,1.26-1.39,1.91-2.07.64-.68,1.3-1.35,1.95-2.02.67-.67,1.34-1.32,2.02-1.98,2.21-2.13,4.51-4.15,6.87-6.08.43-.36.87-.71,1.31-1.04.56-.45,1.14-.9,1.71-1.32.53-.41,1.07-.83,1.62-1.22.19-.15.37-.28.57-.41.52-.39,1.04-.76,1.58-1.12.09-.08.2-.16.32-.23.6-.43,1.2-.84,1.82-1.24,2.79-1.87,5.68-3.62,8.65-5.24.47-.25.95-.51,1.43-.76.47-.27.95-.51,1.43-.75.2-.11.39-.2.6-.31.53-.27,1.07-.53,1.6-.79.55-.27,1.1-.53,1.66-.78.01-.03.04-.04.08-.04.67-.32,1.35-.63,2.03-.92,1.54-.68,3.1-1.32,4.68-1.94.47-.19.94-.37,1.42-.53,1.2-.45,2.42-.88,3.64-1.3.82-.27,1.63-.52,2.45-.78.79-.25,1.58-.48,2.38-.71l.12-.04c.8-.23,1.62-.45,2.45-.66.83-.23,1.66-.43,2.5-.63,2.65,6.26,4.12,13.13,4.12,20.35,0,1.06-.03,2.09-.09,3.13Z"/>
    <path class="cls-5" d="M36.56,115.56c4.97-1.27,10.16-1.94,15.52-1.94,10.87,0,21.1,2.75,30.02,7.62,5.24,2.86,10.03,6.45,14.23,10.6-2.01,2.89-4.36,5.52-7.01,7.82-9.63-9.39-22.77-15.18-37.28-15.18-19.75,0-36.99,10.71-46.22,26.65-1.4-4.25-2.58-8.61-3.49-13.08,5.12-6.62,11.53-12.19,18.85-16.34,4.77-2.7,9.93-4.79,15.38-6.16Z"/>
    <path class="cls-4" d="M89.7,166.7c.01.39.03.78.03,1.18,0,8.14-3.44,15.48-8.93,20.65-.79.62-1.55,1.27-2.3,1.95-.01.01-.04.03-.05.04-4.75,3.58-10.67,5.71-17.08,5.71-1.95,0-3.85-.2-5.68-.57-12.93-2.63-22.66-14.07-22.66-27.77,0-15.66,12.69-28.36,28.35-28.36,6.9,0,13.24,2.46,18.16,6.58,5.95,4.97,9.84,12.33,10.18,20.61Z"/>
    <path class="cls-6" d="M89.32,139.66c-.45.41-.94.8-1.42,1.2-2.57,2.03-5.39,3.81-8.38,5.23-4.92-4.12-11.26-6.58-18.16-6.58-15.66,0-28.35,12.7-28.35,28.36,0,13.71,9.73,25.14,22.66,27.77h0c-2.57,4.31-4.67,8.91-6.24,13.75-20.22-14.04-35.71-34.42-43.62-58.26,9.24-15.94,26.48-26.65,46.22-26.65,14.51,0,27.65,5.79,37.28,15.18Z"/>
    <path class="cls-2" d="M86.63,106.64c0,5.42-1.67,10.46-4.53,14.6-8.92-4.87-19.15-7.62-30.02-7.62-5.36,0-10.55.67-15.52,1.94-.96-2.71-1.59-5.87-1.59-8.92,0-7.02,2.69-13.38,7.23-18.05,9.65-.11,18.79-2.39,26.92-6.42h.01c10.16,3.49,17.5,13.12,17.5,24.47Z"/>
    <path class="cls-3" d="M78.44,190.52h0s-.05.04-.07.07c-7.69,6.99-13.38,16.17-16.07,26.54-4.45-2.3-8.76-4.88-12.86-7.73,1.58-4.84,3.68-9.44,6.24-13.73h0c1.83.36,3.73.56,5.68.56,6.4,0,12.33-2.13,17.08-5.71Z"/>
    <path class="cls-1" d="M92.37,26.6c-1.62,27.33-24.31,48.99-52.04,48.99-10.99,0-21.19-3.4-29.59-9.21,3.24-6.95,7.17-13.52,11.67-19.63,7.34,3.96,15.72,6.19,24.66,6.19,19.4,0,36.33-10.6,45.3-26.34Z"/>
    <path class="cls-7" d="M41.54,88.59h.66c-4.55,4.67-7.23,11.03-7.23,18.05,0,3.05.63,6.2,1.59,8.92-5.44,1.38-10.6,3.46-15.38,6.16-1.55-4.41-2.39-9.16-2.39-14.11,0-7.8,2.09-15.1,5.75-21.38,5.4,1.54,11.11,2.35,17.01,2.35Z"/>
    <path class="cls-4" d="M24.54,86.23c-3.66,6.28-5.75,13.59-5.75,21.38,0,4.95.84,9.69,2.39,14.11-7.33,4.15-13.73,9.72-18.85,16.34-1.52-7.46-2.33-15.2-2.33-23.13,0-13.06,2.18-25.62,6.19-37.33,5.54,3.82,11.71,6.77,18.35,8.64Z"/>
    <path class="cls-5" d="M6.19,77.59c1.32-3.84,2.83-7.58,4.55-11.22,8.4,5.82,18.6,9.21,29.59,9.21,27.73,0,50.42-21.66,52.04-48.99h0c.07-1.06.09-2.09.09-3.14,0-7.22-1.47-14.09-4.12-20.35.84-.2,1.68-.4,2.53-.57.72-.16,1.44-.31,2.17-.44.84-.16,1.68-.32,2.53-.45,1.02-.17,2.05-.33,3.08-.48.19.4.36.82.53,1.24,3.04,7.34,4.72,15.39,4.72,23.84,0,7.01-1.15,13.73-3.28,20-3.33,9.81-9.03,18.53-16.42,25.47-4.45,4.19-9.53,7.73-15.07,10.46h-.01c-8.13,4.02-17.26,6.31-26.92,6.42h-.66c-5.9,0-11.61-.82-17.01-2.35-6.63-1.87-12.81-4.81-18.35-8.64Z"/>
  </g>
  <path class="cls-1" d="M70.47,184.89c14.98-35.92,73.81-35.78,88.87,0-6.31-6.2-13.13-11.25-20.68-14.41-23.22-9.42-50.82-4.32-68.19,14.41h0Z"/>
</svg>