<?xml version="1.0" encoding="UTF-8"?>
<svg id="Layer_1" data-name="Layer 1" xmlns="http://www.w3.org/2000/svg" viewBox="0 0 1920 1080">
  <defs>
    <style>
      .cls-1 {
        fill: #383838;
      }

      .cls-1, .cls-2, .cls-3, .cls-4, .cls-5 {
        stroke-width: 0px;
      }

      .cls-2 {
        fill: #383939;
      }

      .cls-3 {
        fill: #393939;
      }

      .cls-4 {
        fill: #393838;
      }

      .cls-5 {
        fill: #e84494;
      }
    </style>
  </defs>
  <path class="cls-5" d="M960.52,311.61c252.48,0,504.97.11,757.45-.31,12.54-.02,15.06,3.36,15.02,15.35-.45,142.75-.44,285.51,0,428.26.04,11.73-3.06,15.24-14.61,14.37-31.05-2.33-57.89-13.72-81.66-33.73-32.5-27.37-48.55-62.55-51.29-104.29-.37-5.66-2.32-7.19-7.58-7.1-37.87.66-69.26-15.93-95.11-41.12-21.95-21.39-36.99-48.21-39.78-80.08-.47-5.42-3.56-10.32-2.69-16.03.59-3.88-1.99-5.08-5.46-5.02-2.96.05-5.93-.02-8.9-.02-311.37,0-622.74.08-934.11-.31-12.43-.02-14.41,3.38-15.28,15.24-2.88,39.49-21.67,71.62-52.02,96.41-23.77,19.41-50.96,31.61-82.52,30.92-9.78-.21-9.16,7.55-9.63,12.93-5.42,62.47-39.61,102.74-96.51,125.15-11.09,4.37-22.98,6.8-35.34,7.16-10.23.3-13.55-2.02-13.52-13.01.4-144.02.4-288.05,0-432.07-.03-11.01,3.36-12.94,13.53-12.93,253.33.28,506.66.22,760,.22Z"/>
  <path class="cls-3" d="M439.98,351.15c-8.89,1.22-17.76,3.41-26.66,3.5-51.03.52-102,4.06-153.08,2.83-29.76-.71-29.77-.13-29.77,29.41,0,61.36.3,122.71-.13,184.07-.21,29.87-2.32,59.7-3.04,89.58-.33,13.51-1.28,27.38-2.26,43.66-3.96-12.08-4.53-21.83-4.89-31.82-1.63-45.09-.61-90.3-2.98-135.27-3.34-63.35-.44-126.63-1.89-189.91-.03-1.23.38-2.46.41-2.66,75.02-.33,149.72.14,224.3,6.6Z"/>
  <path class="cls-3" d="M1686.04,702.22c-5.13-13.45-3.52-26.47-4.26-39.3-2.36-40.85-.54-81.86-3-122.58-3.35-55.32-1.24-110.55-1.47-165.8-.06-14.29-6.45-16.79-17.19-17.1-12.26-.36-24.56-.51-36.81-.01-43.05,1.73-85.94-3.46-128.97-2.8-9.01.14-17.78-3.87-27.11-3.2,74.57-6.93,149.24-7.22,224.86-6.74-.56,117.84,2.46,237.21-6.03,357.54Z"/>
  <path class="cls-3" d="M1467.6,401.21c3.87-1.06,7.82-3.25,11.6-2.99,21.11,1.41,41.88-2.98,62.94-2.96,28.59.04,57.19-1.31,85.77-2.43,7.57-.3,11.1.85,11,9.96-.51,46.11,1.28,92.29-.8,138.31-1.26,27.94-1.01,56.1-5.76,83.72-2.29-1.45-3.74-4.1-3.8-7.46-.26-13.4-1.32-26.74-2.2-40.1-3.48-52.61-3.48-105.36-2.72-158.08.13-8.86-2.08-11.71-11.11-11.14-36.25,2.3-72.36-2.64-108.61-2.95-11.89-.1-24.14-1.64-36.31-3.87Z"/>
  <path class="cls-2" d="M280.96,623.32c-3.5-1.1-4.96-2.93-4.7-5.88,1.38-15.61-1.74-30.98-2.63-46.46-3.16-55.26-2.17-110.57-2.76-165.87-.11-10.07,2.72-12.19,12.51-12.48,37.59-1.08,75,2.95,112.53,3.56,14.76.24,30.29.35,44.65,2.63.83,3.53-.85,3.97-1.82,4.02-21.41,1.01-42.83,2.58-64.24,2.63-26.97.07-53.77,4.73-80.76,2.64-6.68-.52-7.54,2.71-7.45,8.26.26,16.93-.29,33.88.17,50.81,1.08,40.52-.89,80.99-3.1,121.39-.62,11.41-1.47,23.08-2.4,34.75Z"/>
  <path class="cls-1" d="M1576.67,543.54c-4.4-11.8-5.62-22.49-6.54-33.15-1.22-14.19-2.05-28.42-2.51-42.65-.17-5.26-2.37-6.24-6.94-6.24-20.18.01-40.31.2-60.49-2.14-11.01-1.28-22.23-.8-33.66-4.34,17.44-5.86,35.23-3.43,52.48-5.85,16.97-2.38,34.41,1.57,51.53-2.67,6.71-1.66,14.3-.99,14.57,8.57.82,29.25-1.41,58.26-8.44,88.46Z"/>
  <path class="cls-4" d="M443.35,455.48c-33.89,5.09-63.94,7.09-94.12,5.9-8.24-.32-9.98,2.58-9.59,10.07,1.23,23.71-1.06,47.19-5.93,70.6-7.48-3.46-4.58-10.93-5.59-15.85-4.98-24.41-3.53-49.36-3.68-74.16-.04-5.73,3.19-6.26,7.27-5.7,35.94,4.99,72.69.18,111.64,9.12Z"/>
</svg>