<?xml version="1.0" encoding="UTF-8"?>
<svg id="Layer_1" data-name="Layer 1" xmlns="http://www.w3.org/2000/svg" viewBox="0 0 1089 1920">
  <defs>
    <style>
      .cls-1 {
        fill: #393939;
      }

      .cls-1, .cls-2 {
        stroke-width: 0px;
      }

      .cls-2 {
        fill: #e74393;
      }
    </style>
  </defs>
  <path class="cls-2" d="M742.13,1830.77c-16.82.11-33.64.13-50.46.4-5.09.08-5.51-.7-4.73-6.36,4.28-31.13,7.18-62.44,11.11-93.62,3.75-29.74,8.38-59.37,12.25-89.1,2.54-19.53,4.18-39.17,6.65-58.71,3.19-25.3,6.98-50.53,10.2-75.83,3.1-24.32,5.65-48.71,8.72-73.03,3.19-25.31,6.79-50.57,10.05-75.87,2.38-18.49,4.38-37.03,6.76-55.52,3.34-25.99,7.06-51.93,10.28-77.93,3.1-25.02,5.57-50.12,8.69-75.14,3.03-24.28,6.64-48.5,9.79-72.76,2.49-19.17,4.56-38.4,7-57.57,3.18-24.97,6.62-49.9,9.81-74.87,2.45-19.18,4.6-38.39,7.01-57.57,2.54-20.18,5.32-40.34,7.86-60.52,2.37-18.84,5.4-37.65,6.67-56.57,2.53-37.96,5.93-75.73,12.46-113.29,7.03-40.39,16.3-80.08,29.55-118.89,13.69-40.09,32.23-77.7,58.1-111.25,7.96-10.32,19-18.27,30.58-29.13-28.69-2.97-53.99-4.58-78.18-13.35-47.75-17.32-82.76-49.18-106.99-93.13-22.28-40.39-33.35-84.2-38.06-129.92-2.17-21.1-4.09-42.14-4.17-63.37-.02-6.29,1.5-8.39,8.15-8.37,72.56.24,145.12.2,217.68.04,5.71-.01,7.91,1.29,7.89,7.51-.29,98.49-.36,196.97-.47,295.46-5.7-.51-6.9-5.4-8.75-9.36-31.83-68.16-46.17-140.83-55.19-214.86-.97-7.99-1.66-16-2.2-24.05-.52-7.7-.66-15.37-.83-23.06,1.52,67.03,2.1,98.67,18,161.22,7.56,29.73,19.01,57.87,33.05,85.05,1.29,2.49,2.61,4.96,3.66,7.56.92,2.27,2.01,4.84-.46,6.67-2.28,1.69-4.87.57-6.87-.77-6.16-4.12-11.05-9.62-15.89-15.16-44.45-50.86-68.39-111.1-80.67-176.63-3.94-21-7.1-42.12-7.57-63.55,2.01,57.77,7.27,117.19,39.68,177.1,13.45,24.86,29.55,47.58,50.43,66.79,2.92,2.69,8.56,5.86,5.84,9.85-3.03,4.44-8.39.67-12.23-1.3-42.42-21.77-74.63-54.27-98.04-95.42-26.91-47.31-42.84-98.02-44.61-152.77-.1-3.16-1.3-6.19-1.06-8.93,2.03,17.49,1.44,35.6,4.07,53.51,2.65,18.07,5.98,35.95,11.44,53.39,15.11,48.29,40.6,89.83,79.95,122.24,21.68,17.86,46.6,29.67,73.15,38.27,13.44,4.36,14.78,6.94,8.03,19.48-45.4,84.29-71.54,174.71-84.74,269.04-6.89,49.25-10.91,98.86-15.99,148.34-5.11,49.82-10.33,99.63-15.59,149.44-6.8,64.44-13.6,128.87-20.39,193.31-6.69,63.39-13.39,126.79-19.88,190.2-6.03,58.88-12.09,117.76-17.91,176.66-3.89,39.38-7.93,78.75-11.93,118.11-2.57,25.32-5.05,50.67-7.41,76.02-2.36,25.34-4.32,50.74-7.83,75.97-1.21,8.73,2.47,18.56-5.44,25.9Z"/>
  <path class="cls-2" d="M189.28,388.31c-.12-66.59-.25-133.19-.34-199.78-.04-29.8.19-59.59-.15-89.38-.08-6.9,1.16-9.7,8.99-9.67,71.16.31,142.33.17,213.49.21,4.26,0,9.06-1.58,9.14,6.13.69,64.33-7.93,127.02-36.2,185.43-20.45,42.26-51.54,75.31-94.62,95.52-21.92,10.28-44.95,17.13-69.54,18.05-7.75.29-15.44,2.78-24.9,1.54,41.34,37.38,65.53,83.28,84.08,132.76,15.63,41.67,25.35,84.95,33.2,128.52,4.57,25.4,7.54,51.23,9.26,77.16,2.03,30.65,4.98,61.24,9.89,91.66,4.02,24.86,5.66,50.1,8.85,75.11,3.84,30.08,8.37,60.08,12.28,90.15,2.49,19.18,4.21,38.47,6.62,57.67,3.1,24.63,6.64,49.2,9.8,73.82,2.47,19.17,4.58,38.4,7,57.58,2.54,20.18,5.33,40.34,7.89,60.52,2.35,18.49,4.44,37.02,6.83,55.51,3.35,25.99,7.06,51.93,10.26,77.93,3.12,25.37,5.52,50.83,8.73,76.19,3.07,24.27,6.96,48.43,10.12,72.69,2.5,19.18,4.26,38.46,6.67,57.66,3.08,24.63,6.57,49.21,9.71,73.84,2.49,19.52,4.64,39.08,7.1,58.61,2.5,19.84,5.22,39.65,7.8,59.49,2.31,17.79,4.6,35.58,6.8,53.38.62,4.98-3.09,4.54-6.24,4.52-16.82-.09-33.64-.22-50.46-.33-4.04-4.91-4.43-11.1-4.79-16.84-2.57-41.11-7.05-82.08-11.36-123-9.16-87.02-17.51-174.11-26.55-261.14-9.44-90.94-18.78-181.88-28.22-272.82-7.92-76.31-16.22-152.57-24.32-228.86-8.14-76.63-15.22-153.38-23.94-229.95-9.57-83.99-29.8-165.26-64.07-242.8-7.37-16.67-15.19-33.07-24.29-48.88-5.81-10.08-4.4-13.98,7.32-17.52,27.87-8.42,53.09-21.7,75.78-39.83,34.67-27.71,57.57-63.75,73.09-104.77,10.86-28.68,17.14-58.35,19.11-89.09.76-11.78,1.91-23.61,2.64-31.83-1.22,38.99-10.49,79.89-26.44,119.29-23.22,57.38-59.86,103.4-114.41,134.1-4.27,2.4-8.43,5.06-13.31,6.12-1.72.37-3.62.56-4.89-.93-1.81-2.12-.05-3.9,1.04-5.55,1.16-1.76,2.83-3.1,4.38-4.52,55.51-50.66,80.57-115.71,89.47-188.54,2.47-20.2,1.97-40.53,3.87-62.96-2.97,68.45-18.12,131.46-49.6,190.08-14.01,26.09-31.62,49.6-53.31,69.92-1.8,1.69-3.67,3.37-6.08,4.03-4.05,1.11-6.41-.02-4.85-4.67,1.22-3.66,3.16-7.04,5.01-10.41,28.19-51.25,41.83-106.82,48.05-164.42,3.09-28.6,5.12-57.34,4.5-76.95-5.25,75.1-18.17,157.81-50.8,236.41-3.59,8.65-5.85,18.61-15.13,23.85Z"/>
  <path class="cls-2" d="M321.45,1830.77h-69.43c-3.79-4.55-4.39-10.14-5.03-15.7-.2-1.74-.17-3.5-.11-5.25,1.43-39.93-1.46-79.8-2.65-119.65-1.85-61.89-4.86-123.75-6.82-185.65-1.18-37.08-2.61-74.17-4.12-111.25-2.23-54.92-4.16-109.85-6.37-164.77-2.01-50.02-4.03-100.04-6.29-150.05-2.83-62.6-5.57-125.2-8.45-187.8-2-43.36-3.76-86.75-6.31-130.07-3.5-59.4-5.76-118.85-9.08-178.25-1.26-22.64-1.62-45.48-3.09-68.09-1.9-29.33-1.32-58.72-3.61-88-.26-3.39-.9-7,1.15-10.6,6.11,1.83,5.56,7.71,6.37,11.86,4.48,22.97,9.09,45.93,12.95,69.01,8.35,49.94,16.89,99.87,23.11,150.14,6.63,53.54,11.96,107.2,16.05,161.01,4.15,54.46,7.74,108.96,11.7,163.44,3.25,44.69,6.36,89.41,9.35,134.13,2.94,44.01,6.19,88.01,9.58,131.99,3.26,42.24,5.92,84.53,9.16,126.77,3.28,42.94,6.38,85.89,9.66,128.83,3.23,42.23,6.5,84.47,9.29,126.74,2.41,36.59,5.03,73.18,8.07,109.71,2.43,29.19,3.96,58.49,7.72,87.58.61,4.73,1.2,9.9-2.8,13.92Z"/>
  <path class="cls-2" d="M893.57,1830.77h-71.53c-2.8-2.79-2.59-6.19-2.29-9.79,1.95-23.31,3.56-46.65,5.75-69.93,2.93-31.24,5.27-62.54,7.61-93.81,2.21-29.65,4.05-59.35,6.25-89.01,3.19-42.95,6.5-85.89,9.7-128.83,2.42-32.47,4.7-64.96,7.15-97.43,3.37-44.69,6.38-89.4,9.71-134.1,2.45-32.82,4.67-65.66,7.02-98.49,2.58-35.97,5.24-71.93,7.73-107.91,2.25-32.49,4.62-64.96,6.86-97.45,3.15-45.76,6.41-91.52,10.14-137.24,4.73-57.99,11.5-115.73,20.19-173.24,7.76-51.39,16.31-102.65,26.39-153.63,1.51-7.61.47-16.21,7.29-22.75,5.22,6.53,2.84,13.72,2.72,20.39-.38,20.61-1.98,41.18-3.03,61.76-1.96,38.38-4.13,76.76-5.7,115.16-1.83,44.77-4.08,89.53-6.46,134.26-2.68,50.34-4.92,100.7-7.46,151.04-1.92,38.1-3.32,76.26-5.07,114.38-1.87,40.56-2.74,81.17-5.62,121.69-1.29,18.16-1.44,36.41-2,54.58-1.37,44.8-3.44,89.58-5.17,134.36-1.73,44.76-2.51,89.58-5.41,134.31-1.47,22.7-1.75,45.51-2.24,68.24-1.2,54.96-4.66,109.82-5.82,164.79-.44,20.58.09,41.32-1.81,61.82-2.07,22.4-1.47,44.75-1.86,67.13-.06,3.52-.12,7.06-3.01,9.72Z"/>
  <path class="cls-2" d="M399.27,1830.77h-75.74c-1.76-17.33-2.94-34.71-4.16-52.08-2.32-33.07-4.64-66.14-6.88-99.21-1.91-28.26-3.65-56.56-5.26-84.85-2.3-40.53-4.93-81.05-7.62-121.56-1.72-25.85-3.18-51.71-4.86-77.57-2.56-39.47-5.17-78.94-7.77-118.41-2.3-34.93-4.64-69.86-7.12-104.78-3.16-44.35-5.9-88.72-9.51-133.04-2.53-31.05-4.51-62.15-6.94-93.22-3.42-43.63-6.82-87.27-10.22-130.9-4.85-62.21-12.31-124.1-21.28-185.82-10.05-69.11-22.19-137.85-36.54-206.2-.75-3.59-2.75-7.36.1-11.61,4.94.85,5.62,5.52,7.27,8.85,23.58,47.46,40.93,97.14,54.56,148.35,15.95,59.92,22.44,121.1,28.02,182.56,6.36,70.11,12.9,140.21,19.94,210.26,7.82,77.73,16.12,155.41,24.31,233.09,8.26,78.39,17.03,156.74,25.79,235.08,7.94,71.01,16.32,141.97,24.24,212.99,4.25,38.12,8.24,76.28,12.91,114.36,2.89,23.53,5.01,47.19,7.71,70.77.13,1.12-.47,2.01-.95,2.93Z"/>
  <path class="cls-2" d="M819.95,1830.77c-25.25,0-50.49,0-75.74,0,3.51-44.87,9.09-89.54,13.97-134.27,10.27-93.92,21.6-187.72,32.04-281.61,9.57-85.99,19.19-171.98,28.21-258.04,8.22-78.38,16.71-156.74,24.43-235.17,5.56-56.46,11.32-112.91,15.54-169.49,6.75-90.49,21.67-179.21,53.57-264.59,9.69-25.94,21.58-50.87,33.5-75.8.86-1.8,2.03-3.41,3.2-4.76,3.65,1.61,3.63,4.1,3.01,6.46-12.96,48.92-20.89,98.88-29.23,148.67-10.29,61.44-19.28,123.13-25.46,185.18-6.83,68.64-11.64,137.45-17.02,206.21-4.91,62.82-9.44,125.66-13.89,188.51-4,56.56-7.66,113.15-11.37,169.73-3.19,48.54-6.47,97.09-9.59,145.63-2.54,39.46-4.76,78.96-7.17,118.43-2.48,40.45-4.86,80.92-8.09,121.33-1.61,20.17-2.32,40.5-3.94,60.68-1.95,24.29-1.56,48.8-5.99,72.88Z"/>
  <path class="cls-1" d="M399.27,1830.77c-3.51-28.99-6.91-58-10.56-86.98-4.04-32.05-8.53-64.04-12.42-96.11-2.53-20.87-4.09-41.86-6.54-62.75-3.21-27.31-7.74-54.49-10.04-81.87-1.79-21.33-4.84-42.49-6.86-63.78-2.12-22.24-6-44.31-7.92-66.56-1.25-14.45-2.91-28.83-4.56-43.23-2.78-24.28-5.71-48.54-8.26-72.85-2.37-22.65-4.09-45.37-6.53-68.02-2.47-22.91-6.42-45.7-7.92-68.67-1.09-16.59-3.17-33.04-4.88-49.51-2.42-23.26-4.73-46.54-7.6-69.77-2.03-16.4-3.12-33.01-4.84-49.5-2.76-26.39-4.85-52.84-7.86-79.21-1.99-17.47-2.96-35.13-4.69-52.68-2.78-28.14-5.64-56.27-8.29-84.43-1.62-17.21-2.5-34.49-4.43-51.65-2.86-25.54-6.75-50.92-12.45-76.04-8.76-38.59-18.18-76.98-31.62-114.25-9.93-27.54-20.79-54.71-36.03-80.21,2.2,10.46,4.4,20.92,6.61,31.38,8.43,39.8,16.25,79.7,23.4,119.77,6.98,39.16,12.23,78.57,18.3,117.85,4.26,27.56,5.82,55.53,8.78,83.3,3.66,34.39,6.32,68.84,8.73,103.34,1.83,26.2,4.22,52.37,6.08,78.59,2.3,32.39,5.78,64.69,8.1,97.08.79,11.05,1.29,22.13,2.11,33.2,2.79,37.96,4.39,76.01,8.44,113.89,1.18,11,.82,22.11,1.89,33.22,2.54,26.58,2.62,53.39,4.72,80.03,2.62,33.18,4.55,66.38,6.44,99.61,1.22,21.44,2.89,42.86,4.2,64.3,2.12,34.61,4.49,69.19,6.33,103.82,1.21,22.84,2.94,45.65,4.17,68.51,2.04,38.11,4.7,76.19,6.37,114.33,1.11,25.29,4.05,50.5,3.9,75.87-.7,0-1.39,0-2.09,0-2.06-33.11-4.7-66.16-8.2-99.16-1.06-9.96-1.5-20.07-1.98-30.05-1.52-31.86-5.33-63.51-7.05-95.36-1.49-27.6-4.39-55.15-6.11-82.79-1.95-31.35-5.69-62.59-8.11-93.92-1.87-24.2-2.58-48.49-4.4-72.7-2.48-33.08-5.67-66.1-8.2-99.18-.79-10.36-1.08-20.73-1.93-31.12-2.9-35.24-3.95-70.63-6.8-105.88-2.4-29.69-4.22-59.4-6.33-89.09-2.11-29.7-4.25-59.39-6.4-89.09-2.18-30.05-4.07-60.11-6.25-90.15-2-27.6-4.04-55.2-6.27-82.78-2.72-33.66-6.04-67.31-10.54-100.77-5.03-37.38-10.47-74.73-16.05-112.04-6.98-46.74-16.25-93.01-25.34-139.49,3.56,16.78.34,33.76,2.49,50.56.26,2.03,1.13,4.01,1.2,6.04.78,21.23.94,42.49,2.26,63.69,2.57,41.25,4.83,82.49,6.53,123.79,1.08,26.34,2.96,52.66,4.14,79.03,1.38,30.55,2.63,61.12,4.35,91.63,1.41,24.94,2.49,49.9,3.7,74.85,1.77,36.49,3.45,72.98,4.7,109.5,1.06,30.89,2.78,61.79,4.1,92.7,1.5,35.1,2.77,70.22,4.47,105.3.71,14.57.7,29.18,1.56,43.74,2.3,39.28,3.07,78.62,4.76,117.91.72,16.68.54,33.39,1.57,50.05,2.54,41.38,3.05,82.83,4.75,124.22.76,18.44-.18,36.97,1.74,55.29,2.49,23.7.08,47.53,2.38,71.03,1.74,17.83.24,35.55,1.73,53.22,2.38,28.23,1.94,56.48,1.98,84.74,0,5.53,3.43,10.6,2.11,16.29-.7,0-1.39,0-2.09,0-5.32-3.69-5.61-9.33-5.83-15-2.29-58.04-6.21-115.99-8.93-174.01-2.57-54.86-5.49-109.72-8.27-164.57-3.01-59.4-5.94-118.8-8.5-178.23-1.99-46.14-4.22-92.27-6.22-138.41-2.21-51.04-4.33-102.07-6.39-153.11-2.11-52.44-4.21-104.88-6.22-157.32-2.29-59.79-4.74-119.57-6.32-179.39-1.09-41.29-1.45-82.58-2.5-123.86-.69-26.92.36-53.86-1.46-80.75v-77.81c17.55-31.09,27.81-65.01,37.22-99.08,10.21-36.99,15.65-75.01,21.13-112.93,3.1-21.4,4.55-43.03,8.03-64.34,4.79,95.5-8.28,187.32-56.52,272.06,38.87-34.22,64.79-76.92,82.44-125.33,17.32-47.48,24.69-96.93,29.98-146.84,4.94,103.71-16.9,197.66-97.55,268.66,76.69-30.5,147.22-121.29,156.44-270.97,4.15,15.04,3.5,27.32,2.31,40.2-1.68,18.2-3.11,36.33-7.15,54.19-8.69,38.41-23.9,73.86-46.75,106.12-20.6,29.09-47.63,50.54-78.58,67.16-13.45,7.23-28.12,12.26-42.97,16.2-5.44,1.44-5.85,3.16-3.07,7.79,9.5,15.85,17.21,32.59,24.92,49.4,18.27,39.82,32.1,81.09,43.33,123.33,8.18,30.75,14.81,61.84,18.92,93.4,4.48,34.45,8.76,68.94,12.56,103.47,2.64,24.03,4.01,48.19,6.51,72.23,3.14,30.13,6.98,60.18,10.28,90.29,1.73,15.79,2.55,31.68,4.45,47.45,2.8,23.23,4.86,46.53,7.77,69.76,1.92,15.36,3.21,30.9,4.78,46.36,2.5,24.66,5.09,49.31,7.91,73.95,1.88,16.43,3.1,33.02,4.77,49.52,2.43,23.97,6.08,47.84,7.86,71.85,1.18,15.87,3.2,31.61,4.72,47.42,2.4,25.02,5.06,50.02,7.93,75,1.81,15.75,3.13,31.61,4.57,47.44,2.34,25.74,4.97,51.43,8.25,77.07,2.19,17.13,2.74,34.46,4.52,51.65,2.62,25.35,4.49,50.77,8.03,76.05,2.39,17.09,2.79,34.45,4.6,51.64,2.77,26.39,4.7,52.86,7.82,79.23,1.29,10.88,2.82,21.98,2.63,33.09h-2.09Z"/>
  <path class="cls-1" d="M819.95,1830.77c1.4-31.25,2.22-62.53,4.4-93.72,1.67-23.88,2.91-47.77,4.28-71.66,2.09-36.36,4.52-72.69,6.34-109.08,1.11-22.13,2.75-44.27,4.2-66.4,2.17-33.2,4.24-66.4,6.27-99.62,1.31-21.44,2.83-42.87,4.23-64.3,2.08-31.8,4.14-63.61,6.34-95.4,2.08-30.05,4.04-60.11,6.24-90.15,2.18-29.7,4.33-59.38,6.33-89.09,1.9-28.3,4.21-56.59,6.3-84.88,2.73-36.91,5.61-73.82,8.46-110.72,2.47-32.01,4.85-64.09,8.44-95.98,3.53-31.39,7.42-62.77,11.72-94.09,4.11-29.93,8.51-59.82,13.41-89.61,5.83-35.42,12.96-70.62,19.93-105.85,4.08-20.66,8.93-41.17,12.86-61.96-11,22.17-21.83,44.37-30.59,67.5-14.75,38.96-26.03,79-35.28,119.54-5.94,26.02-10.8,52.29-13.61,78.95-3.08,29.17-5.66,58.37-8.41,87.57-3.6,38.15-7.21,76.29-10.63,114.46-2.55,28.5-5.38,57-8.23,85.48-3.67,36.65-8.48,73.18-12.39,109.81-2.52,23.69-3.94,47.49-6.5,71.17-3.88,35.93-8.51,71.78-12.45,107.7-3.12,28.45-5.41,56.99-8.58,85.44-3.12,28.02-7.13,55.95-10.29,83.97-2.51,22.28-3.97,44.69-6.54,66.96-3.08,26.62-7.78,53.09-10.03,79.77-1.8,21.33-4.84,42.49-6.86,63.78-1.95,20.5-5.43,40.86-7.92,61.31-2.42,19.83-4.28,39.73-6.68,59.56-2.52,20.8-5.28,41.57-8.19,62.32-.8,5.74,1.79,11.94-2.29,17.23-.7,0-1.39,0-2.09,0,2.1-21.95,4.06-43.91,6.34-65.84,2.6-25,5.68-49.96,8.2-74.97,1.77-17.54,2.68-35.17,4.44-52.71,2.51-25.01,6.07-49.93,7.98-74.98,1.24-16.21,2.93-32.34,4.57-48.5,2.57-25.36,4.8-50.74,7.96-76.05,1.96-15.71,3.14-31.61,4.6-47.43,2.37-25.73,5.64-51.38,7.99-77.09,1.54-16.85,3.6-33.67,4.93-50.56,1.86-23.65,5.41-47.17,8.01-70.77,1.67-15.09,2.8-30.25,4.41-45.35,2.66-25,5.61-49.96,8.24-74.96,1.63-15.45,2.57-30.98,4.43-46.4,2.83-23.57,4.93-47.23,7.79-70.8,1.87-15.37,3.14-30.91,4.78-46.36,2.68-25.34,6.15-50.63,8.03-76.03,1.12-15.18,3.14-30.22,4.51-45.34,2.34-25.73,5.58-51.38,8.1-77.07,2.92-29.79,7.11-59.32,13.06-88.61,8.7-42.83,20.81-84.72,35.74-125.81,11.83-32.54,27.25-63.43,43.14-94.08,3.04-5.86.88-7.18-4.08-8.56-33.5-9.33-63.38-24.85-89.21-48.75-42.57-39.39-66.9-88.16-78.43-144.27-2.56-12.46-5.02-24.97-5.82-37.54-1.06-16.6-.26-33.33.53-50.05,3.47,27.91,6.93,55.78,14.03,82.96,11.78,45.09,30.54,86.68,60.6,123.03,22.37,27.05,49.55,47,83.39,63.61-81.42-74.67-102.77-167.93-98.11-270.31,3.61,8.96,3.11,18.89,4.09,28.27,3.92,37.61,10.62,74.58,22.85,110.32,13.83,40.4,32.77,78.08,61.64,110.3,15.38,17.16,14.87,17.62,23.29,20.82-48-83.8-60.7-174.64-56.38-269.4,7.12,10.41,3.95,22.43,5.27,33.28,4.88,40.21,10.59,80.14,19.11,119.8,9.36,43.62,23.34,85.42,42.42,125.62.41.86,1.17,1.55,1.77,2.32v21.02c-1.04,2.34-.74,4.83-.69,7.26.7,40.28-.96,80.54-1.26,120.81-.31,42-1.03,84.02-2.61,125.98-2.19,58.41-4.1,116.83-6.3,175.23-2.01,53.51-4.16,107.01-6.35,160.51-2.04,49.65-4.03,99.31-6.28,148.94-2.14,47.2-4.03,94.4-6.31,141.59-2.85,59.07-5.6,118.15-8.44,177.22-2.64,54.87-5.45,109.75-8.41,164.6-2.83,52.41-5.87,104.81-8.28,157.25-.43,9.43-2.13,18.79-2.14,28.27,0,3.53-.73,7-3.58,9.56-.7,0-1.39,0-2.09,0,0-19.27-.83-38.59.16-57.81,2.3-44.54,2.86-89.13,4.62-133.66.81-20.54.23-41.11,1.6-61.6,2.65-39.62,3.07-79.3,4.46-118.95,1.32-37.55,2.81-75.1,4.2-112.65,1.34-36.15,2.85-72.29,4.22-108.44,1.26-33.34,2.88-66.68,4.2-100.04,1.32-33.34,2.87-66.69,4.23-100.03,1.23-30.19,2.92-60.37,4.17-90.58,1.28-30.89,2.86-61.78,4.24-92.67,1.29-28.79,2.86-57.57,4.18-86.37,1.31-28.79,2.85-57.57,4.22-86.37,1.27-26.69,2.8-53.37,4.18-80.06,1.39-26.69,2.91-53.37,4.23-80.06,1.25-25.29,3.55-50.51,4.12-75.87.2-8.88,2.98-17.7.19-26.89-5.75,33.28-11.59,66.55-17.24,99.85-4.98,29.37-10.2,58.72-14.45,88.2-3.54,24.51-5.78,49.22-8.71,73.82-2.68,22.53-5.69,45.03-8.2,67.59-1.03,9.27-.96,18.62-1.92,27.96-2.49,24.12-2.65,48.47-4.71,72.65-2.56,30.02-4.25,60.09-6.48,90.12-2.2,29.69-4.06,59.4-6.21,89.08-2.17,30.04-4.31,60.08-6.43,90.12-2.02,28.64-4.05,57.29-6.18,85.93-2.98,40.05-5.82,80.1-8.57,120.16-1.87,27.24-4.12,54.48-6.08,81.73-2.33,32.38-5.72,64.68-8.21,97.05-1.81,23.5-2.54,47.08-4.39,70.58-2.44,30.97-6.45,61.85-7.97,92.86-1.06,21.83-3.38,43.53-4.78,65.31-1.96,30.62-5.38,61.14-8.13,91.71-.22,2.43-.06,4.9-.08,7.35h-2.09Z"/>
  <path class="cls-2" d="M895.66,1830.77c-.21-34.1,3.75-68.02,4.63-102.1.66-25.61,2.74-51.25,4.06-76.88,2.15-41.6,4.66-83.16,6.38-124.79,1.14-27.73,2.86-55.45,4.16-83.19,1.44-30.53,2.85-61.07,4.24-91.6,1.29-28.43,2.98-56.85,4.16-85.3,1.39-33.34,2.89-66.67,4.26-100.01,1.16-28.08,3.19-56.13,4.01-84.26,1.14-38.95,3.16-77.87,4.45-116.82,1.14-34.39,2.82-68.77,4.13-103.16,1.52-39.99,2.71-80,4.48-119.97.79-17.73.49-35.48,1.56-53.18,2.68-44.51,2.92-89.11,4.76-133.62.86-20.89-.39-41.88,1.76-62.62,2.61-25.1,1.33-50.17,1.87-75.25.04-1.69-.29-3.55,1.73-4.48.12,4.2.34,8.4.34,12.59.02,463.63.02,927.27-.02,1390.9,0,16.32,2.22,13.94-13.67,14.04-15.76.1-31.53-.19-47.29-.3Z"/>
  <path class="cls-2" d="M189.28,466.12c2.02.93,1.79,2.8,1.72,4.48-1.46,32.83,2.25,65.55,2.13,98.36-.11,28.95,1.77,57.87,2.76,86.77.68,19.82.23,39.7,1.52,59.49,2.54,38.91,3.11,77.88,4.47,116.83,1.26,36.14,2.82,72.28,4.2,108.42,1.33,34.74,2.85,69.48,4.19,104.22,1.25,32.64,2.89,65.27,4.2,97.91,1.28,31.94,2.89,63.87,4.22,95.81,1.26,30.54,2.92,61.06,4.2,91.61,1.25,29.83,2.92,59.66,4.21,89.51,1.21,27.73,2.9,55.45,4.2,83.2,1.33,28.43,2.87,56.86,4.22,85.3,1.28,27.03,2.93,54.05,4.19,81.1,1.22,25.98,2.89,51.95,4.22,77.94,1.27,24.93,3.47,49.82,3.97,74.81.06,2.98,1.32,5.94,2.02,8.9-17.87.12-35.74,0-53.6.48-6.24.17-8.17-2.19-7.43-7.9.18-1.38.02-2.8.02-4.2,0-447.51,0-895.02.01-1342.53,0-3.5.22-6.99.34-10.49Z"/>
</svg>