<?xml version="1.0" encoding="UTF-8"?>
<svg id="Layer_1" data-name="Layer 1" xmlns="http://www.w3.org/2000/svg" viewBox="0 0 1920 1080">
  <defs>
    <style>
      .cls-1 {
        fill: #393939;
      }

      .cls-1, .cls-2 {
        stroke-width: 0px;
      }

      .cls-2 {
        fill: #e84494;
      }
    </style>
  </defs>
  <path class="cls-2" d="M598.1,759.61c-88.96,0-177.91.17-266.87-.24-9.96-.05-12.45,2.66-12.28,12.44.61,35.17-.17,70.37.51,105.54.19,9.82-3.7,11.44-11.69,10.38-52.46-6.98-90.77-33.28-110.44-83.19-5.03-12.77-6.08-27.15-8.51-40.87-1.4-7.93,4.85-6.38,9.28-6.39,34.79-.06,69.6-.66,104.37.3,12.29.34,14.68-3.27,14.65-14.95-.4-177.11-.21-354.22-.45-531.33-.01-8.88,1.95-14.37,11.41-11.52,15.73,4.75,31.92,2.14,47.86,3.91,43.88,4.87,86.41,14.22,128.01,28.82,60.43,21.2,114.98,52.44,165.08,92.28,44.57,35.45,82.15,77.25,113.7,124.12,33.11,49.18,57.53,102.79,72.99,160.32,10.43,38.83,18.1,77.95,19.18,118.33.27,10.04,6.21,23.08.49,29.5-6.43,7.21-20.1,2.37-30.57,2.4-82.23.23-164.47.13-246.71.13Z"/>
  <path class="cls-2" d="M1603.09,479.61c0,88.19.24,176.39-.29,264.58-.07,11.34,3.48,13.48,13.84,13.3,34.79-.61,69.61.19,104.41-.49,10.07-.2,11.02,4.1,10.04,11.88-3.43,27.2-12.75,51.8-30.46,73.16-19.77,23.84-45.18,38.14-75.21,43.04-24.49,3.99-24.68,2.79-24.68-22.42,0-30.06-.44-60.12.25-90.16.23-10.15-2-13.18-12.81-13.15-156.62.41-313.25.28-469.87.28-21.75,0-43.51-.26-65.26.15-7.35.14-10.55-1.39-10.15-9.63,3.2-65.67,13.79-129.78,37.82-191.35,14.77-37.84,32.51-74.27,55.23-107.79,27.92-41.2,60.03-78.88,97.96-111.76,40.69-35.27,85.05-64.32,133.57-87.22,43.75-20.65,89.65-34.64,137.3-42.92,24.67-4.29,49.41-7.9,74.57-7.13.4.01.79.02,1.19-.01q22.56-1.68,22.56,21.38v256.27Z"/>
  <path class="cls-1" d="M348.19,709.04c85.16-127.26,172.41-252.78,265.83-373.94-81.41,128.62-168.34,253.46-258.05,376.59,113.23-102.2,228.76-201.44,349.65-298.64-4.75,11.96-157.55,144.95-171.13,156.97-57.14,50.58-116.27,98.82-174.31,148.73,134.23-64.36,269.19-126.75,407.17-182.45-133.56,69.52-270.49,131.86-408.85,191.51,147.16-28.67,294.8-53.81,443.79-70.93-28.19,5.77-56.34,11.78-84.59,17.24-37.88,7.32-75.76,14.67-113.79,21.18-40.4,6.92-80.96,12.93-121.46,19.24-45.87,7.14-91.75,14.14-137.62,21.27-9.65,1.5-12.95-1.65-11.28-11.27,4.21-24.22,4.53-48.82,7.06-73.2,2.89-27.82,6.25-55.59,9.19-83.4,1.88-17.82,3.07-35.71,5.07-53.52,2.69-23.89,5.97-47.72,8.83-71.6,1.94-16.21,3.31-32.49,5.4-48.68,3.54-27.27,7.46-54.49,11.2-81.74,3.38-24.56,6.75-49.13,10.08-73.7.48-3.57-1.36-7.99,4.03-9.83-12.85,160.49-31.42,320.21-53.55,479.52,49.97-150.33,103.63-299.13,163.16-445.85-23.45,75.43-48,150.46-74.65,224.85-26.52,74.02-53.86,147.73-81.18,221.64Z"/>
  <path class="cls-1" d="M1561.42,727.84c-138.23-59.58-275.12-122.05-409.36-190.22.41-.94.82-1.88,1.22-2.82,45,19.38,90.16,38.4,134.96,58.25,45.79,20.29,91.41,41.03,136.77,62.27,44.91,21.03,89.41,42.93,134.82,63.31-117.22-97.49-232.54-196.84-343.14-301.58,119.37,93.86,234.36,192.85,347.31,294.57-89.56-122.57-176.08-247.04-257.2-375.24,31.62,39.45,61.83,79.9,90.75,121.33,29.2,41.81,59.59,82.8,88.45,124.84,28.77,41.9,56.29,84.66,85.66,126.45-56.09-147.4-108.92-295.8-155.65-446.31,59.58,146.49,113.04,295.19,163.1,445.37-22.55-159.06-40.27-318.67-53.75-479.7,8.03,5.59,4.37,14.15,5.59,20.39,4.75,24.31,7.11,49.08,10.46,73.66,3.77,27.63,7.88,55.22,11.44,82.88,2.83,21.96,4.96,44.02,7.55,66.01,3.04,25.82,6.99,51.56,9.09,77.46,1.45,17.88,3.25,35.7,5.1,53.53,3.25,31.34,6.47,62.69,9.34,94.07.99,10.87-.49,21.9,2.44,32.71,1.63,6.01-2.24,7.57-7.46,6.82-18.78-2.71-37.56-5.41-56.32-8.21-23.73-3.54-47.45-7.15-71.17-10.77-27.54-4.2-55.12-8.13-82.59-12.76-28.93-4.88-57.75-10.37-86.59-15.72-40.21-7.46-80.42-14.97-120.6-22.59-14.66-2.78-29.25-5.93-43.64-10.23,148.66,18.34,296.2,43.46,443.4,72.23Z"/>
</svg>