<?xml version="1.0" encoding="UTF-8"?>
<svg id="Layer_1" data-name="Layer 1" xmlns="http://www.w3.org/2000/svg" viewBox="0 0 1920 1080">
  <defs>
    <style>
      .cls-1 {
        fill: #393939;
      }

      .cls-1, .cls-2 {
        stroke-width: 0px;
      }

      .cls-2 {
        fill: #e74393;
      }
    </style>
  </defs>
  <path class="cls-2" d="M983.8,772.96c-291.62,0-583.24-.14-874.86.4-15.29.03-18.41-4.19-18.07-18.55,1-41.56.71-83.17.1-124.75-.15-10.5,3.06-12.95,13.17-12.89,75.84.41,151.68-.07,227.52.52,12.21.09,15.53-3.09,15.29-15.3-.79-41.57.02-83.17-.53-124.75-.14-10.15,2.46-13.22,12.92-13.14,65.56.48,131.13,0,196.69.48,10.63.08,14.25-2.17,14.04-13.55-.74-41.08,0-82.19-.5-123.29-.12-9.81,1.92-13.38,12.68-13.36,267.65.3,535.29.3,802.94,0,10.65-.01,12.88,3.37,12.76,13.29-.52,41.09.22,82.2-.5,123.29-.2,11.26,3.21,13.72,13.96,13.64,64.09-.5,128.2.05,192.29-.53,11.61-.11,14.7,3.07,14.51,14.57-.7,41.58.11,83.18-.53,124.75-.17,10.87,2.58,13.96,13.71,13.88,76.82-.51,153.64-.05,230.46-.51,11.17-.07,14.99,2.35,14.77,14.31-.79,42.06-1.01,84.17.09,126.21.37,13.93-4.58,15.55-16.57,15.54-230.46-.33-460.91-.24-691.37-.24-61.65,0-123.3,0-184.95,0Z"/>
  <path class="cls-1" d="M375.09,618.78c25.33.83,50.21-5,75.57-4.63,35.01.51,70.12-1.44,104.99-3.5,32.66-1.93,65.33.63,97.73-2.4,51.17-4.78,102.41-.16,153.49-2.84,112.78-5.92,225.62-2.98,338.37-1.76,50.63.55,101.49-1.24,151.96,2.61,33.17,2.53,66.22.34,99.21,2.49,50.43,3.28,100.91,4.43,151.37,6.32,15.77.59,31.81,1.66,47.76,3.28-11.99,2.36-23.67,5.52-36.11,5.04-37.5-1.43-74.96,2.09-112.33,3.74-29.18,1.29-58.5-.73-87.44,2.36-41.89,4.47-83.79.93-125.62,2.66-159.23,6.57-318.53,2.28-477.78,1.96-40.77-.08-81.93,1.01-122.61-2.57-31.2-2.75-62.31-.52-93.33-2.61-47.01-3.18-94.03-5.18-141.13-5.69-8.14-.09-15.56-4.64-24.09-4.44Z"/>
  <path class="cls-1" d="M614.1,470.04c10.11-4.48,19.37-5.25,29.03-5.46,60.28-1.31,120.55-4.08,180.77-6.46,102.6-4.05,205.15-1.67,307.69-1.35,27.54.09,55.42.33,83.05,2.2,41.15,2.78,82.28,5.79,123.55,5.66,5.99-.02,10.2,5.45,16.57,4-13.62,3-27.51,3.98-40.66,4.11-28.75.27-57.32,3.03-85.97,4.15-48.25,1.89-96.63.1-144.69,3.16-59.09,3.75-118.14,3.13-177.03,1.38-39.45-1.17-78.95.17-118.3-2.28-43.61-2.71-87.25-4.2-130.87-6.25-13.81-.65-27.93-1.44-43.14-2.86Z"/>
</svg>