<?xml version="1.0" encoding="UTF-8"?>
<svg id="Layer_1" data-name="Layer 1" xmlns="http://www.w3.org/2000/svg" viewBox="0 0 229.92 229.93">
  <defs>
    <style>
      .cls-1 {
        fill: #6e0a30;
      }

      .cls-2 {
        fill: #1d0f14;
      }

      .cls-3 {
        fill: #9fcc44;
      }

      .cls-4 {
        fill: none;
        stroke: #000;
        stroke-linecap: round;
        stroke-linejoin: round;
        stroke-width: .67px;
      }

      .cls-5 {
        fill: #e94296;
      }

      .cls-6 {
        fill: #ffd695;
      }

      .cls-7 {
        fill: #1a4f27;
      }

      .cls-8 {
        fill: #fbf9dc;
      }
    </style>
  </defs>
  <g>
    <g>
      <path class="cls-7" d="M223.37,121.09s.05-.03.07-.05c.55-.45,1.1-.91,1.63-1.39.56-.48,1.11-.98,1.66-1.48.55-.49,1.08-1.02,1.62-1.52.53-.52,1.06-1.04,1.58-1.58,0,13.36-2.3,26.18-6.5,38.11-7.26-3.13-15.28-4.87-23.71-4.87-1.39,0-2.77.05-4.13.15-4.67-5.01-11.11-8.34-18.33-8.99,1.3-.09,2.61-.21,3.89-.36.53-.07,1.07-.13,1.6-.2.39-.05.78-.11,1.16-.17.45-.07.91-.13,1.35-.21.53-.08,1.07-.17,1.59-.28,1.06-.2,2.1-.41,3.13-.66,1.36-.31,2.71-.66,4.05-1.04.6-.16,1.19-.35,1.79-.53.6-.19,1.19-.37,1.78-.57.59-.19,1.18-.4,1.77-.62,5.43-1.97,10.59-4.49,15.42-7.51,1.24-.79,2.47-1.59,3.66-2.45.43-.29.84-.6,1.26-.91.43-.29.84-.62,1.26-.94.4-.31.8-.62,1.2-.94s.8-.64,1.2-.98Z"/>
      <path class="cls-8" d="M223.37,121.09c-.4.33-.8.66-1.2.98s-.8.63-1.2.94c-.41.32-.83.64-1.26.94-.41.31-.83.62-1.26.91-1.19.86-2.42,1.66-3.66,2.45-4.83,3.02-9.99,5.55-15.42,7.51-.59.21-1.18.41-1.77.62s-1.18.39-1.78.57c-.59.19-1.19.36-1.79.53-1.34.39-2.69.74-4.05,1.04-1.03.24-2.07.45-3.13.66-.52.11-1.06.2-1.59.28-.44.08-.9.15-1.35.21-.39.07-.78.12-1.16.17-.53.07-1.07.13-1.6.2-1.28.15-2.59.27-3.89.36-.03-.01-.04-.01-.07-.01h-.11c-.78-.07-1.58-.11-2.35-.11-.68,0-1.36.03-2.03.08-.67.04-1.34.12-1.98.2h-.01s-.05.01-.08.01c-.66-.01-1.32-.03-1.98-.04-.44-.03-.87-.04-1.3-.07-.27-.01-.53-.03-.8-.05-.41-.01-.84-.04-1.26-.08-.21-.01-.44-.03-.66-.05-.49-.04-.98-.08-1.46-.13-.62-.07-1.22-.13-1.83-.21-2.3-.28-4.57-.67-6.81-1.15-.71-.15-1.42-.31-2.13-.48-.74-.19-1.48-.37-2.23-.59-.6-.16-1.19-.33-1.78-.51-.47-.13-.94-.28-1.4-.44-1.15-.36-2.29-.75-3.42-1.16-.53-.2-1.07-.4-1.6-.62-.16-.07-.33-.13-.51-.2,1.3-12.33,7.84-23.11,17.36-30.06-.84,2.33-1.3,4.84-1.3,7.46,0,12.18,9.87,22.06,22.05,22.06s22.05-9.88,22.05-22.06c0-5.25-1.82-10.07-4.89-13.85,11.94,3.66,21.65,12.4,26.65,23.69Z"/>
      <path class="cls-3" d="M223.42,153.17c-.72,2.05-1.5,4.08-2.34,6.07-.19.47-.39.94-.6,1.39-.28.7-.59,1.39-.91,2.07-.47,1.03-.95,2.06-1.46,3.08-4.8-2.07-10.03-3.36-15.51-3.69-1.06-5.2-3.54-9.89-7.02-13.64,1.36-.09,2.74-.15,4.13-.15,8.42,0,16.45,1.74,23.71,4.87Z"/>
      <path class="cls-1" d="M155.5,222.58c-1.06.4-2.13.78-3.2,1.15-.74.25-1.47.49-2.22.74-.08.03-.17.05-.27.08-.47.16-.95.31-1.43.45-1,.31-2.02.6-3.04.87-.96.27-1.94.52-2.91.76-1.83-5.75-2.82-11.87-2.82-18.23,0-8.93,1.94-17.38,5.44-25,.56-1.26,1.19-2.49,1.85-3.7,0,0,0-.01.01-.01.35-.67.74-1.32,1.11-1.97h.01c.53,1.46,1.19,2.87,1.97,4.21,4.89,8.57,14.13,14.35,24.72,14.35,2.73,0,5.38-.39,7.86-1.1h.01c6.27-1.81,11.66-5.72,15.35-10.91.45-.64.9-1.31,1.3-1.99,2.5-4.25,3.93-9.19,3.93-14.47,0-1.97-.2-3.88-.57-5.72,5.48.33,10.71,1.62,15.51,3.69-.09.19-.19.36-.28.55-.36.74-.74,1.46-1.11,2.17-.47.9-.96,1.79-1.46,2.67-.99,1.78-2.03,3.52-3.12,5.23-1.56,2.46-3.21,4.87-4.95,7.19-3.36,4.51-7.03,8.76-11,12.72-1.07,1.07-2.15,2.11-3.26,3.13-.52.49-1.07.99-1.6,1.47-.05.03-.09.07-.13.11-.55.48-1.1.96-1.64,1.43-1.3,1.11-2.61,2.18-3.94,3.22-.6.48-1.22.95-1.85,1.4-.44.35-.9.68-1.36,1.02-.32.23-.64.45-.96.68-3.26,2.31-6.63,4.47-10.12,6.42-.71.4-1.44.8-2.17,1.19-2.21,1.19-4.44,2.29-6.71,3.32-.7.32-1.39.63-2.1.94-.57.24-1.14.48-1.7.71-.37.16-.75.31-1.12.45-.68.28-1.35.53-2.02.79Z"/>
      <path class="cls-5" d="M202.6,162.09c.37,1.85.57,3.76.57,5.72,0,5.28-1.43,10.22-3.93,14.47-.4.68-.84,1.35-1.3,1.99-3.69,5.19-9.08,9.11-15.35,10.91h-.01c-2.49.71-5.13,1.1-7.86,1.1-10.59,0-19.83-5.78-24.72-14.35-.78-1.34-1.43-2.75-1.97-4.21-.44-1.16-.79-2.35-1.07-3.57-.47-2.05-.71-4.17-.71-6.34,0-.74.03-1.46.08-2.18.16-2.18.57-4.27,1.2-6.27h0c1.6-5.19,4.65-9.73,8.66-13.17,4.01-3.44,8.95-5.76,14.41-6.55h.09s.07-.01.09-.01c.29.03.57.03.86.03,1.82,0,3.64-.07,5.42-.2.04.01.07.01.11.01h.07c7.22.64,13.67,3.97,18.33,8.99,3.48,3.74,5.96,8.44,7.02,13.64Z"/>
      <path class="cls-5" d="M199.55,37.12c.82.88,1.6,1.77,2.39,2.67-1.32-.07-2.66-.09-4.01-.09-.4,0-.8,0-1.19.01-16.45.23-31.69,5.32-44.39,13.92h-.01c-14.87-1.62-28.05-8.84-37.39-19.52-9.23,10.56-22.22,17.74-36.89,19.46-12.84-8.64-28.25-13.73-44.87-13.85h-.01c-.21-.01-.43-.01-.64-.01-1.54,0-3.08.04-4.59.13.8-.92,1.6-1.83,2.45-2.73.98-1.07,1.98-2.11,3-3.14l.23-.23.03-.03c2.26-2.26,4.61-4.43,7.05-6.49,7.88,7.72,18.68,12.48,30.58,12.48,14.55,0,27.42-7.1,35.37-18.04,4.51-6.19,7.42-13.61,8.14-21.66h.36c.74,8.04,3.65,15.44,8.14,21.62,7.94,10.92,20.83,18.04,35.38,18.04,11.89,0,22.66-4.75,30.54-12.46,2.45,2.06,4.8,4.23,7.06,6.49.01.01.01.03.03.03l.25.25c1.03,1.03,2.03,2.09,3.01,3.16Z"/>
      <path class="cls-2" d="M196.72,97.4c3.08,3.78,4.89,8.6,4.89,13.85,0,12.18-9.87,22.06-22.05,22.06s-22.05-9.88-22.05-22.06c0-2.62.45-5.13,1.3-7.46h0c7.09-5.2,15.85-8.28,25.3-8.28,4.39,0,8.62.67,12.61,1.89Z"/>
      <path class="cls-1" d="M189.2,27.2c-7.88,7.72-18.65,12.46-30.54,12.46-14.55,0-27.44-7.11-35.38-18.04-4.49-6.18-7.41-13.59-8.14-21.62,4.71,0,9.35.29,13.89.86,22.78,2.78,43.52,12.22,60.17,26.34Z"/>
      <path class="cls-5" d="M177.18,139.45s.04,0,.07.01h-.07s-.07,0-.11-.01h.11Z"/>
      <path class="cls-5" d="M170.71,139.62h.09s-.07.01-.09.01h-.09s.05-.01.08-.01h.01Z"/>
      <path class="cls-7" d="M168.64,139.6c.66.01,1.32.03,1.98.04-5.47.79-10.4,3.12-14.41,6.55-4.01,3.44-7.06,7.98-8.66,13.16-1.04-1.38-2.03-2.77-2.96-4.23h-.01v-.03c-4.57-7.14-7.74-15.24-9.13-23.95.67.33,1.34.66,2.01.96.6.28,1.2.55,1.81.82.74.32,1.47.63,2.21.92.17.07.35.13.51.2.53.21,1.07.41,1.6.62,1.14.41,2.27.8,3.42,1.16.47.16.94.31,1.4.44.59.19,1.19.36,1.78.51.75.21,1.5.4,2.23.59.71.17,1.4.33,2.13.48,2.23.48,4.51.87,6.81,1.15.62.08,1.22.15,1.83.21.48.05.96.09,1.46.13.21.03.44.04.66.05.41.04.84.07,1.26.08.27.03.53.04.8.05.43.03.86.04,1.3.07Z"/>
      <path class="cls-5" d="M158.81,103.79c-9.52,6.95-16.06,17.73-17.36,30.06-.74-.29-1.47-.6-2.21-.92-.6-.27-1.2-.53-1.81-.82-.67-.31-1.34-.63-2.01-.96h-.01v-.03c.43-6.61,2.14-12.86,4.89-18.53h0c1.1-2.25,2.34-4.39,3.73-6.42.23-.33.47-.67.71-.99.25-.36.52-.72.79-1.07.01-.03.04-.05.05-.08.16-.2.31-.39.45-.59.01-.03.04-.04.05-.05.04-.07.09-.13.15-.19.15-.2.31-.39.48-.59h.01c.05-.08.11-.16.17-.23.11-.13.21-.27.33-.39.33-.4.7-.8,1.06-1.2.35-.4.72-.79,1.1-1.18.24-.24.48-.48.72-.72.4-.4.82-.8,1.23-1.19.75-.7,1.52-1.36,2.33-2.02.6-.48,1.2-.96,1.83-1.42.31-.24.63-.47.95-.68.57-.41,1.18-.82,1.78-1.2.01-.01.03-.03.05-.03.35-.24.72-.47,1.08-.68.4-.25.82-.49,1.23-.72.01-.01.04-.03.05-.03t.03-.01c.05-.03.11-.07.15-.09.12-.07.24-.13.35-.2.04-.01.07-.03.09-.04h.01c.87-.49,1.77-.95,2.66-1.36.24-.12.49-.23.75-.33,0-.01.01-.01.01-.01.19-.09.37-.17.56-.25.05-.01.09-.04.13-.05.16-.07.28-.13.43-.19.41-.17.83-.35,1.24-.51.44-.17.88-.33,1.34-.49.08-.04.17-.07.25-.09.43-.15.87-.29,1.31-.44.21-.07.43-.13.64-.2.04-.01.08-.03.13-.04.41-.12.84-.25,1.27-.36.19-.05.37-.11.56-.15.03-.01.05-.01.09-.03.01,0,.03-.01.05-.01h.03c.2-.05.4-.11.62-.16s.41-.11.63-.15c.05-.01.12-.03.17-.04.27-.07.52-.12.79-.17.01,0,.03,0,.04-.01.08-.01.17-.03.25-.04.08-.03.15-.04.23-.05.17-.03.33-.07.51-.09.23-.04.45-.08.7-.12.45-.08.91-.16,1.38-.21.47-.08.92-.13,1.39-.19.01-.01.03-.01.04-.01,1.87-.21,3.77-.32,5.71-.32,19.55,0,36.48,11.25,44.67,27.61l.03,2.98c-.52.53-1.04,1.06-1.58,1.58-.53.51-1.07,1.03-1.62,1.52-.55.51-1.1,1-1.66,1.48-.53.47-1.08.94-1.63,1.39-.01.03-.04.04-.07.05-5-11.3-14.71-20.03-26.65-23.69-3.98-1.22-8.22-1.89-12.61-1.89-9.45,0-18.21,3.08-25.3,8.26h0Z"/>
      <path class="cls-5" d="M127.44,162.37c.78-.19,1.56-.32,2.38-.39.45-.04.92-.05,1.39-.05,7.58,0,13.95,5.2,15.74,12.22.32,1.26.49,2.58.49,3.94h0s-.01.04-.03.08c0,.01-.01.01-.01.03-.83.41-14.32,7.05-32.44,7.05s-32.47-7.07-32.47-7.07c0-.03-.01-.05-.03-.07,0-1.36.17-2.7.49-3.96,0-.01.01-.03.01-.03,1.81-7.02,8.17-12.19,15.74-12.19.45,0,.91.01,1.35.07h0c.99.07,1.95.24,2.89.49,6.91,1.86,12.01,8.18,12.01,15.68,0-7.69,5.32-14.11,12.48-15.8Z"/>
      <path class="cls-1" d="M85.22,183.59c-.78-1.27-1.48-2.61-2.1-3.98-.21-.47-.43-.95-.62-1.43,0,0,13.75,7.07,32.47,7.07s31.61-6.63,32.44-7.05c-.19.47-.37.95-.6,1.42-5.44,12.15-17.65,20.63-31.84,20.63-12.6,0-23.61-6.66-29.75-16.66Z"/>
      <path class="cls-7" d="M145.05,183.4c-3.5,7.62-5.44,16.07-5.44,25,0,6.35.99,12.48,2.82,18.23-8.8,2.15-18,3.3-27.46,3.3s-18.67-1.15-27.46-3.3h0c1.83-5.75,2.82-11.87,2.82-18.23,0-8.8-1.89-17.14-5.3-24.67.07-.04.12-.09.19-.15,6.14,10,17.16,16.66,29.75,16.66,14.19,0,26.4-8.48,31.84-20.63.03.03.07.04.11.07-.01,0-.01.01-.01.01-.66,1.22-1.28,2.45-1.85,3.7Z"/>
      <path class="cls-6" d="M144.57,155.09h0s.01.03.01.03c.92,1.46,1.91,2.85,2.96,4.23h0c-.63,2.02-1.04,4.11-1.2,6.28-.05.72-.08,1.44-.08,2.18,0,2.17.24,4.29.71,6.34h-.01c-1.79-7.02-8.16-12.22-15.74-12.22-.47,0-.94.01-1.39.05-.82.07-1.6.2-2.38.39-7.05-12.07-11.08-26.1-11.08-41.09,0-28.16,14.28-52.99,35.98-67.65h.01c12.7-8.6,27.95-13.69,44.39-13.92.39-.01.79-.01,1.19-.01,1.35,0,2.69.03,4.01.09,5.51,6.36,10.34,13.34,14.35,20.82-5.84-1.78-12.05-2.74-18.47-2.74-1.6,0-3.18.07-4.76.17h-.01c-15.19,1.14-28.88,7.65-39.18,17.62-10.31,9.98-17.22,23.41-18.87,38.46-.25,2.29-.39,4.6-.39,6.95,0,3.42.28,6.78.8,10.04v.03h.01c1.39,8.7,4.56,16.81,9.13,23.95Z"/>
      <path class="cls-3" d="M140.32,112.59c-2.75,5.67-4.47,11.93-4.89,18.53-.52-3.26-.8-6.62-.8-10.04,0-2.35.13-4.67.39-6.95,1.64-15.04,8.56-28.48,18.87-38.46,10.3-9.98,23.99-16.49,39.18-17.62h.01c1.58-.11,3.16-.17,4.76-.17,6.42,0,12.62.96,18.47,2.74,8.28,15.39,13.13,32.88,13.6,51.47-8.2-16.37-25.12-27.61-44.67-27.61-1.94,0-3.84.11-5.71.32-.01,0-.03,0-.04.01-.47.05-.92.11-1.39.19-.47.05-.92.13-1.38.21-.24.04-.47.08-.7.12-.17.03-.33.07-.51.09-.08.01-.15.03-.23.05-.04,0-.09.01-.13.01-.04.01-.08.03-.12.03-.01.01-.03.01-.04.01-.27.05-.52.11-.79.17-.05.01-.12.03-.17.04-.21.04-.41.09-.63.15-.04.01-.09.03-.15.03-.16.04-.31.08-.47.12h0s-.01.01-.01.01h-.01s-.04.01-.05.01c-.04.01-.07.01-.09.03-.08.01-.16.04-.24.05-.12.04-.23.07-.32.09-.43.11-.86.24-1.27.36-.05.01-.09.03-.13.04-.21.07-.43.13-.64.2-.44.15-.88.29-1.31.44-.08.03-.17.05-.25.09-.39.13-.76.28-1.15.41-.05.03-.12.05-.19.08-.41.16-.83.33-1.24.51-.15.05-.27.12-.43.19-.04.01-.08.04-.13.05-.19.08-.37.16-.56.25,0,0-.01,0-.01.01-.25.11-.51.21-.75.33-.9.41-1.79.87-2.66,1.35h-.01s-.05.04-.09.05c-.11.07-.23.13-.35.2-.04.03-.09.07-.15.09t-.03.01s-.04.01-.05.03c-.41.23-.83.47-1.23.72-.36.21-.74.44-1.08.68-.03,0-.04.01-.05.03-.6.39-1.2.79-1.78,1.2-.32.21-.64.44-.95.68-.63.45-1.23.94-1.83,1.42-.8.66-1.58,1.32-2.33,2.02-.41.39-.83.79-1.23,1.19-.07.05-.12.12-.17.16-.19.19-.37.37-.55.56-.37.39-.75.78-1.1,1.18-.37.4-.72.8-1.06,1.2-.12.12-.23.25-.33.39-.07.08-.13.15-.19.23-.17.2-.33.39-.48.59-.05.05-.11.12-.15.19-.01.01-.04.03-.05.05-.15.2-.29.39-.45.59-.03.03-.05.05-.05.08-.27.35-.53.71-.79,1.07-.24.32-.48.66-.71.99-1.39,2.03-2.63,4.17-3.73,6.4h0Z"/>
      <path class="cls-7" d="M114.95,34.11c9.33,10.68,22.52,17.9,37.39,19.52-21.7,14.66-35.98,39.49-35.98,67.65,0,14.99,4.04,29.02,11.08,41.09-7.15,1.7-12.48,8.12-12.48,15.8,0-7.5-5.09-13.83-12.01-15.68,7.1-12.09,11.17-26.18,11.17-41.21,0-28.2-14.31-53.06-36.06-67.71,14.67-1.71,27.67-8.89,36.89-19.46Z"/>
      <path class="cls-1" d="M114.78,0c-.72,8.05-3.64,15.47-8.14,21.66-7.94,10.94-20.82,18.04-35.37,18.04-11.9,0-22.7-4.76-30.58-12.48C57.35,13.09,78.08,3.65,100.86.86c4.56-.56,9.21-.86,13.92-.86Z"/>
      <path class="cls-6" d="M114.12,121.28c0,15.03-4.06,29.12-11.17,41.21-.94-.25-1.9-.43-2.89-.51h0c-.44-.04-.9-.05-1.35-.05-7.57,0-13.93,5.17-15.74,12.19.45-2.03.7-4.13.7-6.3,0-.21,0-.43-.01-.64-.05-2.31-.37-4.55-.95-6.69,1.68-2.1,3.22-4.29,4.63-6.59.08-.13.16-.28.24-.41.29-.48.57-.95.84-1.44,1.04-1.85,1.98-3.73,2.82-5.68.25-.56.49-1.12.72-1.7.01-.01.01-.03.03-.04.24-.62.48-1.24.71-1.87,0-.01.01-.04.01-.05.24-.64.47-1.3.68-1.95,0-.01.01-.03.01-.04.19-.59.37-1.19.55-1.79.82-2.73,1.43-5.54,1.86-8.41h0v-.03h0c.47-3.08.71-6.22.71-9.4,0-2.25-.12-4.45-.35-6.63-3.2-30.65-28.28-54.77-59.34-56.47h-.03c-1.16-.08-2.33-.11-3.49-.11-6.97,0-13.68,1.14-19.95,3.22.48-.91.98-1.81,1.48-2.69,3.76-6.62,8.14-12.84,13.09-18.57,1.51-.09,3.05-.13,4.59-.13.21,0,.43,0,.64.01h.01c16.62.12,32.04,5.21,44.87,13.85,21.76,14.66,36.06,39.51,36.06,67.71Z"/>
      <path class="cls-7" d="M95.82,130.5c-.43,2.87-1.04,5.68-1.86,8.41-.17.6-.36,1.2-.55,1.79,0,.01-.01.03-.01.04-.21.66-.44,1.31-.68,1.95,0,.01-.01.04-.01.05-.23.63-.47,1.26-.71,1.87-.01.01-.01.03-.03.04-.23.57-.47,1.14-.72,1.7-.84,1.95-1.78,3.84-2.82,5.68-.27.49-.55.96-.84,1.44-.08.13-.16.28-.24.41-1.4,2.3-2.94,4.49-4.63,6.59-2.89-10.91-12.11-19.25-23.49-20.86,1.48-.01,2.96-.07,4.41-.17.4-.03.82-.05,1.2-.08.11-.01.2-.01.31-.03.07,0,.13-.01.2-.01.11-.01.2-.01.31-.03.83-.08,1.66-.16,2.47-.27.09,0,.19-.01.27-.03.95-.12,1.9-.25,2.83-.4,1.44-.23,2.87-.51,4.29-.82.4-.08.8-.16,1.19-.27.25-.05.49-.11.74-.17.21-.04.43-.09.66-.16.08-.01.17-.03.25-.05.13-.03.25-.07.39-.11.23-.05.47-.12.7-.19.45-.12.91-.24,1.36-.37.9-.25,1.78-.52,2.66-.82.03-.01.05-.01.08-.03.49-.16.98-.32,1.46-.49.47-.16.95-.33,1.42-.51.48-.17.98-.36,1.46-.55.27-.11.52-.21.79-.32.04-.01.08-.03.12-.05.37-.15.76-.31,1.14-.47,2.01-.84,3.97-1.77,5.9-2.77h0v.03Z"/>
      <path class="cls-5" d="M91.22,113.08h0s-.05,0-.08-.01c.03.01.04.01.07.01h.01Z"/>
      <path class="cls-3" d="M90.5,111.64c.25.48.49.96.72,1.44h-.01c-.23-.48-.45-.96-.71-1.44Z"/>
      <path class="cls-3" d="M85.03,183.74c3.41,7.53,5.3,15.87,5.3,24.67,0,6.35-.99,12.48-2.82,18.21h0c-4.44-1.07-8.77-2.42-12.98-4h0c1.44-4.49,2.22-9.25,2.22-14.2,0-5.87-1.08-11.49-3.08-16.65-.23-.59-.45-1.14-.71-1.71,2.81-2.23,5.17-4.99,6.98-8.13,0-.01.01-.01.01-.01.76-1.34,1.42-2.74,1.95-4.21.39.64.76,1.3,1.12,1.97.72,1.32,1.39,2.67,2.01,4.06Z"/>
      <path class="cls-3" d="M144.91,183.74c-3.41,7.53-5.3,15.87-5.3,24.67,0,6.35.99,12.48,2.82,18.21h0c4.44-1.07,8.77-2.42,12.98-4h0c-1.44-4.49-2.22-9.25-2.22-14.2,0-5.87,1.08-11.49,3.08-16.65.23-.59.45-1.14.71-1.71-2.81-2.23-5.17-4.99-6.98-8.13,0-.01-.01-.01-.01-.01-.76-1.34-1.42-2.74-1.95-4.21-.39.64-.76,1.3-1.12,1.97-.72,1.32-1.39,2.67-2.01,4.06Z"/>
      <path class="cls-1" d="M76.74,208.42c0,4.95-.78,9.71-2.22,14.19-12.56-4.72-24.07-11.58-34.1-20.12-2.31-1.98-4.55-4.04-6.7-6.18-4.04-4.02-7.77-8.36-11.18-12.94-2.05-2.77-3.98-5.64-5.78-8.6-1.78-2.9-3.42-5.88-4.92-8.95,4.79-2.09,10-3.38,15.47-3.72-.37,1.86-.57,3.77-.57,5.72,0,5.05,1.32,9.8,3.64,13.93h0s.01.01.01.01c.48.86,1,1.68,1.56,2.49,3.69,5.2,9.08,9.12,15.35,10.92h.01c2.5.71,5.15,1.1,7.89,1.1,6.71,0,12.88-2.33,17.74-6.22.25.57.48,1.12.71,1.71,1.99,5.16,3.08,10.78,3.08,16.65Z"/>
      <path class="cls-3" d="M70.69,90.95c.94.52,1.85,1.08,2.74,1.68-.9-.59-1.81-1.15-2.74-1.68Z"/>
      <path class="cls-2" d="M70.45,102.26c1.23,2.74,1.91,5.78,1.91,8.99,0,12.18-9.87,22.06-22.05,22.06s-22.06-9.88-22.06-22.06c0-4.95,1.63-9.51,4.37-13.17,4.59-1.67,9.53-2.58,14.7-2.58,8.52,0,16.45,2.47,23.13,6.75h0Z"/>
      <path class="cls-3" d="M67.82,89.44c.98.47,1.93.96,2.86,1.51-.94-.53-1.89-1.03-2.86-1.51Z"/>
      <path class="cls-3" d="M61.76,86.98c2.07.68,4.09,1.51,6.04,2.46-1.95-.94-3.97-1.77-6.04-2.46Z"/>
      <path class="cls-8" d="M59.21,139.64c-.15,0-.31.01-.47,0,.12.01.25,0,.37-.01.03,0,.07.01.09.01Z"/>
      <path class="cls-3" d="M56.98,85.66c1.62.36,3.21.8,4.77,1.32-1.56-.51-3.16-.95-4.77-1.32Z"/>
      <path class="cls-8" d="M55.49,139.6c-.92-.03-1.83-.08-2.75-.13.04,0,.07,0,.11-.01.88.07,1.77.12,2.65.15Z"/>
      <path class="cls-8" d="M59.21,139.64s-.07-.01-.09-.01h.09c-.66-.08-1.31-.16-1.98-.2-.67-.05-1.35-.08-2.02-.08-.79,0-1.59.04-2.37.11-.04.01-.07.01-.11.01-.53-.04-1.07-.08-1.59-.12-.53-.05-1.06-.11-1.58-.16-.41-.04-.84-.09-1.26-.13-1.08-.13-2.15-.29-3.21-.47-.37-.05-.74-.12-1.1-.19-.23-.04-.44-.08-.66-.12-.27-.05-.52-.09-.78-.15-.09-.01-.2-.04-.29-.05-.36-.07-.72-.15-1.07-.23-.56-.11-1.11-.23-1.66-.37-.33-.07-.66-.15-.98-.23-.03,0-.05-.01-.08-.03-.41-.09-.82-.2-1.22-.31-.74-.2-1.47-.4-2.19-.62-.72-.23-1.44-.44-2.17-.68-.04,0-.08-.01-.12-.03-.47-.16-.94-.32-1.39-.48-.49-.17-.96-.35-1.44-.52s-.96-.36-1.43-.55c-.95-.37-1.89-.76-2.81-1.16-.51-.21-1-.44-1.5-.67-.43-.2-.86-.4-1.27-.6-.91-.44-1.81-.9-2.7-1.36-.88-.47-1.77-.96-2.63-1.46-.44-.25-.88-.51-1.31-.78-.43-.25-.86-.52-1.28-.79-.83-.52-1.64-1.06-2.46-1.6-.01-.01-.04-.03-.05-.04-.63-.43-1.26-.87-1.87-1.31l-.16-.12c-.28-.2-.55-.4-.82-.6-.03-.01-.04-.04-.07-.05-.64-.48-1.27-.96-1.9-1.46l-.03-.03h0c4.57-11.08,13.65-19.8,24.95-23.92-2.74,3.66-4.37,8.22-4.37,13.17,0,12.18,9.87,22.06,22.06,22.06s22.05-9.88,22.05-22.06c0-3.21-.68-6.24-1.91-8.99,10.52,6.74,17.9,17.96,19.47,30.98-.37.16-.76.32-1.14.47-.04.03-.08.04-.12.05-.27.11-.52.21-.79.32-.48.19-.98.37-1.46.55-.47.17-.95.35-1.42.51-.48.17-.96.33-1.46.49-.03.01-.05.01-.08.03-.88.28-1.77.56-2.66.82-.45.13-.91.25-1.36.37-.23.07-.47.13-.7.19-.21.05-.43.11-.64.16-.23.07-.44.12-.66.16-.24.07-.48.12-.74.17-.39.09-.79.19-1.19.27-1.42.31-2.85.59-4.29.82-.94.15-1.89.28-2.83.4-.08.01-.17.03-.27.03-.82.11-1.64.19-2.47.27-.11.01-.2.01-.31.03-.07,0-.13.01-.2.01-.11.01-.2.01-.31.03-.39.03-.8.05-1.2.08-1.46.11-2.93.16-4.41.17h-.01Z"/>
      <path class="cls-7" d="M51.15,139.34c.52.04,1.06.08,1.59.12-7.25.62-13.72,3.96-18.39,8.99-1.38-.11-2.74-.15-4.13-.15-8.42,0-16.45,1.72-23.72,4.87C2.3,141.27.01,128.47,0,115.14h0s.01-.04.03-.05c.6.62,1.2,1.22,1.82,1.81.53.52,1.08,1.03,1.63,1.52.8.75,1.63,1.47,2.46,2.17.55.47,1.11.92,1.68,1.38.01.01.04.03.05.04l.03.03c.63.49,1.26.98,1.9,1.46.03.01.04.04.07.05.27.2.53.4.82.6l.16.12c.62.44,1.24.88,1.87,1.31.01.01.04.03.05.04.8.55,1.63,1.08,2.46,1.6.43.27.86.53,1.28.79.43.27.87.53,1.31.78.87.51,1.75,1,2.63,1.46.9.48,1.79.94,2.7,1.36.41.2.84.4,1.27.6.49.23.99.45,1.5.67.92.41,1.86.8,2.81,1.16.47.19.95.37,1.43.55s.95.35,1.44.52c.45.16.92.32,1.39.48.04.01.08.03.12.03.72.24,1.44.45,2.17.68.72.21,1.46.43,2.19.62.4.11.8.21,1.22.31.03.01.05.03.08.03.32.08.64.16.98.23.55.15,1.1.27,1.66.37.35.08.71.16,1.07.23.09.01.2.04.29.05.25.05.51.09.78.15.21.04.43.08.66.12.36.07.72.13,1.1.19,1.06.17,2.13.33,3.21.47.41.04.84.09,1.26.13.52.05,1.04.11,1.58.16Z"/>
      <path class="cls-5" d="M50.3,84.64h.01c2.27.2,4.49.53,6.66,1.02,1.62.37,3.21.82,4.77,1.32,0,.01.01,0,.01,0,2.07.7,4.09,1.52,6.04,2.46h.01c.98.48,1.93.98,2.86,1.51h.01c.94.53,1.85,1.1,2.74,1.68,7.21,4.75,13.1,11.29,17.06,19,.25.48.48.96.71,1.44-.03,0-.04,0-.07-.01.03.01.05.01.08.03h0c2.53,5.35,4.13,11.19,4.6,17.37h0c-1.93,1.02-3.89,1.94-5.9,2.78-1.56-13.02-8.95-24.24-19.47-30.98h0c-6.69-4.29-14.61-6.77-23.13-6.77-5.16,0-10.11.91-14.7,2.58-11.3,4.12-20.38,12.84-24.95,23.91h0s-.04-.01-.05-.03c-.57-.45-1.14-.91-1.68-1.38-.83-.7-1.66-1.42-2.46-2.17-.55-.49-1.1-1-1.63-1.52-.62-.59-1.22-1.19-1.82-1.81H.03c1.18-2.82,2.61-5.5,4.25-8.02.66-1,1.35-1.99,2.09-2.94.74-.96,1.5-1.89,2.29-2.79.4-.44.8-.88,1.22-1.32.41-.43.84-.86,1.27-1.28,2.58-2.53,5.42-4.76,8.48-6.69,7.66-4.8,16.73-7.57,26.45-7.57.71,0,1.42.01,2.13.04s1.4.08,2.1.13h.01Z"/>
      <path class="cls-3" d="M50.3,84.64h-.01c-.7-.05-1.39-.11-2.1-.13-.71-.04-1.42-.05-2.13-.05-9.72,0-18.79,2.77-26.45,7.58-3.06,1.93-5.9,4.16-8.48,6.69-.43.41-.86.84-1.27,1.28s-.82.88-1.22,1.32c-.8.91-1.56,1.83-2.29,2.79-.74.95-1.43,1.94-2.09,2.94-1.66,2.53-3.09,5.2-4.27,8.01h-.01v-.11c0-19.47,4.83-37.8,13.37-53.87,6.27-2.09,12.98-3.22,19.95-3.22,1.16,0,2.33.03,3.49.11h.03c31.06,1.7,56.15,25.82,59.34,56.47.23,2.18.35,4.39.35,6.63,0,3.18-.24,6.32-.71,9.39-.47-6.18-2.07-12.02-4.6-17.36h0v-.03c-.23-.48-.47-.96-.72-1.44-3.96-7.72-9.85-14.25-17.06-19-.9-.6-1.81-1.16-2.74-1.68h-.01c-.94-.55-1.89-1.04-2.86-1.51h-.01c-1.95-.95-3.97-1.78-6.04-2.46,0,0-.01.01-.01,0-1.56-.52-3.16-.96-4.77-1.32-2.17-.48-4.39-.82-6.66-1.02h-.01Z"/>
      <path class="cls-3" d="M46.06,84.45c.71,0,1.42.01,2.13.05-.71-.03-1.42-.04-2.13-.04-9.72,0-18.79,2.77-26.45,7.57,7.66-4.81,16.73-7.58,26.45-7.58Z"/>
      <path class="cls-3" d="M30.22,148.3c1.39,0,2.75.04,4.13.15-3.48,3.74-5.96,8.45-7.03,13.65-5.47.33-10.68,1.63-15.47,3.72-2.03-4.08-3.82-8.3-5.35-12.65,7.27-3.14,15.3-4.87,23.72-4.87Z"/>
      <path class="cls-5" d="M30.38,181.76c-2.31-4.13-3.64-8.88-3.64-13.93,0-1.95.2-3.86.57-5.72,1.07-5.2,3.56-9.91,7.03-13.65,4.67-5.03,11.14-8.37,18.39-8.99.92.05,1.83.11,2.75.13.92.04,1.83.05,2.77.05.16,0,.32,0,.48-.01.16.01.32,0,.47,0h.01c11.38,1.6,20.61,9.95,23.49,20.86.57,2.14.9,4.37.95,6.69.01.21.01.43.01.64,0,2.17-.24,4.27-.7,6.3,0,0-.01.01-.01.03-.28,1.22-.64,2.41-1.07,3.56-.53,1.47-1.19,2.87-1.95,4.21,0,0-.01,0-.01.01-1.81,3.14-4.17,5.9-6.98,8.13-4.87,3.89-11.03,6.22-17.74,6.22-2.74,0-5.39-.39-7.89-1.11h0s-.01.01-.01.01c-6.27-1.81-11.66-5.72-15.35-10.92-.56-.8-1.08-1.63-1.56-2.49h-.01Z"/>
    </g>
    <g>
      <line class="cls-4" x1="50.3" y1="84.63" x2="50.3" y2="84.64"/>
      <line class="cls-4" x1="50.32" y1="84.64" x2="50.3" y2="84.64"/>
    </g>
  </g>
  <path class="cls-5" d="M22.48,58.8c33.09-9.09,68.31,12.13,73.65,46.53.7,4.55,1.17,9.19.4,13.72-1.57-8.91-4.89-17.18-9.02-24.77-12.51-23.9-38.93-35.03-65.03-35.48h0Z"/>
  <path class="cls-5" d="M207.74,58.8c-26.1.45-52.52,11.58-65.03,35.48-4.13,7.59-7.45,15.86-9.02,24.77-.77-4.53-.3-9.17.4-13.72,5.34-34.4,40.58-55.62,73.65-46.53h0Z"/>
  <path class="cls-5" d="M36.17,94.55c-13.82,5.78-27.15-8.34-21.98-22.02,1.22,2.79,1.92,5.58,3.25,8.17,3.59,7.98,9.83,11.25,18.73,13.85h0Z"/>
  <path class="cls-5" d="M30.58,96.95c-11.03,9.05-25.63-1.59-21.98-14.96,1.48,2.28,2.49,4.6,3.96,6.72,4.17,6.54,9.67,7.72,18.02,8.24h0Z"/>
  <path class="cls-5" d="M26.54,98.15c-6.5,11.73-23.52,8.25-21.38-6.15.94.97,1.61,1.94,2.31,2.86,5.17,7.4,11.41,5.06,19.07,3.28h0Z"/>
  <g>
    <path class="cls-5" d="M194.36,94.55c10.53-2.73,17.17-7.9,20.39-17.74.49-1.37.9-2.8,1.59-4.28,5.18,13.69-8.16,27.8-21.98,22.02h0Z"/>
    <path class="cls-5" d="M199.96,96.95c9.85-.23,15.86-3.15,19.97-11.41.59-1.15,1.17-2.34,2-3.55,3.65,13.37-10.96,24.01-21.98,14.96h0Z"/>
    <path class="cls-5" d="M203.99,98.15c7.67,1.78,13.91,4.11,19.07-3.29.7-.92,1.37-1.89,2.31-2.86,2.14,14.41-14.89,17.87-21.38,6.15h0Z"/>
  </g>
</svg>