<?xml version="1.0" encoding="UTF-8"?>
<svg id="Layer_1" data-name="Layer 1" xmlns="http://www.w3.org/2000/svg" viewBox="0 0 229.93 229.92">
  <defs>
    <style>
      .cls-1 {
        fill: #6e0a30;
      }

      .cls-2 {
        fill: #1d0f14;
      }

      .cls-3 {
        fill: #9fcc44;
      }

      .cls-4 {
        fill: #e94296;
      }

      .cls-5 {
        fill: #ffd695;
      }

      .cls-6 {
        fill: #fbf9dc;
      }
    </style>
  </defs>
  <g>
    <g>
      <path class="cls-3" d="M201.81,116.25c6.31,1.51,12.19,4.01,17.52,7.34,1.85,1.14,3.61,2.38,5.31,3.7,1.46,1.14,2.85,2.35,4.2,3.62-.08.53-.16,1.08-.23,1.6,0,.01-.01.01-.01.01-.78,5.09-1.9,10.08-3.33,14.94-8.38-12.17-22.41-20.15-38.3-20.15-12.7,0-24.22,5.09-32.6,13.36h0c-3.84,3.77-7.02,8.2-9.36,13.1-4.29,4.12-9.43,7.35-15.11,9.44-.25-.23-.51-.47-.75-.72,1.24-6.16,3.41-11.95,6.36-17.24h0c1.24-2.25,2.63-4.39,4.15-6.43,4.32-5.82,9.65-10.82,15.72-14.74.98-.62,1.97-1.22,2.98-1.78h0c3.93-2.25,8.16-4.04,12.57-5.34,3.9-1.14,7.94-1.9,12.1-2.22,2.9-.23,5.86-.24,8.85-.04,3.4.24,6.71.75,9.92,1.52Z"/>
      <path class="cls-4" d="M226.28,86.11c2.38,9.23,3.65,18.88,3.65,28.86,0,1.86-.05,3.72-.13,5.56-.17,3.52-.49,6.97-.96,10.39-1.35-1.27-2.74-2.49-4.2-3.62-1.7-1.32-3.46-2.57-5.31-3.7h0c-.74-20.73-17.02-37.95-38.16-39.41-1.3-.09-2.59-.12-3.86-.07-.15-.01-.29-.01-.44-.01-1.83,0-3.62.19-5.35.56-18.28,3.05-32.76,18.31-34.1,37.61-.4,5.8.43,11.41,2.25,16.55-1.51,2.05-2.9,4.19-4.15,6.42-7.26-9.27-11.55-20.91-11.55-33.43,0-1.27.04-2.54.13-3.81.55-7.96,2.78-15.4,6.34-22,.47-.87.95-1.72,1.47-2.55.15-.25.29-.51.45-.75,2.31-3.66,5.05-7.02,8.14-10,1.32-1.28,2.7-2.49,4.15-3.62.51-.4,1-.79,1.52-1.16,10.02-7.35,22.57-11.33,35.92-10.4,19.36,1.34,35.65,12.65,44.19,28.57h0Z"/>
      <path class="cls-6" d="M219.33,123.58h0c-5.32-3.32-11.21-5.82-17.52-7.33.52-2.06.8-4.19.8-6.39,0-14.08-11.3-25.51-25.31-25.74,1.27-.05,2.57-.03,3.86.07,21.14,1.46,37.43,18.68,38.16,39.39Z"/>
      <path class="cls-1" d="M225.27,147.47c-2.66,9.07-6.42,17.65-11.11,25.63h0c-5.86,3.4-12.22,5.96-18.99,7.55,1.93-3.82,3.01-8.14,3.01-12.72,0-15.67-12.7-28.36-28.36-28.36-10.27,0-19.27,5.47-24.24,13.65l-.03.03c-.17.19-.35.36-.53.52,2.34-4.91,5.52-9.33,9.36-13.09h0c8.38-8.28,19.9-13.37,32.6-13.37,15.89,0,29.91,7.98,38.3,20.15Z"/>
      <path class="cls-3" d="M207.16,46.26h0c8.77,11.75,15.34,25.22,19.12,39.83-8.54-15.93-24.83-27.24-44.19-28.57-13.34-.92-25.9,3.05-35.92,10.4-.52.37-1.02.76-1.52,1.16-1.44,1.14-2.82,2.34-4.15,3.62-3.09,2.98-5.83,6.34-8.14,10-5.23-2.29-10.99-3.57-17.05-3.62,2.31-4.51,5.09-8.74,8.28-12.64,13.04-15.95,32.87-26.13,55.08-26.13,10.14,0,19.78,2.11,28.49,5.94Z"/>
      <path class="cls-1" d="M214.16,173.12c-7.39,12.57-17.08,23.6-28.51,32.52h-.01c-5.27,4.12-10.9,7.78-16.85,10.94-10.52-4.48-19.05-12.73-23.89-23.04h0c1.85-.88,3.65-1.83,5.39-2.86.49-.29.99-.59,1.47-.9.33.28.68.55,1.03.82,4.73,3.57,10.64,5.7,17.04,5.7,3,0,5.88-.47,8.6-1.32,7.31-2.33,13.34-7.54,16.74-14.31h.01c6.77-1.59,13.13-4.16,18.99-7.54Z"/>
      <path class="cls-2" d="M202.62,109.86c0,2.21-.28,4.33-.8,6.39-3.21-.78-6.53-1.28-9.92-1.52-3-.2-5.95-.19-8.85.04-4.16.32-8.2,1.08-12.1,2.22-4.41,1.3-8.64,3.09-12.57,5.32h0c-1.02.57-2.01,1.18-2.98,1.79-2.71-4.08-4.29-8.97-4.29-14.24,0-12.4,8.74-22.73,20.42-25.19,1.89-.33,3.82-.52,5.79-.55,14.01.23,25.31,11.66,25.31,25.74Z"/>
      <path class="cls-4" d="M101.05,163.71c.92.27,1.85.51,2.79.71l.12.04c.05.01.12.03.17.04,3.46.9,7.1,1.36,10.84,1.36s7.57-.49,11.11-1.43c.04-.01.09-.03.13-.04.91-.2,1.82-.44,2.7-.7,0-.04.01-.08.01-.12.32-.12.64-.23.96-.35,5.68-2.09,10.82-5.32,15.11-9.44.19-.16.36-.33.53-.52l.03-.03c4.97-8.18,13.97-13.65,24.24-13.65,15.66,0,28.36,12.69,28.36,28.36,0,4.57-1.08,8.89-3.01,12.72h-.01c-3.4,6.77-9.43,11.98-16.74,14.31-2.71.86-5.6,1.32-8.6,1.32-6.39,0-12.3-2.13-17.04-5.7-.35-.27-.7-.53-1.03-.82.62-.37,1.23-.76,1.83-1.16.45-.29.88-.59,1.31-.9.16-.11.29-.21.44-.29.01-.03.03-.03.04-.04.79-.56,1.58-1.15,2.34-1.74,0,0,0-.01.01-.01.11-.08.2-.16.29-.23.86-.67,1.68-1.35,2.5-2.06.55-.47,1.08-.94,1.6-1.43.37-.32.74-.67,1.08-1.02.49-.47.99-.94,1.46-1.43.15-.15.29-.29.43-.44.45-.45.9-.92,1.32-1.4.04-.03.07-.07.09-.11.47-.49.91-1,1.34-1.51.08-.08.15-.16.21-.24l.48-.56c.47-.56.94-1.12,1.38-1.7.41-.53.83-1.07,1.22-1.6,1.35-1.81,2.59-3.68,3.76-5.62-3.38,1.59-6.82,3.05-10.34,4.36-.67.25-1.34.51-2.01.74-2.57.92-5.16,1.78-7.8,2.55-1.03.29-2.07.59-3.12.87-.01.01-.04.01-.07.01-1.15.31-2.31.6-3.48.88-.79.2-1.59.39-2.39.56-.64.15-1.28.28-1.93.41-.16.04-.33.07-.49.11-.13.01-.25.04-.39.07-.05.01-.09.03-.15.04-.75.15-1.51.29-2.26.43-4.05.74-8.18,1.3-12.36,1.68-4.33.4-8.73.62-13.17.62s-8.83-.21-13.14-.62c-4.17-.39-8.29-.95-12.36-1.68-.96-.17-1.93-.36-2.87-.56-1.52-.31-3.05-.64-4.55-1-9.4-2.25-18.44-5.44-27-9.47,3.24,5.42,7.19,10.35,11.74,14.67,1.68,1.63,3.45,3.16,5.3,4.57.7.56,1.4,1.08,2.13,1.6,1.2.87,2.43,1.7,3.7,2.47-.35.29-.7.57-1.06.84-4.77,3.66-10.74,5.84-17.22,5.84-3.06,0-6-.48-8.76-1.38-7.33-2.38-13.34-7.65-16.7-14.47-1.86-3.77-2.9-8.02-2.9-12.5,0-15.67,12.7-28.36,28.36-28.36,8.05,0,15.3,3.34,20.46,8.73.01,0,.01.01.01.01.01,0,.01.01.01.01.01,0,.01.01.01.01.01,0,.01.01.01.01.01,0,.01.01.01.01.01,0,.01.01.01.01.01,0,.01.01.01.01.01,0,.01.01.01.01h.01c.78,1.04,1.58,2.03,2.45,2.98h.01c.4.47.82.92,1.24,1.35,4.53,4.67,10.11,8.3,16.35,10.55.25.09.51.17.75.27.01.04.03.08.03.13Z"/>
      <path class="cls-5" d="M207.16,46.26c-8.72-3.82-18.36-5.94-28.49-5.94-22.21,0-42.04,10.18-55.08,26.13-3.18,3.89-5.96,8.13-8.28,12.64h-.37c-2.33-4.53-5.11-8.77-8.32-12.68-13.04-15.93-32.85-26.09-55.05-26.09-10.31,0-20.1,2.19-28.94,6.14,8.7-11.71,19.58-21.72,32.02-29.39,17.21.55,33.25,5.7,46.93,14.28,4.83,3.01,9.35,6.45,13.53,10.24,4.19-3.81,8.7-7.25,13.52-10.26,13.63-8.52,29.56-13.67,46.65-14.25,12.37,7.64,23.19,17.56,31.86,29.18Z"/>
      <path class="cls-1" d="M132.8,197.98h-.01c-4.56,1.2-9.31,1.93-14.17,2.17-1.2.08-2.42.11-3.65.11-1.11,0-2.21-.03-3.29-.08h-.01c-4.99-.23-9.85-.98-14.51-2.21-1.56-.41-3.12-.88-4.63-1.39-2.7-.92-5.34-1.99-7.88-3.24-1.7-.82-3.37-1.71-4.99-2.66-.59-.35-1.18-.7-1.75-1.07-1.27-.78-2.5-1.6-3.7-2.47-.72-.52-1.43-1.04-2.13-1.6-1.85-1.42-3.61-2.94-5.3-4.57-4.55-4.32-8.5-9.25-11.74-14.67,8.56,4.02,17.6,7.22,27,9.47,1.5.36,3.02.7,4.55,1,.95.2,1.91.39,2.87.56,4.06.74,8.18,1.3,12.36,1.68,4.32.4,8.72.62,13.14.62s8.84-.21,13.17-.62c4.17-.39,8.3-.95,12.36-1.68.75-.13,1.51-.28,2.26-.43.17-.04.35-.07.53-.11.16-.04.33-.07.49-.11.64-.13,1.28-.27,1.93-.41.8-.17,1.6-.36,2.39-.56,1.16-.27,2.33-.56,3.48-.88.03,0,.05,0,.07-.01,1.04-.28,2.09-.57,3.12-.87,2.63-.78,5.23-1.63,7.8-2.55.67-.23,1.34-.48,2.01-.74,3.52-1.31,6.95-2.77,10.34-4.36-1.16,1.94-2.41,3.81-3.76,5.62-.39.53-.8,1.07-1.22,1.6-.44.57-.91,1.14-1.38,1.7l-.48.56c-.07.08-.13.16-.21.24-.43.51-.87,1.02-1.34,1.51-.03.04-.05.08-.09.11-.43.48-.87.95-1.32,1.4-.13.15-.28.29-.43.44-.47.49-.96.96-1.46,1.43-.36.35-.72.68-1.08,1.02-.52.49-1.06.96-1.6,1.43-.82.71-1.64,1.39-2.5,2.06-.09.07-.19.15-.29.23-.01,0-.01.01-.01.01-.76.59-1.55,1.18-2.34,1.74-.01.01-.03.01-.04.04-.15.08-.28.19-.44.29-.43.31-.87.6-1.31.9-.6.4-1.22.79-1.83,1.16-.48.31-.98.6-1.47.9-1.74,1.03-3.54,1.98-5.39,2.85-2.37,1.14-4.81,2.13-7.31,2.98-1.56.53-3.16,1.04-4.77,1.47Z"/>
      <path class="cls-4" d="M147.59,4.69c9.85,2.9,19.15,7.1,27.71,12.4-17.09.59-33.03,5.74-46.65,14.25-4.81,3.01-9.33,6.45-13.52,10.26-4.19-3.8-8.7-7.23-13.53-10.24-13.68-8.58-29.72-13.73-46.93-14.28,8.6-5.31,17.94-9.52,27.84-12.42,11.81,3.4,22.8,8.72,32.63,15.58,9.79-6.83,20.73-12.13,32.45-15.54h.01Z"/>
      <path class="cls-3" d="M168.79,216.58c-3.02,1.6-6.12,3.08-9.29,4.41-2.01.84-4.02,1.63-6.08,2.35-2.3-1.62-4.48-3.4-6.53-5.32h.09s-.08-.01-.12-.03c-5.98-5.6-10.79-12.42-14.05-20.02,1.62-.43,3.21-.94,4.77-1.47,2.5-.86,4.95-1.85,7.31-2.98h0c4.84,10.32,13.37,18.57,23.89,23.05Z"/>
      <path class="cls-6" d="M171.51,84.67c-11.67,2.46-20.42,12.8-20.42,25.19,0,5.27,1.58,10.16,4.29,14.24-6.07,3.92-11.41,8.92-15.72,14.74-1.82-5.15-2.65-10.75-2.25-16.55,1.34-19.31,15.82-34.57,34.1-37.61Z"/>
      <path class="cls-3" d="M146.98,218.03h-.09s0-.01-.01-.01t-.01-.03l.12.04Z"/>
      <path class="cls-5" d="M146.88,218.02c2.05,1.93,4.23,3.7,6.53,5.32-12.02,4.27-24.96,6.58-38.44,6.58s-26.4-2.31-38.42-6.57c2.27-1.6,4.43-3.36,6.45-5.23,11.62-3.42,22.44-8.68,32.13-15.44,9.55,6.66,20.31,11.89,31.73,15.31t.01.03h.01Z"/>
      <path class="cls-5" d="M132.8,197.98c3.26,7.59,8.08,14.41,14.05,20.02-11.42-3.42-22.18-8.65-31.73-15.31-9.69,6.77-20.51,12.02-32.13,15.44,6.03-5.66,10.88-12.52,14.16-20.16,4.65,1.23,9.52,1.98,14.51,2.19h.01c1.08.07,2.18.09,3.29.09,1.23,0,2.45-.03,3.65-.11,4.87-.24,9.61-.96,14.17-2.17h.01Z"/>
      <path class="cls-1" d="M135.52,145.25h0c-2.96,5.3-5.12,11.08-6.36,17.25-.08.35-.15.71-.21,1.07-.9.29-1.79.57-2.71.82-.04.01-.09.03-.13.04-3.57.82-7.3,1.24-11.12,1.24s-7.35-.4-10.83-1.18c-.05-.01-.12-.03-.17-.04l-.12-.04c-.95-.25-1.9-.53-2.82-.84-.04-.28-.09-.56-.16-.83-1.22-6.24-3.42-12.13-6.4-17.48h0c7.98-10.22,12.38-23.31,11.41-37.25-.62-9-3.4-17.34-7.8-24.55,5.05-2.67,10.82-4.17,16.91-4.17h.05c.04.07.07.12.09.19.03-.07.05-.12.09-.19,6.02.04,11.7,1.54,16.69,4.17-.52.83-1,1.68-1.47,2.55-3.56,6.59-5.79,14.04-6.34,22-.09,1.27-.13,2.54-.13,3.81,0,12.52,4.29,24.16,11.55,33.43Z"/>
      <path class="cls-1" d="M114.97,0c11.33,0,22.28,1.64,32.61,4.69-11.73,3.41-22.66,8.7-32.45,15.54-9.83-6.86-20.82-12.18-32.63-15.58C92.8,1.62,103.7,0,114.97,0Z"/>
      <path class="cls-3" d="M106.62,66.42c3.21,3.9,5.99,8.14,8.32,12.68-6.16,0-12.03,1.3-17.34,3.62-2.31-3.66-5.05-7.02-8.14-10.02-10.7-10.35-25.57-16.29-41.57-15.18-19.42,1.34-35.73,12.72-44.25,28.69,3.74-14.57,10.28-28.03,19-39.75,8.84-3.94,18.63-6.14,28.94-6.14,22.2,0,42.01,10.16,55.05,26.09Z"/>
      <path class="cls-4" d="M105.86,108.01c.98,13.95-3.42,27.04-11.41,37.24-1.26-2.23-2.63-4.37-4.16-6.42,1.83-5.15,2.66-10.75,2.26-16.55-1.31-19.04-15.4-34.12-33.31-37.48-1.9-.45-3.88-.7-5.91-.7-.19,0-.37,0-.55.01-1.31-.05-2.65-.03-3.98.07-21.15,1.46-37.44,18.68-38.18,39.39h0c-3.44,2.14-6.62,4.61-9.52,7.37-.74-5.23-1.11-10.56-1.11-15.98,0-9.92,1.27-19.55,3.62-28.74h0s0-.01.01-.01c8.52-15.98,24.83-27.36,44.25-28.69,16.01-1.11,30.87,4.83,41.57,15.18,3.09,3,5.83,6.35,8.14,10.02.16.25.32.51.47.75,4.4,7.21,7.18,15.55,7.8,24.55Z"/>
      <path class="cls-3" d="M28.37,116.2c3.14-.75,6.38-1.24,9.71-1.47,13.44-.94,26.15,2.66,36.65,9.48,6.02,3.89,11.3,8.85,15.56,14.63,1.52,2.05,2.9,4.19,4.16,6.42h0c2.98,5.36,5.19,11.25,6.4,17.49-.2.2-.39.37-.59.56-6.24-2.25-11.82-5.88-16.35-10.55-2.06-4.06-4.71-7.78-7.84-11.04h-.01s-.01-.03-.01-.03h-.01s-.01-.03-.01-.03h-.01s-.01-.03-.01-.03h-.01c-8.44-8.83-20.32-14.31-33.5-14.31-15.68,0-29.55,7.77-37.96,19.67-1.38-4.73-2.45-9.6-3.21-14.57-.08-.48-.15-.98-.21-1.47,2.9-2.75,6.08-5.23,9.52-7.35,5.38-3.37,11.35-5.9,17.74-7.39Z"/>
      <path class="cls-3" d="M92.53,196.57c1.51.51,3.06.98,4.63,1.39-3.28,7.65-8.13,14.51-14.16,20.16-2.02,1.87-4.17,3.62-6.45,5.23-2.03-.72-4.04-1.5-6.02-2.34-3.28-1.36-6.47-2.89-9.59-4.56,10.42-4.52,18.92-12.84,23.71-23.12,2.54,1.24,5.17,2.31,7.88,3.24Z"/>
      <path class="cls-6" d="M92.56,122.28c.4,5.8-.43,11.41-2.26,16.55-4.27-5.78-9.55-10.74-15.56-14.63,2.75-4.11,4.36-9.04,4.36-14.35,0-12.19-8.46-22.4-19.84-25.06,17.9,3.36,32,18.44,33.31,37.48Z"/>
      <path class="cls-1" d="M83.92,152.75c-.43-.43-.84-.88-1.24-1.34h-.01c-.75-1.06-1.56-2.05-2.45-2.98h-.01s0-.03-.01-.03c0,0,0-.01-.01-.01,0,0,0-.01-.01-.01,0,0,0-.01-.01-.01,0,0,0-.01-.01-.01,0,0,0-.01-.01-.01,0,0,0-.01-.01-.01,0,0,0-.01-.01-.01-5.16-5.39-12.41-8.73-20.46-8.73-15.66,0-28.36,12.69-28.36,28.36,0,4.48,1.04,8.73,2.9,12.5-6.61-1.66-12.85-4.25-18.57-7.62-4.69-8.05-8.44-16.7-11.07-25.83,8.41-11.9,22.28-19.67,37.96-19.67,13.17,0,25.06,5.48,33.5,14.29h.01s.01.03.01.03h.01s.01.03.01.03h.01s.01.03.01.03h.01c3.13,3.28,5.78,6.99,7.84,11.06Z"/>
      <path class="cls-1" d="M79.67,190.68c1.62.95,3.29,1.85,4.99,2.66-4.79,10.28-13.29,18.6-23.71,23.12h-.01c-5.88-3.13-11.45-6.75-16.66-10.83-11.51-8.99-21.27-20.12-28.67-32.8,5.72,3.37,11.97,5.96,18.57,7.62,3.36,6.82,9.37,12.09,16.7,14.47,2.75.9,5.7,1.38,8.76,1.38,6.49,0,12.45-2.18,17.22-5.84.36-.27.71-.55,1.06-.84.57.37,1.16.72,1.75,1.07Z"/>
      <path class="cls-2" d="M79.09,109.86c0,5.31-1.6,10.24-4.36,14.35-10.5-6.82-23.21-10.42-36.65-9.48-3.33.23-6.57.72-9.71,1.47-.52-2.03-.79-4.15-.79-6.34,0-14.04,11.23-25.46,25.21-25.74,2.19.05,4.35.28,6.46.68,11.38,2.66,19.84,12.86,19.84,25.06Z"/>
      <path class="cls-6" d="M48.81,84.19c1.34-.09,2.67-.12,3.98-.07-13.97.28-25.21,11.7-25.21,25.74,0,2.19.27,4.31.79,6.34-6.39,1.5-12.37,4.02-17.74,7.39h0c.74-20.73,17.02-37.95,38.18-39.41Z"/>
    </g>
    <path class="cls-3" d="M55.05,166.29c21.63,29.33,60.37,41.13,92.87,23.33,10.22-5.56,19.33-13.61,26.97-23.33-4.27,11.7-12.49,22.13-23.1,29.52-33.4,23.8-82.75,9.17-96.75-29.52h0Z"/>
  </g>
  <path class="cls-1" d="M38.13,41.6c20.29-8.66,46.83-1.86,59.94,16.03-19.01-9.99-38.24-14.99-59.94-16.03h0Z"/>
  <path class="cls-1" d="M192.3,41.6c-21.7,1.04-40.93,6.04-59.94,16.03,13.1-17.89,39.64-24.69,59.94-16.03h0Z"/>
</svg>