<?xml version="1.0" encoding="UTF-8"?>
<svg id="Layer_1" data-name="Layer 1" xmlns="http://www.w3.org/2000/svg" viewBox="0 0 229.92 229.93">
  <defs>
    <style>
      .cls-1 {
        fill: #6e0a30;
      }

      .cls-2 {
        fill: #1d0f14;
      }

      .cls-3 {
        fill: #9fcc44;
      }

      .cls-4 {
        fill: #e94296;
      }

      .cls-5 {
        fill: #ffd695;
      }

      .cls-6 {
        fill: #1a4f27;
      }

      .cls-7 {
        fill: #fbf9dc;
      }
    </style>
  </defs>
  <path class="cls-6" d="M229.92,114.97c0,4.83-.29,9.59-.87,14.27-6.73,1.78-13.72,2.91-20.91,3.33,6.78-7.43,11.1-17.17,11.66-27.89v-.03c.04-.78.07-1.55.07-2.34,0-7.77-1.98-15.08-5.46-21.46-7.61-13.97-22.42-23.44-39.45-23.44-5.54,0-10.82,1-15.71,2.82,7.92-12.81,18.52-23.77,31.05-32.09,10.9,9.45,19.99,20.93,26.72,33.86,3.96,7.59,7.09,15.71,9.28,24.19,2.37,9.21,3.62,18.85,3.62,28.79Z"/>
  <path class="cls-4" d="M219.87,102.3c0,.79-.03,1.56-.07,2.34v.03c-.56,10.72-4.88,20.46-11.66,27.89-2.01.11-4.02.17-6.06.17h-.39c3.2-4.93,5.05-10.8,5.05-17.13,0-3.53-.57-6.91-1.66-10.1-2.11-6.23-6.1-11.58-11.31-15.38-5.2-3.8-11.61-6.03-18.53-6.03-17.21,0-31.18,13.79-31.5,30.9h-.01c-4.85-3.26-9.41-6.91-13.64-10.9-.03-.6-.04-1.2-.04-1.81,0-1.63.09-3.25.27-4.83v-.05c.29-1.91.62-3.82.99-5.71v-.04c3.53-14.52,14.13-26.29,27.95-31.45,4.89-1.82,10.18-2.82,15.71-2.82,17.02,0,31.84,9.47,39.45,23.44,3.48,6.38,5.46,13.69,5.46,21.46Z"/>
  <path class="cls-3" d="M201.36,133.23c.16-.16.29-.33.45-.49h.27c2.03,0,4.05-.07,6.06-.17,7.19-.41,14.19-1.55,20.91-3.33-1.95,15.83-7.14,30.67-14.87,43.83,1.75-3.73,2.74-7.9,2.74-12.3,0-14.09-10.11-25.83-23.49-28.33,0-.01.01-.03.03-.05,2.71.23,5.46.35,8.24.36-.11.16-.21.33-.33.49Z"/>
  <path class="cls-4" d="M193.43,132.43c13.38,2.5,23.49,14.24,23.49,28.33,0,4.4-.99,8.57-2.74,12.3-1.14,1.95-2.33,3.85-3.58,5.72-5.28,6.59-13.4,10.82-22.52,10.82s-17.84-4.55-23.11-11.57h0c-3.6-4.83-5.72-10.8-5.72-17.28,0-15.93,12.9-28.84,28.83-28.84.39,0,.76.01,1.14.03,1.2.15,2.39.27,3.61.37.2.01.4.05.6.11Z"/>
  <path class="cls-3" d="M188.08,189.61c9.12,0,17.24-4.23,22.52-10.82-5.72,8.56-12.56,16.3-20.3,23.03-9.71-6.46-18.27-14.51-25.33-23.77,5.27,7.02,13.65,11.57,23.11,11.57Z"/>
  <path class="cls-7" d="M206.75,115.61c0,6.32-1.86,12.19-5.05,17.13-2.78-.01-5.52-.13-8.24-.36,2.27-3.48,3.6-7.65,3.6-12.13,0-12.3-9.98-22.28-22.28-22.28s-22.29,9.98-22.29,22.28v.03c-3.01-1.62-5.92-3.38-8.74-5.27.32-17.12,14.29-30.9,31.5-30.9,6.93,0,13.33,2.23,18.53,6.03,5.21,3.8,9.2,9.15,11.31,15.38,1.08,3.18,1.66,6.57,1.66,10.1Z"/>
  <path class="cls-2" d="M197.05,120.25c0,4.48-1.32,8.65-3.6,12.13-.21-.01-.43-.03-.63-.05-1.18-.21-2.38-.33-3.61-.37-1.28-.16-2.57-.33-3.84-.53-11.74-1.87-22.81-5.7-32.89-11.14v-.03c0-12.3,9.98-22.28,22.29-22.28s22.28,9.98,22.28,22.28Z"/>
  <path class="cls-3" d="M152.49,120.28c10.08,5.44,21.15,9.27,32.89,11.14,1.27.2,2.55.37,3.84.53-.37-.01-.75-.03-1.14-.03-15.93,0-28.83,12.92-28.83,28.84,0,6.47,2.13,12.45,5.72,17.26-3.21-4.2-6.1-8.65-8.64-13.33-2.05-3.74-3.85-7.64-5.43-11.65-2.07-5.28-3.73-10.78-4.93-16.45-1.36-6.5-2.13-13.21-2.23-20.08,0-.29-.01-.6-.01-.91v-.24c0-.12,0-.24.01-.36,2.82,1.89,5.74,3.65,8.74,5.27Z"/>
  <path class="cls-5" d="M177.99,18.8c4.31,2.83,8.42,5.95,12.32,9.33-12.53,8.32-23.13,19.28-31.05,32.09-13.81,5.16-24.42,16.93-27.95,31.45,5.92-29.8,22.99-55.6,46.68-72.87Z"/>
  <path class="cls-6" d="M190.3,201.81c-3.89,3.37-8.01,6.49-12.32,9.32-15.03-10.94-27.37-25.31-35.92-41.99,4.88-1.18,9.64-2.67,14.27-4.45,2.54,4.68,5.43,9.13,8.64,13.33h0c7.06,9.28,15.62,17.33,25.33,23.79Z"/>
  <path class="cls-5" d="M177.99,211.13c-4.95,3.25-10.15,6.12-15.59,8.58-4.68-21.89-24.15-38.3-47.43-38.3s-42.76,16.41-47.44,38.3c-5.43-2.46-10.64-5.34-15.58-8.58,15.02-10.94,27.37-25.31,35.9-41.99,8.69,2.1,17.77,3.22,27.12,3.22s18.41-1.12,27.1-3.22c8.54,16.67,20.89,31.05,35.92,41.99Z"/>
  <path class="cls-1" d="M129.17.88c17.86,2.19,34.46,8.49,48.82,17.92-23.69,17.28-40.76,43.07-46.68,72.87v.04c-.45,1.86-.79,3.77-.99,5.71v.05c-.31,2.03-.55,4.08-.75,6.14-5.47-5.24-10.38-11.07-14.6-17.38,11.18-16.67,17.72-36.74,17.72-58.34,0-9.35-1.23-18.4-3.52-27.01Z"/>
  <path class="cls-1" d="M162.4,219.72c-3.81,1.72-7.73,3.25-11.75,4.57-2.7-17.28-17.65-30.49-35.67-30.49s-32.99,13.22-35.69,30.49c-4.01-1.31-7.94-2.83-11.75-4.57,4.68-21.89,24.15-38.3,47.44-38.3s42.75,16.41,47.43,38.3Z"/>
  <path class="cls-6" d="M150.91,153.05c1.58,4.01,3.38,7.9,5.43,11.65-4.63,1.78-9.39,3.28-14.27,4.45-1.98-3.85-3.76-7.82-5.31-11.91,4.85-1.06,9.57-2.46,14.15-4.19Z"/>
  <path class="cls-6" d="M145.98,136.6c1.2,5.67,2.86,11.17,4.93,16.45-4.57,1.72-9.29,3.13-14.15,4.19-4.99-13.14-7.73-27.38-7.73-42.27,0-3.84.19-7.62.53-11.35.17.16.35.32.52.49,4.23,3.98,8.78,7.64,13.64,10.9v.6c0,.31.01.62.01.91.11,6.87.87,13.59,2.23,20.08Z"/>
  <path class="cls-4" d="M114.97,193.8c18.02,0,32.97,13.21,35.67,30.49-4.64,1.51-9.41,2.74-14.31,3.65-.99-10.92-10.18-19.48-21.37-19.48s-20.39,8.56-21.39,19.48c-4.88-.91-9.65-2.14-14.29-3.65,2.7-17.26,17.65-30.49,35.69-30.49Z"/>
  <path class="cls-1" d="M136.76,157.23c1.55,4.09,3.33,8.06,5.31,11.91-8.69,2.1-17.77,3.22-27.1,3.22s-18.43-1.12-27.12-3.22c1.99-3.85,3.76-7.82,5.32-11.91,7.02,1.52,14.31,2.33,21.8,2.33s14.76-.8,21.8-2.33Z"/>
  <path class="cls-3" d="M129.17.88c2.29,8.61,3.52,17.66,3.52,27.01,0,21.59-6.54,41.67-17.72,58.34-11.19-16.67-17.72-36.74-17.72-58.34,0-9.35,1.22-18.4,3.52-27.01,4.65-.57,9.39-.88,14.2-.88s9.55.31,14.2.88Z"/>
  <path class="cls-4" d="M129.03,114.97c0,14.88,2.74,29.12,7.73,42.27-7.03,1.52-14.32,2.33-21.8,2.33s-14.78-.8-21.8-2.33c4.99-13.14,7.72-27.38,7.72-42.27,0-3.84-.17-7.62-.53-11.35,5.47-5.24,10.38-11.07,14.61-17.38,4.23,6.31,9.13,12.14,14.6,17.38-.35,3.73-.53,7.51-.53,11.35Z"/>
  <path class="cls-3" d="M114.97,208.46c11.19,0,20.38,8.56,21.37,19.48-6.91,1.31-14.07,1.99-21.37,1.99s-14.47-.68-21.39-1.99c1-10.92,10.19-19.48,21.39-19.48Z"/>
  <path class="cls-1" d="M97.25,27.89c0,21.59,6.53,41.67,17.72,58.34-4.24,6.31-9.15,12.14-14.61,17.38-.12-5.28-.92-10.16-2.33-14.61-6.38-28.68-23.11-53.45-46.08-70.2C66.3,9.37,82.89,3.08,100.77.88c-2.3,8.61-3.52,17.66-3.52,27.01Z"/>
  <path class="cls-6" d="M100.35,103.61c.36,3.73.53,7.51.53,11.35,0,14.88-2.73,29.12-7.72,42.27-4.84-1.06-9.55-2.45-14.11-4.16,2.13-5.4,3.81-11.03,5.01-16.85,1.27-6.15,2.01-12.49,2.14-18.99.03-.53.04-1.08.04-1.63v-.64c4.71-3.17,9.15-6.7,13.26-10.58.27-.24.53-.49.8-.76t.03-.01Z"/>
  <path class="cls-4" d="M100.35,103.61s-.01.01-.03.01c-.27.27-.53.52-.8.76-4.12,3.88-8.56,7.41-13.26,10.58,0-.12-.01-.25-.01-.37v-.05c-.57-16.94-14.49-30.51-31.58-30.51-13.87,0-25.65,8.95-29.9,21.38h0c-1.08,3.21-1.68,6.65-1.68,10.2,0,6.31,1.86,12.19,5.04,17.13h-.28c-2.14,0-4.27-.07-6.38-.2-6.91-7.59-11.27-17.61-11.66-28.61-.03-.55-.04-1.08-.04-1.62,0-7.92,2.06-15.36,5.66-21.82,7.68-13.77,22.37-23.08,39.24-23.08,5.71,0,11.17,1.06,16.18,3.01,12.73,4.91,22.84,14.67,27.18,28.59,1.08,4.76,1.86,9.64,2.33,14.61Z"/>
  <path class="cls-1" d="M98.03,89c1.4,4.45,2.21,9.33,2.33,14.61-.47-4.97-1.24-9.85-2.33-14.61Z"/>
  <path class="cls-5" d="M98.03,89c-4.35-13.92-14.45-23.68-27.18-28.59-7.93-12.9-18.59-23.93-31.18-32.32,3.88-3.36,7.98-6.46,12.29-9.29,22.97,16.75,39.7,41.52,46.08,70.2Z"/>
  <path class="cls-6" d="M93.17,157.23c-1.56,4.09-3.33,8.06-5.32,11.91-4.85-1.18-9.61-2.66-14.21-4.44,2.03-3.74,3.85-7.62,5.43-11.63,4.56,1.71,9.27,3.1,14.11,4.16Z"/>
  <path class="cls-7" d="M86.25,114.59v.37c-2.94,1.97-5.98,3.8-9.12,5.47v-.28c0-12.4-10.06-22.45-22.46-22.45s-22.45,10.06-22.45,22.45c0,4.52,1.34,8.74,3.65,12.27-2.55.2-5.13.31-7.74.31-3.18-4.93-5.04-10.82-5.04-17.13,0-3.56.6-6.99,1.68-10.19h0c4.25-12.45,16.03-21.39,29.9-21.39,17.09,0,31.01,13.57,31.58,30.51v.05Z"/>
  <path class="cls-3" d="M77.13,120.44c3.14-1.67,6.18-3.5,9.12-5.47,0,.76-.01,1.51-.03,2.27-.13,6.5-.87,12.84-2.14,18.99-1.2,5.82-2.89,11.45-5.01,16.85-1.58,4.01-3.4,7.89-5.43,11.63-2.03,3.74-4.29,7.34-6.74,10.79,2.57-4.31,4.05-9.35,4.05-14.74,0-15.93-12.92-28.84-28.84-28.84-.49,0-.99.01-1.48.04,13.06-1.58,25.38-5.58,36.5-11.53Z"/>
  <path class="cls-2" d="M77.13,120.16v.28c-11.12,5.95-23.44,9.95-36.5,11.53h-.08c-1.03.05-2.05.16-3.04.33-.55.05-1.1.09-1.64.13-2.31-3.53-3.65-7.76-3.65-12.27,0-12.4,10.06-22.45,22.45-22.45s22.46,10.06,22.46,22.45Z"/>
  <path class="cls-6" d="M73.64,164.71c4.6,1.78,9.36,3.26,14.21,4.44-8.53,16.67-20.89,31.05-35.9,41.99-4.31-2.82-8.41-5.94-12.29-9.29,8.76-5.83,16.58-12.94,23.21-21.07,1.54-1.58,2.89-3.34,4.01-5.25h.01c2.45-3.46,4.71-7.06,6.74-10.8Z"/>
  <path class="cls-4" d="M70.95,160.76c0,5.39-1.48,10.43-4.05,14.74h-.01c-1.28,1.81-2.62,3.56-4.01,5.27-5.24,5.46-12.61,8.84-20.77,8.84-15.93,0-28.84-12.92-28.84-28.84,0-14.36,10.5-26.27,24.24-28.47,1.02-.09,2.03-.2,3.04-.33h.08c.49-.03.99-.04,1.48-.04,15.93,0,28.84,12.92,28.84,28.84Z"/>
  <path class="cls-6" d="M39.66,28.09c12.6,8.38,23.25,19.42,31.18,32.32-5.01-1.95-10.47-3.01-16.18-3.01-16.87,0-31.57,9.31-39.24,23.08-3.6,6.46-5.66,13.91-5.66,21.82,0,.53.01,1.07.04,1.62.39,11,4.75,21.02,11.66,28.61-7.07-.41-13.96-1.54-20.58-3.3-.59-4.68-.88-9.44-.88-14.27,0-9.93,1.26-19.58,3.64-28.79,2.18-8.48,5.31-16.59,9.28-24.19,6.73-12.93,15.83-24.43,26.74-33.9Z"/>
  <path class="cls-3" d="M35.86,132.43c.55-.04,1.1-.08,1.64-.13-13.75,2.19-24.24,14.11-24.24,28.47,0,15.93,12.92,28.84,28.84,28.84,8.16,0,15.52-3.38,20.77-8.84-6.63,8.13-14.45,15.24-23.21,21.07C18.75,183.7,4.45,158.13.88,129.23c6.62,1.77,13.51,2.89,20.58,3.3,2.11.13,4.24.2,6.38.2h.28c2.61,0,5.19-.11,7.74-.31Z"/>
</svg>