<?xml version="1.0" encoding="UTF-8"?>
<svg id="Layer_1" data-name="Layer 1" xmlns="http://www.w3.org/2000/svg" viewBox="0 0 229.92 229.93">
  <defs>
    <style>
      .cls-1 {
        fill: #6e0a30;
      }

      .cls-2 {
        fill: #1d0f14;
      }

      .cls-3 {
        fill: #9fcc44;
      }

      .cls-4 {
        fill: #e94296;
      }

      .cls-5 {
        fill: #ffd695;
      }

      .cls-6 {
        fill: #1a4f27;
      }

      .cls-7 {
        fill: #fbf9dc;
      }
    </style>
  </defs>
  <g>
    <path class="cls-3" d="M218.94,105.02c0,4.06-.51,8.01-1.47,11.77-4.72-.95-9.6-1.44-14.6-1.44h0c-.17-17.29-14.23-31.25-31.56-31.25-7.25,0-13.92,2.45-19.24,6.55h0c-5.79,4.47-9.99,10.9-11.58,18.29h0c-.48,2.17-.72,4.41-.72,6.71,0,8.95,3.72,17,9.68,22.76-1.78,1.89-3.46,3.86-5.03,5.92-.83-.57-1.64-1.18-2.45-1.79-9.93-7.77-16.75-19.44-18.1-32.68,0-.01-.01-.01-.01-.03-.11-1.1-.19-2.21-.21-3.32-.01-.51-.03-1.02-.03-1.52v-.35c.07-9.75,3.12-18.79,8.24-26.3.78-1.14,1.59-2.23,2.46-3.3,2.79-3.44,6.04-6.47,9.68-9.01.13-.11.29-.21.43-.31,0,0,.01,0,.01-.01,2.96-2.03,6.16-3.73,9.55-5.05.48-.19.96-.36,1.46-.53,4.96-1.77,10.31-2.71,15.87-2.71,10.56,0,20.34,3.44,28.24,9.27,11.75,8.66,19.39,22.62,19.39,38.35Z"/>
    <path class="cls-3" d="M215.69,168.44c.41-.08.8-.16,1.2-.25-1.19,2.26-2.45,4.48-3.77,6.65h-.01c1.11-2.01,1.98-4.15,2.57-6.39h.01Z"/>
    <path class="cls-4" d="M163.65,146.27c2.14-3.52,5-6.54,8.4-8.84.03-.03.07-.05.09-.07.04-.03.08-.07.12-.08,1.59-.96,3.22-1.83,4.91-2.62h.01c3.37-1.42,7.05-2.18,10.91-2.18,15.78,0,28.56,12.78,28.56,28.56,0,2.55-.33,5.04-.96,7.39h-.01c-.59,2.25-1.46,4.39-2.57,6.38-.03.07-.05.13-.09.19-.48.8-1,1.6-1.51,2.39l-.12.19c-1.7,2.39-3.76,4.51-6.1,6.27-1.58,1.19-3.28,2.22-5.08,3.06-3.68,1.72-7.78,2.69-12.11,2.69-11.69,0-21.74-7.02-26.14-17.09,0,0-.01,0-.01-.01-1.46-3.32-2.3-6.94-2.38-10.78-.01-.23-.01-.45-.01-.68,0-5.4,1.5-10.46,4.11-14.78Z"/>
    <path class="cls-3" d="M211.39,177.59c-1.38,2.11-2.81,4.19-4.32,6.19-.6.04-1.19.05-1.78.08,2.34-1.77,4.4-3.88,6.1-6.27Z"/>
    <path class="cls-3" d="M205.29,183.86c.59-.03,1.18-.04,1.78-.08-1.12,1.5-2.29,2.97-3.48,4.41-1.14-.4-2.26-.83-3.38-1.27,1.81-.84,3.5-1.87,5.08-3.06Z"/>
    <path class="cls-3" d="M163.65,146.27c-2.61,4.32-4.11,9.37-4.11,14.78,0,.23,0,.45.01.68.08,3.84.92,7.46,2.38,10.78,0,.01.01.01.01.01,4.4,10.07,14.45,17.09,26.14,17.09,4.33,0,8.44-.96,12.11-2.69,1.12.44,2.25.87,3.38,1.27-5.91,7.14-12.66,13.56-20.11,19.09-8.96,6.66-18.91,12.05-29.59,15.89-1.95-2.77-3.68-5.71-5.13-8.8-3.69-7.78-5.75-16.46-5.75-25.63s2.13-18.16,5.94-26.03c.4-.82.82-1.63,1.24-2.42,1.89-3.46,4.08-6.73,6.58-9.73h0c.04-.05.07-.08.11-.13,2.63-3.16,5.6-6.04,8.83-8.6h0c2.02-1.6,4.13-3.08,6.35-4.39-3.4,2.3-6.26,5.32-8.4,8.84Z"/>
    <path class="cls-2" d="M171.9,122.17c-4.25,1.98-8.28,4.36-12.03,7.07-1.78,1.28-3.49,2.65-5.13,4.08-.33.29-.67.57-.99.88-1.93-2.39-3.36-5.2-4.17-8.25,0,0-.01-.01,0-.03,0,0,0-.01-.01-.01-.48-1.83-.74-3.74-.74-5.74,0-12.42,10.06-22.49,22.49-22.49,10.96,0,20.1,7.85,22.08,18.25h0c-7.59.99-14.82,3.12-21.49,6.23Z"/>
    <path class="cls-5" d="M201.77,39.59c-4.24.07-8.37.53-12.37,1.38-1.66.35-3.29.76-4.91,1.24-8.84,2.59-16.9,7.02-23.75,12.84-1.24,1.06-2.45,2.17-3.6,3.32-.59.56-1.16,1.15-1.71,1.74-.49.17-.98.36-1.46.55-3.38,1.32-6.59,3.02-9.55,5.05,0,.01-.01.01-.01.01-.13.09-.29.2-.43.31-3.64,2.54-6.89,5.58-9.68,9.01-.87,1.07-1.68,2.17-2.46,3.3-5.12,7.51-8.17,16.55-8.24,26.3,0-11.15,2.31-21.77,6.47-31.38h0c1.74-4.06,3.82-7.93,6.19-11.59.12-.2.25-.4.39-.6,9.43-14.29,23.37-25.37,39.79-31.16h0c3.92-1.39,7.97-2.47,12.13-3.24,4.73,3.94,9.15,8.26,13.18,12.92Z"/>
    <path class="cls-6" d="M184.5,42.21c1.62-.48,3.25-.9,4.91-1.24,4-.84,8.13-1.31,12.37-1.38,4.41,5.09,8.4,10.56,11.87,16.38,10.35,17.25,16.27,37.43,16.27,58.99,0,1.85-.04,3.66-.12,5.47-3.2-1.26-6.51-2.3-9.91-3.1-.8-.2-1.6-.37-2.42-.55.96-3.76,1.47-7.7,1.47-11.77,0-15.72-7.64-29.68-19.39-38.35-7.9-5.83-17.68-9.27-28.24-9.27-5.56,0-10.91.95-15.87,2.71h0c.55-.6,1.12-1.19,1.71-1.75,1.15-1.15,2.35-2.26,3.6-3.32,6.85-5.82,14.91-10.24,23.75-12.84Z"/>
    <path class="cls-4" d="M188.59,26.68c-4.16.76-8.21,1.85-12.13,3.22h0c-16.42,5.8-30.37,16.87-39.79,31.17-.13.2-.27.4-.39.6-1.82-.72-3.66-1.36-5.56-1.9.29-20.16,5.63-39.12,14.8-55.65,16.03,4.41,30.66,12.19,43.07,22.56Z"/>
    <path class="cls-3" d="M188.1,132.48c-3.86,0-7.54.76-10.91,2.17.01,0,.03-.01.04-.03,7.77-3.69,16.47-5.75,25.65-5.75s17.69,2.02,25.41,5.64c-2.06,11.95-5.95,23.28-11.38,33.67-.4.09-.79.17-1.2.25.63-2.35.96-4.84.96-7.39,0-15.78-12.78-28.56-28.56-28.56Z"/>
    <path class="cls-6" d="M139.32,151.99c1.4-2.41,2.93-4.73,4.59-6.95.16-.24.35-.48.52-.71,1.56-2.06,3.25-4.04,5.03-5.92,1.38-1.46,2.81-2.86,4.29-4.19h0c.32-.32.66-.6.99-.9,1.64-1.43,3.36-2.79,5.13-4.08,3.76-2.71,7.78-5.09,12.03-7.07,6.67-3.12,13.89-5.24,21.49-6.22,3.1-.4,6.27-.62,9.48-.62,5,0,9.88.49,14.6,1.44.82.17,1.62.35,2.42.55,3.4.8,6.71,1.85,9.91,3.1-.23,4.79-.74,9.48-1.52,14.08-7.72-3.62-16.33-5.64-25.41-5.64s-17.88,2.06-25.65,5.75c-.01.01-.03.03-.04.03h-.01c-1.72.71-3.37,1.59-4.91,2.63-.04.01-.08.05-.12.08-.03.01-.07.04-.09.07-2.22,1.31-4.33,2.78-6.35,4.37h0c-3.22,2.57-6.19,5.46-8.83,8.61-.12-.04-.23-.08-.35-.12.08.09.16.17.24.24h0c-2.5,3.02-4.69,6.28-6.58,9.75-.43.79-.84,1.6-1.24,2.42-3.81,7.88-5.94,16.7-5.94,26.03s2.06,17.85,5.75,25.63c1.46,3.09,3.18,6.03,5.13,8.8-4.41,1.59-8.95,2.91-13.59,3.96-1.82-2.94-3.42-6.02-4.8-9.21-2.17-4.97-3.78-10.23-4.8-15.7,7.42-5.05,12.3-13.56,12.3-23.21,0-7.42-2.89-14.17-7.61-19.19,1.14-2.66,2.43-5.24,3.86-7.73.03-.04.04-.07.05-.09Z"/>
    <path class="cls-6" d="M160.75,55.05c-1.24,1.06-2.45,2.17-3.6,3.32,1.15-1.15,2.35-2.26,3.6-3.32Z"/>
    <path class="cls-5" d="M155.44,60.12c-.49.17-.98.35-1.46.53.48-.19.96-.37,1.46-.55h0Z"/>
    <path class="cls-7" d="M153.74,134.22c-1.48,1.32-2.91,2.73-4.29,4.19-5.96-5.76-9.68-13.81-9.68-22.76,0-2.3.24-4.55.72-6.7h0c1.59-7.41,5.79-13.84,11.58-18.29h0c5.32-4.12,11.99-6.57,19.24-6.57,17.33,0,31.38,13.96,31.56,31.24h0c-3.21.01-6.38.23-9.48.63h0c-1.98-10.42-11.11-18.27-22.08-18.27-12.44,0-22.49,10.07-22.49,22.49,0,1.99.25,3.9.74,5.74.01,0,.01.01.01.01-.01.01,0,.03,0,.03.82,3.05,2.25,5.86,4.17,8.25h0Z"/>
    <path class="cls-5" d="M144.42,144.33c-.17.23-.36.47-.52.71-.66-.83-1.3-1.66-1.93-2.5.8.62,1.62,1.22,2.45,1.79Z"/>
    <path class="cls-5" d="M86.04,145.08c-.17-.25-.36-.49-.55-.74h0c11.23-7.7,19.05-20.07,20.54-34.32,0-.01.01-.01.01-.03h0c.12-1.14.19-2.29.23-3.44.01-.51.03-1.02.03-1.52v-.39c0-11.15-2.31-21.77-6.47-31.38h0c4.72-1.72,9.81-2.66,15.14-2.66s10.4.94,15.12,2.65h0c-4.16,9.63-6.47,20.24-6.47,31.4v.35c0,.51.01,1.02.03,1.52.03,1.11.11,2.22.21,3.32,0,.01.01.01.01.03,1.35,13.24,8.17,24.91,18.1,32.68.63.84,1.27,1.67,1.93,2.5-1.66,2.22-3.18,4.55-4.59,6.95-.01.03-.03.05-.05.09-1.43,2.49-2.73,5.07-3.86,7.73-5.11-5.46-12.37-8.85-20.43-8.85s-15.32,3.4-20.44,8.85c-1.14-2.67-2.43-5.25-3.88-7.74,0-.03-.01-.05-.04-.08-1.39-2.39-2.91-4.71-4.56-6.91Z"/>
    <path class="cls-6" d="M90.6,151.99s.04.05.04.08c1.44,2.49,2.74,5.07,3.88,7.74-4.71,5.01-7.59,11.77-7.59,19.19,0,15.48,12.56,28.04,28.04,28.04,5.83,0,11.26-1.79,15.74-4.83,1.02,5.47,2.63,10.72,4.8,15.7,1.38,3.2,2.98,6.27,4.8,9.21-8.16,1.85-16.63,2.81-25.34,2.81s-17.2-.96-25.34-2.81c-4.65-1.04-9.19-2.37-13.6-3.96,1.95-2.78,3.68-5.72,5.13-8.81,3.69-7.77,5.76-16.46,5.76-25.62s-2.14-18.16-5.95-26.03c-.39-.82-.82-1.63-1.24-2.43-1.87-3.46-4.08-6.71-6.58-9.73-.03-.04-.07-.08-.11-.12-1.4-1.68-2.9-3.3-4.48-4.81-1.38-1.35-2.82-2.61-4.33-3.8h-.01c-2.03-1.62-4.19-3.12-6.43-4.45-.05-.03-.08-.05-.13-.08-1.54-1.03-3.18-1.91-4.91-2.62-.01-.01-.03-.01-.05-.03-1.31-.62-2.63-1.19-3.98-1.71-.9-.36-1.81-.68-2.73-.99-3.22-1.08-6.57-1.89-10.02-2.39-.98-.15-1.98-.28-2.97-.37-1-.11-2.01-.17-3.02-.23-.98-.04-1.95-.07-2.93-.07-3.14,0-6.24.24-9.25.71-2.25.36-4.44.83-6.58,1.42-3.32.9-6.51,2.09-9.56,3.52-.79-4.6-1.31-9.28-1.54-14.07h.01c3.2-1.26,6.5-2.3,9.89-3.1.8-.2,1.62-.37,2.42-.55,4.72-.95,9.6-1.44,14.6-1.44,3.02,0,5.99.19,8.91.55,7.8.94,15.22,3.09,22.06,6.28h.01c5.86,2.73,11.29,6.2,16.17,10.31h0c.55.47,1.1.95,1.64,1.42,1.6,1.43,3.16,2.94,4.63,4.51.45.47.88.95,1.31,1.43,1.3,1.44,2.53,2.94,3.72,4.49h0c.19.25.37.49.55.75,1.64,2.21,3.17,4.52,4.56,6.91Z"/>
    <path class="cls-3" d="M145.52,4.12c-9.17,16.53-14.51,35.49-14.8,55.65-4.99-1.43-10.24-2.19-15.68-2.19.6-20.35,5.71-39.57,14.39-56.67,5.5.68,10.87,1.77,16.1,3.21Z"/>
    <path class="cls-1" d="M135.4,159.81c4.72,5.01,7.61,11.77,7.61,19.19,0,9.65-4.88,18.16-12.3,23.21-4.48,3.04-9.91,4.83-15.74,4.83-15.48,0-28.04-12.56-28.04-28.04,0-7.42,2.89-14.17,7.59-19.19,5.12-5.46,12.38-8.85,20.44-8.85s15.32,3.4,20.43,8.85Z"/>
    <path class="cls-4" d="M130.72,59.77c1.9.53,3.74,1.18,5.56,1.9-2.37,3.66-4.45,7.53-6.19,11.58-4.72-1.71-9.81-2.65-15.12-2.65s-10.42.94-15.14,2.65c-1.74-4.05-3.81-7.92-6.18-11.58,1.81-.72,3.66-1.36,5.55-1.89h0c4.99-1.44,10.26-2.21,15.7-2.21h.13c5.44,0,10.7.76,15.68,2.19Z"/>
    <path class="cls-6" d="M117.25.03c4.12.08,8.17.37,12.17.88-8.68,17.1-13.79,36.32-14.39,56.67h-.13c-.62-20.35-5.74-39.57-14.43-56.67,4-.51,8.08-.8,12.19-.88.78-.01,1.52-.03,2.3-.03s1.52.01,2.29.03Z"/>
    <path class="cls-3" d="M100.47.91c8.69,17.1,13.81,36.32,14.43,56.67-5.44,0-10.71.76-15.7,2.19-.31-20.18-5.66-39.11-14.83-55.64,5.23-1.46,10.6-2.53,16.1-3.22Z"/>
    <path class="cls-3" d="M74.41,60.08s.05.01.08.03c3.93,1.39,7.62,3.29,11,5.6.15.09.29.2.44.31,3.62,2.54,6.89,5.58,9.67,9.03,6.63,8.16,10.67,18.57,10.7,29.9v.09c0,.51-.01,1.02-.03,1.52-.04,1.15-.11,2.3-.23,3.42h0s-.01.03-.01.04c-1.48,14.25-9.31,26.62-20.54,34.31-1.19-1.55-2.42-3.05-3.72-4.49-.43-.48-.86-.96-1.31-1.43,5.96-5.75,9.68-13.81,9.68-22.76,0-10.18-4.81-19.23-12.29-25-3.46-2.65-7.47-4.61-11.83-5.67-2.38-.57-4.87-.88-7.42-.88-17.32,0-31.38,13.96-31.56,31.24h0c-5,.01-9.88.51-14.6,1.46-.96-3.77-1.47-7.7-1.47-11.77,0-15.74,7.64-29.68,19.4-38.36,7.9-5.83,17.66-9.27,28.23-9.27,5.54,0,10.86.95,15.8,2.69Z"/>
    <path class="cls-5" d="M106.3,104.94c-.03-11.33-4.06-21.74-10.7-29.9-2.78-3.45-6.04-6.49-9.67-9.03-.15-.11-.29-.21-.44-.31-3.38-2.31-7.07-4.21-11-5.6-.03-.01-.05-.01-.08-.03-8.93-9.48-20.69-16.33-33.9-19.11-3.98-.84-8.14-1.31-12.37-1.38,4.04-4.65,8.45-8.97,13.18-12.92,4.17.76,8.22,1.85,12.13,3.24,16.43,5.79,30.37,16.86,39.79,31.16.13.2.27.4.4.6,2.37,3.66,4.44,7.53,6.18,11.58h0c4.16,9.63,6.47,20.24,6.47,31.4v.29Z"/>
    <path class="cls-4" d="M99.2,59.77h0c-1.89.53-3.74,1.18-5.55,1.9-.13-.2-.27-.4-.4-.6-9.43-14.29-23.36-25.37-39.79-31.16-3.9-1.39-7.96-2.47-12.13-3.24,12.41-10.35,27.02-18.14,43.04-22.54,9.17,16.53,14.52,35.46,14.83,55.64Z"/>
    <path class="cls-7" d="M90.15,115.65c0,8.95-3.72,17.01-9.68,22.76-1.47-1.56-3.02-3.08-4.63-4.51,1.4-1.83,2.55-3.89,3.34-6.1.01,0,.01-.01.01-.01,0-.01.01-.01.01-.03.84-2.37,1.31-4.92,1.31-7.58,0-12.42-10.07-22.49-22.49-22.49-10.95,0-20.07,7.82-22.08,18.19h0c-2.91-.35-5.88-.53-8.91-.53h0c.17-17.29,14.24-31.25,31.56-31.25,2.55,0,5.04.31,7.42.88,4.36,1.06,8.37,3.02,11.83,5.67,7.47,5.78,12.29,14.83,12.29,25Z"/>
    <path class="cls-3" d="M86.93,188.74c0,9.16-2.07,17.85-5.76,25.62-1.46,3.09-3.18,6.03-5.13,8.81-19.55-7.03-36.65-19.21-49.65-34.93,1.15-.41,2.29-.86,3.42-1.3,3.46,1.62,7.31,2.55,11.37,2.65h.66c11.69,0,21.74-7.02,26.15-17.08h0c1.54-3.52,2.41-7.41,2.41-11.47,0-2.46-.32-4.83-.9-7.1-.2-.82-.44-1.62-.72-2.39-.66-1.86-1.5-3.62-2.5-5.28-2.15-3.56-5.05-6.59-8.48-8.92,2.25,1.34,4.4,2.83,6.43,4.45h.01c1.51,1.19,2.96,2.45,4.33,3.8,1.58,1.51,3.08,3.13,4.48,4.81.04.04.08.08.11.12,2.5,3.02,4.71,6.27,6.58,9.73.43.8.86,1.62,1.24,2.43,3.81,7.88,5.95,16.7,5.95,26.03Z"/>
    <path class="cls-2" d="M80.52,120.18c0,2.66-.47,5.21-1.31,7.58,0,.01-.01.01-.01.03,0,0,0,.01-.01.01-.79,2.21-1.94,4.27-3.34,6.1-.55-.47-1.1-.95-1.64-1.4h0c-4.88-4.12-10.31-7.59-16.17-10.32h-.01c-6.85-3.2-14.27-5.35-22.06-6.28h0c2.01-10.38,11.12-18.2,22.08-18.2,12.42,0,22.49,10.07,22.49,22.49Z"/>
    <path class="cls-4" d="M69.49,153.94c.57,2.27.9,4.64.9,7.1,0,4.06-.87,7.96-2.41,11.46h0c-4.41,10.07-14.47,17.09-26.15,17.09h-.66c-4.05-.09-7.9-1.03-11.37-2.65-1.85-.84-3.57-1.89-5.17-3.09-2.34-1.78-4.39-3.88-6.1-6.27-.08-.13-.17-.25-.25-.39-.49-.76-.98-1.54-1.46-2.31-1.11-2.02-1.99-4.17-2.59-6.45-.63-2.35-.96-4.84-.96-7.39,0-4.19.9-8.14,2.5-11.71,1.97-4.37,5-8.17,8.77-11.04h0c1.5-1.12,3.12-2.11,4.83-2.96,1.03-.49,2.09-.94,3.18-1.31,2.9-.99,6.03-1.54,9.28-1.54,1.44,0,2.86.11,4.25.31.92.15,1.83.32,2.73.55s1.77.49,2.62.8c.43.15.86.31,1.27.48.03.01.04.01.05.03,1.67.79,3.32,1.67,4.91,2.62.05.03.08.05.13.08,3.42,2.33,6.32,5.36,8.48,8.92,1,1.66,1.85,3.42,2.5,5.28.28.78.52,1.58.72,2.39Z"/>
    <path class="cls-6" d="M40.52,40.97c13.21,2.78,24.96,9.63,33.9,19.11-4.95-1.74-10.27-2.69-15.8-2.69-10.56,0-20.32,3.44-28.23,9.27-11.77,8.68-19.4,22.62-19.4,38.36,0,4.06.51,8,1.47,11.77-.8.17-1.62.35-2.42.55-3.4.8-6.7,1.85-9.89,3.1h-.01c-.08-1.81-.12-3.62-.12-5.47,0-21.57,5.94-41.75,16.29-58.99,3.46-5.82,7.45-11.29,11.86-16.38,4.23.07,8.38.53,12.37,1.38Z"/>
    <path class="cls-3" d="M13.81,169.63c-.27-.48-.52-.96-.78-1.44-5.44-10.39-9.33-21.72-11.38-33.68,3.05-1.43,6.24-2.62,9.56-3.52,2.14-.59,4.33-1.06,6.58-1.42h0c3.01-.45,6.11-.7,9.25-.7.98,0,1.95.01,2.93.07,1.02.05,2.02.12,3.02.21.99.11,1.99.23,2.97.37,3.45.51,6.79,1.31,10.02,2.39.92.31,1.83.64,2.73.99,1.35.52,2.67,1.1,3.98,1.71-.41-.17-.84-.33-1.27-.48-.86-.31-1.72-.57-2.62-.8s-1.81-.4-2.73-.55c-1.39-.21-2.81-.32-4.25-.32-3.25,0-6.38.55-9.28,1.55-1.1.37-2.15.8-3.18,1.31-1.71.83-3.33,1.82-4.83,2.96-3.77,2.87-6.81,6.67-8.77,11.04-1.6,3.57-2.5,7.53-2.5,11.71,0,2.55.33,5.04.96,7.39.6,2.27,1.48,4.43,2.59,6.45-1.04-1.72-2.06-3.48-3.01-5.25Z"/>
    <path class="cls-4" d="M48.81,133.34c.9.23,1.77.49,2.62.8-.86-.31-1.72-.57-2.62-.8Z"/>
    <path class="cls-3" d="M45.98,131.92c.92.31,1.83.63,2.73.99-.9-.35-1.81-.68-2.73-.99Z"/>
    <path class="cls-4" d="M41.83,132.47c1.44,0,2.86.11,4.25.32-1.39-.2-2.81-.31-4.25-.31h0Z"/>
    <path class="cls-4" d="M41.83,132.47h0c-3.25.01-6.38.56-9.28,1.55,2.9-1,6.03-1.55,9.28-1.55Z"/>
    <path class="cls-3" d="M33,129.15c.99.09,1.99.23,2.97.37-.98-.15-1.98-.27-2.97-.37Z"/>
    <path class="cls-3" d="M29.98,128.93c1.02.05,2.02.12,3.02.23-1-.09-2.01-.16-3.02-.21h0Z"/>
    <path class="cls-4" d="M29.36,135.33c1.03-.51,2.09-.94,3.18-1.31-1.1.37-2.15.82-3.18,1.31Z"/>
    <path class="cls-3" d="M29.98,128.93h0c-.98-.04-1.95-.05-2.93-.05h0c.98-.01,1.95.01,2.93.05Z"/>
    <path class="cls-3" d="M29.8,186.95c-1.14.44-2.27.88-3.42,1.3-1.2-1.46-2.38-2.94-3.52-4.47.59.04,1.18.05,1.77.08,1.6,1.2,3.33,2.25,5.17,3.09Z"/>
    <path class="cls-3" d="M27.05,128.86h0c-3.14.01-6.24.25-9.25.72h0c3.01-.48,6.11-.72,9.25-.72Z"/>
    <path class="cls-4" d="M24.54,138.29c1.5-1.14,3.12-2.13,4.83-2.96-1.71.84-3.33,1.83-4.83,2.97h0Z"/>
    <path class="cls-3" d="M24.63,183.86c-.59-.03-1.18-.04-1.77-.08-1.51-2.02-2.97-4.08-4.33-6.19,1.71,2.39,3.76,4.49,6.1,6.27Z"/>
  </g>
  <path class="cls-2" d="M77.77,179c-5.82-36.82,42.03-56.38,66.09-28.9,7.1,8.03,10.33,19.12,8.29,28.9-1.97-9.73-6.75-17.99-13.5-23.69-22.56-19.21-55.8-5.12-60.89,23.69h0Z"/>
</svg>