<?xml version="1.0" encoding="UTF-8"?>
<svg id="Layer_1" data-name="Layer 1" xmlns="http://www.w3.org/2000/svg" viewBox="0 0 231.1 231.1">
  <defs>
    <style>
      .cls-1 {
        fill: #6e0a30;
      }

      .cls-2 {
        fill: #1d0f14;
      }

      .cls-3 {
        fill: #9fcc44;
      }

      .cls-4 {
        fill: #e94296;
      }

      .cls-5 {
        fill: #ffd695;
      }

      .cls-6 {
        fill: #1a4f27;
      }

      .cls-7 {
        fill: #fbf9dc;
      }
    </style>
  </defs>
  <g>
    <path class="cls-4" d="M218.62,63.33c8,15.67,12.48,33.42,12.48,52.22,0,28.34-10.2,54.28-27.13,74.38h-.03c-.14.03-.52.11-.55.11-7.04,2.36-14.57,3.66-22.4,3.66-11.65,0-22.68-2.83-32.35-7.86-.74-2.36-1.73-4.59-2.94-6.68,16.99-7.45,30.67-20.97,38.4-37.82,11.41-.96,21.33-7.15,27.4-16.13.38-.58.74-1.15,1.13-1.73,3.3-5.55,5.17-11.98,5.17-18.91,0-20.39-16.52-36.94-36.94-36.94s-36.91,16.55-36.91,36.94c0,3.05.36,5.99,1.07,8.82-5.19-10.66-15.94-18.14-28.48-18.58,5.96-13.52,16.05-24.87,28.69-32.3.19-.14.38-.25.58-.36l.03.08c0-.05.03-.08.05-.14,10.33-5.99,22.32-9.37,35.1-9.37,13.66,0,26.41,3.88,37.22,10.61h.41Z"/>
    <path class="cls-4" d="M218.62,63.33h-.41c-10.8-6.73-23.56-10.61-37.22-10.61-12.78,0-24.76,3.38-35.1,9.37,4.26-15.42,18.33-26.8,35.1-26.8,11.96,0,22.57,5.74,29.22,14.62.8,1.02,1.98,2.23,2.67,3.33.16.25.3.49.47.74,1.59,2.5,3.08,5.06,4.45,7.7.27.55.58,1.1.82,1.65Z"/>
    <path class="cls-7" d="M217.8,104.56c0,6.93-1.87,13.36-5.17,18.91-.38.58-.74,1.15-1.13,1.73-6.07,8.99-16,15.17-27.4,16.13,2.23-4.89,3.96-10.06,5.11-15.45.08-.11.19-.25.27-.36,4.67-2.28,8.63-5.77,11.52-10.03l.91-1.4c2.64-4.45,4.15-9.62,4.15-15.17,0-1.02-.05-2.03-.16-3.02v-.03c-1.51-14.95-14.16-26.61-29.49-26.61-16.38,0-29.66,13.28-29.66,29.66s13.28,29.66,29.66,29.66c4.62,0,8.96-1.04,12.86-2.94,0,.08-.03.16-.05.25-4.56,5.55-9.73,10.58-15.39,14.95-11.68-2.25-21.41-10.03-26.36-20.5,0-.03-.03-.05-.03-.08-.55-2.36-1.35-4.65-2.39-6.79-.03-.03-.03-.05-.03-.08-.71-2.83-1.07-5.77-1.07-8.82,0-20.39,16.52-36.94,36.91-36.94s36.94,16.55,36.94,36.94Z"/>
    <path class="cls-2" d="M205.89,95.87v.03c.11.99.16,2.01.16,3.02,0,5.55-1.51,10.72-4.15,15.17l-.91,1.4c-2.89,4.26-6.84,7.75-11.52,10.03-.08.05-.14.08-.22.11-3.9,1.9-8.25,2.94-12.86,2.94-16.38,0-29.66-13.28-29.66-29.66s13.28-29.66,29.66-29.66c15.34,0,27.98,11.65,29.49,26.61Z"/>
    <path class="cls-3" d="M203.39,190.04s.41-.08.55-.11c-21.16,25.18-52.88,41.15-88.37,41.17,11.93,0,22.48-6.05,28.72-15.23,3.77-5.58,5.99-12.29,5.99-19.51,0-3.68-.58-7.2-1.65-10.53,9.67,5.03,20.7,7.86,32.35,7.86,7.83,0,15.36-1.29,22.4-3.66Z"/>
    <path class="cls-3" d="M189.21,125.88c-1.15,5.39-2.89,10.55-5.11,15.45-7.72,16.85-21.41,30.37-38.4,37.82-9.32,4.12-19.62,6.4-30.45,6.4s-20.81-2.2-29.99-6.18c-1.21-.52-2.39-1.07-3.55-1.65-.91-.44-1.84-.93-2.72-1.43h-.03c-.93-.49-1.84-1.02-2.72-1.57-1.76-1.07-3.49-2.2-5.14-3.41-.6-.41-1.15-.82-1.73-1.26-.11-.08-.22-.16-.3-.25-1.13-.85-2.2-1.73-3.27-2.67-.08-.05-.16-.14-.25-.22-1.13-.96-2.23-2.01-3.3-3.05-1.1-1.07-2.17-2.2-3.19-3.33-.96-1.07-1.87-2.14-2.78-3.27-1.04-1.26-2.03-2.58-2.97-3.93-.66-.93-1.29-1.87-1.87-2.8-.63-.99-1.24-1.98-1.81-2.97t-.03-.03c-.52-.93-1.04-1.9-1.54-2.86-.58-1.07-1.1-2.2-1.62-3.33h-.03c-2.23-4.89-3.96-10.03-5.11-15.42,4.51,5.5,9.62,10.47,15.25,14.84,14.73,11.46,32.96,18.72,52.77,19.9,1.48.11,2.97.16,4.45.16.49.03.96.03,1.46.03,22.07,0,42.38-7.48,58.57-20.04,5.66-4.37,10.83-9.4,15.39-14.95Z"/>
    <path class="cls-1" d="M176.95,17.65c-5.72,9.89-16.38,16.57-28.64,16.57-18,0-32.63-14.37-33.04-32.27,0-.03-.03-.03-.03-.05s.03-.03.03-.05c-.03-.44,0-.88.03-1.29h-.03c-.03-.19,0-.36,0-.55h.27c.85,0,1.68.03,2.53.05,21.6.47,41.78,6.82,58.87,17.59Z"/>
    <path class="cls-1" d="M148.64,185.83c1.07,3.33,1.65,6.84,1.65,10.53,0,7.23-2.23,13.94-5.99,19.51-6.21-9.21-16.77-15.25-28.72-15.25s-22.51,6.05-28.75,15.25c-3.79-5.58-5.99-12.29-5.99-19.51,0-3.71.58-7.31,1.7-10.66,0-.05,0-.08.03-.14.69-2.17,1.59-4.23,2.69-6.16v-.03c9.18,3.99,19.32,6.18,29.99,6.18s21.14-2.28,30.45-6.4c1.21,2.09,2.2,4.32,2.94,6.68Z"/>
    <path class="cls-4" d="M147.46,120.33c.55,2.39.85,4.89.85,7.48,0,18.28-14.81,33.07-33.07,33.07-.49,0-.96,0-1.46-.03-1.46-.05-2.89-.22-4.26-.47-15.53-2.72-27.35-16.24-27.35-32.57,0-3.38.52-6.68,1.46-9.76.03-.03.03-.05.03-.08.33-.8.6-1.57.88-2.39v-.03c.25-.66.55-1.29.85-1.92.36-.74.74-1.48,1.15-2.23.19-.3.38-.63.58-.93.93-1.57,2.01-3.02,3.22-4.37l.74-.82c.33-.38.71-.77,1.1-1.13.38-.38.77-.74,1.18-1.1.38-.36.8-.69,1.21-1.02.52-.44,1.07-.85,1.59-1.24.6-.41,1.21-.8,1.84-1.18.6-.38,1.24-.74,1.9-1.1l.16-.08c.63-.33,1.26-.63,1.92-.91.8-.36,1.62-.69,2.45-.96.71-.25,1.43-.47,2.17-.66.08-.03.16-.05.22-.08.77-.19,1.54-.36,2.31-.49.66-.14,1.32-.25,1.98-.33.41-.03.8-.08,1.24-.11.58-.05,1.13-.08,1.7-.11.38-.03.8-.03,1.18-.03.44,0,.85,0,1.29.05,12.53.44,23.28,7.92,28.48,18.58,0,.03,0,.05.03.08.55,2.36,1.37,4.62,2.39,6.79,0,.03.03.05.03.08Z"/>
    <path class="cls-4" d="M145.89,62.09c-.03.05-.05.08-.05.14l-.03-.08v-.03s.05-.03.08-.03Z"/>
    <path class="cls-5" d="M145.81,62.12v.03c-.19.11-.38.22-.58.36-18.11-13.47-29.99-35.04-29.99-59.37,0-.41,0-.8.03-1.18.41,17.89,15.03,32.27,33.04,32.27,12.26,0,22.92-6.68,28.64-16.57,14.43,9.07,26.72,21.25,35.92,35.59-.69-1.1-1.87-2.31-2.67-3.33-6.65-8.88-17.26-14.62-29.22-14.62-16.77,0-30.84,11.38-35.1,26.8-.03,0-.05,0-.08.03Z"/>
    <path class="cls-4" d="M145.04,113.46c1.04,2.14,1.84,4.43,2.39,6.79-1.02-2.17-1.84-4.43-2.39-6.79Z"/>
    <path class="cls-4" d="M115.58,200.62c11.96,0,22.51,6.05,28.72,15.25-6.24,9.18-16.79,15.23-28.72,15.23h-.03c-11.96,0-22.48-6.05-28.72-15.23,6.24-9.21,16.79-15.25,28.75-15.25Z"/>
    <path class="cls-6" d="M145.23,62.5c-12.64,7.42-22.73,18.77-28.69,32.3-.44-.05-.85-.05-1.29-.05-.38,0-.8,0-1.18.03-5.96-13.44-16.05-24.87-28.64-32.3,18.11-13.5,29.82-35.04,29.82-59.34,0,24.32,11.87,45.9,29.99,59.37Z"/>
    <path class="cls-5" d="M115.25,160.87c18.25,0,33.07-14.79,33.07-33.07,0-2.58-.3-5.08-.85-7.48,4.95,10.47,14.68,18.25,26.36,20.5-16.19,12.56-36.5,20.04-58.57,20.04Z"/>
    <path class="cls-1" d="M115.22,1.84s.03.03.03.05c0,0-.03.03-.03.05-.41,17.89-15.06,32.27-33.04,32.27-12.12,0-22.76-6.54-28.48-16.3C71.49,6.62,92.6.05,115.22,0c0,.19.03.36,0,.55h-.03c.03.41.05.85.03,1.29Z"/>
    <path class="cls-5" d="M115.22,1.95c.03.38.03.77.03,1.18,0,24.3-11.71,45.85-29.82,59.34l-.58-.33v-.03c-4.23-15.47-18.36-26.83-35.18-26.83-11.96,0-22.57,5.74-29.22,14.62,8.82-12.78,20.15-23.67,33.26-31.99,5.72,9.76,16.35,16.3,28.48,16.3,17.98,0,32.63-14.37,33.04-32.27Z"/>
    <path class="cls-4" d="M112.36,94.88c-.44.03-.82.08-1.24.11.41-.05.82-.08,1.24-.11Z"/>
    <path class="cls-5" d="M109.53,160.38c-.05.11-.11.22-.19.3-19.82-1.18-38.04-8.44-52.77-19.9,12.4-2.5,22.54-11.19,27.07-22.73-.93,3.08-1.46,6.38-1.46,9.76,0,16.33,11.82,29.85,27.35,32.57Z"/>
    <path class="cls-3" d="M86.83,215.87c6.24,9.18,16.77,15.23,28.72,15.23-35.4,0-67.06-15.94-88.23-41.01,6.95,2.31,14.62,3.6,22.35,3.6,11.79,0,23.12-2.89,32.87-8-1.13,3.35-1.7,6.95-1.7,10.66,0,7.23,2.2,13.94,5.99,19.51Z"/>
    <path class="cls-4" d="M94.58,102.03c-.41.33-.82.66-1.21,1.02.38-.36.8-.71,1.21-1.02Z"/>
    <path class="cls-4" d="M93.37,103.04c-.41.36-.8.71-1.18,1.1.36-.38.77-.74,1.18-1.1Z"/>
    <path class="cls-4" d="M91.09,105.27l-.74.82c.22-.27.47-.55.74-.82Z"/>
    <path class="cls-4" d="M87.13,110.46c-.19.3-.38.63-.58.93.16-.33.36-.63.58-.93Z"/>
    <path class="cls-4" d="M86.06,101.53c-.03-.63-.11-1.26-.19-1.9.08.63.16,1.26.19,1.9Z"/>
    <path class="cls-4" d="M85.87,99.64c-.11-.8-.22-1.59-.38-2.36.16.77.27,1.57.38,2.36Z"/>
    <path class="cls-4" d="M85.45,97.11c-.16-.74-.33-1.46-.52-2.17.19.71.36,1.46.52,2.17Z"/>
    <path class="cls-4" d="M84.93,94.94c-.19-.74-.41-1.46-.66-2.14.25.71.47,1.43.66,2.14Z"/>
    <path class="cls-4" d="M85.26,179.37v.03c-1.1,1.92-2.01,3.99-2.69,6.16-.03.05-.03.08-.03.14-9.76,5.11-21.08,8-32.87,8-7.72,0-15.39-1.29-22.35-3.6l-.05-.05s-.03-.03-.03-.03C10.22,169.89,0,143.94,0,115.55c0-.99,0-1.95.05-2.91,0-.38,0-.77.03-1.15,0-.66.03-1.32.08-1.95.85-16.55,5.17-32.19,12.29-46.18v-.03h.03c10.8-6.73,23.53-10.61,37.19-10.61,12.81,0,24.82,3.41,35.18,9.4v.03l.58.33c12.59,7.42,22.68,18.86,28.64,32.3-.58.03-1.13.05-1.7.11-.41.03-.82.05-1.24.11-.66.08-1.32.19-1.98.33-.77.14-1.57.3-2.31.49-.05.03-.14.05-.22.08-.74.16-1.46.41-2.17.66-.82.27-1.65.6-2.45.96-.66.27-1.29.58-1.92.91l-.16.08c-.66.33-1.29.71-1.9,1.1-.63.38-1.24.77-1.84,1.18-.52.38-1.07.8-1.59,1.24-.41.3-.82.66-1.21,1.02-.41.36-.82.71-1.18,1.1-.38.36-.77.74-1.1,1.13-.27.27-.52.55-.74.82-1.21,1.35-2.28,2.8-3.22,4.37-.22.3-.41.6-.58.93-.41.74-.8,1.48-1.15,2.23-.3.63-.58,1.26-.85,1.92,0-.05.03-.11.03-.14,1.04-3.44,1.62-7.09,1.62-10.86,0-.71-.03-1.4-.08-2.09,0-.3-.03-.63-.05-.93-.03-.63-.11-1.26-.19-1.9-.11-.8-.22-1.59-.38-2.36,0-.05-.03-.11-.03-.16-.16-.71-.33-1.46-.52-2.17s-.41-1.43-.66-2.14l-.08-.25c-.19-.6-.41-1.21-.69-1.81-.05-.19-.14-.36-.22-.55-.25-.63-.55-1.26-.85-1.9-.36-.74-.74-1.46-1.15-2.14-.27-.47-.55-.93-.85-1.4-.16-.27-.36-.55-.55-.82-.33-.49-.66-.99-1.02-1.46-.22-.33-.47-.66-.74-.96-.52-.66-1.07-1.29-1.62-1.9-.36-.41-.74-.8-1.13-1.15-1.29-1.32-2.69-2.5-4.18-3.6-.41-.33-.85-.63-1.29-.91-.44-.33-.91-.6-1.37-.91-.69-.41-1.4-.82-2.12-1.18-.74-.41-1.51-.8-2.31-1.13-.3-.14-.58-.25-.88-.36-.8-.36-1.62-.66-2.45-.91-.44-.16-.91-.3-1.35-.44-1.07-.3-2.17-.55-3.27-.77-.55-.08-1.07-.19-1.62-.25-1.73-.25-3.49-.38-5.28-.38-20.42,0-36.94,16.55-36.94,36.94,0,6.93,1.87,13.36,5.17,18.91.38.58.74,1.15,1.13,1.73,6.16,9.1,16.22,15.31,27.82,16.16h.03c.52,1.13,1.04,2.25,1.62,3.33.49.96,1.02,1.92,1.54,2.86t.03.03c.58.99,1.18,1.98,1.81,2.97.58.96,1.21,1.9,1.87,2.8.93,1.35,1.92,2.67,2.97,3.93.88,1.13,1.81,2.23,2.78,3.27,1.02,1.15,2.06,2.25,3.19,3.33,1.04,1.04,2.17,2.09,3.3,3.05.08.08.16.16.25.22,1.07.93,2.14,1.81,3.27,2.67.08.08.19.16.3.25.58.44,1.15.88,1.73,1.26,1.65,1.21,3.38,2.34,5.14,3.41.88.55,1.79,1.07,2.72,1.57h.03c.88.49,1.79.99,2.72,1.43,1.15.58,2.34,1.13,3.55,1.65Z"/>
    <path class="cls-7" d="M84.55,115.58c-.33.77-.63,1.59-.88,2.39,0,.03,0,.05-.03.08-4.54,11.54-14.68,20.23-27.07,22.73-5.63-4.37-10.75-9.35-15.25-14.84-.03-.03-.03-.05-.03-.08,3.79,1.76,8,2.72,12.42,2.72,16.38,0,29.66-13.28,29.66-29.66s-13.28-29.66-29.66-29.66c-15.06,0-27.51,11.21-29.41,25.78v.03c-.16,1.26-.25,2.53-.25,3.85,0,5.55,1.51,10.72,4.15,15.17l.91,1.4c3,4.43,7.17,8.03,12.07,10.31l.03.03c.05.03.08.05.11.11,1.15,5.39,2.89,10.53,5.11,15.42-11.6-.85-21.66-7.06-27.82-16.16-.38-.58-.74-1.15-1.13-1.73-3.3-5.55-5.17-11.98-5.17-18.91,0-20.39,16.52-36.94,36.94-36.94,1.79,0,3.55.14,5.28.38.55.05,1.1.16,1.62.25,1.1.22,2.2.47,3.27.77.47.16.91.3,1.35.44.82.27,1.65.58,2.45.91.3.11.58.22.88.36.77.36,1.54.74,2.31,1.13l1.32.74c.27.14.52.3.8.44.47.3.93.58,1.37.91.44.27.88.58,1.29.91,1.48,1.1,2.89,2.28,4.18,3.6.38.38.74.74,1.13,1.15.55.6,1.1,1.24,1.62,1.9.25.33.49.63.74.96.36.47.69.96,1.02,1.46.19.27.38.55.55.82.3.47.58.93.85,1.4.41.69.8,1.4,1.15,2.14.3.63.6,1.26.85,1.9.08.19.16.36.22.55.25.6.49,1.21.69,1.81l.08.25c.25.69.47,1.4.66,2.14.19.71.36,1.43.52,2.17,0,.05.03.11.03.16.16.77.27,1.57.38,2.36.08.63.16,1.26.19,1.9.03.3.05.6.05.93.05.69.08,1.37.08,2.09,0,3.77-.58,7.42-1.62,10.86,0,.03-.03.08-.03.14v.03Z"/>
    <path class="cls-4" d="M84.19,92.54c-.19-.6-.44-1.21-.69-1.81.27.6.49,1.21.69,1.81Z"/>
    <path class="cls-4" d="M83.28,90.18c-.25-.63-.55-1.26-.85-1.9.3.63.6,1.26.85,1.9Z"/>
    <path class="cls-4" d="M81.27,86.14c-.27-.47-.55-.93-.85-1.4.3.47.58.93.85,1.4Z"/>
    <path class="cls-2" d="M53.71,69.26c16.38,0,29.66,13.28,29.66,29.66s-13.28,29.66-29.66,29.66c-4.43,0-8.63-.96-12.42-2.72-.03,0-.05-.03-.08-.03l-.03-.03c-4.89-2.28-9.07-5.88-12.07-10.31l-.91-1.4c-2.64-4.45-4.15-9.62-4.15-15.17,0-1.32.08-2.58.25-3.85v-.03c1.9-14.57,14.35-25.78,29.41-25.78Z"/>
    <path class="cls-4" d="M49.67,35.29c16.82,0,30.95,11.35,35.18,26.83-10.36-5.99-22.37-9.4-35.18-9.4-13.66,0-26.39,3.88-37.19,10.61,1.59-3.24,3.38-6.38,5.33-9.43.11-.22.25-.41.38-.63.47-.8.99-1.59,1.54-2.34.22-.33.47-.66.71-1.02,6.65-8.88,17.26-14.62,29.22-14.62Z"/>
    <path class="cls-4" d="M69.37,170.05c.58.44,1.13.85,1.73,1.26-.58-.38-1.15-.82-1.73-1.26Z"/>
    <path class="cls-4" d="M65.8,167.14c1.07.93,2.14,1.81,3.27,2.67-1.13-.85-2.2-1.73-3.27-2.67Z"/>
    <path class="cls-4" d="M68.52,73.03c-.27-.14-.52-.3-.8-.44l-1.32-.74c.71.36,1.43.77,2.12,1.18Z"/>
    <path class="cls-4" d="M62.25,163.87c1.07,1.04,2.17,2.09,3.3,3.05-1.13-.96-2.25-2.01-3.3-3.05Z"/>
    <path class="cls-4" d="M64.1,70.72c.8.33,1.57.71,2.31,1.13-.77-.38-1.54-.77-2.31-1.13Z"/>
    <path class="cls-4" d="M59.07,160.54c1.02,1.13,2.09,2.25,3.19,3.33-1.13-1.07-2.17-2.17-3.19-3.33Z"/>
    <path class="cls-4" d="M63.22,70.36c-.8-.33-1.62-.63-2.45-.91.82.25,1.65.55,2.45.91Z"/>
    <path class="cls-4" d="M60.77,69.46c-.44-.14-.88-.27-1.35-.44.44.14.91.27,1.35.44Z"/>
    <path class="cls-4" d="M56.29,157.27c.91,1.13,1.81,2.2,2.78,3.27-.96-1.04-1.9-2.14-2.78-3.27Z"/>
    <path class="cls-4" d="M56.15,68.25c-.52-.08-1.07-.19-1.62-.25.55.05,1.07.16,1.62.25Z"/>
    <path class="cls-7" d="M41.28,125.86s0,.05.03.08c-.03-.05-.05-.08-.11-.11.03,0,.05.03.08.03Z"/>
  </g>
  <path class="cls-1" d="M12.31,104.55c0,6.93,1.87,13.36,5.17,18.91.38.58.74,1.15,1.13,1.73,6.16,9.1,16.22,15.31,27.82,16.16h.03c2.56,5.63,5.8,10.88,9.62,15.64-3.27.77-6.68,1.15-10.2,1.15C20.56,158.14.05,137.75.05,112.63c0-.38,0-.77.03-1.15,0-.66.03-1.32.08-1.95,1.59-23.72,21.44-42.44,45.71-42.44,3.57,0,7.06.41,10.39,1.18-2.28-.44-4.62-.66-7.01-.66-20.42,0-36.94,16.55-36.94,36.94Z"/>
  <path class="cls-3" d="M113.98,94.76c-9.07.3-17.21,4.29-22.98,10.5-2.78,2.97-5,6.46-6.54,10.28,0-.06.03-.11.03-.14,1.04-3.44,1.62-7.09,1.62-10.86,0-13.33-7.06-25.04-17.67-31.53-.27-.14-.52-.3-.8-.44-3.49-2.03-7.37-3.52-11.46-4.32-3.33-.77-6.82-1.18-10.39-1.18C21.52,67.08,1.67,85.8.08,109.52c.85-16.55,5.17-32.19,12.29-46.18v-.03h.03c10.8-6.73,23.53-10.61,37.19-10.61,12.81,0,24.82,3.41,35.18,9.4v.03c.19.11.38.22.58.33,12.59,7.42,22.68,18.86,28.64,32.3Z"/>
  <path class="cls-1" d="M218.21,104.58c0,6.93-1.87,13.36-5.17,18.91-.38.58-.74,1.15-1.13,1.73-6.16,9.1-16.22,15.31-27.82,16.16h-.03c-2.56,5.63-5.8,10.88-9.62,15.64,3.27.77,6.68,1.15,10.2,1.15,25.31,0,45.82-20.39,45.82-45.52,0-.38,0-.77-.03-1.15,0-.66-.03-1.32-.08-1.95-1.59-23.72-21.44-42.44-45.71-42.44-3.57,0-7.06.41-10.39,1.18,2.28-.44,4.62-.66,7.01-.66,20.42,0,36.94,16.55,36.94,36.94Z"/>
  <path class="cls-3" d="M116.54,94.8c9.07.3,17.21,4.29,22.98,10.5,2.78,2.97,4.86,6.38,6.4,10.2-.1-.04.12-.03.12-.06-1.04-3.44-1.62-7.09-1.62-10.86,0-13.33,7.06-25.04,17.67-31.53.27-.14.52-.3.8-.44,3.49-2.03,7.37-3.52,11.46-4.32,3.33-.77,6.82-1.18,10.39-1.18,24.27,0,44.11,18.72,45.71,42.44-.85-16.55-5.17-32.19-12.29-46.18v-.03h-.03c-10.8-6.73-23.53-10.61-37.19-10.61-12.81,0-24.82,3.41-35.18,9.4v.03c-.19.11-.38.22-.58.33-12.59,7.42-22.68,18.86-28.64,32.3Z"/>
  <path class="cls-1" d="M84.57,115.4c1.04-3.44,1.62-7.09,1.62-10.86,0-13.33-7.06-25.04-17.67-31.53,11.79,6.68,20.31,18.42,22.57,32.24-2.78,2.97-5,6.46-6.54,10.28,0-.06.03-.11.03-.14Z"/>
</svg>