<?xml version="1.0" encoding="UTF-8"?>
<svg id="Layer_1" data-name="Layer 1" xmlns="http://www.w3.org/2000/svg" viewBox="0 0 230.96 231.04">
  <defs>
    <style>
      .cls-1 {
        fill: #6e0a30;
      }

      .cls-2 {
        fill: #1d0f14;
      }

      .cls-3 {
        fill: #9fcc44;
      }

      .cls-4 {
        fill: #e94296;
      }

      .cls-5 {
        fill: #ffd695;
      }

      .cls-6 {
        fill: #1a4f27;
      }

      .cls-7 {
        fill: #fbf9dc;
      }
    </style>
  </defs>
  <path class="cls-3" d="M222.41,71.82c5.52,13.5,8.55,28.26,8.55,43.7,0,22.4-6.38,43.32-17.4,61.02-5.61-1.59-10.86-4.12-15.53-7.37.8-3.99.96-8.19.36-12.48-.69-4.81-2.25-9.26-4.56-13.22,14.35-8,23.03-24.24,20.59-41.5-1.35-9.4-5.77-17.59-12.12-23.69,6.07-3.38,12.86-5.63,20.12-6.46Z"/>
  <path class="cls-5" d="M214.53,56.1c3.02,5,5.66,10.25,7.89,15.72-7.26.82-14.05,3.08-20.12,6.46-7.01-6.73-16.35-10.94-26.44-11.41,1.02.05,2.09.08,3.13.08,13.19,0,25.4-4.01,35.54-10.86Z"/>
  <path class="cls-6" d="M202.29,78.28c6.35,6.1,10.77,14.29,12.12,23.69,2.45,17.26-6.24,33.5-20.59,41.5-4.26,2.39-9.04,4.04-14.18,4.78-15.53,2.2-30.23-4.62-38.86-16.46-3.82-5.22-6.43-11.46-7.39-18.31-.74-5.14-.47-10.2.63-14.95.38-.05.74-.11,1.13-.16-.27,1.62-.38,3.3-.38,5,0,19.16,15.53,34.69,34.69,34.69s34.66-15.53,34.66-34.69-15.53-34.69-34.66-34.69c-.82,0-1.65.03-2.47.11.14-.47.25-.96.36-1.43.27-.05.52-.11.8-.14,2.47-.36,4.95-.47,7.37-.36h.36c10.09.47,19.43,4.67,26.44,11.41Z"/>
  <path class="cls-4" d="M201.61,38.62c4.84,5.39,9.18,11.24,12.92,17.48-10.14,6.84-22.35,10.86-35.54,10.86-1.04,0-2.12-.03-3.13-.08h-.36c-2.67-.14-5.3-.47-7.86-.96-8.63-1.54-16.66-4.84-23.69-9.48-8.93-5.91-16.27-14.02-21.27-23.56,9.04-1.35,17.26-5.22,23.91-10.88,4.4-3.71,8.11-8.19,10.94-13.25-2.01,3.77-3.13,8.05-3.13,12.59,0,2.36.3,4.65.88,6.84,1.59,6.05,5.25,11.27,10.2,14.84,4.43,3.19,9.84,5.08,15.69,5.08,8.19,0,15.53-3.68,20.45-9.48Z"/>
  <path class="cls-5" d="M198.03,169.17c4.67,3.24,9.92,5.77,15.53,7.37-5.41,8.69-11.96,16.6-19.4,23.5-1.68-4.29-3.71-8.41-6.05-12.31,4.97-5.06,8.47-11.49,9.92-18.55Z"/>
  <path class="cls-4" d="M198.39,156.7c.6,4.29.44,8.49-.36,12.48-1.46,7.06-4.95,13.5-9.92,18.55-12.7-21.27-34.47-36.5-59.97-40.32.03-.08.05-.14.11-.22,1.13-1.46,2.01-3.11,2.58-4.89,2.56-4.12,5.96-7.7,9.95-10.5,8.63,11.85,23.34,18.66,38.86,16.46,5.14-.74,9.92-2.39,14.18-4.78,2.31,3.96,3.88,8.41,4.56,13.22Z"/>
  <path class="cls-7" d="M169.45,68.69c19.13,0,34.66,15.53,34.66,34.69s-15.53,34.69-34.66,34.69-34.69-15.53-34.69-34.69c0-1.7.11-3.38.38-5,3.08-.6,5.99-1.54,8.74-2.75-.38,1.68-.58,3.41-.58,5.22,0,13.03,10.55,23.61,23.61,23.61s23.61-10.58,23.61-23.61-10.58-23.61-23.61-23.61c-1.15,0-2.31.08-3.41.25,1.48-2.75,2.64-5.66,3.46-8.69.82-.08,1.65-.11,2.47-.11Z"/>
  <path class="cls-1" d="M201.61,38.62c-4.92,5.8-12.26,9.48-20.45,9.48-5.85,0-11.27-1.9-15.69-5.08-4.95-3.57-8.6-8.8-10.2-14.84-.58-2.2-.88-4.48-.88-6.84,0-4.54,1.13-8.82,3.13-12.59.11-.22.25-.44.38-.69,16.88,6.68,31.83,17.23,43.7,30.56Z"/>
  <path class="cls-6" d="M188.11,187.73c2.34,3.9,4.37,8.03,6.05,12.31-6.98,6.54-14.79,12.2-23.23,16.82-6.1-23.99-27.4-41.94-53.07-42.96-.11-.03-.22-.03-.33-.03t-.05-.03h-.25c-.3-.03-.58-.03-.88-.03-.3-.03-.6-.03-.91-.03-.58,0-1.15.03-1.73.05h-.22s-.03,0-.05.03c-.11,0-.25,0-.36.03-25.64,1.02-46.95,18.97-53.05,42.96-8.44-4.62-16.24-10.28-23.23-16.82,1.68-4.29,3.71-8.41,6.05-12.31,12.7-21.27,34.47-36.5,59.97-40.32.05,0,.11-.03.16-.03,3.05,3.88,7.86,6.27,13.19,6.05,4.84-.19,9.07-2.5,11.9-6.02h.05c25.51,3.82,47.28,19.05,59.97,40.32Z"/>
  <path class="cls-2" d="M166.92,77.23c13.03,0,23.61,10.55,23.61,23.61s-10.58,23.61-23.61,23.61-23.61-10.58-23.61-23.61c0-1.81.19-3.55.58-5.22,8.49-3.71,15.36-10.17,19.62-18.14,1.1-.16,2.25-.25,3.41-.25Z"/>
  <path class="cls-5" d="M134.02,98.54c-1.1,4.76-1.37,9.81-.63,14.95.96,6.84,3.57,13.08,7.39,18.31-3.99,2.8-7.39,6.38-9.95,10.5.6-1.76.88-3.66.8-5.63-.36-8.88-7.83-15.8-16.74-15.45s-15.83,7.83-15.47,16.74c.05,1.57.36,3.11.85,4.51-2.61-4.18-6.02-7.81-10.09-10.66,3.82-5.22,6.43-11.46,7.42-18.31.71-5.14.47-10.17-.63-14.95-1.62-6.95-5-13.3-9.78-18.47-.36-.41-.74-.82-1.15-1.21-.38-.41-.8-.8-1.21-1.15-5.72-5.3-12.97-9.02-21.19-10.33-.11-.49-.22-.99-.3-1.46,8.55-1.54,16.52-4.78,23.5-9.35,5.19,10.53,16.02,17.76,28.53,17.76s23.45-7.31,28.59-17.89c7.04,4.65,15.06,7.94,23.69,9.48-.08.47-.19.96-.3,1.46-8.82,1.43-16.52,5.58-22.4,11.49-5.36,5.33-9.18,12.15-10.91,19.68Z"/>
  <path class="cls-4" d="M144.93,78.86c5.88-5.91,13.58-10.06,22.4-11.49-.11.47-.22.96-.36,1.43-.82,3.02-1.98,5.94-3.46,8.69-4.26,7.97-11.13,14.43-19.62,18.14-2.75,1.21-5.66,2.14-8.74,2.75-.38.05-.74.11-1.13.16,1.73-7.53,5.55-14.35,10.91-19.68Z"/>
  <path class="cls-3" d="M157.9,8.05c-.14.25-.27.47-.38.69-2.83,5.06-6.54,9.54-10.94,13.25-6.65,5.66-14.87,9.54-23.91,10.88-2.36-4.48-4.18-9.29-5.41-14.35-.6-2.53-1.07-5.08-1.37-7.72-.22-1.68-.33-3.38-.38-5.08.03-.77.03-1.51.03-2.28,0-.58,0-1.15-.03-1.7-.03-.58,0-1.15.03-1.73,14.95,0,29.24,2.86,42.38,8.05Z"/>
  <path class="cls-1" d="M117.86,173.9c25.67,1.02,46.97,18.97,53.07,42.96-16.02,8.82-34.41,13.94-53.95,14.16,15.12-.8,27.1-13.3,27.1-28.59s-11.52-27.29-26.22-28.53Z"/>
  <path class="cls-1" d="M122.67,32.87c5,9.54,12.34,17.65,21.27,23.56-5.14,10.58-16.02,17.89-28.59,17.89s-23.34-7.23-28.53-17.76c9.02-5.94,16.44-14.1,21.47-23.69,2.34.36,4.7.55,7.15.55h.08c2.45,0,4.81-.19,7.15-.55Z"/>
  <path class="cls-4" d="M117.86,173.9c14.7,1.24,26.22,13.52,26.22,28.53s-11.98,27.79-27.1,28.59h-.05c-.49.03-.99.03-1.48.03s-.99,0-1.46-.03c-15.12-.8-27.1-13.3-27.1-28.59s11.52-27.29,26.19-28.53c.11-.03.25-.03.36-.03.05-.03.08-.03.14-.03h.14c.58-.03,1.15-.05,1.73-.05.3,0,.6,0,.91.03.3,0,.58,0,.88.03h.16c.05,0,.08,0,.14.03.11,0,.22,0,.33.03Z"/>
  <path class="cls-1" d="M131.63,136.66c.08,1.98-.19,3.88-.8,5.63-.58,1.79-1.46,3.44-2.58,4.89-.05.08-.11.16-.16.22-2.83,3.52-7.06,5.83-11.9,6.02-5.33.22-10.14-2.17-13.19-6.05-.16-.16-.3-.33-.41-.49-.99-1.32-1.79-2.8-2.31-4.4v-.03c-.49-1.4-.8-2.94-.85-4.51-.36-8.91,6.57-16.38,15.47-16.74s16.38,6.57,16.74,15.45Z"/>
  <path class="cls-3" d="M117.25,18.53c1.24,5.06,3.05,9.87,5.41,14.35-2.34.36-4.7.55-7.15.55h-.08c-2.45,0-4.81-.19-7.15-.55,2.36-4.48,4.18-9.29,5.41-14.35.6-2.53,1.07-5.08,1.37-7.72h.8c.3,2.64.77,5.19,1.37,7.72Z"/>
  <path class="cls-3" d="M115.49,1.73c-.05.55-.05,1.13-.05,1.7,0,.77,0,1.51.05,2.28-.08,1.7-.19,3.41-.41,5.08-.3,2.64-.77,5.19-1.37,7.72-1.24,5.06-3.05,9.87-5.41,14.35-9.04-1.35-17.26-5.22-23.91-10.88-4.4-3.71-8.11-8.19-10.94-13.25-.11-.22-.25-.44-.38-.69C86.19,2.86,100.49,0,115.44,0c.03.58.05,1.15.05,1.73Z"/>
  <path class="cls-4" d="M102.58,146.88c.08.16.16.36.25.52-25.51,3.82-47.28,19.05-59.97,40.32-4.97-5.06-8.47-11.49-9.92-18.55-.8-3.99-.96-8.19-.36-12.48.69-4.81,2.25-9.26,4.56-13.22,4.26,2.39,9.04,4.04,14.18,4.78,15.53,2.2,30.23-4.62,38.86-16.46,4.07,2.86,7.48,6.49,10.09,10.66v.03c.52,1.59,1.32,3.08,2.31,4.4Z"/>
  <path class="cls-6" d="M28.67,78.28c7.01-6.73,16.35-10.94,26.44-11.41h.36c2.42-.11,4.89,0,7.37.36.27.03.52.08.8.14.11.47.22.96.36,1.43-.82-.08-1.65-.11-2.47-.11-19.13,0-34.66,15.53-34.66,34.69s15.53,34.69,34.66,34.69,34.69-15.53,34.69-34.69c0-1.7-.11-3.38-.38-5l1.15.16c1.1,4.78,1.35,9.81.63,14.95-.99,6.84-3.6,13.08-7.42,18.31-8.63,11.85-23.34,18.66-38.86,16.46-5.14-.74-9.92-2.39-14.18-4.78-14.35-8-23.01-24.24-20.56-41.5,1.35-9.4,5.77-17.59,12.09-23.69Z"/>
  <path class="cls-4" d="M96.97,98.54l-1.15-.16c-3.08-.6-5.99-1.54-8.74-2.75-8.49-3.71-15.36-10.17-19.62-18.14-1.48-2.75-2.64-5.66-3.46-8.69-.14-.47-.25-.96-.36-1.43,8.22,1.32,15.47,5.03,21.19,10.33.41.36.82.74,1.21,1.15.38.38.77.8,1.15,1.21,4.78,5.17,8.16,11.52,9.78,18.47Z"/>
  <path class="cls-4" d="M84.38,21.99c6.65,5.66,14.87,9.54,23.91,10.88-5.03,9.59-12.45,17.76-21.47,23.69-6.98,4.56-14.95,7.81-23.5,9.35-2.56.49-5.19.82-7.86.96h-.36c-1.02.05-2.09.08-3.13.08-13.19,0-25.4-4.01-35.54-10.86,3.74-6.24,8.08-12.09,12.92-17.48,4.92,5.8,12.26,9.48,20.45,9.48,5.85,0,11.27-1.9,15.69-5.08,4.95-3.57,8.6-8.8,10.2-14.84.58-2.2.88-4.48.88-6.84,0-4.54-1.13-8.82-3.13-12.59,2.83,5.06,6.54,9.54,10.94,13.25Z"/>
  <path class="cls-7" d="M95.81,98.37c.27,1.62.38,3.3.38,5,0,19.16-15.53,34.69-34.69,34.69s-34.66-15.53-34.66-34.69,15.53-34.69,34.66-34.69c.82,0,1.65.03,2.47.11.82,3.02,1.98,5.94,3.46,8.69-1.1-.16-2.25-.25-3.41-.25-13.03,0-23.61,10.55-23.61,23.61s10.58,23.61,23.61,23.61,23.61-10.58,23.61-23.61c0-1.81-.19-3.55-.58-5.22,2.75,1.21,5.66,2.14,8.74,2.75Z"/>
  <path class="cls-1" d="M86.88,202.43c0,15.28,11.98,27.79,27.1,28.59-19.54-.22-37.93-5.33-53.95-14.16,6.1-23.99,27.4-41.94,53.05-42.96-14.68,1.24-26.19,13.52-26.19,28.53Z"/>
  <path class="cls-2" d="M87.07,95.62c.38,1.68.58,3.41.58,5.22,0,13.03-10.55,23.61-23.61,23.61s-23.61-10.58-23.61-23.61,10.58-23.61,23.61-23.61c1.15,0,2.31.08,3.41.25,4.26,7.97,11.13,14.43,19.62,18.14Z"/>
  <path class="cls-1" d="M76.57,21.33c0,2.36-.3,4.65-.88,6.84-1.59,6.05-5.25,11.27-10.2,14.84-4.43,3.19-9.84,5.08-15.69,5.08-8.19,0-15.53-3.68-20.45-9.48,11.87-13.33,26.83-23.88,43.7-30.56.14.25.27.47.38.69,2.01,3.77,3.13,8.05,3.13,12.59Z"/>
  <path class="cls-5" d="M51.98,66.95c1.04,0,2.12-.03,3.13-.08-10.09.47-19.43,4.67-26.44,11.41-6.07-3.38-12.86-5.63-20.12-6.46,2.23-5.47,4.86-10.72,7.89-15.72,10.14,6.84,22.35,10.86,35.54,10.86Z"/>
  <path class="cls-5" d="M42.85,187.73c-2.34,3.9-4.37,8.03-6.05,12.31-7.45-6.9-13.99-14.81-19.4-23.5,5.61-1.59,10.86-4.12,15.53-7.37,1.46,7.06,4.95,13.5,9.92,18.55Z"/>
  <path class="cls-3" d="M37.13,143.47c-2.31,3.96-3.88,8.41-4.56,13.22-.6,4.29-.44,8.49.36,12.48-4.67,3.24-9.92,5.77-15.53,7.37C6.38,158.84,0,137.92,0,115.52c0-15.45,3.02-30.21,8.55-43.7,7.26.82,14.05,3.08,20.12,6.46-6.32,6.1-10.75,14.29-12.09,23.69-2.45,17.26,6.21,33.5,20.56,41.5Z"/>
</svg>