<?xml version="1.0" encoding="UTF-8"?>
<svg id="Layer_1" data-name="Layer 1" xmlns="http://www.w3.org/2000/svg" viewBox="0 0 231.32 231.1">
  <defs>
    <style>
      .cls-1 {
        fill: #6e0a30;
      }

      .cls-2 {
        fill: #1d0f14;
      }

      .cls-3 {
        fill: #9fcc44;
      }

      .cls-4 {
        fill: #e94296;
      }

      .cls-5 {
        fill: #ffd695;
      }

      .cls-6 {
        fill: #1a4f27;
      }

      .cls-7 {
        fill: #fbf9dc;
      }
    </style>
  </defs>
  <g>
    <path class="cls-3" d="M231.1,116.65c.05.11.14.25.22.36l-.22-.22v-.14Z"/>
    <path class="cls-4" d="M231.1,115.55v1.1c-5.11-7.97-11.87-14.84-19.79-20.12-1.15-5.91-2.86-11.6-5.03-17.07,3.99,1.02,8.16,1.54,12.48,1.54,2.34,0,4.67-.16,6.93-.49,3.52,11.05,5.41,22.84,5.41,35.04Z"/>
    <path class="cls-6" d="M231.1,116.65v.14c-.36,32.52-14.13,61.79-36.01,82.57-2.31-5.83-5.28-11.35-8.8-16.46,11.63-12.23,20.15-27.54,24.21-44.55.05-.3.14-.58.19-.88.05-.14.08-.3.11-.47,1.54-6.93,2.36-14.1,2.36-21.44,0-6.51-.63-12.86-1.87-19.02,7.92,5.28,14.68,12.15,19.79,20.12Z"/>
    <path class="cls-1" d="M167.63,32.98s-.05-.05-.11-.05v.11c-16.13,6.13-33.64,9.46-51.95,9.46s-35.84-3.35-52-9.48v-.11s-.08.05-.11.08c.03.03.08.03.11.03-1.46,22.57-17.45,41.15-38.75,46.45h-.03c-3.99,1.02-8.16,1.54-12.45,1.54-2.36,0-4.67-.16-6.93-.49,2.28-7.15,5.22-14.02,8.8-20.48,0,0,38.75-2.06,41.97-43.59,1.62-.99,3.27-1.92,4.95-2.83,6.38-3.41,13.14-6.27,20.17-8.44,9.18,7.94,21.16,12.75,34.25,12.75s25.04-4.81,34.22-12.73c7.04,2.17,13.8,5,20.2,8.44,1.95,1.02,3.85,2.12,5.72,3.3,3.16,37.77,35.95,42.52,41.17,43.04,3.57,6.49,6.54,13.36,8.82,20.53-2.25.33-4.59.49-6.93.49-4.32,0-8.49-.52-12.48-1.54-21.27-5.3-37.3-23.88-38.75-46.42.05,0,.08-.03.11-.05Z"/>
    <path class="cls-4" d="M186.43,24.32c12.42,9.65,22.81,21.77,30.43,35.65-5.22-.52-38.01-5.28-41.17-43.04,3.71,2.23,7.31,4.73,10.75,7.39Z"/>
    <path class="cls-3" d="M211.31,96.53c1.24,6.16,1.87,12.51,1.87,19.02,0,7.34-.82,14.51-2.36,21.44.3-1.37.44-2.8.44-4.29,0-11.76-9.54-21.3-21.3-21.3s-21.3,9.54-21.3,21.3,9.54,21.33,21.3,21.33c9.81,0,18.09-6.65,20.56-15.69-4.07,17.01-12.59,32.32-24.21,44.55-15.45-22.54-41.42-37.38-70.75-37.38,14.68,0,26.58-11.9,26.58-26.58,0-7.94-3.49-15.09-9.02-19.95,2.83-2.17,5.83-4.12,8.99-5.8,9.48-5.11,20.34-8,31.86-8,5.61,0,11.05.69,16.24,2.01,2.75.69,5.41,1.54,8.03,2.56,4.62,1.79,9.02,4.07,13.08,6.79Z"/>
    <path class="cls-4" d="M211.25,132.7c0,1.48-.14,2.91-.44,4.29-.03.16-.05.33-.11.47-.05.27-.14.58-.19.88-2.47,9.04-10.75,15.69-20.56,15.69-11.76,0-21.3-9.54-21.3-21.33s9.54-21.3,21.3-21.3,21.3,9.54,21.3,21.3Z"/>
    <path class="cls-5" d="M198.23,89.68c-3.02-15.12-16.33-26.5-32.32-26.5-18.22,0-32.96,14.76-32.96,32.96,0,.96.03,1.92.14,2.86-7.06,5.36-13.03,12.12-17.48,19.84-.03.03-.03.06-.06.08-4.45-7.72-10.39-14.46-17.43-19.84.08-.96.14-1.95.14-2.94,0-18.2-14.73-32.96-32.96-32.96-8.08,0-15.5,2.91-21.25,7.78-5.58,4.7-9.59,11.27-11.08,18.69-4.67,1.76-9.07,4.07-13.17,6.79,1.13-5.88,2.8-11.54,4.97-16.99h.03c9.32-2.34,17.62-7.2,24.13-13.8.77-.77,1.51-1.57,2.2-2.39l.08-.08c4.15-4.81,7.42-10.42,9.57-16.55,1.51-4.32,2.47-8.88,2.78-13.63,16.16,6.13,33.7,9.48,52,9.48s35.81-3.33,51.95-9.46c1.46,22.54,17.48,41.12,38.75,46.42,2.17,5.47,3.88,11.16,5.03,17.07-4.07-2.72-8.47-5-13.08-6.79v-.06Z"/>
    <path class="cls-7" d="M198.23,89.71v.03c-2.61-1.02-5.28-1.87-8.03-2.56-3.55-9.43-12.64-16.13-23.31-16.13-12.84,0-23.39,9.67-24.79,22.13-3.16,1.68-6.16,3.63-8.99,5.8l-.03.03c-.11-.93-.14-1.9-.14-2.86,0-18.2,14.73-32.96,32.96-32.96,16,0,29.3,11.38,32.32,26.5v.03Z"/>
    <path class="cls-4" d="M186.3,182.89c3.52,5.11,6.49,10.64,8.8,16.46l-.03.03c-4.65,4.4-9.65,8.44-14.98,12.01-8.44-27.62-34.14-47.74-64.54-47.74s-56.1,20.12-64.54,47.77c-5.33-3.57-10.33-7.61-14.98-12.04,2.34-5.85,5.28-11.38,8.8-16.49,15.39-22.59,41.34-37.38,70.72-37.38s55.3,14.84,70.75,37.38Z"/>
    <path class="cls-2" d="M166.89,71.05c10.66,0,19.76,6.71,23.31,16.13-5.19-1.32-10.64-2.01-16.24-2.01-11.52,0-22.37,2.89-31.86,8,1.4-12.45,11.96-22.13,24.79-22.13Z"/>
    <path class="cls-3" d="M115.58,186.32c-10.39,17.98-28.8,30.73-50.38,33.26-4.92-2.39-9.67-5.11-14.18-8.16,8.44-27.65,34.14-47.77,64.54-47.77s56.1,20.12,64.54,47.74c-4.51,3.05-9.26,5.8-14.21,8.19-21.52-2.58-39.94-15.31-50.3-33.26Z"/>
    <path class="cls-6" d="M165.88,219.58c-15.23,7.39-32.3,11.52-50.33,11.52s-35.13-4.15-50.35-11.52c21.58-2.53,39.99-15.28,50.38-33.26,10.36,17.95,28.78,30.67,50.3,33.26Z"/>
    <path class="cls-4" d="M115.55,0c11.93,0,23.42,1.81,34.22,5.19-9.18,7.92-21.14,12.73-34.22,12.73s-25.07-4.81-34.25-12.75C92.13,1.81,103.62,0,115.55,0Z"/>
    <path class="cls-4" d="M115.55,118.93c4.45-7.75,10.44-14.54,17.54-19.93l.03-.03c5.52,4.86,9.02,12.01,9.02,19.95,0,14.68-11.9,26.58-26.58,26.58s-26.58-11.9-26.58-26.58c0-7.97,3.49-15.12,9.04-19.95.03.03.08.05.11.11,7.04,5.39,12.97,12.12,17.43,19.84Z"/>
    <path class="cls-7" d="M98.26,96.14c0,.99-.05,1.98-.14,2.94-.03-.05-.08-.08-.11-.11-2.69-2.06-5.55-3.9-8.55-5.55-1.29-12.29-11.68-21.82-24.27-21.82-10.22,0-18.97,6.27-22.57,15.17-3.33.71-6.54,1.68-9.65,2.89,3.02-15.09,16.35-26.47,32.32-26.47,18.22,0,32.96,14.76,32.96,32.96Z"/>
    <path class="cls-3" d="M115.55,145.5c-29.38,0-55.33,14.79-70.72,37.38-5.19-5.44-9.76-11.49-13.58-18.03-4.78-8.16-8.41-17.07-10.66-26.52,2.47,9.04,10.75,15.69,20.56,15.69,11.76,0,21.3-9.54,21.3-21.33s-9.54-21.3-21.3-21.3-21.3,9.54-21.3,21.3c0,1.48.14,2.91.44,4.29-1.54-6.9-2.36-14.07-2.36-21.44,0-2.5.08-4.97.27-7.42.3-3.99.85-7.89,1.62-11.68,4.1-2.72,8.49-5.03,13.17-6.79,3.11-1.21,6.32-2.17,9.65-2.89,4.67-1.04,9.54-1.59,14.51-1.59,11.71,0,22.73,2.97,32.32,8.25,3,1.65,5.85,3.49,8.55,5.55-5.55,4.84-9.04,11.98-9.04,19.95,0,14.68,11.9,26.58,26.58,26.58Z"/>
    <path class="cls-2" d="M65.2,71.6c12.59,0,22.98,9.54,24.27,21.82-9.59-5.28-20.61-8.25-32.32-8.25-4.97,0-9.84.55-14.51,1.59,3.6-8.91,12.34-15.17,22.57-15.17Z"/>
    <path class="cls-4" d="M41.15,111.4c11.76,0,21.3,9.54,21.3,21.3s-9.54,21.33-21.3,21.33c-9.81,0-18.09-6.65-20.56-15.69-.05-.3-.14-.6-.19-.88-.05-.14-.08-.3-.11-.47-.3-1.37-.44-2.8-.44-4.29,0-11.76,9.54-21.3,21.3-21.3Z"/>
    <path class="cls-4" d="M44.66,24.3c3.68-2.86,7.5-5.47,11.52-7.86-3.22,41.53-41.97,43.59-41.97,43.59,7.61-13.91,18.03-26.06,30.45-35.73Z"/>
    <path class="cls-6" d="M44.83,182.89c-3.52,5.11-6.46,10.64-8.8,16.49C14.13,178.63.36,149.3,0,116.79v-.05c5.11-8.08,11.87-15.01,19.82-20.28-1.26,6.16-1.9,12.56-1.9,19.1,0,7.37.82,14.54,2.36,21.44.03.16.05.33.11.47.05.3.14.58.19.88,4.07,17.01,12.56,32.3,24.24,44.55Z"/>
    <path class="cls-4" d="M24.79,79.46c-2.17,5.44-3.85,11.1-4.97,16.99-7.94,5.28-14.7,12.2-19.82,20.28v-1.18c0-12.2,1.9-23.99,5.41-35.04,2.25.33,4.56.49,6.93.49,4.29,0,8.47-.52,12.45-1.54Z"/>
  </g>
  <path class="cls-1" d="M74.79,132.72c0,18.58-15.06,33.62-33.64,33.62-3.44,0-6.76-.52-9.89-1.48-4.78-8.16-8.41-17.07-10.66-26.52,2.47,9.04,10.75,15.69,20.56,15.69,11.76,0,21.3-9.54,21.3-21.33s-9.54-21.3-21.3-21.3-21.3,9.54-21.3,21.3c0,1.48.14,2.91.44,4.29-1.54-6.9-2.36-14.07-2.36-21.44,0-2.5.08-4.97.27-7.42,5.99-5.61,14.07-9.04,22.95-9.04,18.58,0,33.64,15.06,33.64,33.64Z"/>
  <path class="cls-1" d="M156.31,132.73c0,18.58,15.06,33.62,33.64,33.62,3.44,0,6.76-.52,9.89-1.48,4.78-8.16,8.41-17.07,10.66-26.52-2.47,9.04-10.75,15.69-20.56,15.69-11.76,0-21.3-9.54-21.3-21.33,0-11.76,9.54-21.3,21.3-21.3,11.76,0,21.3,9.54,21.3,21.3,0,1.48-.14,2.91-.44,4.29,1.54-6.9,2.36-14.07,2.36-21.44,0-2.5-.08-4.97-.27-7.42-5.99-5.61-14.07-9.04-22.95-9.04-18.58,0-33.64,15.06-33.64,33.64Z"/>
  <path class="cls-4" d="M115.6,102.07v16.77s-.03.06-.05.08c-4.45-7.72-10.39-14.46-17.43-19.84.08-.96.14-1.95.14-2.94,0-18.2-14.73-32.96-32.96-32.96-8.08,0-15.5,2.91-21.25,7.78l4.89-5.3,2.2-2.39.08-.08c4.15-4.81,7.42-10.42,9.56-16.55,12.01.77,50.35,6.95,54.81,55.44Z"/>
  <path class="cls-4" d="M115.55,102.07v16.77s.03.06.05.08c4.45-7.72,10.39-14.46,17.43-19.84-.08-.96-.14-1.95-.14-2.94,0-18.2,14.73-32.96,32.96-32.96,8.08,0,15.5,2.91,21.25,7.78l-4.89-5.3-2.2-2.39-.08-.08c-4.15-4.81-7.42-10.42-9.56-16.55-12.01.77-50.35,6.95-54.81,55.44Z"/>
</svg>