<?xml version="1.0" encoding="UTF-8"?>
<svg id="Layer_1" data-name="Layer 1" xmlns="http://www.w3.org/2000/svg" viewBox="0 0 230.96 231.1">
  <defs>
    <style>
      .cls-1 {
        fill: #6e0a30;
      }

      .cls-2 {
        fill: #1d0f14;
      }

      .cls-3 {
        fill: #9fcc44;
      }

      .cls-4 {
        fill: #e94296;
      }

      .cls-5 {
        fill: #ffd695;
      }

      .cls-6 {
        fill: #1a4f27;
      }

      .cls-7 {
        fill: #fbf9dc;
      }
    </style>
  </defs>
  <path class="cls-3" d="M229.15,136c-1.29,7.26-3.27,14.29-5.85,21.03-8.16-9.51-20.28-15.53-33.81-15.53-15.61,0-29.38,8.03-37.35,20.17-3.11,4.73-5.36,10.09-6.46,15.86h-.05c-5.88-2.39-12.12-4.12-18.61-5.06,1.65-7.67,4.7-14.84,8.88-21.22,2.28-3.52,4.89-6.79,7.83-9.76,4.29-4.43,9.26-8.22,14.7-11.24,9.18-5.14,19.76-8.05,31.06-8.05,3.02,0,5.99.22,8.91.63,5.19.71,10.17,2.03,14.87,3.96.11,0,.19.05.3.11,5.63,2.28,10.88,5.36,15.58,9.1Z"/>
  <path class="cls-6" d="M223.29,157.03c-.93,2.47-1.98,4.95-3.11,7.34-2.01,4.29-4.23,8.41-6.73,12.37-1.26-3.24-3.16-6.16-5.55-8.58h-.03c-4.65-4.81-11.16-7.78-18.39-7.78s-13.85,3.02-18.5,7.86h-.03c-4.48,4.62-7.26,10.97-7.26,17.89,0,11.35,7.31,20.97,17.51,24.41-6.02,4.18-12.42,7.81-19.21,10.77-10.44-8.16-17.18-20.89-17.18-35.18,0-.77.03-1.54.05-2.28.49-2.01.74-4.12.8-6.29v-.03c1.1-5.77,3.35-11.13,6.46-15.86,7.97-12.15,21.74-20.17,37.35-20.17,13.52,0,25.64,6.02,33.81,15.53Z"/>
  <path class="cls-1" d="M217.77,101.75c.91,8.55-.63,16.79-4.07,24.05.19-2.5.19-5.03-.08-7.61-.96-8.96-4.84-16.93-10.61-23.01-8.16-8.63-20.12-13.47-32.85-12.12-6.46.69-12.4,2.89-17.48,6.24-2.58,1.68-4.95,3.66-7.04,5.85-7.67,8.11-11.87,19.38-10.61,31.36.27,2.61.8,5.17,1.57,7.59-4.92-6.4-8.19-14.18-9.1-22.79-1.46-13.88,3.49-26.94,12.48-36.25,7.12-7.45,16.85-12.48,27.9-13.66,24.9-2.64,47.25,15.42,49.89,40.35Z"/>
  <path class="cls-7" d="M213.62,118.19c.27,2.58.27,5.11.08,7.61v.03l-.03.03c-.11.33-.27.63-.41.93-4.7-1.92-9.67-3.24-14.87-3.96,3.85-5.06,6.13-11.35,6.13-18.22,0-3.3-.52-6.46-1.51-9.43,5.77,6.07,9.65,14.05,10.61,23.01Z"/>
  <path class="cls-3" d="M215.21,57.28c-29.27,3.08-55.44-18.11-58.54-47.36-.08-.8-.14-1.59-.19-2.39,24.79,9.4,45.49,27.13,58.74,49.75Z"/>
  <path class="cls-4" d="M207.9,168.16c2.39,2.42,4.29,5.33,5.55,8.58-8.36,13.36-19.35,24.87-32.24,33.81-10.2-3.44-17.51-13.06-17.51-24.41,0-6.93,2.78-13.28,7.26-17.89h.03c4.65-4.84,11.21-7.86,18.5-7.86s13.74,2.97,18.39,7.78h.03Z"/>
  <path class="cls-2" d="M203.01,95.18c.99,2.97,1.51,6.13,1.51,9.43,0,6.87-2.28,13.17-6.13,18.22-2.91-.41-5.88-.63-8.91-.63-11.3,0-21.88,2.91-31.06,8.05-8.58-5.3-14.29-14.81-14.29-25.64,0-3.3.52-6.49,1.51-9.46,2.09-2.2,4.45-4.18,7.04-5.85,5.08-3.35,11.02-5.55,17.48-6.24,12.73-1.35,24.68,3.49,32.85,12.12Z"/>
  <path class="cls-5" d="M156.48,7.5v.03c-17.43,7.28-31.86,20.26-40.98,36.56-9.15-16.3-23.58-29.27-41.01-36.56v-.03C87.21,2.69,101.01.03,115.41,0h.14c14.4.03,28.2,2.69,40.93,7.5Z"/>
  <path class="cls-3" d="M144.82,186.13c0,14.29,6.73,27.02,17.18,35.18-6.57,2.91-13.5,5.22-20.67,6.84-5.99-6.82-10.53-14.92-13.17-23.83,8.3-3.82,14.57-11.35,16.71-20.48-.03.74-.05,1.51-.05,2.28Z"/>
  <path class="cls-7" d="M144.13,104.61c0,10.83,5.72,20.34,14.29,25.64-5.44,3.02-10.42,6.82-14.7,11.24-2.64-2.17-5.03-4.65-7.12-7.39-.77-2.42-1.29-4.97-1.57-7.59-1.26-11.98,2.94-23.25,10.61-31.36-.99,2.97-1.51,6.16-1.51,9.46Z"/>
  <path class="cls-4" d="M145.62,177.53s.03.03.03.03c-.38,2.03-.66,4.15-.77,6.29-2.14,9.13-8.41,16.66-16.71,20.48-1.73-5.77-2.64-11.87-2.64-18.2,0-.47,0-.91.03-1.37,7.2-1.21,13.96-3.71,20.06-7.23Z"/>
  <path class="cls-5" d="M115.49,127.07c-4.51,7.97-10.25,15.2-17.04,21.33-1.1.96-2.23,1.95-3.38,2.86-2.28-3.52-4.89-6.79-7.83-9.76,2.64-2.17,5.03-4.65,7.12-7.39,4.92-6.4,8.19-14.18,9.1-22.79,1.46-13.88-3.49-26.94-12.48-36.25,6.9-4.92,15.34-7.78,24.43-7.78h.14c9.1,0,17.54,2.86,24.43,7.78-8.99,9.32-13.94,22.37-12.48,36.25.91,8.6,4.18,16.38,9.1,22.79,2.09,2.75,4.48,5.22,7.12,7.39-2.94,2.97-5.55,6.24-7.83,9.76-1.15-.91-2.28-1.9-3.38-2.86-6.79-6.13-12.53-13.36-17.01-21.33Z"/>
  <path class="cls-4" d="M132.51,148.39c1.1.96,2.23,1.95,3.38,2.86-4.18,6.38-7.23,13.55-8.88,21.22-3.74-.55-7.56-.82-11.46-.82h-.14c-3.9,0-7.72.27-11.46.82-1.65-7.67-4.7-14.84-8.88-21.22,1.15-.91,2.28-1.9,3.38-2.86,6.79-6.13,12.53-13.36,17.04-21.33,4.48,7.97,10.22,15.2,17.01,21.33Z"/>
  <path class="cls-1" d="M127.01,172.47c6.49.93,12.73,2.67,18.61,5.06-6.1,3.52-12.86,6.02-20.06,7.23.08-4.21.58-8.33,1.46-12.29Z"/>
  <path class="cls-5" d="M128.17,204.33c2.64,8.91,7.17,17.01,13.17,23.83-8.27,1.92-16.93,2.94-25.78,2.94h-.14c-8.85,0-17.51-1.02-25.78-2.94,5.99-6.82,10.53-14.92,13.17-23.83,3.85,1.79,8.11,2.78,12.62,2.78h.14c4.51,0,8.77-.99,12.62-2.78Z"/>
  <path class="cls-1" d="M127.01,172.47c-.88,3.96-1.37,8.08-1.46,12.29-3.27.55-6.6.82-10,.82h-.14c-3.41,0-6.73-.27-10-.82-.08-4.21-.58-8.33-1.46-12.29,3.74-.55,7.56-.82,11.46-.82h.14c3.9,0,7.72.27,11.46.82Z"/>
  <path class="cls-4" d="M125.53,186.13c0,6.32.91,12.42,2.64,18.2-3.85,1.79-8.11,2.78-12.62,2.78h-.14c-4.51,0-8.77-.99-12.62-2.78,1.73-5.77,2.64-11.87,2.64-18.2,0-.47,0-.91-.03-1.37,3.27.55,6.6.82,10,.82h.14c3.41,0,6.73-.27,10-.82-.03.47-.03.91-.03,1.37Z"/>
  <path class="cls-4" d="M105.41,184.76c.03.47.03.91.03,1.37,0,6.32-.91,12.42-2.64,18.2-8.3-3.82-14.57-11.35-16.71-20.48-.11-2.14-.38-4.26-.77-6.29,0,0,0-.03.03-.03,6.1,3.52,12.86,6.02,20.06,7.23Z"/>
  <path class="cls-1" d="M103.95,172.47c.88,3.96,1.37,8.08,1.46,12.29-7.2-1.21-13.96-3.71-20.06-7.23,5.88-2.39,12.12-4.12,18.61-5.06Z"/>
  <path class="cls-1" d="M90.98,75.06c8.99,9.32,13.94,22.37,12.48,36.25-.91,8.6-4.18,16.38-9.1,22.79.77-2.42,1.29-4.97,1.57-7.59,1.26-11.98-2.94-23.25-10.61-31.36-2.09-2.2-4.45-4.18-7.04-5.85-5.08-3.35-11.02-5.55-17.48-6.24-12.73-1.35-24.68,3.49-32.85,12.12-5.77,6.07-9.65,14.05-10.61,23.01-.27,2.58-.27,5.11-.08,7.61-3.44-7.26-4.97-15.5-4.07-24.05,2.64-24.93,24.98-42.99,49.89-40.35,11.05,1.18,20.78,6.21,27.9,13.66Z"/>
  <path class="cls-3" d="M95.07,151.25c4.18,6.38,7.23,13.55,8.88,21.22-6.49.93-12.73,2.67-18.61,5.06h-.05c-1.1-5.77-3.35-11.13-6.46-15.86-7.97-12.15-21.74-20.17-37.35-20.17-13.52,0-25.64,6.02-33.81,15.53-2.58-6.73-4.56-13.77-5.85-21.03,4.7-3.74,9.95-6.82,15.58-9.1.11-.05.19-.11.3-.11,4.7-1.92,9.67-3.24,14.87-3.96,2.91-.41,5.88-.63,8.91-.63,11.3,0,21.88,2.91,31.06,8.05,5.44,3.02,10.42,6.82,14.7,11.24,2.94,2.97,5.55,6.24,7.83,9.76Z"/>
  <path class="cls-7" d="M85.32,95.16c7.67,8.11,11.87,19.38,10.61,31.36-.27,2.61-.8,5.17-1.57,7.59-2.09,2.75-4.48,5.22-7.12,7.39-4.29-4.43-9.26-8.22-14.7-11.24,8.58-5.3,14.29-14.81,14.29-25.64,0-3.3-.52-6.49-1.51-9.46Z"/>
  <path class="cls-3" d="M86.08,183.85c2.14,9.13,8.41,16.66,16.71,20.48-2.64,8.91-7.17,17.01-13.17,23.83-7.17-1.62-14.1-3.93-20.67-6.84,10.44-8.16,17.18-20.89,17.18-35.18,0-.77-.03-1.54-.05-2.28Z"/>
  <path class="cls-2" d="M85.32,95.16c.99,2.97,1.51,6.16,1.51,9.46,0,10.83-5.72,20.34-14.29,25.64-9.18-5.14-19.76-8.05-31.06-8.05-3.02,0-5.99.22-8.91.63-3.85-5.06-6.13-11.35-6.13-18.22,0-3.3.52-6.46,1.51-9.43,8.16-8.63,20.12-13.47,32.85-12.12,6.46.69,12.4,2.89,17.48,6.24,2.58,1.68,4.95,3.66,7.04,5.85Z"/>
  <path class="cls-6" d="M85.29,177.53v.03c.05,2.17.3,4.29.8,6.29.03.74.05,1.51.05,2.28,0,14.29-6.73,27.02-17.18,35.18-6.79-2.97-13.19-6.6-19.21-10.77,10.2-3.44,17.51-13.06,17.51-24.41,0-6.93-2.78-13.28-7.26-17.89h-.03c-4.65-4.84-11.21-7.86-18.5-7.86s-13.74,2.97-18.39,7.78h-.03c-2.39,2.42-4.29,5.33-5.55,8.58-2.5-3.96-4.73-8.08-6.73-12.37-1.13-2.39-2.17-4.86-3.11-7.34,8.16-9.51,20.28-15.53,33.81-15.53,15.61,0,29.38,8.03,37.35,20.17,3.11,4.73,5.36,10.09,6.46,15.86Z"/>
  <path class="cls-3" d="M74.49,7.53c-.05.8-.11,1.59-.19,2.39-3.11,29.24-29.27,50.44-58.54,47.36C29,34.66,49.69,16.93,74.49,7.53Z"/>
  <path class="cls-4" d="M60,168.24c4.48,4.62,7.26,10.97,7.26,17.89,0,11.35-7.31,20.97-17.51,24.41-12.89-8.93-23.88-20.45-32.24-33.81,1.26-3.24,3.16-6.16,5.55-8.58h.03c4.65-4.81,11.16-7.78,18.39-7.78s13.85,3.02,18.5,7.86h.03Z"/>
  <path class="cls-7" d="M27.95,95.18c-.99,2.97-1.51,6.13-1.51,9.43,0,6.87,2.28,13.17,6.13,18.22-5.19.71-10.17,2.03-14.87,3.96-.14-.3-.3-.6-.41-.93l-.03-.03v-.03c-.19-2.5-.19-5.03.08-7.61.96-8.96,4.84-16.93,10.61-23.01Z"/>
  <path class="cls-4" d="M17.26,125.8v.03l.03.03c.03.36.05.69.11,1.04-5.63,2.28-10.88,5.36-15.58,9.1-1.21-6.62-1.81-13.47-1.81-20.45,0-21.25,5.74-41.17,15.75-58.27,29.27,3.08,55.44-18.11,58.54-47.36.08-.8.14-1.59.19-2.39,17.43,7.28,31.86,20.26,41.01,36.56,9.13-16.3,23.56-29.27,40.98-36.56.05.8.11,1.59.19,2.39,3.11,29.24,29.27,50.44,58.54,47.36,10,17.1,15.75,37.02,15.75,58.27,0,6.98-.6,13.83-1.81,20.45-4.7-3.74-9.95-6.82-15.58-9.1.05-.36.08-.69.11-1.04l.03-.03v-.03c3.44-7.26,4.97-15.5,4.07-24.05-2.64-24.93-24.98-42.99-49.89-40.35-11.05,1.18-20.78,6.21-27.9,13.66-6.9-4.92-15.34-7.78-24.43-7.78h-.14c-9.1,0-17.54,2.86-24.43,7.78-7.12-7.45-16.85-12.48-27.9-13.66-24.9-2.64-47.25,15.42-49.89,40.35-.91,8.55.63,16.79,4.07,24.05Z"/>
</svg>