<?xml version="1.0" encoding="UTF-8"?>
<svg id="Layer_1" data-name="Layer 1" xmlns="http://www.w3.org/2000/svg" viewBox="0 0 292.53 262.43">
  <defs>
    <style>
      .cls-1 {
        fill: #6e0a30;
      }

      .cls-2 {
        fill: #1d0f14;
      }

      .cls-3 {
        fill: #9fcc44;
      }

      .cls-4 {
        fill: #e94296;
      }

      .cls-5 {
        fill: #ffd695;
      }

      .cls-6 {
        fill: #1a4f27;
      }

      .cls-7 {
        fill: #fbf9dc;
      }
    </style>
  </defs>
  <path class="cls-4" d="M253.28,190.48c5.33-13.11,8.33-27.4,8.49-42.38,2.97,0,6.16.44,8.85,1.24.03,0,.05.03.08.03,12.62,3.71,21.82,15.34,21.82,29.13,0,16.79-13.61,30.4-30.4,30.4-5.77,0-11.16-1.59-15.72-4.4,2.61-4.51,4.89-9.18,6.87-14.02Z"/>
  <path class="cls-1" d="M250.94,97.96c-18.44-39.33-58.38-66.6-104.72-66.6S60.03,58.54,41.59,97.82c-7.01,14.9-10.91,31.53-10.91,49.06v1.21c-2.94,0-6.18.44-8.88,1.21-.03,0-.05.03-.08.03-1.35-7.37-2.06-15.01-2.06-22.79C19.65,56.65,76.33,0,146.22,0s126.54,56.65,126.54,126.54c0,7.81-.71,15.42-2.06,22.81-.03,0-.05-.03-.08-.03-2.69-.8-5.88-1.24-8.85-1.24v-1.21c0-17.48-3.88-34.08-10.83-48.92Z"/>
  <path class="cls-3" d="M261.77,148.09c-.16,14.98-3.16,29.27-8.49,42.38-6.13-5.74-11.35-12.89-14.84-20.64,3.24-5.63,5.11-12.18,5.11-19.16,0-9.24-3.27-17.73-8.71-24.38,1.29-4.92,3.24-9.65,5.69-14.1,2.86-5.25,6.4-10.06,10.42-14.24,6.95,14.84,10.83,31.44,10.83,48.92v1.21Z"/>
  <path class="cls-5" d="M246.41,204.49c-.03.05-.05.11-.11.19h-.03c-3.35-2.42-7.45-3.82-11.9-3.82-11.32,0-20.53,9.18-20.53,20.53,0,5.66,2.34,10.8,6.07,14.48-8.44,7.01-17.89,12.84-28.12,17.21,3.52-7.5,5.19-16.02,4.51-24.87-1.98-26.36-24.02-46.45-50.05-46.45,11.82-.03,21.36-9.46,21.58-21.25,2.86,10.91,10.36,19.9,20.28,24.76,5.11,2.53,10.86,3.93,16.93,3.93,14.29,0,26.77-7.81,33.4-19.38,3.49,7.75,8.71,14.9,14.84,20.64-1.98,4.84-4.26,9.51-6.87,14.02Z"/>
  <path class="cls-4" d="M246.27,204.69h.03c-6.9,11.9-15.83,22.48-26.39,31.2-3.74-3.68-6.07-8.82-6.07-14.48,0-11.35,9.21-20.53,20.53-20.53,4.45,0,8.55,1.4,11.9,3.82Z"/>
  <path class="cls-4" d="M250.94,97.96c-4.01,4.18-7.56,8.99-10.42,14.24-7.75-11.19-20.67-18.53-35.29-18.53h-.41c-4.21-6.73-9.54-12.7-15.75-17.59.05-.6.05-1.21.05-1.81,0-23.72-19.21-42.91-42.91-42.91,46.34,0,86.28,27.27,104.72,66.6Z"/>
  <path class="cls-7" d="M166.92,155.93c-.27-1.73-.38-3.46-.38-5.25,0-19.73,14.9-36.06,34.08-38.26-13.14,2.12-23.17,13.5-23.17,27.24,0,15.23,12.37,27.6,27.6,27.6s27.6-12.37,27.6-27.6c0-13.72-9.98-25.07-23.06-27.21,1.21.14,2.42.36,3.6.6,8.69,1.84,16.24,6.62,21.66,13.25,5.44,6.65,8.71,15.14,8.71,24.38,0,6.98-1.87,13.52-5.11,19.16-6.62,11.57-19.1,19.38-33.4,19.38-6.07,0-11.82-1.4-16.93-3.93-9.92-4.86-17.43-13.85-20.28-24.76v-.03c-.41-1.48-.71-3-.91-4.56Z"/>
  <path class="cls-5" d="M240.53,112.2c-2.45,4.45-4.4,9.18-5.69,14.1-5.41-6.62-12.97-11.41-21.66-13.25-1.79-6.93-4.65-13.47-8.36-19.38h.41c14.62,0,27.54,7.34,35.29,18.53Z"/>
  <path class="cls-2" d="M209.58,112.44c13.08,2.14,23.06,13.5,23.06,27.21,0,15.23-12.34,27.6-27.6,27.6s-27.6-12.37-27.6-27.6c0-13.74,10.03-25.12,23.17-27.24.16-.03.33-.05.49-.05,1.29-.14,2.61-.19,3.93-.19,1.4,0,2.78.08,4.15.22.14,0,.25.03.38.05Z"/>
  <path class="cls-5" d="M213.18,113.05c-1.18-.25-2.39-.47-3.6-.6-.14-.03-.25-.05-.38-.05-1.35-.22-2.75-.33-4.15-.33-1.32,0-2.64.08-3.93.3-.16,0-.33.03-.49.05-19.18,2.2-34.08,18.53-34.08,38.26,0,1.79.11,3.52.38,5.25-2.97-5.8-4.62-12.4-4.62-19.35,0-11.38,4.43-21.71,11.65-29.41.36-.38.74-.77,1.13-1.13.22-.22.44-.44.69-.66.63-.58,1.24-1.15,1.9-1.7,7.37-6.16,16.85-9.89,27.16-10,3.71,5.91,6.57,12.45,8.36,19.38Z"/>
  <path class="cls-3" d="M196.3,228.21c.69,8.85-.99,17.37-4.51,24.87-.44.19-.88.38-1.35.55-12.86-7.15-27.65-11.27-43.37-11.38.33,0,.69-.03,1.02-.05,13.66-1.04,23.88-12.95,22.87-26.61-1.04-13.66-12.95-23.88-26.61-22.87-13.66,1.04-23.91,12.95-22.87,26.61.93,12.59,11.13,22.29,23.42,22.92-15.56.19-30.15,4.32-42.91,11.38-.47-.16-.93-.36-1.4-.58-2.45-5.3-4.01-11.1-4.48-17.29-2.09-27.65,18.66-51.78,46.31-53.87,1.29-.11,2.53-.14,3.79-.14h.03c26.03,0,48.07,20.09,50.05,46.45Z"/>
  <path class="cls-6" d="M204.82,93.67c-10.31.11-19.79,3.85-27.16,10-.66.55-1.26,1.13-1.9,1.7,7.81-7.42,12.84-17.78,13.3-29.3,6.21,4.89,11.54,10.86,15.75,17.59Z"/>
  <path class="cls-6" d="M189.13,74.27c0,.6,0,1.21-.05,1.81-11.79-9.35-26.66-14.9-42.85-14.9s-31.06,5.55-42.85,14.87c-.05-.58-.05-1.18-.05-1.79,0-23.72,19.21-42.91,42.91-42.91s42.91,19.18,42.91,42.91Z"/>
  <path class="cls-3" d="M146.22,61.18c16.19,0,31.06,5.55,42.85,14.9-.47,11.52-5.5,21.88-13.3,29.3-.25.22-.47.44-.69.66-7.64,6.9-17.76,11.13-28.86,11.13-10.5,0-20.12-3.77-27.57-10l-.14-.14c-1.07-1.1-2.17-2.14-3.33-3.13-6.95-7.31-11.38-17.07-11.82-27.84,11.79-9.32,26.66-14.87,42.85-14.87Z"/>
  <path class="cls-6" d="M175.08,106.04c-.38.36-.77.74-1.13,1.13-7.23,7.7-11.65,18.03-11.65,29.41,0,6.95,1.65,13.55,4.62,19.35.19,1.57.49,3.08.91,4.56v.03c-.22,11.79-9.76,21.22-21.58,21.25h-.03c-11.79,0-21.33-9.37-21.63-21.08v-.03c.38-1.4.69-2.83.91-4.32,3.08-5.91,4.81-12.64,4.81-19.76,0-11.38-4.43-21.71-11.65-29.41,7.45,6.24,17.07,10,27.57,10,11.1,0,21.22-4.23,28.86-11.13Z"/>
  <path class="cls-6" d="M147.08,242.26c15.72.11,30.51,4.23,43.37,11.38-13.61,5.66-28.56,8.8-44.22,8.8s-30.62-3.13-44.22-8.8c12.75-7.06,27.35-11.19,42.91-11.38h.05c.71.03,1.4.03,2.12,0Z"/>
  <path class="cls-4" d="M170.96,215.6c1.02,13.66-9.21,25.56-22.87,26.61-.33.03-.69.05-1.02.05-.27-.03-.58-.03-.85-.03-.41,0-.85,0-1.26.03h-.05c-12.29-.63-22.48-10.33-23.42-22.92-1.04-13.66,9.21-25.56,22.87-26.61,13.66-1.02,25.56,9.21,26.61,22.87Z"/>
  <path class="cls-5" d="M146.22,181.76c-1.26,0-2.5.03-3.79.14-27.65,2.09-48.4,26.22-46.31,53.87.47,6.18,2.03,11.98,4.48,17.29-10.22-4.4-19.71-10.22-28.15-17.23,3.6-3.68,5.91-8.85,5.91-14.43,0-11.35-9.18-20.53-20.53-20.53-4.32,0-8.44,1.4-11.74,3.71h-.03c-2.61-4.54-4.92-9.26-6.9-14.13,6.1-5.74,11.35-12.89,14.81-20.59,6.65,11.54,19.13,19.32,33.42,19.32,17.78,0,32.79-12.07,37.19-28.5.3,11.71,9.84,21.08,21.63,21.08Z"/>
  <path class="cls-5" d="M118.66,107.17c7.23,7.7,11.65,18.03,11.65,29.41,0,7.12-1.73,13.85-4.81,19.76.27-1.84.41-3.74.41-5.66,0-20.72-16.35-37.6-36.83-38.45-.55-.05-1.13-.05-1.68-.05s-1.13,0-1.68.05c-2.23.08-4.37.36-6.49.8,1.79-6.93,4.62-13.44,8.33-19.35,10.39.05,19.95,3.79,27.38,10,.08.08.16.14.25.22,1.04,1.1,2.17,2.14,3.33,3.13l.14.14Z"/>
  <path class="cls-7" d="M79.24,113.02c2.12-.44,4.26-.71,6.49-.8-14.46.85-25.95,12.84-25.95,27.54s12.37,27.6,27.62,27.6,27.6-12.34,27.6-27.6-11.49-26.69-25.92-27.54c20.48.85,36.83,17.73,36.83,38.45,0,1.92-.14,3.82-.41,5.66-.22,1.48-.52,2.91-.91,4.32v.03c-4.4,16.44-19.4,28.5-37.19,28.5-14.29,0-26.77-7.78-33.42-19.32-3.24-5.66-5.11-12.2-5.11-19.18,0-9.26,3.27-17.76,8.71-24.38,5.41-6.62,13-11.41,21.66-13.28Z"/>
  <path class="cls-4" d="M146.22,31.36c-23.69,0-42.91,19.18-42.91,42.91,0,.6,0,1.21.05,1.79-6.24,4.92-11.57,10.88-15.8,17.62h-.19c-14.65,0-27.6,7.37-35.35,18.58-2.86-5.3-6.4-10.2-10.44-14.43C60.03,58.54,99.94,31.36,146.22,31.36Z"/>
  <path class="cls-6" d="M115.19,103.9c-.08-.08-.16-.14-.25-.22-7.42-6.21-16.99-9.95-27.38-10,4.23-6.73,9.56-12.7,15.8-17.62.44,10.77,4.86,20.53,11.82,27.84Z"/>
  <path class="cls-2" d="M89.08,112.22c14.43.85,25.92,12.84,25.92,27.54s-12.37,27.6-27.6,27.6-27.62-12.34-27.62-27.6,11.49-26.69,25.95-27.54c.55-.05,1.13-.05,1.68-.05s1.13,0,1.68.05Z"/>
  <path class="cls-5" d="M87.38,93.67h.19c-3.71,5.91-6.54,12.42-8.33,19.35-8.66,1.87-16.24,6.65-21.66,13.28-1.29-4.89-3.19-9.62-5.55-14.05,7.75-11.21,20.7-18.58,35.35-18.58Z"/>
  <path class="cls-4" d="M78.36,221.4c0,5.58-2.31,10.75-5.91,14.43-10.53-8.74-19.49-19.32-26.36-31.25,3.3-2.31,7.42-3.71,11.74-3.71,11.35,0,20.53,9.18,20.53,20.53Z"/>
  <path class="cls-3" d="M52.03,112.25c2.36,4.43,4.26,9.15,5.55,14.05-5.44,6.62-8.71,15.12-8.71,24.38,0,6.98,1.87,13.52,5.11,19.18-3.46,7.7-8.71,14.84-14.81,20.59-5.33-13.11-8.33-27.38-8.49-42.36v-1.21c0-17.54,3.9-34.16,10.91-49.06,4.04,4.23,7.59,9.13,10.44,14.43Z"/>
  <path class="cls-4" d="M39.17,190.45c1.98,4.86,4.29,9.59,6.9,14.13-.03.03-.05.03-.08.05-4.62,2.91-9.89,4.01-15.72,4.01-16.71,0-30.26-13.55-30.26-30.26,0-13.77,9.18-25.37,21.71-29.05.03,0,.05-.03.08-.03,2.69-.77,5.94-1.21,8.88-1.21.16,14.98,3.16,29.24,8.49,42.36Z"/>
</svg>