<?xml version="1.0" encoding="UTF-8"?>
<svg id="Layer_1" data-name="Layer 1" xmlns="http://www.w3.org/2000/svg" viewBox="0 0 231.1 231.1">
  <defs>
    <style>
      .cls-1 {
        fill: #6e0a30;
      }

      .cls-2 {
        fill: #9fcc44;
      }

      .cls-3 {
        fill: #e94296;
      }

      .cls-4 {
        fill: #ffd695;
      }

      .cls-5 {
        fill: #1a4f27;
      }
    </style>
  </defs>
  <path class="cls-2" d="M231.1,115.55c0,1.76-.03,3.52-.11,5.25-4.07.49-8.96,1.02-13.17,1.02-6.27,0-12.42-.58-18.39-1.65-37.05-6.73-67.17-33.45-78.75-68.58h-10.28c-11.6,35.13-41.7,61.84-78.77,68.58-5.96,1.07-12.12,1.65-18.39,1.65-4.21,0-9.07-.36-13.14-.85-.05-1.79-.11-3.6-.11-5.41,0-10.8,1.48-21.27,4.26-31.2,17.98.85,35.68-1.76,52.25-7.31-22.4,9.62,18.31,12.18,18.31,12.18,0,0,17.84-13.28,20.31-17.21,2.47-3.9,7.67-17.43,7.67-20.81s-.77-10.77-3.63-11.38c-2.89-.6-6.02,1.04-6.02,1.04,5.74-5.69,13.66-9.21,22.4-9.21s16.66,3.52,22.4,9.21c-1.29,3.19-1.98,6.68-1.98,10.31,0,15.45,12.51,27.95,27.95,27.95,3.85,0,7.5-.77,10.83-2.17,16.52,5.58,34.14,8.19,52.09,7.42,2.78,9.92,4.26,20.37,4.26,31.17Z"/>
  <path class="cls-5" d="M230.99,120.8c-.38,8.3-1.62,16.38-3.66,24.13-6.82-.11-13.5-.85-19.95-2.12h-.03c-45.74-8.99-81.6-45.3-89.93-91.22h3.27c11.57,35.13,41.7,61.84,78.75,68.58,5.96,1.07,12.12,1.65,18.39,1.65,4.21,0,9.1-.52,13.17-1.02Z"/>
  <path class="cls-5" d="M226.84,84.38c-17.95.77-35.57-1.84-52.09-7.42,10.06-4.23,17.12-14.18,17.12-25.78,0-1.76-.16-3.46-.49-5.11,3.9-1.92,7.72-4.01,11.43-6.24,11.05,12.73,19.35,27.87,24.02,44.55Z"/>
  <path class="cls-2" d="M227.33,144.93c-2.14,8.16-5.17,15.97-8.93,23.31-6.07-1.15-11.98-2.75-17.73-4.76-10.69-3.68-20.72-8.77-29.88-15.03-12.4-8.49-23.23-19.13-31.94-31.39-13.28-18.72-21.6-41.17-23.06-65.47h1.62c8.33,45.93,44.2,82.24,89.93,91.22h.03c6.46,1.26,13.14,2.01,19.95,2.12Z"/>
  <path class="cls-4" d="M200.67,163.48c5.74,2.01,11.65,3.6,17.73,4.76-13.83,26.96-37.96,47.77-67.17,57.23-10.03-7.23-22.35-11.49-35.68-11.49,17.98,0,33.12-12.07,37.77-28.56.96-3.41,1.48-6.98,1.48-10.69,0-21.69-17.56-39.25-39.25-39.25s-39.28,17.56-39.28,39.25c0,13.44,6.76,25.31,17.07,32.38,6.32,4.34,13.96,6.87,22.21,6.87-13.33,0-25.64,4.26-35.68,11.49-29.22-9.46-53.35-30.26-67.17-57.23,6.1-1.15,12.07-2.78,17.84-4.81-.25,10.28,7.78,18.91,18.09,19.35,10.47.47,19.29-7.64,19.76-18.09.27-6.68-2.94-12.73-8.03-16.3,12.2-8.36,22.9-18.8,31.5-30.84,2.94,10.11,12.42,17.73,23.47,17.73s20.81-7.86,23.53-18.22c8.71,12.26,19.54,22.9,31.94,31.39-4.62,3.24-7.75,8.52-8.03,14.62-.44,10.44,7.67,19.29,18.11,19.73,10.44.47,19.27-7.64,19.73-18.09.03-.33.05-.82.05-1.24Z"/>
  <path class="cls-1" d="M200.67,163.48c0,.41-.03.91-.05,1.24-.47,10.44-9.29,18.55-19.73,18.09-10.44-.44-18.55-9.29-18.11-19.73.27-6.1,3.41-11.38,8.03-14.62,9.15,6.27,19.18,11.35,29.88,15.03Z"/>
  <path class="cls-5" d="M195.83,32.43c2.45,2.36,4.76,4.84,6.98,7.39-3.71,2.23-7.53,4.32-11.43,6.24-.6-3.35-1.81-6.51-3.52-9.32,2.72-1.35,5.36-2.8,7.97-4.32Z"/>
  <path class="cls-5" d="M195.83,32.43c-2.61,1.51-5.25,2.97-7.97,4.32-4.89-8.11-13.8-13.52-23.94-13.52-8.71,0-16.49,3.99-21.6,10.22-7.09-6.35-16.49-10.2-26.77-10.2s-19.68,3.85-26.77,10.2c-5.14-6.24-12.92-10.2-21.6-10.2-10.22,0-19.16,5.47-24.02,13.66-2.72-1.35-5.41-2.8-8.05-4.32C55.91,12.42,84.27,0,115.55,0s59.51,12.37,80.29,32.43Z"/>
  <path class="cls-5" d="M191.38,46.07c.33,1.65.49,3.35.49,5.11,0,11.6-7.06,21.55-17.12,25.78-26.39-15.09-36.8-36.09-36.8-36.09,1.07-2.69,2.56-5.19,4.37-7.42,5.11-6.24,12.89-10.22,21.6-10.22,10.14,0,19.05,5.41,23.94,13.52,1.7,2.8,2.91,5.96,3.52,9.32Z"/>
  <path class="cls-2" d="M174.75,76.96c-3.33,1.4-6.98,2.17-10.83,2.17-15.45,0-27.95-12.51-27.95-27.95,0-3.63.69-7.12,1.98-10.31,0,0,10.42,21,36.8,36.09Z"/>
  <path class="cls-3" d="M154.8,174.73c0,3.71-.52,7.28-1.48,10.69-6.21-3.93-13.61-6.18-21.47-6.18-17.98,0-33.2,11.68-38.51,27.87-10.31-7.06-17.07-18.94-17.07-32.38,0-21.69,17.59-39.25,39.28-39.25s39.25,17.56,39.25,39.25Z"/>
  <path class="cls-1" d="M153.31,185.42c-4.65,16.49-19.79,28.56-37.77,28.56-8.25,0-15.89-2.53-22.21-6.87,5.3-16.19,20.53-27.87,38.51-27.87,7.86,0,15.25,2.25,21.47,6.18Z"/>
  <path class="cls-5" d="M142.32,33.45c-1.81,2.23-3.3,4.73-4.37,7.42-5.74-5.69-13.66-9.21-22.4-9.21s-16.66,3.52-22.4,9.21c-1.07-2.69-2.56-5.19-4.37-7.42,7.09-6.35,16.49-10.2,26.77-10.2s19.68,3.85,26.77,10.2Z"/>
  <path class="cls-2" d="M115.55,213.98c13.33,0,25.64,4.26,35.68,11.49-11.21,3.66-23.23,5.63-35.68,5.63s-24.46-1.98-35.68-5.63c10.03-7.23,22.35-11.49,35.68-11.49Z"/>
  <path class="cls-1" d="M138.86,117.06c-2.72,10.36-12.29,18.22-23.53,18.22s-20.53-7.61-23.47-17.73c13.5-18.8,21.96-41.45,23.45-65.97h.49c1.46,24.3,9.78,46.75,23.06,65.47Z"/>
  <path class="cls-2" d="M113.68,51.59h1.62c-1.48,24.52-9.95,47.17-23.45,65.97-8.6,12.04-19.29,22.48-31.5,30.84-9.15,6.27-19.16,11.38-29.82,15.03-5.77,2.03-11.74,3.66-17.84,4.81-3.77-7.34-6.79-15.14-8.93-23.31,6.82-.11,13.47-.85,19.93-2.12,45.74-8.93,81.66-45.27,89.99-91.22Z"/>
  <path class="cls-5" d="M110.41,51.59h3.27c-8.33,45.96-44.25,82.29-89.99,91.22-6.46,1.26-13.11,2.01-19.93,2.12-2.01-7.7-3.27-15.72-3.66-23.97,4.07.49,8.93.85,13.14.85,6.27,0,12.42-.58,18.39-1.65,37.08-6.73,67.17-33.45,78.77-68.58Z"/>
  <path class="cls-2" d="M99.17,39.83c2.86.6,3.63,7.97,3.63,11.38s-5.19,16.9-7.67,20.81c-2.47,3.93-20.31,17.21-20.31,17.21,0,0-40.71-2.56-18.31-12.18,3.3,1.37,6.9,2.12,10.66,2.12,15.42,0,27.95-12.53,27.95-27.95,0-3.66-.69-7.15-1.98-10.33,0,0,3.13-1.65,6.02-1.04Z"/>
  <path class="cls-2" d="M93.15,40.87c1.29,3.19,1.98,6.68,1.98,10.33,0,15.42-12.53,27.95-27.95,27.95-3.77,0-7.37-.74-10.66-2.12,26.25-11.27,36.64-36.17,36.64-36.17Z"/>
  <path class="cls-5" d="M88.78,33.45c1.81,2.23,3.3,4.73,4.37,7.42,0,0-10.39,24.9-36.64,36.17-10.14-4.18-17.29-14.18-17.29-25.84,0-1.68.14-3.35.47-4.95.58-3.38,1.79-6.51,3.46-9.35,4.86-8.19,13.8-13.66,24.02-13.66,8.69,0,16.46,3.96,21.6,10.2Z"/>
  <path class="cls-1" d="M60.36,148.39c5.08,3.57,8.3,9.62,8.03,16.3-.47,10.44-9.29,18.55-19.76,18.09-10.31-.44-18.33-9.07-18.09-19.35,10.66-3.66,20.67-8.77,29.82-15.03Z"/>
  <path class="cls-5" d="M39.22,51.21c0,11.65,7.15,21.66,17.29,25.84-16.57,5.55-34.27,8.16-52.25,7.31,4.65-16.6,12.89-31.69,23.86-44.36,3.77,2.23,7.61,4.34,11.57,6.27-.33,1.59-.47,3.27-.47,4.95Z"/>
  <path class="cls-5" d="M43.15,36.91c-1.68,2.83-2.89,5.96-3.46,9.35-3.96-1.92-7.81-4.04-11.57-6.27,2.23-2.58,4.56-5.03,6.98-7.39,2.64,1.51,5.33,2.97,8.05,4.32Z"/>
</svg>