<?xml version="1.0" encoding="UTF-8"?>
<svg id="Layer_1" data-name="Layer 1" xmlns="http://www.w3.org/2000/svg" viewBox="0 0 230.71 231.07">
  <defs>
    <style>
      .cls-1 {
        fill: #6e0a30;
      }

      .cls-2 {
        fill: #1d0f14;
      }

      .cls-3 {
        fill: #9fcc44;
      }

      .cls-4 {
        fill: #e94296;
      }

      .cls-5 {
        fill: #ffd695;
      }

      .cls-6 {
        fill: #1a4f27;
      }

      .cls-7 {
        fill: #fbf9dc;
      }
    </style>
  </defs>
  <g>
    <path class="cls-1" d="M223.02,74.02c4.97,12.89,7.7,26.88,7.7,41.5,0,11.02-1.54,21.66-4.43,31.75-4.21-1.59-8.63-2.78-13.22-3.49,2.61-8.96,3.99-18.44,3.99-28.26,0-12.73-2.34-24.9-6.6-36.12,4.32-1.51,8.52-3.33,12.56-5.39Z"/>
    <path class="cls-6" d="M226.29,147.27c-1.65,5.85-3.79,11.52-6.32,16.96-4.32-1.65-8.91-2.67-13.69-3.02,2.78-5.52,5.06-11.35,6.79-17.43,4.59.71,9.02,1.9,13.22,3.49Z"/>
    <path class="cls-4" d="M216.31,59.67c2.56,4.59,4.81,9.4,6.71,14.35-4.04,2.06-8.25,3.88-12.56,5.39-10.58,3.71-21.93,5.74-33.78,5.74-15.64,0-30.45-3.52-43.7-9.84,9.07-23.31,25.78-42.8,47.06-55.38,5.58,3.77,10.8,8.03,15.61,12.73-18.75,5-34.11,18.31-41.92,35.7,7.31,2.91,15.28,4.51,23.61,4.51,14.65,0,28.15-4.92,38.97-13.19Z"/>
    <path class="cls-5" d="M217.05,115.52c0,9.81-1.37,19.29-3.99,28.26-3.41-.52-6.9-.8-10.44-.8-1.07,0-2.12.03-3.16.08,3.19-4.18,5.47-9.04,6.57-14.35.49-2.42.77-4.89.77-7.45,0-4.26-.74-8.38-2.12-12.18-4.97-13.96-18.31-23.94-33.97-23.94s-29,9.98-33.97,23.94c-1.37,3.79-2.12,7.92-2.12,12.18,0,2.56.27,5.06.77,7.45,2.86,13.61,13.41,24.41,26.88,27.65-7.39,5.55-13.63,12.56-18.22,20.64-4.1-6.1-7.56-12.64-10.33-19.54-5.33-12.95-8.25-27.1-8.25-41.94s2.67-27.76,7.5-40.21c13.25,6.32,28.06,9.84,43.7,9.84,11.85,0,23.2-2.03,33.78-5.74,4.26,11.21,6.6,23.39,6.6,36.12Z"/>
    <path class="cls-3" d="M213.07,143.78c-1.73,6.07-4.01,11.9-6.79,17.43-1.21-.08-2.42-.14-3.66-.14-20.97,0-38.89,13.08-46.04,31.55-4.65-4.81-8.85-10.03-12.53-15.61,4.59-8.08,10.83-15.09,18.22-20.64,10.47-7.81,23.28-12.67,37.19-13.3,1.04-.05,2.09-.08,3.16-.08,3.55,0,7.04.27,10.44.8Z"/>
    <path class="cls-4" d="M206.28,161.2c4.78.36,9.37,1.37,13.69,3.02-12.78,27.51-36.12,49.14-64.78,59.73-1.24-4.32-1.9-8.85-1.9-13.55,0-6.27,1.18-12.26,3.3-17.78,7.15-18.47,25.07-31.55,46.04-31.55,1.24,0,2.45.05,3.66.14Z"/>
    <path class="cls-7" d="M206.8,121.27c0,2.56-.27,5.03-.77,7.45-3.85-2.39-7.97-4.4-12.31-5.96.3-1.46.44-2.97.44-4.51,0-6.02-2.25-11.52-6.02-15.67,5.85,1.48,11.38,3.68,16.55,6.51,1.37,3.79,2.12,7.92,2.12,12.18Z"/>
    <path class="cls-1" d="M206.03,128.72c-1.1,5.3-3.38,10.17-6.57,14.35-13.91.63-26.72,5.5-37.19,13.3-13.47-3.24-24.02-14.05-26.88-27.65,3.85-2.39,7.97-4.4,12.31-5.96,7.17-2.58,14.92-4.01,23.01-4.01s15.83,1.43,23.01,4.01c4.34,1.57,8.47,3.57,12.31,5.96Z"/>
    <path class="cls-3" d="M216.31,59.67c-10.83,8.27-24.32,13.19-38.97,13.19-8.33,0-16.3-1.59-23.61-4.51,7.81-17.4,23.17-30.7,41.92-35.7,8.16,7.89,15.14,16.99,20.67,27.02Z"/>
    <path class="cls-7" d="M170.71,85.15c15.67,0,29,9.98,33.97,23.94-5.17-2.83-10.69-5.03-16.55-6.51h-.03c-5.55-1.43-11.41-2.17-17.4-2.17s-11.85.74-17.4,2.17h-.03c-5.85,1.48-11.38,3.68-16.55,6.51,4.97-13.96,18.31-23.94,33.97-23.94Z"/>
    <path class="cls-2" d="M194.16,118.24c0,1.54-.14,3.05-.44,4.51-7.17-2.58-14.92-4.01-23.01-4.01s-15.83,1.43-23.01,4.01c-.3-1.46-.44-2.97-.44-4.51,0-6.02,2.25-11.52,6.02-15.67h.03c5.55-1.43,11.41-2.17,17.4-2.17s11.85.74,17.4,2.17h.03c3.77,4.15,6.02,9.65,6.02,15.67Z"/>
    <path class="cls-1" d="M153.29,6.43c9.54,3.33,18.53,7.89,26.74,13.5-21.27,12.59-37.99,32.08-47.06,55.38-6.27-2.97-12.15-6.54-17.62-10.66,15.2-11.49,27.1-27.13,33.97-45.24,1.62-4.21,2.91-8.52,3.96-12.97Z"/>
    <path class="cls-6" d="M156.59,192.62c-2.12,5.52-3.3,11.52-3.3,17.78,0,4.7.66,9.24,1.9,13.55-5.61,2.09-11.43,3.74-17.4,4.92-1.26-4.32-2.06-8.82-2.39-13.47-.14-1.65-.19-3.33-.19-5,0-8,1.4-15.69,3.99-22.81,1.32-3.68,2.94-7.23,4.86-10.58,3.68,5.58,7.89,10.8,12.53,15.61Z"/>
    <path class="cls-3" d="M153.29,6.43c-1.04,4.45-2.34,8.77-3.96,12.97-6.87,18.11-18.77,33.75-33.97,45.24-15.2-11.49-27.1-27.13-33.97-45.24-1.62-4.21-2.91-8.52-3.96-12.97,2.97-1.04,5.96-1.95,9.04-2.75,2.42,13.91,14.4,24.57,28.91,24.98,14.51-.41,26.44-11.08,28.86-24.98,3.08.8,6.07,1.7,9.04,2.75Z"/>
    <path class="cls-7" d="M153.29,102.58c-3.77,4.15-6.02,9.65-6.02,15.67,0,1.54.14,3.05.44,4.51-4.34,1.57-8.47,3.57-12.31,5.96-.49-2.39-.77-4.89-.77-7.45,0-4.26.74-8.38,2.12-12.18,5.17-2.83,10.69-5.03,16.55-6.51Z"/>
    <path class="cls-3" d="M144.05,177.01c-1.92,3.35-3.55,6.9-4.86,10.58-2.94,1.35-6.02,2.47-9.21,3.33-4.65,1.24-9.54,1.9-14.59,1.9s-9.95-.66-14.59-1.92c-3.22-.82-6.32-1.95-9.26-3.33-1.32-3.68-2.97-7.2-4.86-10.55,4.07-6.1,7.56-12.62,10.33-19.49,5.08,3.82,11.43,6.1,18.33,6.1s13.28-2.28,18.39-6.16c2.78,6.9,6.24,13.44,10.33,19.54Z"/>
    <path class="cls-1" d="M139.19,187.59c-2.58,7.12-3.99,14.81-3.99,22.81,0,1.68.05,3.35.19,5-6.46,1.32-13.14,2.01-20.01,2.01s-13.61-.69-20.06-2.01c.14-1.65.19-3.33.19-5,0-8.03-1.4-15.69-3.99-22.84,2.94,1.37,6.05,2.5,9.26,3.33,4.65,1.26,9.54,1.92,14.59,1.92s9.95-.66,14.59-1.9c3.19-.85,6.27-1.98,9.21-3.33Z"/>
    <path class="cls-3" d="M135.39,215.4c.33,4.65,1.13,9.15,2.39,13.47-7.26,1.43-14.73,2.2-22.4,2.2s-15.2-.77-22.46-2.2c1.26-4.32,2.06-8.82,2.39-13.47,6.46,1.32,13.19,2.01,20.06,2.01s13.55-.69,20.01-2.01Z"/>
    <path class="cls-6" d="M144.24,3.68c-2.42,13.91-14.35,24.57-28.86,24.98-14.51-.41-26.5-11.08-28.91-24.98C95.7,1.29,105.41.03,115.38,0c9.98.03,19.62,1.29,28.86,3.68Z"/>
    <path class="cls-4" d="M125.47,115.52c0,14.84,2.91,29,8.25,41.94-5.11,3.88-11.46,6.16-18.39,6.16s-13.25-2.28-18.33-6.1c5.33-12.97,8.25-27.16,8.25-42s-2.67-27.76-7.5-40.21c6.27-2.97,12.15-6.54,17.62-10.66,5.47,4.12,11.35,7.7,17.62,10.66-4.84,12.45-7.5,26.03-7.5,40.21Z"/>
    <path class="cls-1" d="M115.36,64.65c-5.47,4.12-11.35,7.7-17.62,10.66-9.07-23.31-25.78-42.8-47.06-55.38,8.22-5.61,17.21-10.17,26.74-13.5,1.04,4.45,2.34,8.77,3.96,12.97,6.87,18.11,18.77,33.75,33.97,45.24Z"/>
    <path class="cls-5" d="M105.24,115.52c0,14.84-2.91,29.02-8.25,42-2.78,6.87-6.27,13.39-10.33,19.49-4.59-8.08-10.83-15.09-18.22-20.64,13.47-3.24,24.02-14.05,26.88-27.65.49-2.39.77-4.89.77-7.45,0-4.26-.74-8.38-2.12-12.18-4.97-13.96-18.31-23.94-33.97-23.94s-29,9.98-33.97,23.94c-1.37,3.79-2.12,7.92-2.12,12.18,0,2.56.27,5.03.77,7.45,1.1,5.3,3.38,10.17,6.57,14.35-1.04-.05-2.09-.08-3.16-.08-3.55,0-7.04.27-10.44.8-2.61-8.96-3.99-18.44-3.99-28.26,0-12.73,2.34-24.9,6.6-36.12,10.58,3.71,21.93,5.74,33.78,5.74,15.64,0,30.45-3.52,43.7-9.84,4.84,12.45,7.5,26.03,7.5,40.21Z"/>
    <path class="cls-7" d="M96.09,121.27c0,2.56-.27,5.06-.77,7.45-3.85-2.39-7.97-4.4-12.31-5.96.3-1.46.44-2.97.44-4.51,0-6.02-2.25-11.52-6.02-15.67,5.85,1.48,11.38,3.68,16.55,6.51,1.37,3.79,2.12,7.92,2.12,12.18Z"/>
    <path class="cls-6" d="M95.51,210.4c0,1.68-.05,3.35-.19,5-.33,4.65-1.13,9.15-2.39,13.47-5.96-1.18-11.79-2.83-17.4-4.92,1.24-4.32,1.9-8.85,1.9-13.55,0-6.27-1.18-12.26-3.3-17.78,4.65-4.81,8.85-10.03,12.53-15.61,1.9,3.35,3.55,6.87,4.86,10.55,2.58,7.15,3.99,14.81,3.99,22.84Z"/>
    <path class="cls-4" d="M50.68,19.93c21.27,12.59,37.99,32.08,47.06,55.38-13.25,6.32-28.06,9.84-43.7,9.84-11.85,0-23.2-2.03-33.78-5.74-4.32-1.51-8.52-3.33-12.56-5.39,1.9-4.95,4.15-9.76,6.71-14.35,10.83,8.27,24.32,13.19,38.97,13.19,8.33,0,16.3-1.59,23.61-4.51-7.81-17.4-23.17-30.7-41.92-35.7,4.81-4.7,10.03-8.96,15.61-12.73Z"/>
    <path class="cls-1" d="M95.32,128.72c-2.86,13.61-13.41,24.41-26.88,27.65-10.47-7.81-23.28-12.67-37.19-13.3-3.19-4.18-5.47-9.04-6.57-14.35,3.85-2.39,7.97-4.4,12.31-5.96,7.17-2.58,14.92-4.01,23.01-4.01s15.83,1.43,23.01,4.01c4.34,1.57,8.47,3.57,12.31,5.96Z"/>
    <path class="cls-7" d="M60,85.15c15.67,0,29,9.98,33.97,23.94-5.17-2.83-10.69-5.03-16.55-6.51h-.03c-5.55-1.43-11.41-2.17-17.4-2.17s-11.85.74-17.4,2.17h-.03c-5.85,1.48-11.38,3.68-16.55,6.51,4.97-13.96,18.31-23.94,33.97-23.94Z"/>
    <path class="cls-2" d="M83.45,118.24c0,1.54-.14,3.05-.44,4.51-7.17-2.58-14.92-4.01-23.01-4.01s-15.83,1.43-23.01,4.01c-.3-1.46-.44-2.97-.44-4.51,0-6.02,2.25-11.52,6.02-15.67h.03c5.55-1.43,11.41-2.17,17.4-2.17s11.85.74,17.4,2.17h.03c3.77,4.15,6.02,9.65,6.02,15.67Z"/>
    <path class="cls-3" d="M86.66,177.01c-3.68,5.58-7.89,10.8-12.53,15.61-7.15-18.47-25.07-31.55-46.04-31.55-1.24,0-2.45.05-3.66.14-2.78-5.52-5.06-11.35-6.79-17.43,3.41-.52,6.9-.8,10.44-.8,1.07,0,2.12.03,3.16.08,13.91.63,26.72,5.5,37.19,13.3,7.39,5.55,13.63,12.56,18.22,20.64Z"/>
    <path class="cls-4" d="M77.43,210.4c0,4.7-.66,9.24-1.9,13.55-28.67-10.58-52-32.21-64.78-59.73,4.32-1.65,8.91-2.67,13.69-3.02,1.21-.08,2.42-.14,3.66-.14,20.97,0,38.89,13.08,46.04,31.55,2.12,5.52,3.3,11.52,3.3,17.78Z"/>
    <path class="cls-3" d="M35.07,32.65c18.75,5,34.11,18.31,41.92,35.7-7.31,2.91-15.28,4.51-23.61,4.51-14.65,0-28.15-4.92-38.97-13.19,5.52-10.03,12.51-19.13,20.67-27.02Z"/>
    <path class="cls-7" d="M42.58,102.58c-3.77,4.15-6.02,9.65-6.02,15.67,0,1.54.14,3.05.44,4.51-4.34,1.57-8.47,3.57-12.31,5.96-.49-2.42-.77-4.89-.77-7.45,0-4.26.74-8.38,2.12-12.18,5.17-2.83,10.69-5.03,16.55-6.51Z"/>
    <path class="cls-6" d="M17.65,143.78c1.73,6.07,4.01,11.9,6.79,17.43-4.78.36-9.37,1.37-13.69,3.02-2.53-5.44-4.67-11.1-6.32-16.96,4.21-1.59,8.63-2.78,13.22-3.49Z"/>
    <path class="cls-1" d="M20.26,79.41c-4.26,11.21-6.6,23.39-6.6,36.12,0,9.81,1.37,19.29,3.99,28.26-4.59.71-9.02,1.9-13.22,3.49-2.89-10.09-4.43-20.72-4.43-31.75,0-14.62,2.72-28.61,7.7-41.5,4.04,2.06,8.25,3.88,12.56,5.39Z"/>
  </g>
  <path class="cls-4" d="M144.48,181.37c0,16.12-13.07,29.19-29.14,29.19s-29.14-13.07-29.14-29.19c0-1.47.1-2.94.37-4.36,1.63.63,11.13,3.89,28.77,3.89,18.85,0,28.25-3.62,28.77-3.89.26,1.42.37,2.89.37,4.36Z"/>
  <circle class="cls-2" cx="59.86" cy="118.11" r="23.57"/>
  <path class="cls-1" d="M35.16,123.44s9.08-4.71,24.84-4.71,25.99,5.18,25.99,5.18c0,0-8.82,15.3-9.01,15.56s-9.95,4.95-12.3,5.08-14.84-1.71-15.36-1.57-9.3-2.6-11.48-3.64-7.78-3.91-8.18-5.6c-.39-1.69,5.5-10.3,5.5-10.3Z"/>
  <circle class="cls-2" cx="170.56" cy="118.11" r="23.57"/>
  <path class="cls-1" d="M145.86,123.44s9.08-4.71,24.84-4.71,25.99,5.18,25.99,5.18c0,0-8.82,15.3-9.01,15.56s-9.95,4.95-12.3,5.08-14.84-1.71-15.36-1.57-9.3-2.6-11.48-3.64c-2.19-1.04-7.78-3.91-8.18-5.6-.39-1.69,5.5-10.3,5.5-10.3Z"/>
</svg>