<?xml version="1.0" encoding="UTF-8"?>
<svg id="Layer_1" data-name="Layer 1" xmlns="http://www.w3.org/2000/svg" viewBox="0 0 228.56 231.03">
  <defs>
    <style>
      .cls-1 {
        fill: #6e0a30;
      }

      .cls-2 {
        fill: #1d0f14;
      }

      .cls-3 {
        fill: #9fcc44;
      }

      .cls-4 {
        fill: #e94296;
      }

      .cls-5 {
        fill: #ffd695;
      }

      .cls-6 {
        fill: #1a4f27;
      }

      .cls-7 {
        fill: #fbf9dc;
      }
    </style>
  </defs>
  <path class="cls-1" d="M221.86,76.7c4.59,12.84,6.95,26.69,6.68,41.12-.25,12.34-2.42,24.16-6.21,35.24-5.8-6.4-13.22-11.3-21.63-13.99,9.48-8.74,15.42-21.25,15.42-35.18,0-9.18-2.58-17.76-7.09-25.04,4.45-.16,8.77-.91,12.84-2.14Z"/>
  <path class="cls-3" d="M222.33,153.05v.03c-1.48,4.32-3.22,8.52-5.19,12.59-4.97-3.11-10.86-4.92-17.18-4.92-10.77,0-20.31,5.25-26.22,13.36-3.88,5.36-6.18,11.93-6.18,19.08,0,6.21,1.76,12.01,4.78,16.93-4.34-5.17-9.35-9.76-14.9-13.61-6.35-4.43-13.39-7.89-20.94-10.2v-.33c0-7.26,1.57-14.13,4.37-20.31,2.72-5.96,6.57-11.3,11.32-15.67.27-.3.55-.55.85-.8,6.21-5.55,13.8-9.51,22.21-11.32t.05-.03c.16-.03.33-.05.49-.11h.05c3.16-.66,6.49-.99,9.87-.99,5.22,0,10.25.8,14.98,2.31,8.41,2.69,15.83,7.59,21.63,13.99Z"/>
  <path class="cls-4" d="M215.1,61.33c2.61,4.92,4.89,10.06,6.76,15.36-4.07,1.24-8.38,1.98-12.84,2.14-8.41-13.66-23.5-22.76-40.71-22.76-.82,0-1.65.03-2.47.05-4.92-7.64-7.75-16.74-7.75-26.5,0-3.52.36-6.98,1.07-10.28,1.24-2.69,2.2-5.55,2.91-8.49,5.03,2.36,9.84,5.06,14.43,8.08-1.18,3.35-1.81,6.95-1.81,10.69,0,18,14.62,32.63,32.63,32.63,2.69,0,5.28-.33,7.78-.93Z"/>
  <path class="cls-5" d="M133.82,100.42c-.05.36-.08.71-.11,1.07-.08.74-.11,1.48-.11,2.23,0,.66.03,1.32.08,1.95,0,.27.03.52.05.8.03.22.05.41.08.63,1.59,17.65,16.44,31.47,34.49,31.47,2.36,0,4.67-.25,6.93-.69-8.41,1.81-16,5.77-22.21,11.32-18.91-6.38-32.52-24.27-32.52-45.32,0-12.01,4.43-22.98,11.76-31.39,8.25-9.48,20.17-15.67,33.56-16.35.82-.03,1.65-.05,2.47-.05,17.21,0,32.3,9.1,40.71,22.76,4.51,7.28,7.09,15.86,7.09,25.04,0,13.94-5.94,26.44-15.42,35.18-4.73-1.51-9.76-2.31-14.98-2.31-3.38,0-6.71.33-9.87.99,15.53-3.44,27.16-17.29,27.16-33.86,0-4.01-.69-7.86-1.95-11.43-2.69-7.78-8.08-14.27-15.06-18.42-.03-.03-.05-.03-.08-.05-.82-.49-1.68-.93-2.56-1.37-.05-.03-.11-.03-.16-.05-4.51-2.14-9.54-3.35-14.87-3.35-17.98,0-32.76,13.69-34.47,31.22h-.03Z"/>
  <path class="cls-3" d="M215.1,61.33c-2.5.6-5.08.93-7.78.93-18,0-32.63-14.62-32.63-32.63,0-3.74.63-7.34,1.81-10.69,16.16,10.66,29.46,25.26,38.59,42.38Z"/>
  <path class="cls-6" d="M217.13,165.67c-8.22,17.04-20.5,31.72-35.57,42.85-2.2,1.62-4.48,3.16-6.79,4.65-.8-1.04-1.57-2.03-2.42-3.02,0,0-.03,0-.03-.03-3.02-4.92-4.78-10.72-4.78-16.93,0-7.15,2.31-13.72,6.18-19.08,5.91-8.11,15.45-13.36,26.22-13.36,6.32,0,12.2,1.81,17.18,4.92Z"/>
  <path class="cls-7" d="M201.05,92.45c1.26,3.57,1.95,7.42,1.95,11.43,0,16.57-11.63,30.43-27.16,33.86h-.05c-.16.05-.33.08-.49.11t-.05.03c-2.25.44-4.56.69-6.93.69-18.06,0-32.9-13.83-34.49-31.47,1.65,12.89,12.7,22.84,26.03,22.84,14.46,0,26.22-11.74,26.22-26.22,0-1.54-.14-3.05-.38-4.54,5.36-1.79,10.5-4.04,15.36-6.73Z"/>
  <path class="cls-2" d="M185.69,99.18c.25,1.48.38,3,.38,4.54,0,14.48-11.76,26.22-26.22,26.22-13.33,0-24.38-9.95-26.03-22.84-.05-.47-.08-.93-.11-1.43-.03-.6-.05-1.18-.05-1.79,0-.8.03-1.59.11-2.39,7.04,1.68,14.35,2.56,21.88,2.56,10.5,0,20.61-1.7,30.04-4.86Z"/>
  <path class="cls-4" d="M183.19,72.55s.03.03.03.03c.05.03.11.05.14.05.74.44,1.46.82,2.23,1.21.11.05.22.08.33.14.03.03.05.03.08.05,6.98,4.15,12.37,10.64,15.06,18.42-4.86,2.69-10,4.95-15.36,6.73-9.43,3.16-19.54,4.86-30.04,4.86-7.53,0-14.84-.88-21.88-2.56,0-.36.03-.71.08-1.07,1.7-17.54,16.49-31.22,34.47-31.22,5.33,0,10.36,1.21,14.87,3.35Z"/>
  <path class="cls-4" d="M172.36,210.14c.66,1.1,1.4,2.17,2.2,3.16-6.49,4.07-13.36,7.53-20.61,10.28-.8-.66-1.57-1.37-2.31-2.09-9.26-8.88-15.06-21.36-15.14-35.18,7.56,2.31,14.59,5.77,20.94,10.2,5.55,3.85,10.55,8.44,14.9,13.61,0,.03.03.03.03.03Z"/>
  <path class="cls-6" d="M158.09,29.64c0,9.76,2.83,18.86,7.75,26.5-13.39.69-25.31,6.87-33.56,16.35-4.86-3.9-11.05-6.24-17.81-6.24h-.38c-6.76,0-12.95,2.34-17.81,6.24-8.25-9.48-20.17-15.67-33.56-16.35,4.92-7.64,7.75-16.74,7.75-26.5,0-3.52-.36-6.98-1.07-10.28,7.7,17.15,24.96,29.05,44.88,29.02,19.93.03,37.19-11.87,44.88-29.02-.71,3.3-1.07,6.76-1.07,10.28Z"/>
  <path class="cls-3" d="M161.86,10.76c-1.15,2.75-2.06,5.63-2.69,8.6-7.7,17.15-24.96,29.05-44.88,29.02-19.93.03-37.19-11.87-44.88-29.02-1.24-2.69-2.2-5.55-2.91-8.49.08-.03.14-.08.22-.11,5.36-2.5,10.94-4.59,16.74-6.24,2.56,14.79,15.45,25.95,30.84,25.95s28.28-11.16,30.84-25.95c5.8,1.65,11.38,3.74,16.74,6.24Z"/>
  <path class="cls-1" d="M151.63,221.49c.74.71,1.51,1.43,2.31,2.09-1.59.58-3.16,1.15-4.78,1.68h-.03c-10.99,3.63-22.7,5.63-34.85,5.77-12.15-.14-23.86-2.14-34.85-5.77h-.03c-1.62-.52-3.19-1.1-4.78-1.68.8-.66,1.57-1.37,2.31-2.09,9.26-8.88,15.06-21.36,15.14-35.18,6.65-2.09,13.72-3.27,21.03-3.41.38,0,.8-.03,1.18-.03s.8.03,1.18.03c7.31.14,14.37,1.32,21.03,3.41.08,13.83,5.88,26.3,15.14,35.18Z"/>
  <path class="cls-4" d="M153.03,149.2c-.3.25-.58.49-.85.8-10.47-7.17-23.09-11.49-36.75-11.76h-2.31c-13.66.27-26.28,4.59-36.75,11.76-.27-.3-.55-.55-.85-.8,18.91-6.38,32.52-24.27,32.52-45.32,0-12.01-4.43-22.98-11.76-31.39,4.86-3.9,11.05-6.24,17.81-6.24h.38c6.76,0,12.95,2.34,17.81,6.24-7.34,8.41-11.76,19.38-11.76,31.39,0,21.05,13.61,38.95,32.52,45.32Z"/>
  <path class="cls-4" d="M145.12,4.49v.03c-2.56,14.79-15.45,25.95-30.84,25.95s-28.28-11.16-30.84-25.95v-.03C92.9,1.77,102.87.2,113.21.01c.36,0,.71-.03,1.07,0,.36-.03.71,0,1.07,0,10.33.19,20.31,1.76,29.77,4.48Z"/>
  <path class="cls-1" d="M152.18,150c-4.76,4.37-8.6,9.7-11.32,15.67-7.04-5.44-15.83-8.77-25.4-8.96h-2.36c-9.56.19-18.36,3.52-25.4,8.96-2.72-5.96-6.57-11.3-11.32-15.67,10.47-7.17,23.09-11.49,36.75-11.76h2.31c13.66.27,26.28,4.59,36.75,11.76Z"/>
  <path class="cls-5" d="M140.86,165.67c-2.8,6.18-4.37,13.06-4.37,20.31v.33c-6.65-2.09-13.72-3.27-21.03-3.41-.38,0-.8-.03-1.18-.03s-.8.03-1.18.03c-7.31.14-14.37,1.32-21.03,3.41v-.33c0-7.26-1.57-14.13-4.37-20.31,7.04-5.44,15.83-8.77,25.4-8.96h2.36c9.56.19,18.36,3.52,25.4,8.96Z"/>
  <path class="cls-5" d="M27.53,92.45c-1.26,3.57-1.95,7.42-1.95,11.43,0,16.57,11.63,30.43,27.18,33.86-3.19-.66-6.51-.99-9.92-.99-5.22,0-10.25.8-14.98,2.31-9.48-8.74-15.42-21.25-15.42-35.18,0-9.18,2.58-17.76,7.09-25.04,8.41-13.66,23.5-22.76,40.71-22.76.82,0,1.65.03,2.47.05,13.39.69,25.31,6.87,33.56,16.35,7.34,8.41,11.76,19.38,11.76,31.39,0,21.05-13.61,38.95-32.52,45.32-6.21-5.55-13.8-9.54-22.24-11.35,2.25.47,4.59.71,6.98.71,19.13,0,34.66-15.53,34.66-34.69,0-.8-.03-1.59-.11-2.39-1.21-18.03-16.22-32.3-34.55-32.3-5.33,0-10.39,1.21-14.9,3.35-.05.03-.08.05-.14.05l-.03.03c-.77.36-1.51.77-2.23,1.21-.05.03-.08.03-.14.05-7.09,4.12-12.59,10.69-15.31,18.55Z"/>
  <path class="cls-7" d="M94.82,101.49c.08.8.11,1.59.11,2.39,0,19.16-15.53,34.69-34.66,34.69-2.39,0-4.73-.25-6.98-.71h-.03c-.16-.03-.33-.05-.49-.11-15.56-3.44-27.18-17.29-27.18-33.86,0-4.01.69-7.86,1.95-11.43,4.84,2.67,9.89,4.89,15.2,6.68-.25,1.43-.36,2.89-.36,4.37,0,14.48,11.74,26.22,26.22,26.22s26.22-11.74,26.22-26.22c0-.66-.03-1.32-.08-1.98.03-.03.05-.03.08-.03Z"/>
  <path class="cls-2" d="M94.74,101.52c.05.66.08,1.32.08,1.98,0,14.48-11.74,26.22-26.22,26.22s-26.22-11.74-26.22-26.22c0-1.48.11-2.94.36-4.37,9.48,3.19,19.62,4.92,30.18,4.92,7.5,0,14.81-.88,21.82-2.53Z"/>
  <path class="cls-4" d="M94.82,101.49s-.05,0-.08.03c-7.01,1.65-14.32,2.53-21.82,2.53-10.55,0-20.7-1.73-30.18-4.92-5.3-1.79-10.36-4.01-15.2-6.68,2.72-7.86,8.22-14.43,15.31-18.55.05-.03.08-.03.14-.05.77-.38,1.48-.77,2.23-1.21l.03-.03s.05,0,.11-.03c0,0,.03,0,.03-.03,4.51-2.14,9.56-3.35,14.9-3.35,18.33,0,33.34,14.27,34.55,32.3Z"/>
  <path class="cls-3" d="M92.07,185.98v.33c-7.56,2.31-14.59,5.77-20.94,10.2-5.55,3.85-10.55,8.44-14.9,13.61,3.02-4.92,4.78-10.72,4.78-16.93,0-7.15-2.31-13.72-6.18-19.08-5.91-8.11-15.45-13.36-26.22-13.36-6.32,0-12.2,1.81-17.18,4.92-1.98-4.07-3.71-8.27-5.19-12.59v-.03c5.8-6.4,13.22-11.3,21.63-13.99,4.73-1.51,9.76-2.31,14.98-2.31,3.41,0,6.73.33,9.92.99.16.05.33.08.49.11h.03c8.44,1.81,16.02,5.8,22.24,11.35.3.25.58.49.85.8,4.76,4.37,8.6,9.7,11.32,15.67,2.8,6.18,4.37,13.06,4.37,20.31Z"/>
  <path class="cls-4" d="M92.07,186.31c-.08,13.83-5.88,26.3-15.14,35.18-.74.71-1.51,1.43-2.31,2.09-7.26-2.75-14.13-6.21-20.61-10.28.8-.99,1.54-2.06,2.2-3.16,0,0,.03,0,.03-.03,4.34-5.17,9.35-9.76,14.9-13.61,6.35-4.43,13.39-7.89,20.94-10.2Z"/>
  <path class="cls-4" d="M69.4,19.36c.71,3.3,1.07,6.76,1.07,10.28,0,9.76-2.83,18.86-7.75,26.5-.82-.03-1.65-.05-2.47-.05-17.21,0-32.3,9.1-40.71,22.76-4.45-.16-8.77-.91-12.84-2.14,1.87-5.3,4.15-10.44,6.76-15.36,2.5.6,5.08.93,7.78.93,18,0,32.63-14.62,32.63-32.63,0-3.74-.63-7.34-1.81-10.69,4.59-3.02,9.4-5.72,14.43-8.08.71,2.94,1.68,5.8,2.91,8.49Z"/>
  <path class="cls-6" d="M61.01,193.18c0,6.21-1.76,12.01-4.78,16.93,0,.03-.03.03-.03.03-.85.99-1.62,1.98-2.42,3.02-2.31-1.48-4.59-3.02-6.79-4.65-15.06-11.13-27.35-25.81-35.57-42.85,4.97-3.11,10.86-4.92,17.18-4.92,10.77,0,20.31,5.25,26.22,13.36,3.88,5.36,6.18,11.93,6.18,19.08Z"/>
  <path class="cls-3" d="M52.05,18.95c1.18,3.35,1.81,6.95,1.81,10.69,0,18-14.62,32.63-32.63,32.63-2.69,0-5.28-.33-7.78-.93,9.13-17.12,22.43-31.72,38.59-42.38Z"/>
  <path class="cls-1" d="M12.45,103.88c0,13.94,5.94,26.44,15.42,35.18-8.41,2.69-15.83,7.59-21.63,13.99C2.44,141.98.27,130.16.02,117.82c-.27-14.43,2.09-28.28,6.68-41.12,4.07,1.24,8.38,1.98,12.84,2.14-4.51,7.28-7.09,15.86-7.09,25.04Z"/>
</svg>