<?xml version="1.0" encoding="UTF-8"?>
<svg id="Layer_1" data-name="Layer 1" xmlns="http://www.w3.org/2000/svg" viewBox="0 0 331.12 231.1">
  <defs>
    <style>
      .cls-1 {
        fill: #6e0a30;
      }

      .cls-2 {
        fill: #1d0f14;
      }

      .cls-3 {
        fill: #9fcc44;
      }

      .cls-4 {
        fill: #e94296;
      }

      .cls-5 {
        fill: #ffd695;
      }

      .cls-6 {
        fill: #1a4f27;
      }

      .cls-7 {
        fill: #fbf9dc;
      }
    </style>
  </defs>
  <g>
    <path class="cls-3" d="M308.55,118.52c12.48,0,22.57,10.11,22.57,22.57s-10.09,22.57-22.57,22.57-22.57-10.09-22.57-22.57,10.11-22.57,22.57-22.57ZM320.81,141.08c0-6.76-5.5-12.26-12.26-12.26s-12.26,5.5-12.26,12.26,5.5,12.26,12.26,12.26,12.26-5.5,12.26-12.26Z"/>
    <path class="cls-6" d="M308.55,128.83c6.76,0,12.26,5.5,12.26,12.26s-5.5,12.26-12.26,12.26-12.26-5.5-12.26-12.26,5.5-12.26,12.26-12.26Z"/>
    <path class="cls-1" d="M315.53,78.75c0,24.24-15.34,44.88-36.83,52.8.63-4.56.99-9.21,1.07-13.94,12.34-7.89,20.53-21.71,20.53-37.46,0-24.6-19.93-44.53-44.5-44.53-2.58,0-5.08.22-7.53.63-3.22-3.41-6.65-6.62-10.25-9.62,6.57-2.67,13.74-4.15,21.25-4.15,31.06,0,56.26,25.18,56.26,56.26Z"/>
    <path class="cls-4" d="M300.31,80.15c0,15.75-8.19,29.57-20.53,37.46.03-.69.03-1.37.03-2.06,0-6.38-.52-12.62-1.51-18.72,4.76-4.86,7.7-11.54,7.7-18.88,0-14.57-11.49-26.41-25.92-26.99h-.03c-3.49-5.22-7.45-10.14-11.76-14.7,2.45-.41,4.95-.63,7.53-.63,24.57,0,44.5,19.93,44.5,44.53Z"/>
    <path class="cls-6" d="M285.99,77.95c0,7.34-2.94,14.02-7.7,18.88-2.72-16.77-9.1-32.35-18.22-45.87,14.43.58,25.92,12.42,25.92,26.99Z"/>
    <path class="cls-3" d="M279.8,115.54c0,.69,0,1.37-.03,2.06-.08,4.73-.44,9.37-1.07,13.94-.27,1.81-.58,3.63-.91,5.44-6.24-8.63-13.44-16.49-21.47-23.47.41-2.25.63-4.59.63-6.98,0-21.52-17.45-38.97-38.97-38.97-11.85,0-22.46,5.28-29.57,13.61-7.75-1.35-15.75-2.03-23.88-2.03-3.11,0-6.21.11-9.26.3h-.03c-5.11.33-10.11.93-15.06,1.81-7.15-8.38-17.78-13.69-29.66-13.69-21.52,0-38.97,17.45-38.97,38.97,0,2.53.25,4.97.71,7.37-3.82,3.35-7.45,6.9-10.88,10.66-3.77,4.1-7.31,8.47-10.55,13-.41-2.14-.77-4.29-1.07-6.49-.63-4.56-.96-9.24-1.02-13.96-.03-.52-.03-1.04-.03-1.57,0-6.6.55-13.08,1.62-19.38,2.78-16.52,9.1-31.86,18.11-45.19,3.55-5.28,7.56-10.25,11.9-14.84,3.3-3.49,6.82-6.73,10.5-9.78l.03-.03c9.21,13.41,21.99,24.16,36.97,30.89,1.81.82,3.68,1.59,5.55,2.28,9.7,3.6,20.17,5.58,31.14,5.58,30.45,0,57.33-15.23,73.47-38.48l.03.03c3.6,3,7.04,6.21,10.25,9.62,4.32,4.56,8.27,9.48,11.76,14.7h.03c9.13,13.52,15.5,29.11,18.22,45.87.99,6.1,1.51,12.34,1.51,18.72Z"/>
    <path class="cls-4" d="M277.8,136.99c-1.7,9.15-4.48,17.89-8.22,26.14-4.51,9.98-10.39,19.18-17.43,27.38-2.03-3.11-5.66-5.25-9.67-5.25,6.38,0,11.54-5.17,11.54-11.54s-5.17-11.54-11.54-11.54c6.38,0,11.54-5.14,11.54-11.52s-5.17-11.54-11.54-11.54c-1.7,0-3.33.38-4.78,1.04,1.04-.6,2.06-1.26,3.05-1.98,8.03-5.77,13.77-14.54,15.58-24.65,8.03,6.98,15.23,14.84,21.47,23.47Z"/>
    <path class="cls-4" d="M256.96,106.53c0,2.39-.22,4.73-.63,6.98-10.61-9.26-22.62-16.93-35.7-22.68-.8-.36-1.62-.71-2.45-1.02-9.43-3.96-19.4-6.87-29.77-8.66,7.12-8.33,17.73-13.61,29.57-13.61,21.52,0,38.97,17.45,38.97,38.97Z"/>
    <path class="cls-3" d="M242.48,139.1c6.38,0,11.54,5.17,11.54,11.54s-5.17,11.52-11.54,11.52-11.52-5.14-11.52-11.52c0-3.99,2.01-7.5,5.08-9.56.03-.03.05-.03.08-.05.52-.27,1.04-.58,1.57-.88,1.46-.66,3.08-1.04,4.78-1.04Z"/>
    <path class="cls-3" d="M242.48,162.17c6.38,0,11.54,5.17,11.54,11.54s-5.17,11.54-11.54,11.54-11.52-5.17-11.52-11.54,5.17-11.54,11.52-11.54Z"/>
    <path class="cls-7" d="M256.33,113.52c-1.81,10.11-7.56,18.88-15.58,24.65-4.48-2.94-9.15-5.61-13.96-8,4.56-4.43,7.39-10.61,7.39-17.45,0-9.59-5.52-17.87-13.55-21.88,13.08,5.74,25.09,13.41,35.7,22.68Z"/>
    <path class="cls-3" d="M242.48,185.25c4.01,0,7.64,2.14,9.67,5.25-4.89,5.77-10.36,11.02-16.3,15.69-2.91-2.06-4.89-5.55-4.89-9.4,0-6.38,5.17-11.54,11.52-11.54Z"/>
    <path class="cls-1" d="M240.75,138.17c-.99.71-2.01,1.37-3.05,1.98-.55.25-1.07.55-1.57.88-.03.03-.05.03-.08.05-5.41,2.83-11.54,4.43-18.06,4.43-18.14,0-33.34-12.37-37.71-29.08,1.87.22,3.74.47,5.58.74,14.48,2.2,28.26,6.65,40.93,13,4.81,2.39,9.48,5.06,13.96,8Z"/>
    <path class="cls-5" d="M236.05,141.08c-3.08,2.06-5.08,5.58-5.08,9.56,0,6.38,5.17,11.52,11.52,11.52-6.35,0-11.52,5.17-11.52,11.54s5.17,11.54,11.52,11.54c-6.35,0-11.52,5.17-11.52,11.54,0,3.85,1.98,7.34,4.89,9.4-2.39,1.92-4.86,3.71-7.39,5.41-4.65-17.98-16.66-32.96-32.63-41.56-2.17-15.34-15.39-27.13-31.31-27.13s-29.16,11.79-31.33,27.13c-16.05,8.66-28.12,23.8-32.71,41.89-2.72-1.81-5.36-3.71-7.89-5.74,2.97-2.09,4.89-5.52,4.89-9.4,0-6.38-5.17-11.54-11.54-11.54,6.38,0,11.54-5.17,11.54-11.54s-5.17-11.54-11.54-11.54c6.38,0,11.54-5.14,11.54-11.52,0-4.15-2.2-7.81-5.5-9.81,5.52,2.97,11.82,4.67,18.53,4.67,18.09,0,33.29-12.31,37.68-29,5.36-.63,10.8-.96,16.33-.96s10.58.3,15.75.88c4.37,16.71,19.57,29.08,37.71,29.08,6.51,0,12.64-1.59,18.06-4.43Z"/>
    <path class="cls-2" d="M234.18,112.72c0,6.84-2.83,13.03-7.39,17.45-12.67-6.35-26.44-10.8-40.93-13-.27-1.46-.41-2.94-.41-4.45,0-13.47,10.91-24.38,24.35-24.38,2.94,0,5.77.52,8.38,1.48.82.3,1.65.66,2.45,1.02,8.03,4.01,13.55,12.29,13.55,21.88Z"/>
    <path class="cls-3" d="M228.46,211.61c-5.3,3.57-10.91,6.68-16.79,9.32-.47-25.64-21.41-46.29-47.14-46.29s-46.84,20.78-47.17,46.53c-5.91-2.61-11.54-5.72-16.88-9.24,4.59-18.09,16.66-33.23,32.71-41.89,9.32-5.03,19.98-7.89,31.33-7.89s21.99,2.86,31.31,7.89c15.97,8.6,27.98,23.58,32.63,41.56Z"/>
    <path class="cls-6" d="M221.45,15.12c5.85,3.35,11.41,7.2,16.55,11.49-16.13,23.25-43.01,38.48-73.47,38.48s-57.55-15.34-73.66-38.75c5.17-4.29,10.72-8.11,16.57-11.41,12.48,18.14,33.4,30.04,57.09,30.04s44.44-11.82,56.92-29.85Z"/>
    <path class="cls-7" d="M218.18,89.82c-2.61-.96-5.44-1.48-8.38-1.48-13.44,0-24.35,10.91-24.35,24.38,0,1.51.14,3,.41,4.45-1.84-.27-3.71-.52-5.58-.74-.82-3.16-1.26-6.49-1.26-9.89,0-9.7,3.55-18.55,9.4-25.37,10.36,1.79,20.34,4.7,29.77,8.66Z"/>
    <path class="cls-4" d="M202.29,6.43c6.68,2.31,13.08,5.25,19.16,8.69-12.48,18.03-33.34,29.85-56.92,29.85s-44.61-11.9-57.09-30.04c6.07-3.44,12.48-6.35,19.16-8.66,8.91,11.05,22.59,18.14,37.93,18.14s28.86-7.01,37.77-17.98Z"/>
    <path class="cls-1" d="M164.53,174.64c25.73,0,46.67,20.64,47.14,46.29-14.46,6.54-30.51,10.17-47.41,10.17s-32.57-3.55-46.89-9.92c.33-25.75,21.33-46.53,47.17-46.53Z"/>
    <path class="cls-1" d="M202.29,6.43c-8.91,10.97-22.51,17.98-37.77,17.98s-29.02-7.09-37.93-18.14c11.79-4.07,24.46-6.27,37.66-6.27s26.14,2.25,38.04,6.43Z"/>
    <path class="cls-4" d="M164.53,142.93c15.91,0,29.13,11.79,31.31,27.13-9.32-5.03-19.98-7.89-31.31-7.89s-22.02,2.86-31.33,7.89c2.17-15.34,15.39-27.13,31.33-27.13Z"/>
    <path class="cls-4" d="M188.41,81.16c-5.85,6.82-9.4,15.67-9.4,25.37,0,3.41.44,6.73,1.26,9.89-5.17-.58-10.42-.88-15.75-.88s-10.97.33-16.33.96c.85-3.19,1.29-6.54,1.29-9.98,0-9.65-3.52-18.47-9.32-25.29,7.92-1.4,16.05-2.12,24.35-2.12s16.13.69,23.88,2.03Z"/>
    <path class="cls-7" d="M149.49,106.53c0,3.44-.44,6.79-1.29,9.98-1.98.22-3.96.49-5.94.85.22-1.37.36-2.78.36-4.23,0-13.44-10.91-24.35-24.38-24.35-3.35,0-6.57.69-9.48,1.92,9.92-4.34,20.45-7.53,31.42-9.46,5.8,6.82,9.32,15.64,9.32,25.29Z"/>
    <path class="cls-1" d="M142.27,117.36c1.98-.36,3.96-.63,5.94-.85-4.4,16.68-19.6,29-37.68,29-6.71,0-13-1.7-18.53-4.67l-.74-.41c-1.13-.63-2.2-1.32-3.24-2.09,4.29-2.8,8.71-5.39,13.3-7.7,12.64-6.43,26.41-10.99,40.95-13.28Z"/>
    <path class="cls-2" d="M142.62,113.13c0,1.46-.14,2.86-.36,4.23-14.54,2.28-28.31,6.84-40.95,13.28-4.59-4.4-7.45-10.64-7.45-17.51,0-9.65,5.63-18,13.8-21.96.36-.16.71-.33,1.1-.47,2.91-1.24,6.13-1.92,9.48-1.92,13.47,0,24.38,10.91,24.38,24.35Z"/>
    <path class="cls-4" d="M110.52,67.56c11.87,0,22.51,5.3,29.66,13.69-10.97,1.92-21.49,5.11-31.42,9.46-.36.14-.74.3-1.1.47-12.97,5.77-24.87,13.47-35.4,22.73-.47-2.39-.71-4.84-.71-7.37,0-21.52,17.45-38.97,38.97-38.97Z"/>
    <path class="cls-7" d="M72.26,113.9c10.53-9.26,22.43-16.96,35.4-22.73-8.16,3.96-13.8,12.31-13.8,21.96,0,6.87,2.86,13.11,7.45,17.51-4.59,2.31-9.02,4.89-13.3,7.7-8.05-5.69-13.85-14.37-15.75-24.43Z"/>
    <path class="cls-3" d="M91.99,140.84c3.3,2.01,5.5,5.66,5.5,9.81,0,6.38-5.17,11.52-11.54,11.52s-11.54-5.14-11.54-11.52,5.17-11.54,11.54-11.54c1.92,0,3.74.47,5.3,1.32l.74.41Z"/>
    <circle class="cls-3" cx="85.95" cy="173.71" r="11.54"/>
    <path class="cls-3" d="M85.95,185.25c6.38,0,11.54,5.17,11.54,11.54,0,3.88-1.92,7.31-4.89,9.4-5.94-4.67-11.41-9.95-16.3-15.72,2.06-3.13,5.61-5.22,9.65-5.22Z"/>
    <path class="cls-4" d="M88.01,138.34c1.04.77,2.12,1.46,3.24,2.09-1.57-.85-3.38-1.32-5.3-1.32-6.38,0-11.54,5.17-11.54,11.54s5.17,11.52,11.54,11.52c-6.38,0-11.54,5.17-11.54,11.54s5.17,11.54,11.54,11.54c-4.04,0-7.59,2.09-9.65,5.22-6.9-8.11-12.73-17.15-17.21-26.96-3.74-8.16-6.54-16.85-8.27-25.92v-.03c6.21-8.69,13.41-16.63,21.44-23.67,1.9,10.06,7.7,18.75,15.75,24.43Z"/>
    <path class="cls-1" d="M90.84,26.36c-3.68,3.05-7.2,6.29-10.5,9.78-2.25-.33-4.56-.52-6.9-.52-24.57,0-44.5,19.93-44.5,44.53,0,15.42,7.86,29,19.79,36.97.05,4.73.38,9.4,1.02,13.96-4.04-1.59-7.83-3.63-11.35-6.05-1.32-1.32-2.8-2.47-4.43-3.41-12.15-10.28-19.87-25.67-19.87-42.88,0-31.09,25.18-56.26,56.24-56.26,7.23,0,14.16,1.37,20.5,3.88Z"/>
    <path class="cls-4" d="M73.44,35.62c2.34,0,4.65.19,6.9.52-4.34,4.59-8.36,9.56-11.9,14.84-14.07.96-25.18,12.67-25.18,26.96,0,7.01,2.69,13.41,7.06,18.22-1.07,6.29-1.62,12.78-1.62,19.38,0,.52,0,1.04.03,1.57-11.93-7.97-19.79-21.55-19.79-36.97,0-24.6,19.93-44.53,44.5-44.53Z"/>
    <path class="cls-6" d="M68.44,50.99c-9.02,13.33-15.34,28.67-18.11,45.19-4.37-4.81-7.06-11.21-7.06-18.22,0-14.29,11.1-26,25.18-26.96Z"/>
    <path class="cls-3" d="M38.4,125.03c4.15,4.1,6.73,9.76,6.73,16.05,0,12.48-10.11,22.57-22.57,22.57S0,153.56,0,141.08s10.09-22.57,22.57-22.57c4.18,0,8.05,1.13,11.41,3.11,1.4,1.21,2.89,2.34,4.43,3.41ZM34.82,141.08c0-6.76-5.5-12.26-12.26-12.26s-12.26,5.5-12.26,12.26,5.47,12.26,12.26,12.26,12.26-5.5,12.26-12.26Z"/>
    <path class="cls-6" d="M22.57,128.83c6.76,0,12.26,5.5,12.26,12.26s-5.5,12.26-12.26,12.26-12.26-5.5-12.26-12.26,5.47-12.26,12.26-12.26Z"/>
  </g>
  <path class="cls-1" d="M155.24,79.42c-5.11.33-10.11.93-15.06,1.81-7.15-8.38-17.78-13.69-29.66-13.69-21.52,0-38.97,17.45-38.97,38.97,0,2.53.25,4.97.71,7.37-3.82,3.35-7.45,6.9-10.88,10.66-2.06-5.61-3.19-11.65-3.19-17.98,0-28.91,23.45-52.33,52.33-52.33,6.07,0,11.9,1.04,17.32,2.97,1.9.63,3.74,1.4,5.55,2.28,9.07,4.4,16.66,11.35,21.85,19.93Z"/>
  <path class="cls-1" d="M173.35,79.34c5.11.33,10.11.93,15.06,1.81,7.15-8.38,17.78-13.69,29.66-13.69,21.52,0,38.97,17.45,38.97,38.97,0,2.53-.25,4.97-.71,7.37,3.82,3.35,7.45,6.9,10.88,10.66,2.06-5.61,3.19-11.65,3.19-17.98,0-28.91-23.45-52.33-52.33-52.33-6.07,0-11.9,1.04-17.32,2.97-1.9.63-3.74,1.4-5.55,2.28-9.07,4.4-16.66,11.35-21.85,19.93Z"/>
</svg>