<?xml version="1.0" encoding="UTF-8"?>
<svg id="Layer_1" data-name="Layer 1" xmlns="http://www.w3.org/2000/svg" viewBox="0 0 232.31 232.61">
  <defs>
    <style>
      .cls-1 {
        fill: #6e0a30;
      }

      .cls-2 {
        fill: #1d0f14;
      }

      .cls-3 {
        fill: #9fcc44;
      }

      .cls-4 {
        fill: #e94296;
      }

      .cls-5 {
        fill: #ffd695;
      }

      .cls-6 {
        fill: #1a4f27;
      }

      .cls-7 {
        fill: #fbf9dc;
      }
    </style>
  </defs>
  <path class="cls-6" d="M232.31,116.32c0,1.68-.03,3.35-.11,5-2.31-.33-4.7-.49-7.09-.49-26.08,0-47.82,18.58-52.72,43.21-9.73-4.54-20.09-7.92-30.95-9.98,2.5-4.34,3.96-9.37,3.96-14.76,0-4.48-1.02-8.74-2.83-12.56,6.35,8.16,16.24,13.39,27.38,13.39,19.16,0,34.69-15.53,34.69-34.69,0-6.35-1.7-12.31-4.7-17.45,7.59-7.23,14.24-15.42,19.76-24.41,8.05,15.83,12.62,33.75,12.62,52.74Z"/>
  <path class="cls-4" d="M225.11,120.83c2.39,0,4.78.16,7.09.49-1.04,25.04-10.06,48.07-24.52,66.57-10.33-9.7-22.24-17.81-35.29-23.86,4.89-24.63,26.63-43.21,52.72-43.21Z"/>
  <path class="cls-3" d="M201.91,37.93c7.01,7.67,13,16.3,17.78,25.64-5.52,8.99-12.18,17.18-19.76,24.41-4.89-8.41-13.22-14.57-23.03-16.55,10.66-9.07,19.27-20.5,25.01-33.5Z"/>
  <path class="cls-7" d="M199.93,87.98c3,5.14,4.7,11.1,4.7,17.45,0,19.16-15.53,34.69-34.69,34.69-11.13,0-21.03-5.22-27.38-13.39v-.03c-.99-2.12-2.25-4.1-3.71-5.88l-.03-.03c-.22-.41-.41-.85-.6-1.29-1.92-4.29-3-9.07-3-14.07s1.1-9.92,3.08-14.27h.03c.08-.03.16-.05.25-.05-.8,2.5-1.24,5.17-1.24,7.94,0,14.48,11.74,26.22,26.22,26.22s26.22-11.74,26.22-26.22c0-11.16-6.95-20.7-16.79-24.46,1.32-1.02,2.64-2.06,3.9-3.16,9.81,1.98,18.14,8.14,23.03,16.55Z"/>
  <path class="cls-4" d="M191.08,27.49c3.85,3.24,7.45,6.73,10.83,10.44-5.74,13-14.35,24.43-25.01,33.5-1.26,1.1-2.58,2.14-3.9,3.16-10.09,7.7-21.74,13.39-34.41,16.52-.08,0-.16.03-.25.05h-.03c-7.09,1.73-14.51,2.64-22.13,2.64h-.05c-7.61,0-15.03-.91-22.13-2.64h-.03c-.08-.03-.16-.05-.25-.05-12.67-3.13-24.32-8.82-34.41-16.52-1.32-1.02-2.64-2.06-3.9-3.16-10.66-9.07-19.27-20.5-25.01-33.5,3.38-3.71,6.98-7.2,10.83-10.44,7.89,8.58,19.18,13.94,31.75,13.94.49,0,.96,0,1.46-.03,7.97,14.87,23.67,24.98,41.7,25.01h.05c18.03-.03,33.72-10.14,41.7-25.01.49.03.96.03,1.46.03,12.56,0,23.86-5.36,31.75-13.94Z"/>
  <path class="cls-6" d="M207.68,187.89c-6.57,8.41-14.27,15.89-22.87,22.21-2.36-4.51-5.17-8.77-8.38-12.7-3.27-6.93-5.08-14.68-5.08-22.81,0-3.6.36-7.15,1.04-10.55,13.06,6.05,24.96,14.16,35.29,23.86Z"/>
  <path class="cls-2" d="M172.99,74.6c9.84,3.77,16.79,13.3,16.79,24.46,0,14.48-11.74,26.22-26.22,26.22s-26.22-11.74-26.22-26.22c0-2.78.44-5.44,1.24-7.94,12.67-3.13,24.32-8.82,34.41-16.52Z"/>
  <path class="cls-3" d="M191.08,27.49c-7.89,8.58-19.18,13.94-31.75,13.94-.49,0-.96,0-1.46-.03,3.55-6.65,5.58-14.24,5.58-22.32,0-3.22-.33-6.35-.93-9.37,10.42,4.54,20.01,10.55,28.56,17.78Z"/>
  <path class="cls-3" d="M176.43,197.4c2.14,4.65,4.97,8.93,8.33,12.73-9.76,7.17-20.7,12.86-32.46,16.71-6.93-12.86-20.5-21.63-36.12-21.66h-.05c-15.61.03-29.19,8.8-36.12,21.66-11.76-3.85-22.7-9.54-32.46-16.71,3.35-3.79,6.18-8.08,8.33-12.73,13.3-16.46,33.23-27.38,55.71-28.61-22.62,1.95-41.17,18.22-46.51,39.74,13.58-12.12,31.47-19.46,51.04-19.49h.05c19.57.03,37.46,7.37,51.04,19.49-5.33-21.52-23.88-37.79-46.51-39.74,22.48,1.24,42.41,12.15,55.71,28.61Z"/>
  <path class="cls-5" d="M171.35,174.59c0,8.14,1.81,15.89,5.08,22.81-13.3-16.46-33.23-27.38-55.71-28.61-.14,0-.3-.03-.44-.03-.52-.05-1.04-.08-1.57-.08-.82-.05-1.7-.08-2.53-.08,10.75-.03,20.15-5.85,25.26-14.54,10.86,2.06,21.22,5.44,30.95,9.98-.69,3.41-1.04,6.95-1.04,10.55Z"/>
  <path class="cls-6" d="M162.52,9.7c.6,3.02.93,6.16.93,9.37,0,8.08-2.03,15.67-5.58,22.32-22.59-.74-40.79-18.86-41.7-41.39,16.49.03,32.16,3.46,46.34,9.7Z"/>
  <path class="cls-1" d="M120.72,168.79c22.62,1.95,41.17,18.22,46.51,39.74-13.58-12.12-31.47-19.46-51.04-19.49h-.05c-19.57.03-37.46,7.37-51.04,19.49,5.33-21.52,23.88-37.79,46.51-39.74.14,0,.3-.03.44-.03.52-.05,1.04-.08,1.57-.08.82-.05,1.7-.08,2.53-.08h.05c.82,0,1.7.03,2.53.08.52,0,1.04.03,1.57.08.14,0,.3.03.44.03Z"/>
  <path class="cls-3" d="M157.88,41.39c-7.97,14.87-23.67,24.98-41.7,25.01h-.05c-18.03-.03-33.72-10.14-41.7-25.01,22.59-.74,40.79-18.86,41.7-41.39h.05c.91,22.54,19.1,40.65,41.7,41.39Z"/>
  <path class="cls-4" d="M142.57,126.71v.03c1.81,3.82,2.83,8.08,2.83,12.56,0,5.39-1.46,10.42-3.96,14.76-8.16-1.59-16.63-2.42-25.26-2.42h-.05c-8.63,0-17.1.82-25.26,2.42-2.5-4.34-3.96-9.37-3.96-14.76,0-4.48,1.02-8.74,2.83-12.56v-.03c1.46-1.81,2.69-3.79,3.71-5.88l.03-.03c.36-.44.66-.8,1.04-1.21,7.01,1.26,14.21,1.92,21.6,1.92h.05c7.39,0,14.59-.66,21.6-1.92.38.41.69.77,1.04,1.21l.03.03c1.02,2.09,2.25,4.07,3.71,5.88Z"/>
  <path class="cls-4" d="M116.18,205.18c15.61.03,29.19,8.8,36.12,21.66-11.35,3.74-23.5,5.77-36.12,5.77h-.05c-12.62,0-24.76-2.03-36.12-5.77,6.93-12.86,20.5-21.63,36.12-21.66h.05Z"/>
  <path class="cls-5" d="M138.23,119.51c-.14.03-.3.05-.44.08-7.01,1.26-14.21,1.92-21.6,1.92h-.05c-7.39,0-14.59-.66-21.6-1.92-.14-.03-.3-.05-.44-.08,1.92-4.29,3-9.07,3-14.07s-1.1-9.92-3.08-14.27c7.09,1.73,14.51,2.64,22.13,2.64h.05c7.61,0,15.03-.91,22.13-2.64-1.98,4.34-3.08,9.18-3.08,14.27s1.07,9.78,3,14.07Z"/>
  <path class="cls-1" d="M141.44,154.06c-5.11,8.69-14.51,14.51-25.26,14.54h-.05c-10.75-.03-20.15-5.85-25.26-14.54,8.16-1.59,16.63-2.42,25.26-2.42h.05c8.63,0,17.1.82,25.26,2.42Z"/>
  <path class="cls-5" d="M116.13,168.6c-.82,0-1.7.03-2.53.08-.52,0-1.04.03-1.57.08-.14,0-.3.03-.44.03-22.48,1.24-42.41,12.15-55.71,28.61,3.27-6.93,5.08-14.68,5.08-22.81,0-3.6-.36-7.15-1.04-10.55,9.73-4.54,20.09-7.92,30.95-9.98,5.11,8.69,14.51,14.51,25.26,14.54Z"/>
  <path class="cls-6" d="M116.13,0c-.91,22.54-19.1,40.65-41.7,41.39-3.55-6.65-5.58-14.24-5.58-22.32,0-3.22.33-6.35.93-9.37C83.97,3.46,99.64.03,116.13,0Z"/>
  <path class="cls-7" d="M97.08,105.43c0,5-1.07,9.78-3,14.07-.19.44-.38.88-.6,1.29l-.03.03c-1.46,1.79-2.72,3.77-3.71,5.88v.03c-6.35,8.16-16.24,13.39-27.38,13.39-19.16,0-34.69-15.53-34.69-34.69,0-6.35,1.7-12.31,4.7-17.45,4.89-8.41,13.22-14.57,23.03-16.55,1.26,1.1,2.58,2.14,3.9,3.16-9.84,3.77-16.79,13.3-16.79,24.46,0,14.48,11.74,26.22,26.22,26.22s26.22-11.74,26.22-26.22c0-2.78-.44-5.44-1.24-7.94.08,0,.16.03.25.05h.03c1.98,4.34,3.08,9.18,3.08,14.27Z"/>
  <path class="cls-2" d="M93.73,91.11c.8,2.5,1.24,5.17,1.24,7.94,0,14.48-11.74,26.22-26.22,26.22s-26.22-11.74-26.22-26.22c0-11.16,6.95-20.7,16.79-24.46,10.09,7.7,21.74,13.39,34.41,16.52Z"/>
  <path class="cls-6" d="M89.74,126.74c-1.81,3.82-2.83,8.08-2.83,12.56,0,5.39,1.46,10.42,3.96,14.76-10.86,2.06-21.22,5.44-30.95,9.98-4.89-24.63-26.63-43.21-52.72-43.21-2.39,0-4.78.16-7.09.49-.08-1.65-.11-3.33-.11-5,0-18.99,4.56-36.91,12.62-52.74,5.52,8.99,12.18,17.18,19.76,24.41-3,5.14-4.7,11.1-4.7,17.45,0,19.16,15.53,34.69,34.69,34.69,11.13,0,21.03-5.22,27.38-13.39Z"/>
  <path class="cls-3" d="M74.43,41.39c-.49.03-.96.03-1.46.03-12.56,0-23.86-5.36-31.75-13.94,8.55-7.23,18.14-13.25,28.56-17.78-.6,3.02-.93,6.16-.93,9.37,0,8.08,2.03,15.67,5.58,22.32Z"/>
  <path class="cls-6" d="M59.92,164.03c.69,3.41,1.04,6.95,1.04,10.55,0,8.14-1.81,15.89-5.08,22.81-3.22,3.93-6.02,8.19-8.38,12.7-8.6-6.32-16.3-13.8-22.87-22.21,10.33-9.7,22.24-17.81,35.29-23.86Z"/>
  <path class="cls-3" d="M55.41,71.44c-9.81,1.98-18.14,8.14-23.03,16.55-7.59-7.23-14.24-15.42-19.76-24.41,4.78-9.35,10.77-17.98,17.78-25.64,5.74,13,14.35,24.43,25.01,33.5Z"/>
  <path class="cls-4" d="M7.2,120.83c26.08,0,47.82,18.58,52.72,43.21-13.06,6.05-24.96,14.16-35.29,23.86C10.17,169.39,1.15,146.36.11,121.32c2.31-.33,4.7-.49,7.09-.49Z"/>
</svg>