<?xml version="1.0" encoding="UTF-8"?>
<svg id="Layer_1" data-name="Layer 1" xmlns="http://www.w3.org/2000/svg" viewBox="0 0 230.22 230.25">
  <defs>
    <style>
      .cls-1 {
        fill: #6e0a30;
      }

      .cls-2 {
        fill: #1d0f14;
      }

      .cls-3 {
        fill: #9fcc44;
      }

      .cls-4 {
        fill: #e94296;
      }

      .cls-5 {
        fill: #ffd695;
      }

      .cls-6 {
        fill: #1a4f27;
      }

      .cls-7 {
        fill: #fbf9dc;
      }
    </style>
  </defs>
  <path class="cls-1" d="M230,122.26c-.03.3-.03.6-.05.91-8.38,3.63-17.59,5.61-27.29,5.61-26.25,0-49.06-14.59-60.83-36.12-.22-.44-.44-.85-.66-1.26-.88-1.7-1.7-3.49-2.45-5.28,2.83.33,5.63.71,8.41,1.21,3.79,13.41,16.13,23.25,30.78,23.25,7.72,0,14.79-2.72,20.31-7.28h.03c11.24,5.3,21.82,11.65,31.75,18.97Z"/>
  <path class="cls-5" d="M229.94,123.16c-.38,5.58-1.18,11.05-2.34,16.35-7.86,2.47-16.27,3.79-24.96,3.79-3.85,0-7.64-.25-11.32-.8-4.78-.6-9.46-1.65-13.94-3.08-8.47-2.67-16.35-6.65-23.42-11.76-4.26-3-8.19-6.4-11.76-10.17,1.62-3.66,2.53-7.72,2.53-11.98,0-4.62-1.04-8.96-2.91-12.86,11.76,21.52,34.58,36.12,60.83,36.12,9.7,0,18.91-1.98,27.29-5.61Z"/>
  <path class="cls-3" d="M227.61,139.52c-1.35,6.29-3.22,12.42-5.58,18.28-3.33-1.35-6.93-2.06-10.69-2.06-16,0-28.94,12.95-28.94,28.91,0,7.09,2.56,13.58,6.76,18.61-2.61,2.2-5.33,4.29-8.14,6.24-1.76-11.98-6.71-22.9-13.96-31.91,10.97-9.24,19.43-21.3,24.27-35.07,3.68.55,7.48.8,11.32.8,8.69,0,17.1-1.32,24.96-3.79Z"/>
  <path class="cls-1" d="M211.34,155.73c3.77,0,7.37.71,10.69,2.06-7.06,17.78-18.47,33.34-32.87,45.46-4.21-5.03-6.76-11.52-6.76-18.61,0-15.97,12.95-28.91,28.94-28.91Z"/>
  <path class="cls-7" d="M177.91,46.62c17.67,0,31.99,14.32,31.99,31.99,0,9.95-4.54,18.83-11.68,24.68-3.77-1.79-7.61-3.46-11.52-5,4.23-4.26,6.87-10.11,6.87-16.63,0-13-10.53-23.53-23.53-23.53s-23.56,10.53-23.56,23.53c0,1.95.25,3.85.69,5.66h-.05c-.8-2.78-1.21-5.69-1.21-8.71,0-17.67,14.32-31.99,31.99-31.99Z"/>
  <path class="cls-4" d="M198.23,103.29c7.15-5.85,11.68-14.73,11.68-24.68,0-17.67-14.32-31.99-31.99-31.99s-31.99,14.32-31.99,31.99c0,3.02.41,5.94,1.21,8.71-2.78-.49-5.58-.88-8.41-1.21-3.44-8.19-5.3-17.15-5.3-26.58,0-20.61,9.02-39.11,23.31-51.76-.05.44-.05.91-.05,1.35,0,17.67,14.32,31.99,31.99,31.99,4.43,0,8.63-.88,12.45-2.5,5.06,5.66,9.54,11.82,13.39,18.39,10,17.07,15.72,36.91,15.72,58.1,0,2.39-.08,4.78-.22,7.15-9.92-7.31-20.5-13.66-31.75-18.97h-.03Z"/>
  <path class="cls-2" d="M193.58,79.83c0,6.51-2.64,12.37-6.87,16.63-12.59-5-25.81-8.71-39.52-10.97-.44-1.81-.69-3.71-.69-5.66,0-13,10.55-23.53,23.56-23.53s23.53,10.53,23.53,23.53Z"/>
  <path class="cls-3" d="M201.11,38.62c-3.82,1.62-8.03,2.5-12.45,2.5-17.67,0-31.99-14.32-31.99-31.99,0-.44,0-.91.05-1.35,17.18,6.62,32.38,17.32,44.39,30.84Z"/>
  <path class="cls-3" d="M186.71,98.29c3.9,1.54,7.75,3.22,11.52,5-5.52,4.56-12.59,7.28-20.31,7.28-14.65,0-26.99-9.84-30.78-23.25h.05c13.72,2.25,26.94,5.96,39.52,10.97Z"/>
  <path class="cls-6" d="M191.33,142.51c-4.84,13.77-13.3,25.84-24.27,35.07-2.97-3.71-6.35-7.09-10.03-10.09,9.04-7.31,16.13-16.96,20.37-28.06,4.48,1.43,9.15,2.47,13.94,3.08Z"/>
  <path class="cls-5" d="M167.06,177.58c7.26,9.02,12.2,19.93,13.96,31.91-18.66,13.08-41.37,20.75-65.91,20.75s-47.25-7.67-65.91-20.75c1.76-11.98,6.71-22.9,13.96-31.91,3.11,2.58,6.4,4.97,9.87,7.09l.03.03c7.09,16.22,23.23,27.57,42.05,27.57s34.96-11.35,42.05-27.57l.03-.03c3.46-2.12,6.76-4.51,9.87-7.09Z"/>
  <path class="cls-4" d="M177.39,139.43c-4.23,11.1-11.32,20.75-20.37,28.06-11.46-9.26-26.06-14.81-41.92-14.81s-30.45,5.55-41.92,14.81c-9.04-7.31-16.13-16.96-20.37-28.06,8.47-2.67,16.35-6.65,23.42-11.76,11.98,4.95,25.09,7.67,38.86,7.67s26.88-2.72,38.86-7.67c7.06,5.11,14.95,9.1,23.42,11.76Z"/>
  <path class="cls-3" d="M167.06,177.58c-3.11,2.58-6.4,4.97-9.87,7.09l-.03.03c-12.26,7.48-26.63,11.79-42.05,11.79s-29.79-4.32-42.05-11.79l-.03-.03c-3.46-2.12-6.76-4.51-9.87-7.09,2.97-3.71,6.35-7.09,10.03-10.09,11.43,9.32,26.03,14.87,41.92,14.87s30.48-5.55,41.92-14.87c3.68,3,7.06,6.38,10.03,10.09Z"/>
  <path class="cls-5" d="M156.72,7.75v.03c-14.29,12.64-23.31,31.14-23.31,51.76,0,9.43,1.87,18.39,5.3,26.58.74,1.79,1.57,3.57,2.45,5.28-4.18-7.72-11.68-13.36-20.59-15.01-1.13-5.44-1.7-11.08-1.7-16.85,0-3.49.22-6.95.66-10.33.55-4.78,1.57-9.46,2.94-13.96,3.66-12.18,10.06-23.2,18.47-32.32,5.41,1.24,10.69,2.86,15.78,4.84Z"/>
  <path class="cls-1" d="M142.21,117.5c3.57,3.77,7.5,7.17,11.76,10.17-11.98,4.95-25.09,7.67-38.86,7.67s-26.88-2.72-38.86-7.67c4.26-3,8.19-6.4,11.76-10.17,4.62,10.39,15.01,17.65,27.1,17.65s22.48-7.26,27.1-17.65Z"/>
  <path class="cls-6" d="M157.16,184.7c-7.09,16.22-23.23,27.57-42.05,27.57s-34.96-11.35-42.05-27.57c12.26,7.48,26.63,11.79,42.05,11.79s29.79-4.32,42.05-11.79Z"/>
  <path class="cls-4" d="M144.74,105.52c0,4.26-.91,8.33-2.53,11.98-4.62,10.39-15.01,17.65-27.1,17.65s-22.48-7.26-27.1-17.65c-1.62-3.66-2.53-7.72-2.53-11.98,0-4.62,1.04-8.96,2.91-12.86.22-.44.44-.85.66-1.26,4.18-7.72,11.68-13.36,20.59-15.01,1.79-.36,3.6-.52,5.47-.52s3.68.16,5.47.52c8.91,1.65,16.41,7.28,20.59,15.01.22.41.44.82.66,1.26,1.87,3.9,2.91,8.25,2.91,12.86Z"/>
  <path class="cls-1" d="M115.11,152.68c15.86,0,30.45,5.55,41.92,14.81-11.43,9.32-26.03,14.87-41.92,14.87s-30.48-5.55-41.92-14.87c11.46-9.26,26.06-14.81,41.92-14.81Z"/>
  <path class="cls-6" d="M140.95,2.91c-8.41,9.13-14.81,20.15-18.47,32.32-2.42-.25-4.89-.36-7.37-.36s-4.95.11-7.37.36c-3.66-12.18-10.06-23.2-18.47-32.32,8.3-1.9,16.96-2.91,25.84-2.91s17.54,1.02,25.84,2.91Z"/>
  <path class="cls-4" d="M122.48,35.24c-1.37,4.51-2.39,9.18-2.94,13.96-1.46-.11-2.94-.16-4.43-.16s-2.97.05-4.43.16c-.55-4.78-1.57-9.46-2.94-13.96,2.42-.25,4.89-.36,7.37-.36s4.95.11,7.37.36Z"/>
  <path class="cls-3" d="M118.88,59.53c0,5.77.58,11.41,1.7,16.85-1.79-.36-3.6-.52-5.47-.52s-3.68.16-5.47.52c1.13-5.44,1.7-11.08,1.7-16.85,0-3.49-.22-6.95-.66-10.33,1.46-.11,2.94-.16,4.43-.16s2.97.05,4.43.16c-.44,3.38-.66,6.84-.66,10.33Z"/>
  <path class="cls-5" d="M110.68,49.2c.44,3.38.66,6.84.66,10.33,0,5.77-.58,11.41-1.7,16.85-8.91,1.65-16.41,7.28-20.59,15.01.88-1.7,1.7-3.49,2.45-5.28,3.44-8.19,5.3-17.15,5.3-26.58,0-20.61-9.02-39.11-23.31-51.76v-.03c5.08-1.98,10.36-3.6,15.78-4.84,8.41,9.13,14.81,20.15,18.47,32.32,1.37,4.51,2.39,9.18,2.94,13.96Z"/>
  <path class="cls-1" d="M91.5,86.11c-.74,1.79-1.57,3.57-2.45,5.28-.22.41-.44.82-.66,1.26-11.76,21.52-34.58,36.12-60.83,36.12-9.7,0-18.91-1.98-27.29-5.61-.03-.3-.03-.6-.05-.91,9.92-7.31,20.5-13.66,31.75-18.97h.03c5.52,4.56,12.59,7.28,20.31,7.28,14.62,0,26.99-9.84,30.78-23.25,2.78-.49,5.58-.88,8.41-1.21Z"/>
  <path class="cls-5" d="M88.39,92.65c-1.87,3.9-2.91,8.25-2.91,12.86,0,4.26.91,8.33,2.53,11.98-3.57,3.77-7.5,7.17-11.76,10.17-7.06,5.11-14.95,9.1-23.42,11.76-4.48,1.43-9.15,2.47-13.94,3.08-3.68.55-7.48.8-11.32.8-8.69,0-17.1-1.32-24.96-3.79-1.15-5.3-1.95-10.77-2.34-16.35,8.38,3.63,17.59,5.61,27.29,5.61,26.25,0,49.06-14.59,60.83-36.12Z"/>
  <path class="cls-2" d="M83.72,79.83c0,1.95-.25,3.85-.69,5.66-13.72,2.25-26.94,5.96-39.52,10.97-4.23-4.26-6.87-10.11-6.87-16.63,0-13,10.53-23.53,23.53-23.53s23.56,10.53,23.56,23.53Z"/>
  <path class="cls-7" d="M83.03,87.32c.44-1.81.69-3.71.69-5.66,0-13-10.55-23.53-23.56-23.53s-23.53,10.53-23.53,23.53c0,6.51,2.64,12.37,6.87,16.63-3.9,1.54-7.75,3.22-11.52,5-7.15-5.85-11.68-14.73-11.68-24.68,0-17.67,14.32-31.99,31.99-31.99s31.99,14.32,31.99,31.99c0,3.02-.41,5.94-1.21,8.71h-.05Z"/>
  <path class="cls-3" d="M83.03,87.32h.05c-3.79,13.41-16.16,23.25-30.78,23.25-7.72,0-14.79-2.72-20.31-7.28,3.77-1.79,7.61-3.46,11.52-5,12.59-5,25.81-8.71,39.52-10.97Z"/>
  <path class="cls-3" d="M73.5,7.78c.05.44.05.91.05,1.35,0,17.67-14.32,31.99-31.99,31.99-4.43,0-8.63-.88-12.45-2.5,12.01-13.52,27.21-24.21,44.39-30.84Z"/>
  <path class="cls-6" d="M73.19,167.5c-3.68,3-7.06,6.38-10.03,10.09-10.97-9.24-19.43-21.3-24.27-35.07,4.78-.6,9.46-1.65,13.94-3.08,4.23,11.1,11.32,20.75,20.37,28.06Z"/>
  <path class="cls-3" d="M63.16,177.58c-7.26,9.02-12.2,19.93-13.96,31.91-2.8-1.95-5.52-4.04-8.14-6.24,4.21-5.03,6.76-11.52,6.76-18.61,0-15.97-12.95-28.91-28.94-28.91-3.77,0-7.37.71-10.69,2.06-2.36-5.85-4.23-11.98-5.58-18.28,7.86,2.47,16.27,3.79,24.96,3.79,3.85,0,7.64-.25,11.32-.8,4.84,13.77,13.3,25.84,24.27,35.07Z"/>
  <path class="cls-1" d="M47.82,184.65c0,7.09-2.56,13.58-6.76,18.61-14.4-12.12-25.81-27.68-32.87-45.46,3.33-1.35,6.93-2.06,10.69-2.06,16,0,28.94,12.95,28.94,28.91Z"/>
  <path class="cls-4" d="M31.97,103.29c-11.24,5.3-21.82,11.65-31.75,18.97-.14-2.36-.22-4.76-.22-7.15,0-21.19,5.72-41.04,15.72-58.1,3.85-6.57,8.33-12.73,13.39-18.39,3.82,1.62,8.03,2.5,12.45,2.5,17.67,0,31.99-14.32,31.99-31.99,0-.44,0-.91-.05-1.35,14.29,12.64,23.31,31.14,23.31,51.76,0,9.43-1.87,18.39-5.3,26.58-2.83.33-5.63.71-8.41,1.21.8-2.78,1.21-5.69,1.21-8.71,0-17.67-14.35-31.99-31.99-31.99s-31.99,14.32-31.99,31.99c0,9.95,4.54,18.83,11.68,24.68h-.03Z"/>
</svg>