<?xml version="1.0" encoding="UTF-8"?>
<svg id="Layer_1" data-name="Layer 1" xmlns="http://www.w3.org/2000/svg" viewBox="0 0 292.56 231.1">
  <defs>
    <style>
      .cls-1 {
        fill: #6e0a30;
      }

      .cls-2 {
        fill: #1d0f14;
      }

      .cls-3 {
        fill: #9fcc44;
      }

      .cls-4 {
        fill: #e94296;
      }

      .cls-5 {
        fill: #ffd695;
      }

      .cls-6 {
        fill: #1a4f27;
      }

      .cls-7 {
        fill: #fbf9dc;
      }
    </style>
  </defs>
  <path class="cls-3" d="M263.83,85.45c15.86,0,28.72,12.86,28.72,28.72s-12.86,28.75-28.72,28.75c-1.1,0-2.17-.05-3.24-.16,1.02-4.1,1.79-8.3,2.31-12.56.63-4.78.93-9.67.93-14.65,0-10.31-1.35-20.31-3.9-29.82,1.26-.19,2.58-.27,3.9-.27Z"/>
  <path class="cls-4" d="M263.83,115.55c0,4.97-.3,9.87-.93,14.65-.52,4.26-1.29,8.47-2.31,12.56-1.29,5.41-2.97,10.66-5,15.75-1.7-1.02-3.49-1.95-5.36-2.72,2.42-6.62,3.71-13.8,3.71-21.25s-1.32-14.68-3.74-21.33c-8.74-23.99-31.75-41.15-58.74-41.15-1.4,0-2.78.05-4.15.14,17.78-2.31,31.5-17.51,31.5-35.92,0,20.04,16.24,36.25,36.28,36.25h.47c1.7,4.29,3.19,8.69,4.37,13.19,2.56,9.51,3.9,19.51,3.9,29.82Z"/>
  <path class="cls-3" d="M255.56,72.53h-.47c-20.04,0-36.28-16.22-36.28-36.25,0,18.42-13.72,33.61-31.5,35.92-.03,0-.05,0-.08.03-.93.03-1.84.11-2.78.25h-.03c-.63.03-1.24.05-1.87.05-20.04,0-36.28-16.22-36.28-36.25,0,20.04-16.24,36.25-36.28,36.25-.63,0-1.24-.03-1.87-.05h-.03c-.93-.14-1.84-.22-2.78-.25-.03-.03-.05-.03-.08-.03-17.78-2.31-31.5-17.51-31.5-35.92,0,20.04-16.24,36.25-36.28,36.25h-.47c2.28-5.66,4.97-11.08,8.08-16.24,13.33-2.31,23.5-13.94,23.5-27.95v-.05c2.45-2.14,5-4.21,7.67-6.1.36,19.02,15.86,34.33,34.99,34.33s35.04-15.67,35.04-35.02c0,19.35,15.69,35.02,35.04,35.02s34.63-15.31,34.99-34.33c2.67,1.9,5.22,3.96,7.67,6.1v.05c0,14.02,10.17,25.64,23.5,27.95,3.11,5.17,5.8,10.58,8.08,16.24Z"/>
  <path class="cls-6" d="M250.23,155.79c1.87.77,3.66,1.7,5.36,2.72-3.74,9.37-8.69,18.14-14.65,26.11-10.22,13.69-23.42,25.04-38.64,33.09-4.51-5.85-7.42-13-8.11-20.78,25.86-1.07,47.66-17.89,56.04-41.15Z"/>
  <path class="cls-6" d="M253.94,134.54c0,7.45-1.29,14.62-3.71,21.25-4.84-2.03-10.14-3.16-15.69-3.16s-10.58,1.04-15.28,3c-3.33-3.16-6.84-6.07-10.55-8.74,12.92-4.4,22.21-16.68,22.21-31.09,0-6.13-1.68-11.85-4.59-16.77,9.04,2.91,17.18,7.81,23.88,14.18,2.42,6.65,3.74,13.85,3.74,21.33Z"/>
  <path class="cls-3" d="M234.53,152.63c5.55,0,10.86,1.13,15.69,3.16-8.38,23.25-30.18,40.07-56.04,41.15-.14-1.24-.19-2.5-.19-3.77,0-16.99,10.44-31.53,25.26-37.55,4.7-1.95,9.87-3,15.28-3Z"/>
  <path class="cls-6" d="M247.48,56.29c-13.33-2.31-23.5-13.94-23.5-27.95v-.05c9.24,8,17.18,17.45,23.5,28.01Z"/>
  <path class="cls-1" d="M250.2,113.21c-6.71-6.38-14.84-11.27-23.88-14.18-5.72-9.65-16.24-16.11-28.26-16.11-16.93,0-30.84,12.78-32.65,29.22h-.03c-.14,1.21-.19,2.42-.19,3.66,0,4.86,1.04,9.46,2.94,13.61-4.95-.99-10-1.59-15.17-1.81-1.54-.08-3.11-.11-4.67-.11-.66,0-1.35,0-2.01.03-.66-.03-1.35-.03-2.01-.03-1.57,0-3.13.03-4.67.11-5.17.22-10.22.82-15.17,1.81,1.9-4.15,2.94-8.74,2.94-13.61,0-1.24-.05-2.45-.19-3.66h-.03c-1.81-16.44-15.72-29.22-32.65-29.22-12.01,0-22.54,6.46-28.26,16.11-9.04,2.91-17.18,7.81-23.88,14.18,8.74-23.99,31.75-41.15,58.74-41.15,1.4,0,2.78.05,4.15.14.03,0,.05,0,.08.03.91.11,1.84.19,2.78.25h.03c14.98,1.65,28.34,8.63,38.15,18.97,9.81-10.33,23.17-17.32,38.15-18.97h.03c.93-.05,1.87-.14,2.78-.25.03-.03.05-.03.08-.03,1.37-.08,2.75-.14,4.15-.14,26.99,0,50,17.15,58.74,41.15Z"/>
  <path class="cls-7" d="M226.32,99.03c2.91,4.92,4.59,10.64,4.59,16.77,0,14.4-9.29,26.69-22.21,31.09-3.33,1.15-6.9,1.79-10.64,1.79-8.82,0-16.85-3.49-22.73-9.15-3-2.86-5.44-6.29-7.17-10.11h-.03c-1.9-4.15-2.94-8.74-2.94-13.61,0-1.24.05-2.45.19-3.66h.03c7.48-6.73,16.57-11.71,26.66-14.21-7.94,2.56-13.72,10.06-13.72,18.88,0,10.94,8.91,19.84,19.84,19.84s19.87-8.91,19.87-19.84-8.91-19.87-19.87-19.87c-.69,0-1.35.03-2.03.11,3.57-.66,7.28-.99,11.05-.99,6.68,0,13.08,1.04,19.1,2.97Z"/>
  <path class="cls-4" d="M198.06,82.92c12.01,0,22.54,6.46,28.26,16.11-6.02-1.92-12.42-2.97-19.1-2.97-3.77,0-7.48.33-11.05.99-.25.03-.47.05-.71.11-1.15.14-2.28.38-3.38.77-10.09,2.5-19.18,7.48-26.66,14.21,1.81-16.44,15.72-29.22,32.65-29.22Z"/>
  <path class="cls-2" d="M198.2,96.94c10.97,0,19.87,8.91,19.87,19.87s-8.91,19.84-19.87,19.84-19.84-8.91-19.84-19.84c0-8.82,5.77-16.33,13.72-18.88,1.1-.3,2.23-.55,3.38-.77.25-.05.47-.08.71-.11.69-.08,1.35-.11,2.03-.11Z"/>
  <path class="cls-5" d="M208.7,146.88c3.71,2.67,7.23,5.58,10.55,8.74-14.81,6.02-25.26,20.56-25.26,37.55,0,1.26.05,2.53.19,3.77.69,7.78,3.6,14.92,8.11,20.78-1.65.88-3.3,1.73-5,2.5h-.03c-4.7,2.23-9.56,4.12-14.59,5.69-8.14-11.3-21.41-18.64-36.39-18.64s-28.26,7.34-36.39,18.64c-5.03-1.57-9.89-3.46-14.59-5.69h-.03c-1.7-.77-3.35-1.62-5-2.5,4.51-5.85,7.42-13,8.11-20.78.14-1.24.19-2.5.19-3.77,0-16.99-10.44-31.53-25.26-37.55,3.33-3.16,6.84-6.07,10.55-8.74,3.33,1.15,6.9,1.79,10.64,1.79,8.82,0,16.85-3.49,22.73-9.15,4.7,11.41,15.94,19.43,29.05,19.43s24.35-8.03,29.05-19.43c5.88,5.66,13.91,9.15,22.73,9.15,3.74,0,7.31-.63,10.64-1.79ZM172.11,177.28l.08-.25c-2.69-3.27-6.76-5.33-11.3-5.33-5.44,0-10.17,2.97-12.7,7.37-.05.11-.14.22-.19.33-.93,1.73-1.51,3.71-1.68,5.77h-.11c-.16-2.06-.74-4.04-1.68-5.77-.05-.11-.14-.22-.19-.33-2.53-4.4-7.26-7.37-12.7-7.37-4.54,0-8.6,2.06-11.3,5.33l.08.25c1.35,5.25,4.26,9.87,8.22,13.33,2.14,1.87,4.59,3.41,7.26,4.56,1.84.77,3.82,1.35,5.85,1.68,1.46.25,2.97.38,4.51.38s3.05-.14,4.51-.38c2.03-.33,4.01-.91,5.85-1.68,2.67-1.15,5.11-2.69,7.26-4.56,3.96-3.46,6.87-8.08,8.22-13.33Z"/>
  <path class="cls-6" d="M216.31,22.18c-.36,19.02-15.86,34.33-34.99,34.33s-35.04-15.67-35.04-35.02c0,19.35-15.69,35.02-35.04,35.02s-34.63-15.31-34.99-34.33c13.41-9.84,29.02-16.79,45.96-20.06h.03c7.12-1.4,14.51-2.12,22.04-2.12.66,0,1.35,0,2.01.03.66-.03,1.35-.03,2.01-.03,7.53,0,14.92.71,22.04,2.12h.03c16.93,3.27,32.54,10.22,45.96,20.06Z"/>
  <path class="cls-4" d="M182.56,72.53c.63,0,1.24-.03,1.87-.05-14.98,1.65-28.34,8.63-38.15,18.97-9.81-10.33-23.17-17.32-38.15-18.97.63.03,1.24.05,1.87.05,20.04,0,36.28-16.22,36.28-36.25,0,20.04,16.24,36.25,36.28,36.25Z"/>
  <path class="cls-4" d="M172.2,177.03l-.08.25c-7.37,4.97-16.24,7.89-25.78,7.89.16-2.06.74-4.04,1.68-5.77.05-.11.14-.22.19-.33,2.53-4.4,7.26-7.37,12.7-7.37,4.54,0,8.6,2.06,11.3,5.33Z"/>
  <path class="cls-4" d="M146.28,207.27c14.98,0,28.26,7.34,36.39,18.64-10.86,3.38-22.4,5.19-34.38,5.19-.66,0-1.35,0-2.01-.03-.66.03-1.35.03-2.01.03-11.98,0-23.53-1.81-34.38-5.19,8.14-11.3,21.41-18.64,36.39-18.64Z"/>
  <path class="cls-4" d="M168.16,129.4c1.73,3.82,4.18,7.26,7.17,10.11-4.7,11.41-15.94,19.43-29.05,19.43s-24.35-8.03-29.05-19.43c3-2.86,5.44-6.29,7.17-10.11h.03c4.95-.99,10-1.59,15.17-1.81,1.54-.08,3.11-.11,4.67-.11.66,0,1.35,0,2.01.03.66-.03,1.35-.03,2.01-.03,1.57,0,3.13.03,4.67.11,5.17.22,10.22.82,15.17,1.81h.03Z"/>
  <path class="cls-1" d="M172.11,177.28c-1.35,5.25-4.26,9.87-8.22,13.33-2.14,1.87-4.59,3.41-7.26,4.56-1.84.77-3.82,1.35-5.85,1.68-1.46.25-2.97.38-4.51.38s-3.05-.14-4.51-.38c-2.03-.33-4.01-.91-5.85-1.68-2.67-1.15-5.11-2.69-7.26-4.56-3.96-3.46-6.87-8.08-8.22-13.33,7.37,4.97,16.24,7.89,25.78,7.89.03.38.05.77.05,1.15,0-.38.03-.77.05-1.15,9.54,0,18.42-2.91,25.78-7.89Z"/>
  <path class="cls-4" d="M144.55,179.4c.93,1.73,1.51,3.71,1.68,5.77-9.54,0-18.42-2.91-25.78-7.89l-.08-.25c2.69-3.27,6.76-5.33,11.3-5.33,5.44,0,10.17,2.97,12.7,7.37.05.11.14.22.19.33Z"/>
  <path class="cls-7" d="M127.18,112.14c.14,1.21.19,2.42.19,3.66,0,4.86-1.04,9.46-2.94,13.61h-.03c-1.73,3.82-4.18,7.26-7.17,10.11-5.88,5.66-13.91,9.15-22.73,9.15-3.74,0-7.31-.63-10.64-1.79-12.92-4.4-22.21-16.68-22.21-31.09,0-6.13,1.68-11.85,4.59-16.77,6.02-1.92,12.42-2.97,19.1-2.97,4.18,0,8.27.41,12.23,1.21-1.1-.22-2.25-.33-3.44-.33-10.97,0-19.84,8.91-19.84,19.87s8.88,19.84,19.84,19.84,19.84-8.91,19.84-19.84c0-9.24-6.32-17.04-14.87-19.21,10.64,2.39,20.23,7.5,28.04,14.54h.03Z"/>
  <path class="cls-4" d="M94.5,82.92c16.93,0,30.84,12.78,32.65,29.22-7.81-7.04-17.4-12.15-28.04-14.54-.49-.16-1.02-.27-1.54-.33-3.96-.8-8.05-1.21-12.23-1.21-6.68,0-13.08,1.04-19.1,2.97,5.72-9.65,16.24-16.11,28.26-16.11Z"/>
  <path class="cls-2" d="M99.11,97.6c8.55,2.17,14.87,9.98,14.87,19.21,0,10.94-8.88,19.84-19.84,19.84s-19.84-8.91-19.84-19.84,8.88-19.87,19.84-19.87c1.18,0,2.34.11,3.44.33.52.11,1.04.19,1.54.33Z"/>
  <path class="cls-4" d="M105.24,72.2c-1.37-.08-2.75-.14-4.15-.14-26.99,0-50,17.15-58.74,41.15-2.42,6.65-3.74,13.85-3.74,21.33s1.29,14.62,3.71,21.25c-1.87.77-3.66,1.7-5.36,2.72-2.03-5.08-3.71-10.33-5-15.75-1.02-4.1-1.79-8.3-2.31-12.56-.63-4.78-.93-9.67-.93-14.65,0-10.31,1.35-20.31,3.9-29.82,1.18-4.51,2.67-8.91,4.37-13.19h.47c20.04,0,36.28-16.22,36.28-36.25,0,18.42,13.72,33.61,31.5,35.92Z"/>
  <path class="cls-1" d="M99.11,97.6c-.49-.14-1.02-.22-1.54-.33.52.05,1.04.16,1.54.33Z"/>
  <path class="cls-3" d="M98.56,193.17c0,1.26-.05,2.53-.19,3.77-25.86-1.07-47.66-17.89-56.04-41.15,4.84-2.03,10.14-3.16,15.69-3.16s10.58,1.04,15.28,3c14.81,6.02,25.26,20.56,25.26,37.55Z"/>
  <path class="cls-6" d="M98.37,196.93c-.69,7.78-3.6,14.92-8.11,20.78-15.23-8.05-28.42-19.4-38.64-33.09-5.96-7.97-10.91-16.74-14.65-26.11,1.7-1.02,3.49-1.95,5.36-2.72,8.38,23.25,30.18,40.07,56.04,41.15Z"/>
  <path class="cls-6" d="M83.86,146.88c-3.71,2.67-7.23,5.58-10.55,8.74-4.7-1.95-9.87-3-15.28-3s-10.86,1.13-15.69,3.16c-2.42-6.62-3.71-13.8-3.71-21.25s1.32-14.68,3.74-21.33c6.71-6.38,14.84-11.27,23.88-14.18-2.91,4.92-4.59,10.64-4.59,16.77,0,14.4,9.29,26.69,22.21,31.09Z"/>
  <path class="cls-6" d="M68.58,28.28v.05c0,14.02-10.17,25.64-23.5,27.95,6.32-10.55,14.27-20.01,23.5-28.01Z"/>
  <path class="cls-3" d="M32.63,85.73c-2.56,9.51-3.9,19.51-3.9,29.82,0,4.97.3,9.87.93,14.65.52,4.26,1.29,8.47,2.31,12.56-1.07.11-2.14.16-3.24.16-15.86,0-28.72-12.86-28.72-28.75s12.86-28.72,28.72-28.72c1.32,0,2.64.08,3.9.27Z"/>
</svg>