<?xml version="1.0" encoding="UTF-8"?>
<svg id="Layer_1" data-name="Layer 1" xmlns="http://www.w3.org/2000/svg" viewBox="0 0 313.45 275.21">
  <defs>
    <style>
      .cls-1 {
        fill: #6e0a30;
      }

      .cls-2 {
        fill: #1d0f14;
      }

      .cls-3 {
        fill: none;
      }

      .cls-4 {
        fill: #9fcc44;
      }

      .cls-5 {
        fill: #e94296;
      }

      .cls-6 {
        fill: #ffd695;
      }

      .cls-7 {
        fill: #1a4f27;
      }

      .cls-8 {
        fill: #fbf9dc;
      }
    </style>
  </defs>
  <g>
    <path class="cls-1" d="M313.45,59.59c0,29.38-21.3,53.82-49.31,58.65-2.01-5.17-4.4-10.17-7.12-14.92,20.48-2.67,36.28-20.17,36.28-41.39,0-23.09-18.69-41.78-41.78-41.78-21.74,0-39.63,16.6-41.61,37.82-4.84-2.5-9.87-4.67-15.06-6.49C198.8,22.4,223.71,0,253.86,0c32.9,0,59.59,26.66,59.59,59.59Z"/>
    <path class="cls-4" d="M293.3,61.93c0,21.22-15.8,38.73-36.28,41.39-2.47-4.34-5.19-8.47-8.19-12.42,14.07-.25,25.42-11.71,25.42-25.84s-11.6-25.86-25.86-25.86-25.84,11.57-25.84,25.86v.55c-4.04-2.8-8.25-5.36-12.64-7.64,1.98-21.22,19.87-37.82,41.61-37.82,23.09,0,41.78,18.69,41.78,41.78Z"/>
    <path class="cls-6" d="M272.03,160.16c0,14.54-2.69,28.45-7.64,41.26-5.72-4.1-12.2-7.17-19.24-8.96,1.15-2.75,2.03-5.69,2.53-8.77.36-2.03.52-4.15.52-6.29,0-17.51-11.54-32.43-27.62-37,5.28,1.1,10.77,1.68,16.38,1.68,11.52,0,22.46-2.42,32.35-6.82,1.79,8.03,2.72,16.35,2.72,24.9Z"/>
    <path class="cls-7" d="M274.25,65.06c0,14.13-11.35,25.59-25.42,25.84-7.34-9.76-16.22-18.31-26.28-25.26v-.58c0-14.29,11.57-25.86,25.84-25.86s25.86,11.57,25.86,25.86Z"/>
    <path class="cls-7" d="M265.37,121.57c1.59,4.43,2.91,9.02,3.93,13.69-9.89,4.4-20.83,6.82-32.35,6.82-5.61,0-11.1-.58-16.38-1.68-1.1-.33-2.23-.6-3.38-.8-13.5-3.41-25.64-10.28-35.43-19.57,11.76-7.92,25.86-12.53,41.04-12.53,2.75,0,5.47.16,8.14.47.03,0,.08.03.11.03,2.31.27,4.59.66,6.82,1.15h.05c10.06,2.23,19.32,6.57,27.46,12.42Z"/>
    <path class="cls-4" d="M264.14,118.24c.44,1.1.85,2.2,1.24,3.33-8.14-5.85-17.4-10.2-27.46-12.42h-.05c-2.23-.49-4.51-.88-6.82-1.15-.03,0-.08-.03-.11-.03-29.79-6.49-52.85-31.06-57.09-61.62,7.23,1.04,14.27,2.78,21,5.14,5.19,1.81,10.22,3.99,15.06,6.49,4.4,2.28,8.6,4.84,12.64,7.64v.03c10.06,6.95,18.94,15.5,26.28,25.26,3,3.96,5.72,8.08,8.19,12.42,2.72,4.76,5.11,9.76,7.12,14.92Z"/>
    <path class="cls-5" d="M245.14,192.45c7.04,1.79,13.52,4.86,19.24,8.96-14.05,36.58-46.23,64.15-85.54,71.71-2.86-6.02-4.73-12.62-5.33-19.57,10.8-5.19,18.8-15.34,21.03-27.51.03-.05.03-.11.03-.16-2.97-4.1-7.39-7.06-12.53-8.16,1.84-2.97,3.99-5.74,6.35-8.3,6.1,4.07,13.44,6.46,21.33,6.46,15.91,0,29.55-9.65,35.43-23.42Z"/>
    <path class="cls-5" d="M248.2,177.39c0,2.14-.16,4.26-.52,6.29-4.95-6.38-11.46-11.49-18.99-14.73-5.83-2.5-12.23-3.88-18.97-3.88-8.44,0-16.38,2.17-23.28,6.05-5.69,3.13-10.66,7.45-14.65,12.56-.36-2.03-.52-4.15-.52-6.29,0-21.25,17.21-38.2,38.45-38.45,2.56-.03,5.06.19,7.48.66,1.13.3,2.25.55,3.38.8,16.08,4.56,27.62,19.49,27.62,37Z"/>
    <path class="cls-8" d="M247.67,183.69c-.49,3.08-1.37,6.02-2.53,8.77-4.56-1.18-9.32-1.79-14.27-1.79-.36,0-.69,0-1.04.03,1.35-3,2.09-6.29,2.09-9.78,0-4.37-1.18-8.44-3.24-11.96,7.53,3.24,14.05,8.36,18.99,14.73Z"/>
    <path class="cls-4" d="M245.14,192.45c-5.88,13.77-19.51,23.42-35.43,23.42-7.89,0-15.23-2.39-21.33-6.46,2.53-2.8,5.33-5.33,8.41-7.56,9.26-6.84,20.67-10.97,33.04-11.16.36-.03.69-.03,1.04-.03,4.95,0,9.7.6,14.27,1.79Z"/>
    <path class="cls-2" d="M231.92,180.91c0,3.49-.74,6.79-2.09,9.78-12.37.19-23.78,4.32-33.04,11.16-7.42-4.04-12.48-11.9-12.48-20.94,0-3.49.74-6.79,2.12-9.78,6.9-3.88,14.84-6.05,23.28-6.05,6.73,0,13.14,1.37,18.97,3.88,2.06,3.52,3.24,7.59,3.24,11.96Z"/>
    <path class="cls-5" d="M230.93,107.96c-2.67-.3-5.39-.47-8.14-.47-15.17,0-29.27,4.62-41.04,12.53-15.42-14.59-25.04-35.29-25.04-58.21,0,22.92-9.62,43.62-25.04,58.21-11.76-7.92-25.86-12.53-41.04-12.53-2.75,0-5.47.16-8.14.47,29.79-6.49,52.85-31.06,57.09-61.62,5.52-.82,11.16-1.24,16.88-1.24h.49c5.72,0,11.35.41,16.88,1.24,4.23,30.56,27.29,55.14,57.09,61.62Z"/>
    <path class="cls-8" d="M196.8,201.85c-3.08,2.23-5.88,4.76-8.41,7.56-8.69-5.8-14.84-15.01-16.6-25.73,3.99-5.11,8.96-9.43,14.65-12.56-1.37,3-2.12,6.29-2.12,9.78,0,9.04,5.06,16.9,12.48,20.94Z"/>
    <path class="cls-1" d="M194.57,225.88c0,.05,0,.11-.03.16-5.99,3.85-12.59,6.79-19.65,8.66,1.46-6.1,3.9-11.82,7.15-16.99,5.14,1.1,9.56,4.07,12.53,8.16Z"/>
    <path class="cls-1" d="M194.54,226.04c-2.23,12.18-10.22,22.32-21.03,27.51-.16-1.73-.25-3.49-.25-5.25,0-3.85.38-7.61,1.1-11.27.16-.8.33-1.57.52-2.34,7.06-1.87,13.66-4.81,19.65-8.66Z"/>
    <path class="cls-4" d="M177.64,217.25c1.51,0,3,.16,4.4.47-3.24,5.17-5.69,10.88-7.15,16.99-5.72,1.51-11.71,2.34-17.92,2.34h-.49c-6.21,0-12.2-.82-17.92-2.34-1.46-6.1-3.9-11.82-7.15-16.99,1.4-.3,2.89-.47,4.4-.47,10.5,0,19.18,7.75,20.67,17.84h.49c1.48-10.09,10.17-17.84,20.67-17.84Z"/>
    <path class="cls-7" d="M174.89,234.7c-.19.77-.36,1.54-.52,2.34-.71,3.66-1.1,7.42-1.1,11.27,0,1.76.08,3.52.25,5.25-5,2.42-10.61,3.77-16.55,3.77h-.49c-5.94,0-11.54-1.35-16.55-3.77.16-1.73.25-3.49.25-5.25,0-3.85-.38-7.61-1.1-11.27-.16-.8-.33-1.57-.52-2.34,5.72,1.51,11.71,2.34,17.92,2.34h.49c6.21,0,12.2-.82,17.92-2.34Z"/>
    <path class="cls-6" d="M173.52,253.55c.6,6.95,2.47,13.55,5.33,19.57-7.09,1.37-14.4,2.09-21.88,2.09h-.49c-7.48,0-14.79-.71-21.88-2.09,2.86-6.02,4.73-12.62,5.33-19.57,5,2.42,10.61,3.77,16.55,3.77h.49c5.94,0,11.54-1.35,16.55-3.77Z"/>
    <path class="cls-7" d="M156.72,61.82c0,22.92,9.62,43.62,25.04,58.21-10.47,7.04-19.05,16.68-24.79,28.01h-.49c-5.74-11.32-14.32-20.97-24.79-28.01,15.42-14.59,25.04-35.29,25.04-58.21Z"/>
    <path class="cls-5" d="M142.18,177.39c0,2.14-.16,4.26-.52,6.29-4.12-5.3-9.32-9.73-15.28-12.92-6.76-3.63-14.46-5.69-22.65-5.69-7.01,0-13.66,1.48-19.68,4.21-7.23,3.24-13.5,8.22-18.28,14.4-.36-2.03-.52-4.15-.52-6.29,0-17.89,12.07-32.98,28.69-37.24.69-.14,1.35-.3,2.01-.47,2.53-.49,5.11-.74,7.78-.74,21.25.05,38.45,17.21,38.45,38.45Z"/>
    <path class="cls-1" d="M140.18,248.3c0,1.76-.08,3.52-.25,5.25-10.8-5.19-18.8-15.34-21.03-27.51,5.99,3.85,12.59,6.79,19.65,8.66.19.77.36,1.54.52,2.34.71,3.66,1.1,7.42,1.1,11.27Z"/>
    <path class="cls-5" d="M139.93,253.55c-.6,6.95-2.47,13.55-5.33,19.57-39.3-7.56-71.49-35.13-85.54-71.71,5.72-4.1,12.2-7.17,19.24-8.96,5.88,13.77,19.51,23.42,35.43,23.42,7.89,0,15.23-2.39,21.33-6.46,2.36,2.56,4.51,5.33,6.35,8.3-5.14,1.1-9.56,4.07-12.53,8.16,0,.05,0,.11.03.16,2.23,12.18,10.22,22.32,21.03,27.51Z"/>
    <path class="cls-8" d="M141.66,183.69c-1.76,10.72-7.92,19.93-16.6,25.73-2.58-2.86-5.47-5.47-8.63-7.72,7.28-4.07,12.2-11.85,12.2-20.78,0-3.63-.82-7.06-2.25-10.14,5.96,3.19,11.16,7.61,15.28,12.92Z"/>
    <path class="cls-1" d="M131.41,217.71c3.24,5.17,5.69,10.88,7.15,16.99-7.06-1.87-13.66-4.81-19.65-8.66-.03-.05-.03-.11-.03-.16,2.97-4.1,7.39-7.06,12.53-8.16Z"/>
    <path class="cls-7" d="M90.65,107.5c15.17,0,29.27,4.62,41.04,12.53-9.87,9.37-22.1,16.27-35.73,19.65-.66.16-1.32.33-2.01.47-5.61,1.26-11.46,1.92-17.45,1.92-11.52,0-22.46-2.42-32.35-6.82,1.02-4.67,2.34-9.26,3.93-13.69,8.14-5.85,17.4-10.2,27.46-12.42h.05c2.23-.49,4.51-.88,6.82-1.15.03,0,.08-.03.11-.03,2.67-.3,5.39-.47,8.14-.47Z"/>
    <path class="cls-2" d="M126.38,170.77c1.43,3.08,2.25,6.51,2.25,10.14,0,8.93-4.92,16.71-12.2,20.78-9.35-6.84-20.86-10.91-33.31-11.02-1.35-2.97-2.09-6.27-2.09-9.76,0-4.23,1.1-8.19,3.02-11.63,6.02-2.72,12.67-4.21,19.68-4.21,8.19,0,15.89,2.06,22.65,5.69Z"/>
    <path class="cls-4" d="M139.6,46.34c-4.23,30.56-27.29,55.14-57.09,61.62-.03,0-.08.03-.11.03-2.31.27-4.59.66-6.82,1.15h-.05c-10.06,2.23-19.32,6.57-27.46,12.42.38-1.13.8-2.23,1.24-3.33,2.01-5.17,4.4-10.17,7.12-14.92,2.47-4.34,5.19-8.47,8.19-12.42,7.34-9.76,16.22-18.31,26.28-25.26v-.03c4.04-2.8,8.25-5.36,12.64-7.64,4.84-2.5,9.87-4.67,15.06-6.49,6.73-2.36,13.77-4.1,21-5.14Z"/>
    <path class="cls-4" d="M116.43,201.69c3.16,2.25,6.05,4.86,8.63,7.72-6.1,4.07-13.44,6.46-21.33,6.46-15.91,0-29.55-9.65-35.43-23.42,4.56-1.18,9.32-1.79,14.27-1.79h.55c12.45.11,23.97,4.18,33.31,11.02Z"/>
    <path class="cls-1" d="M118.6,51.48c-5.19,1.81-10.22,3.99-15.06,6.49-1.98-21.22-19.87-37.82-41.61-37.82-23.09,0-41.78,18.69-41.78,41.78,0,21.22,15.8,38.73,36.28,41.39-2.72,4.76-5.11,9.76-7.12,14.92C21.3,113.41,0,88.97,0,59.59,0,26.66,26.69,0,59.59,0c30.15,0,55.05,22.4,59.01,51.48Z"/>
    <path class="cls-4" d="M103.54,57.97c-4.4,2.28-8.6,4.84-12.64,7.64v-.55c0-14.29-11.57-25.86-25.84-25.86s-25.86,11.57-25.86,25.86,11.35,25.59,25.42,25.84c-3,3.96-5.72,8.08-8.19,12.42-20.48-2.67-36.28-20.17-36.28-41.39,0-23.09,18.69-41.78,41.78-41.78,21.74,0,39.63,16.6,41.61,37.82Z"/>
    <path class="cls-7" d="M90.89,65.61v.03c-10.06,6.95-18.94,15.5-26.28,25.26-14.07-.25-25.42-11.71-25.42-25.84s11.6-25.86,25.86-25.86,25.84,11.57,25.84,25.86v.55Z"/>
    <path class="cls-8" d="M65.77,183.69c4.78-6.18,11.05-11.16,18.28-14.4-1.92,3.44-3.02,7.39-3.02,11.63,0,3.49.74,6.79,2.09,9.76h-.55c-4.95,0-9.7.6-14.27,1.79-1.15-2.75-2.03-5.69-2.53-8.77Z"/>
    <path class="cls-6" d="M76.49,142.07c5.99,0,11.85-.66,17.45-1.92-16.63,4.26-28.69,19.35-28.69,37.24,0,2.14.16,4.26.52,6.29.49,3.08,1.37,6.02,2.53,8.77-7.04,1.79-13.52,4.86-19.24,8.96-4.95-12.81-7.64-26.72-7.64-41.26,0-8.55.93-16.88,2.72-24.9,9.89,4.4,20.83,6.82,32.35,6.82Z"/>
  </g>
  <line class="cls-3" x1="156.97" y1="237.04" x2="156.48" y2="237.04"/>
  <g>
    <path class="cls-6" d="M217.19,139.61c-2.42-.47-4.92-.69-7.48-.66-15.2.16-28.34,8.91-34.58,21.66-4.84-4.7-11.41-7.59-18.66-7.59s-13.5,2.75-18.31,7.26c-6.29-12.62-19.35-21.3-34.44-21.33-2.67,0-5.25.25-7.78.74,13.63-3.38,25.86-10.28,35.73-19.65,10.47,7.04,19.05,16.68,24.79,28.01h.49c5.74-11.32,14.32-20.97,24.79-28.01,9.78,9.29,21.93,16.16,35.43,19.57Z"/>
    <path class="cls-5" d="M188.39,209.42c-2.36,2.56-4.51,5.33-6.35,8.3-1.4-.3-2.89-.47-4.4-.47-10.5,0-19.18,7.75-20.67,17.84h-.49c-1.48-10.09-10.17-17.84-20.67-17.84-1.51,0-3,.16-4.4.47-1.84-2.97-3.99-5.74-6.35-8.3,4.59-3.08,8.49-7.09,11.35-11.82,4.92,5.55,12.07,9.04,20.06,9.04s15.45-3.63,20.34-9.37c2.89,4.86,6.87,9.02,11.57,12.15Z"/>
    <path class="cls-6" d="M171.79,183.7c.8,4.92,2.53,9.48,5.03,13.58-4.89,5.74-12.2,9.37-20.34,9.37s-15.14-3.49-20.06-9.04c2.61-4.18,4.43-8.88,5.25-13.91.36-2.03.52-4.15.52-6.29,0-6.16-1.46-11.98-4.01-17.12,4.81-4.51,11.24-7.26,18.31-7.26s13.83,2.89,18.66,7.59c-2.47,5.06-3.88,10.75-3.88,16.79,0,2.14.16,4.26.52,6.29Z"/>
  </g>
</svg>