<?xml version="1.0" encoding="UTF-8"?>
<svg id="Layer_1" data-name="Layer 1" xmlns="http://www.w3.org/2000/svg" viewBox="0 0 280.05 257.62">
  <defs>
    <style>
      .cls-1 {
        fill: #6e0a30;
      }

      .cls-2 {
        fill: #1d0f14;
      }

      .cls-3 {
        fill: #9fcc44;
      }

      .cls-4 {
        fill: #e94296;
      }

      .cls-5 {
        fill: #ffd695;
      }

      .cls-6 {
        fill: #1a4f27;
      }

      .cls-7 {
        fill: #fbf9dc;
      }
    </style>
  </defs>
  <path class="cls-3" d="M254.41,124.84c-1.51-10.25-4.4-20.06-8.47-29.24-3.66-8.36-8.27-16.16-13.74-23.34-2.67-10.99-7.26-21.25-13.39-30.34,34.91,6.95,61.24,37.79,61.24,74.76,0,24.6-11.65,46.45-29.74,60.39,3.49-11.02,5.39-22.79,5.39-34.96,0-5.85-.44-11.63-1.29-17.26Z"/>
  <path class="cls-1" d="M254.41,124.84c-1.65-.14-3.3-.22-5-.22-7.78,0-15.17,1.59-21.91,4.43.49-2.42.74-4.89.74-7.45,0-7.97-2.5-15.34-6.79-21.38,7.7-2.69,15.91-4.29,24.49-4.62,4.07,9.18,6.95,18.99,8.47,29.24Z"/>
  <path class="cls-7" d="M228.24,121.6c0,2.56-.25,5.03-.74,7.45v.03c-1.15,5.63-3.6,10.8-7.04,15.2-2.45-3.68-5.58-6.87-9.24-9.37,2.53-3.82,4.01-8.38,4.01-13.3,0-13.28-10.77-24.02-24.05-24.02s-24.02,10.75-24.02,24.02c0,4.89,1.48,9.46,4.01,13.28-3.66,2.53-6.79,5.72-9.26,9.4-4.89-6.27-7.78-14.13-7.78-22.68,0-20.48,16.57-37.05,37.05-37.05,12.48,0,23.56,6.18,30.26,15.67,4.29,6.05,6.79,13.41,6.79,21.38Z"/>
  <path class="cls-3" d="M233.52,189.27c0,14.76-10.36,27.1-24.19,30.15-2.14.49-4.4.74-6.68.74-1.18,0-2.34-.05-3.49-.22,11.96-1.51,21.19-11.71,21.19-24.08,0-13.41-10.88-24.3-24.3-24.3-12.37,0-22.57,9.24-24.08,21.19-.16-1.15-.22-2.31-.22-3.49,0-16,10.99-29.57,26.44-31.17,1.02-.11,2.03-.16,3.08-.16,17.04,0,32.24,14.29,32.24,31.33Z"/>
  <path class="cls-5" d="M218.81,41.92c6.13,9.1,10.72,19.35,13.39,30.34-7.37-9.73-16.24-18.22-26.28-25.18-3.22-2.23-6.57-4.32-10-6.21,2.61-.27,5.28-.41,7.94-.41,5.11,0,10.11.49,14.95,1.46Z"/>
  <path class="cls-6" d="M220.46,144.27c3.44-4.4,5.88-9.56,7.04-15.2v-.03c6.73-2.83,14.13-4.43,21.91-4.43,1.7,0,3.35.08,5,.22.85,5.63,1.29,11.41,1.29,17.26,0,12.18-1.9,23.94-5.39,34.96-6.16,19.38-17.26,36.53-31.83,49.97-3.33-2.2-6.4-4.76-9.15-7.61,13.83-3.05,24.19-15.39,24.19-30.15,0-17.04-15.2-31.33-32.24-31.33-1.04,0-2.06.05-3.08.16.03-.03.03-.08.05-.11,8.99-1.76,16.82-6.73,22.21-13.72Z"/>
  <path class="cls-4" d="M220.35,195.86c0,12.37-9.24,22.57-21.19,24.08-.03.03-.05,0-.05,0-.82-.08-1.62-.22-2.42-.38-5.25-.99-10.03-3.35-13.96-6.68,5.22-4.73,9.67-10.33,13.08-16.57.08-.14.16-.3.25-.44l-.33.16c-6.46,3.22-13.22,5.88-20.26,7.94-1.84-3.41-3.05-7.17-3.49-11.21,1.51-11.96,11.71-21.19,24.08-21.19,13.41,0,24.3,10.88,24.3,24.3Z"/>
  <path class="cls-2" d="M215.24,121.6c0,4.92-1.48,9.48-4.01,13.3-5.69-3.96-12.59-6.27-20.04-6.27s-14.35,2.31-20.01,6.24c-2.53-3.82-4.01-8.38-4.01-13.28,0-13.28,10.75-24.02,24.02-24.02s24.05,10.75,24.05,24.02Z"/>
  <path class="cls-5" d="M209.33,219.42c2.75,2.86,5.83,5.41,9.15,7.61-7.48,6.9-15.89,12.84-25.01,17.56-4.32-3.77-8.49-8.33-11.98-12.92,5.61-3.44,10.72-7.53,15.2-12.09v-.03c.8.16,1.59.3,2.42.38t.05,0c1.15.16,2.31.22,3.49.22,2.28,0,4.54-.25,6.68-.74Z"/>
  <path class="cls-6" d="M218.81,41.92c-4.84-.96-9.84-1.46-14.95-1.46-2.67,0-5.33.14-7.94.41-8.19-4.51-16.99-8.05-26.22-10.47-5.69-1.51-11.57-2.61-17.56-3.22-3.85-.41-7.78-.63-11.74-.63h-.22c-3.96,0-7.89.22-11.74.63-6.13.63-12.12,1.73-17.92,3.3-9.15,2.42-17.84,5.96-25.95,10.44-2.75-.3-5.5-.47-8.36-.47-5.11,0-10.11.49-14.95,1.46C78.33,16.63,107.25,0,140.04,0s61.71,16.63,78.77,41.92Z"/>
  <path class="cls-5" d="M198.25,157.99c-2.28.44-4.65.66-7.06.66-8.11,0-15.61-2.61-21.71-7.04-2.86-2.06-5.44-4.54-7.56-7.34,2.47-3.68,5.61-6.87,9.26-9.4,5.66-3.93,12.56-6.24,20.01-6.24s14.35,2.31,20.04,6.27c3.66,2.5,6.79,5.69,9.24,9.37-5.39,6.98-13.22,11.96-22.21,13.72Z"/>
  <path class="cls-6" d="M198.25,157.99s-.03.08-.05.11c-15.45,1.59-26.44,15.17-26.44,31.17,0,1.18.05,2.34.22,3.49.44,4.04,1.65,7.81,3.49,11.21-2.36.69-4.78,1.32-7.2,1.87-2.5-8-3.85-16.52-3.85-25.34,0-3.88.27-7.7.77-11.46,0-.03.03-.03.03-.05.8-6.02,2.25-11.82,4.26-17.37,6.1,4.43,13.61,7.04,21.71,7.04,2.42,0,4.78-.22,7.06-.66Z"/>
  <path class="cls-6" d="M181.49,231.68c-12.01,7.39-26.19,11.85-41.09,11.9h-.22c-14.84-.05-29.13-4.45-41.23-11.79-5.69-3.44-10.88-7.53-15.39-12.15v-.03c5.39-.96,10.28-3.35,14.29-6.73,2.72,2.47,5.66,4.73,8.8,6.71,9.73,6.13,21.22,9.67,33.53,9.73h.22c12.31-.05,23.8-3.6,33.53-9.73,3.13-1.98,6.07-4.23,8.8-6.71,3.93,3.33,8.71,5.69,13.96,6.68v.03c-4.48,4.56-9.59,8.66-15.2,12.09Z"/>
  <path class="cls-1" d="M195.72,196.03c0,.11.03.19.08.27-3.41,6.24-7.86,11.85-13.08,16.57-2.72,2.47-5.66,4.73-8.8,6.71-9.73,6.13-21.22,9.67-33.53,9.73h-.22c-12.31-.05-23.8-3.6-33.53-9.73-3.13-1.98-6.07-4.23-8.8-6.71-5.22-4.73-9.67-10.33-13.08-16.57.05-.08.08-.16.08-.27,6.46,3.22,13.22,5.88,20.26,7.94,2.36.69,4.78,1.32,7.2,1.87,8.96,2.03,18.28,3.13,27.87,3.16h.22c9.59-.03,18.91-1.13,27.87-3.16,2.42-.55,4.84-1.18,7.2-1.87,7.04-2.06,13.8-4.73,20.26-7.94Z"/>
  <path class="cls-4" d="M181.49,231.68c3.49,4.59,7.67,9.15,11.98,12.92-15.89,8.3-33.94,13-53.07,13.03h-.22c-19.16-.03-37.24-4.76-53.16-13.06,4.37-3.82,8.38-8.14,11.93-12.78,12.09,7.34,26.39,11.74,41.23,11.79h.22c14.9-.05,29.08-4.51,41.09-11.9Z"/>
  <path class="cls-5" d="M165.19,169.04c-.49,3.77-.77,7.59-.77,11.46,0,8.82,1.35,17.34,3.85,25.34-8.96,2.03-18.28,3.13-27.87,3.16h-.22c-9.59-.03-18.91-1.13-27.87-3.16,2.5-8,3.85-16.52,3.85-25.34,0-3.9-.27-7.72-.77-11.49,4.01,9.46,15.69,15.39,25.01,15.39,9.92,0,20.42-4.81,24.79-15.36Z"/>
  <path class="cls-4" d="M161.92,144.27c2.12,2.8,4.7,5.28,7.56,7.34-2.01,5.55-3.46,11.35-4.26,17.37-12.78-13-20.67-30.84-20.67-50.52,0-9.32,1.76-18.2,4.97-26.36v-.03c9.29-23.61,30.62-41.12,56.4-44.99,10.03,6.95,18.91,15.45,26.28,25.18,5.47,7.17,10.09,14.98,13.74,23.34-8.58.33-16.79,1.92-24.49,4.62-6.71-9.48-17.78-15.67-30.26-15.67-20.48,0-37.05,16.57-37.05,37.05,0,8.55,2.89,16.41,7.78,22.68Z"/>
  <path class="cls-4" d="M152.13,27.18c5.99.6,11.87,1.7,17.56,3.22-12.92,7.15-23.36,18.28-29.66,31.72-6.27-13.39-16.66-24.49-29.52-31.64,5.8-1.57,11.79-2.67,17.92-3.3,3.85-.41,7.78-.63,11.74-.63h.22c3.96,0,7.89.22,11.74.63Z"/>
  <path class="cls-4" d="M47.61,73.28v-.03c7.53-10.14,16.68-18.97,27.05-26.17,25.78,3.88,47.11,21.38,56.4,44.99v.03c3.22,8.16,4.97,17.04,4.97,26.36,0,19.68-7.89,37.52-20.67,50.52-.8-6.02-2.25-11.85-4.26-17.4,2.86-2.03,5.41-4.51,7.56-7.31,4.89-6.27,7.78-14.13,7.78-22.68,0-20.48-16.6-37.08-37.05-37.08-12.51,0-23.58,6.21-30.26,15.69-7.7-2.69-15.91-4.29-24.49-4.62,3.49-7.94,7.86-15.42,12.97-22.32Z"/>
  <path class="cls-7" d="M126.43,121.6c0,8.55-2.89,16.41-7.78,22.68-2.47-3.68-5.61-6.87-9.26-9.4,2.53-3.82,4.01-8.38,4.01-13.28,0-13.28-10.75-24.02-24.02-24.02s-24.05,10.75-24.05,24.02c0,4.92,1.48,9.48,4.01,13.3-3.66,2.5-6.79,5.69-9.24,9.37-3.44-4.4-5.88-9.56-7.04-15.2v-.03c-.49-2.42-.74-4.89-.74-7.45,0-7.94,2.5-15.34,6.79-21.38,6.68-9.48,17.76-15.69,30.26-15.69,20.45,0,37.05,16.6,37.05,37.08Z"/>
  <path class="cls-5" d="M118.66,144.27c-2.14,2.8-4.7,5.28-7.56,7.31-6.1,4.45-13.61,7.06-21.71,7.06-1.92,0-3.79-.14-5.63-.44-.49-.05-.96-.14-1.43-.22-9.02-1.76-16.85-6.73-22.21-13.72,2.45-3.68,5.58-6.87,9.24-9.37,5.69-3.96,12.59-6.27,20.04-6.27s14.35,2.31,20.01,6.24c3.66,2.53,6.79,5.72,9.26,9.4Z"/>
  <path class="cls-6" d="M115.38,169.01c.49,3.77.77,7.59.77,11.49,0,8.82-1.35,17.34-3.85,25.34-2.42-.55-4.84-1.18-7.2-1.87,1.84-3.41,3.05-7.17,3.49-11.21.16-1.15.22-2.31.22-3.49,0-15.53-10.33-28.78-25.07-31.03v-.03c1.84.3,3.71.44,5.63.44,8.11,0,15.61-2.61,21.71-7.06,2.01,5.55,3.46,11.38,4.26,17.4l.03.03Z"/>
  <path class="cls-2" d="M113.41,121.6c0,4.89-1.48,9.46-4.01,13.28-5.66-3.93-12.56-6.24-20.01-6.24s-14.35,2.31-20.04,6.27c-2.53-3.82-4.01-8.38-4.01-13.3,0-13.28,10.77-24.02,24.05-24.02s24.02,10.75,24.02,24.02Z"/>
  <path class="cls-3" d="M82.35,158.07c.47.03.93.11,1.4.16,14.73,2.25,25.07,15.5,25.07,31.03,0,1.18-.05,2.34-.22,3.49-1.51-11.96-11.71-21.19-24.08-21.19-13.41,0-24.3,10.88-24.3,24.3,0,12.37,9.24,22.57,21.19,24.08-1.15.16-2.31.22-3.49.22-2.28,0-4.54-.25-6.68-.74-13.83-3.05-24.19-15.39-24.19-30.15,0-17.04,15.2-31.36,32.24-31.36,1.04,0,2.03.05,3.05.16Z"/>
  <path class="cls-4" d="M108.6,192.76c-.44,4.04-1.65,7.81-3.49,11.21-7.04-2.06-13.8-4.73-20.26-7.94l-.33-.16c.08.14.16.3.25.44,3.41,6.24,7.86,11.85,13.08,16.57-4.01,3.38-8.91,5.77-14.29,6.73-.69.14-1.37.25-2.09.33,0,0-.03.03-.05,0-11.96-1.51-21.19-11.71-21.19-24.08,0-13.41,10.88-24.3,24.3-24.3,12.37,0,22.57,9.24,24.08,21.19Z"/>
  <path class="cls-5" d="M98.95,231.79c-3.55,4.65-7.56,8.96-11.93,12.78-9.1-4.76-17.45-10.66-24.93-17.54,3.33-2.2,6.4-4.76,9.15-7.61,2.14.49,4.4.74,6.68.74,1.18,0,2.34-.05,3.49-.22t.05,0c.71-.08,1.4-.19,2.09-.33v.03c4.51,4.62,9.7,8.71,15.39,12.15Z"/>
  <path class="cls-3" d="M195.92,40.87c3.44,1.9,6.79,3.99,10,6.21-25.78,3.88-47.11,21.38-56.4,44.99v.03c-3.22,8.16-4.97,17.04-4.97,26.36,0,19.68,7.89,37.52,20.67,50.52,0,.03-.03.03-.03.05-4.37,10.55-14.87,15.36-24.79,15.36-9.32,0-21-5.94-25.01-15.39l-.03-.03c12.78-13,20.67-30.84,20.67-50.52,0-9.32-1.76-18.2-4.97-26.36v-.03c-9.29-23.61-30.62-41.12-56.4-44.99,3.19-2.23,6.51-4.29,9.92-6.16,8.11-4.48,16.79-8.03,25.95-10.44,12.86,7.15,23.25,18.25,29.52,31.64,6.29-13.44,16.74-24.57,29.66-31.72,9.24,2.42,18.03,5.96,26.22,10.47Z"/>
  <path class="cls-6" d="M83.75,158.21v.03c-.47-.05-.93-.14-1.4-.16,0-.03,0-.05-.03-.08.47.08.93.16,1.43.22Z"/>
  <path class="cls-6" d="M60.11,144.27c5.36,6.98,13.19,11.96,22.21,13.72.03.03.03.05.03.08-1.02-.11-2.01-.16-3.05-.16-17.04,0-32.24,14.32-32.24,31.36,0,14.76,10.36,27.1,24.19,30.15-2.75,2.86-5.83,5.41-9.15,7.61-14.46-13.33-25.48-30.29-31.64-49.45h-.03c-3.6-11.19-5.55-23.12-5.55-35.48,0-5.85.44-11.63,1.29-17.26,1.65-.14,3.3-.22,5-.22,7.78,0,15.17,1.59,21.91,4.43v.03c1.15,5.63,3.6,10.8,7.04,15.2Z"/>
  <path class="cls-5" d="M76.22,40.46c2.86,0,5.61.16,8.36.47-3.41,1.87-6.73,3.93-9.92,6.16-10.36,7.2-19.51,16.02-27.05,26.17,2.64-11.38,7.34-21.93,13.66-31.33,4.84-.96,9.84-1.46,14.95-1.46Z"/>
  <path class="cls-1" d="M59.12,100.21c-4.29,6.05-6.79,13.44-6.79,21.38,0,2.56.25,5.03.74,7.45-6.73-2.83-14.13-4.43-21.91-4.43-1.7,0-3.35.08-5,.22,1.51-10.25,4.4-20.06,8.47-29.24,8.58.33,16.79,1.92,24.49,4.62Z"/>
  <path class="cls-3" d="M26.17,124.84c-.85,5.63-1.29,11.41-1.29,17.26,0,12.37,1.95,24.3,5.55,35.48C11.96,163.68,0,141.58,0,116.68,0,79.71,26.33,48.87,61.27,41.92c-6.32,9.4-11.02,19.95-13.66,31.33v.03c-5.11,6.9-9.48,14.37-12.97,22.32-4.07,9.18-6.95,18.99-8.47,29.24Z"/>
</svg>