<?xml version="1.0" encoding="UTF-8"?>
<svg id="Layer_1" data-name="Layer 1" xmlns="http://www.w3.org/2000/svg" viewBox="0 0 283.11 231.04">
  <defs>
    <style>
      .cls-1 {
        fill: #6e0a30;
      }

      .cls-2 {
        fill: #1d0f14;
      }

      .cls-3 {
        fill: #9fcc44;
      }

      .cls-4 {
        fill: #e94296;
      }

      .cls-5 {
        fill: #ffd695;
      }

      .cls-6 {
        fill: #1a4f27;
      }

      .cls-7 {
        fill: #fbf9dc;
      }
    </style>
  </defs>
  <circle class="cls-1" cx="25.92" cy="116.06" r="25.92"/>
  <g>
    <path class="cls-1" d="M257.11,90.15c14.37,0,26,11.65,26,26s-11.63,26-26,26c-1.02,0-2.03-.05-3.05-.19,1.37-5.77,2.28-11.71,2.75-17.81.19-2.83.3-5.72.3-8.63,0-8.66-.96-17.1-2.78-25.23.91-.08,1.84-.14,2.78-.14Z"/>
    <path class="cls-4" d="M257.11,115.52c0,2.91-.11,5.8-.3,8.63-3.27-.55-6.62-.82-10.06-.82-4.86,0-9.59.58-14.1,1.65-6.02,1.43-11.68,3.74-16.82,6.82,8.27-6.21,13.63-16.08,13.63-27.24s-5.58-21.44-14.18-27.6c8.66-7.15,16.24-15.56,22.48-24.93.11-.03.19-.05.27-.11,7.61,11.52,13.22,24.46,16.3,38.37,1.81,8.14,2.78,16.57,2.78,25.23Z"/>
    <path class="cls-3" d="M256.81,124.15c-.47,6.1-1.37,12.04-2.75,17.81-.08,0-.19,0-.27-.03-.11-.03-.19-.03-.27-.03-.25-.05-.47-.08-.69-.11-1.98-.3-4.01-.44-6.07-.44-15.58,0-29.22,8.33-36.67,20.81h-.03c-3.44-5.25-7.48-10.06-12.01-14.37,3.88-5.22,8.6-9.81,13.96-13.52.03-.03.08-.05.11-.05.05-.03.11-.08.16-.11,0,0,.03,0,.03-.03,1.15-.66,2.28-1.37,3.35-2.17.03,0,.03-.03.05-.03.03-.05.05-.05.11-.08,5.14-3.08,10.8-5.39,16.82-6.82,4.51-1.07,9.24-1.65,14.1-1.65,3.44,0,6.79.27,10.06.82Z"/>
    <path class="cls-6" d="M253.79,141.94c.08.03.16.03.27.05-3.08,13.14-8.41,25.42-15.53,36.39-4.51,6.93-9.73,13.36-15.58,19.16-3.68,3.66-7.61,7.06-11.76,10.2-4.51-6.79-7.15-14.92-7.15-23.69,0-8,2.2-15.47,6.02-21.85t.03-.03c7.45-12.48,21.08-20.81,36.67-20.81,2.06,0,4.1.14,6.07.44.22.03.44.05.69.11.08,0,.16,0,.27.03Z"/>
    <path class="cls-3" d="M237.93,51.78l-.16.25c-7.83,3-16.33,4.65-25.23,4.65-1.87,0-3.74-.08-5.58-.22,6.76-6.32,12.59-13.61,17.26-21.66,5.08,5.19,9.7,10.88,13.72,16.99Z"/>
    <path class="cls-7" d="M215.28,76.96c8.6,6.16,14.18,16.22,14.18,27.6s-5.36,21.03-13.63,27.24c-.05.03-.08.03-.11.08-.03,0-.03.03-.05.03-1.15.69-2.25,1.4-3.35,2.17,0,.03-.03.03-.03.03-.08.05-.19.11-.27.16-4.89,2.72-10.5,4.26-16.49,4.26s-11.38-1.48-16.19-4.1c-10.58-5.74-17.78-16.96-17.78-29.88,0-.93.03-1.87.11-2.78h.03c3.27-.58,6.49-1.29,9.65-2.14-.03.25-.03.52-.03.8,0,13.36,10.83,24.21,24.21,24.21s24.21-10.86,24.21-24.21c0-7.92-3.79-14.95-9.67-19.38,1.79-1.32,3.52-2.69,5.22-4.1Z"/>
    <path class="cls-1" d="M237.76,52.03c-6.24,9.37-13.83,17.78-22.48,24.93-5.55-4.01-12.4-6.35-19.76-6.35-5.03,0-9.78,1.1-14.07,3.05,9.43-4.37,18.06-10.17,25.51-17.21,1.84.14,3.71.22,5.58.22,8.91,0,17.4-1.65,25.23-4.65Z"/>
    <path class="cls-2" d="M210.06,81.06c5.88,4.43,9.67,11.46,9.67,19.38,0,13.36-10.83,24.21-24.21,24.21s-24.21-10.86-24.21-24.21c0-.27,0-.55.03-.8,14.18-3.74,27.27-10.11,38.73-18.58Z"/>
    <path class="cls-4" d="M215.28,76.96c-1.7,1.4-3.44,2.78-5.22,4.1-11.46,8.47-24.54,14.84-38.73,18.58-3.16.85-6.38,1.57-9.65,2.14h-.03c.99-12.29,8.55-22.73,19.13-27.82.22-.11.44-.22.66-.3,4.29-1.95,9.04-3.05,14.07-3.05,7.37,0,14.21,2.34,19.76,6.35Z"/>
    <path class="cls-3" d="M210.06,162.17v.03c-3.82,6.38-6.02,13.85-6.02,21.85,0,8.77,2.64,16.9,7.15,23.69-4.78,3.6-9.84,6.84-15.14,9.67-1.43-2.14-2.72-4.4-3.85-6.73-3.96-8.05-6.16-17.07-6.16-26.63,0-3.35.27-6.65.8-9.84,1.07-6.6,3.22-12.84,6.24-18.53,5.8,1.84,11.49,4.01,16.99,6.49Z"/>
    <path class="cls-4" d="M224.21,34.8c-4.67,8.05-10.5,15.34-17.26,21.66-31.8-2.47-57.69-25.89-63.93-56.46,31.83.38,60.52,13.63,81.19,34.8Z"/>
    <path class="cls-6" d="M198.04,147.79c4.54,4.32,8.58,9.13,12.01,14.37-5.5-2.47-11.19-4.65-16.99-6.49-15.67-5.06-32.35-7.83-49.67-8-.6-.03-1.21-.03-1.81-.03s-1.21,0-1.81.03c-17.32.16-34,2.94-49.67,8-5.8,1.84-11.49,4.01-16.99,6.49,3.44-5.25,7.48-10.06,12.01-14.37,5.55-5.3,11.85-9.81,18.72-13.36,11.3-5.88,24.13-9.21,37.74-9.21s26.44,3.33,37.74,9.21c6.87,3.55,13.17,8.05,18.72,13.36Z"/>
    <path class="cls-5" d="M212.01,134.27c-5.36,3.71-10.09,8.3-13.96,13.52-5.55-5.3-11.85-9.81-18.72-13.36,4.81,2.61,10.33,4.1,16.19,4.1s11.6-1.54,16.49-4.26Z"/>
    <path class="cls-5" d="M193.07,155.68c-3.02,5.69-5.17,11.93-6.24,18.53-8.58-15.34-24.76-25.86-43.43-26.52,17.32.16,34,2.94,49.67,8Z"/>
    <path class="cls-6" d="M206.95,56.46c-7.45,7.04-16.08,12.84-25.51,17.21-.22.08-.44.19-.66.3-11.96,5.36-25.23,8.36-39.19,8.36s-27.27-3-39.22-8.38c-.49-.25-.99-.47-1.48-.69-9.1-4.32-17.43-9.98-24.65-16.79,31.8-2.47,57.69-25.89,63.93-56.46h2.86c6.24,30.56,32.13,53.98,63.93,56.46Z"/>
    <path class="cls-1" d="M141.59,82.32c13.96,0,27.24-3,39.19-8.36-10.58,5.08-18.14,15.53-19.13,27.82-6.54,1.15-13.22,1.76-20.06,1.76s-13.55-.6-20.09-1.76c-.99-12.29-8.52-22.73-19.13-27.84,11.96,5.39,25.23,8.38,39.22,8.38Z"/>
    <path class="cls-1" d="M178.91,210.48c0,5.3-1.1,10.36-3.13,14.95.03-.58.05-1.18.05-1.76,0-18.91-15.34-34.25-34.25-34.25s-34.25,15.34-34.25,34.25c0,.58.03,1.18.05,1.76-2.03-4.59-3.13-9.65-3.13-14.95,0-20.61,16.71-37.33,37.33-37.33s37.33,16.71,37.33,37.33Z"/>
    <path class="cls-3" d="M175.84,223.68c0,.58-.03,1.18-.05,1.76v.03c-.05.16-.14.33-.22.49-10.75,3.3-22.15,5.08-33.97,5.08s-23.23-1.79-33.97-5.08c-.08-.16-.16-.33-.22-.49v-.03c-.03-.58-.05-1.18-.05-1.76,0-18.91,15.34-34.25,34.25-34.25s34.25,15.34,34.25,34.25Z"/>
    <path class="cls-5" d="M161.54,104.56c0,12.92,7.2,24.13,17.78,29.88-11.3-5.88-24.13-9.21-37.74-9.21s-26.44,3.33-37.74,9.21v-.03c10.58-5.74,17.76-16.96,17.76-29.85,0-.93-.03-1.87-.11-2.78,6.54,1.15,13.25,1.76,20.09,1.76s13.52-.6,20.06-1.76c-.08.91-.11,1.84-.11,2.78Z"/>
    <path class="cls-7" d="M121.5,101.78c.08.91.11,1.84.11,2.78,0,12.89-7.17,24.1-17.76,29.85-4.81,2.61-10.33,4.1-16.19,4.1s-11.85-1.62-16.79-4.43c-.08-.05-.14-.08-.19-.11-.96-.69-1.92-1.32-2.94-1.92-.08-.05-.14-.08-.22-.14-.03-.05-.08-.08-.11-.08-8.33-6.21-13.72-16.11-13.72-27.27s5.58-21.44,14.18-27.62l.03.03c1.7,1.4,3.44,2.78,5.22,4.1-5.88,4.43-9.67,11.46-9.67,19.38,0,13.36,10.83,24.21,24.21,24.21s24.21-10.86,24.21-24.21c0-.27,0-.55-.03-.8,3.16.85,6.38,1.57,9.65,2.14Z"/>
    <path class="cls-4" d="M140.16,0c-6.24,30.56-32.13,53.98-63.93,56.46-6.76-6.32-12.59-13.61-17.26-21.66C79.64,13.63,108.33.38,140.16,0Z"/>
    <path class="cls-5" d="M90.11,155.68c15.67-5.06,32.35-7.83,49.67-8-18.66.66-34.85,11.19-43.43,26.52-1.07-6.6-3.22-12.84-6.24-18.53Z"/>
    <path class="cls-4" d="M121.5,101.78c-3.27-.58-6.49-1.29-9.65-2.14-14.18-3.74-27.27-10.11-38.73-18.58-1.79-1.32-3.52-2.69-5.22-4.1l-.03-.03c5.58-4.01,12.4-6.35,19.79-6.35,4.67,0,9.15.93,13.22,2.67.49.22.99.44,1.48.69,10.61,5.11,18.14,15.56,19.13,27.84Z"/>
    <path class="cls-2" d="M111.85,99.64c.03.25.03.52.03.8,0,13.36-10.83,24.21-24.21,24.21s-24.21-10.86-24.21-24.21c0-7.92,3.79-14.95,9.67-19.38,11.46,8.47,24.54,14.84,38.73,18.58Z"/>
    <path class="cls-4" d="M107.4,225.46c0,.16,0,.3.03.44-4.45-1.37-8.77-3-12.95-4.86-2.5-1.13-4.95-2.34-7.34-3.63,1.43-2.14,2.72-4.4,3.85-6.73,3.96-8.05,6.16-17.07,6.16-26.63,0-3.35-.27-6.65-.8-9.84,8.58-15.34,24.76-25.86,43.43-26.52.6-.03,1.21-.03,1.81-.03s1.21,0,1.81.03c18.66.66,34.85,11.19,43.43,26.52-.52,3.19-.8,6.49-.8,9.84,0,9.56,2.2,18.58,6.16,26.63,1.13,2.34,2.42,4.59,3.85,6.73-2.39,1.29-4.84,2.5-7.34,3.63-4.18,1.87-8.49,3.49-12.95,4.86.03-.14.03-.27.03-.44v-.03c2.03-4.59,3.13-9.65,3.13-14.95,0-20.61-16.71-37.33-37.33-37.33s-37.33,16.71-37.33,37.33c0,5.3,1.1,10.36,3.13,14.95v.03Z"/>
    <path class="cls-3" d="M96.35,174.2c.52,3.19.8,6.49.8,9.84,0,9.56-2.2,18.58-6.16,26.63-1.13,2.34-2.42,4.59-3.85,6.73-5.3-2.83-10.36-6.07-15.14-9.67,4.51-6.79,7.15-14.92,7.15-23.69,0-8-2.2-15.47-6.02-21.85v-.03c5.5-2.47,11.19-4.65,16.99-6.49,3.02,5.69,5.17,11.93,6.24,18.53Z"/>
    <path class="cls-1" d="M100.88,73.25c-4.07-1.73-8.55-2.67-13.22-2.67-7.39,0-14.21,2.34-19.79,6.35-8.66-7.15-16.22-15.53-22.46-24.9,7.83,3,16.33,4.65,25.23,4.65,1.87,0,3.74-.08,5.58-.22,7.23,6.82,15.56,12.48,24.65,16.79Z"/>
    <path class="cls-6" d="M79.14,184.04c0,8.77-2.64,16.9-7.15,23.69-4.15-3.13-8.08-6.54-11.76-10.2-5.85-5.8-11.08-12.23-15.58-19.16-7.12-10.97-12.45-23.25-15.53-36.39.11-.03.19-.03.27-.05.11-.03.19-.03.27-.03.25-.05.47-.08.69-.11,1.98-.3,4.01-.44,6.07-.44,15.58,0,29.22,8.33,36.67,20.81t.03.03c3.82,6.38,6.02,13.85,6.02,21.85Z"/>
    <path class="cls-3" d="M85.13,147.79c-4.54,4.32-8.58,9.13-12.01,14.37h-.03c-7.45-12.48-21.08-20.81-36.67-20.81-2.06,0-4.1.14-6.07.44-.22.03-.44.05-.69.11-.08,0-.16,0-.27.03-.08.03-.16.03-.27.05v-.03c-1.37-5.77-2.28-11.71-2.75-17.81,3.27-.55,6.62-.82,10.06-.82,4.86,0,9.59.58,14.1,1.65,6.02,1.43,11.68,3.74,16.82,6.82.03.03.05.03.05.03.03,0,.03.03.05.05.03,0,.03.03.05.03.08.05.14.08.22.14.93.69,1.92,1.32,2.94,1.92.05.03.14.05.19.11,0,.03.03.03.03.03.05.03.11.08.16.11.03,0,.08.03.11.05,5.36,3.71,10.09,8.3,13.96,13.52Z"/>
    <path class="cls-3" d="M76.23,56.46c-1.84.14-3.71.22-5.58.22-8.91,0-17.4-1.65-25.23-4.65l-.16-.25c4.01-6.1,8.63-11.79,13.72-16.99,4.67,8.05,10.5,15.34,17.26,21.66Z"/>
    <path class="cls-5" d="M70.87,134.07c4.95,2.8,10.69,4.43,16.79,4.43s11.38-1.48,16.19-4.1v.03c-6.87,3.55-13.17,8.05-18.72,13.36-3.88-5.22-8.6-9.81-13.96-13.52-.03-.03-.08-.05-.11-.05-.05-.03-.11-.08-.16-.11,0,0-.03,0-.03-.03Z"/>
    <path class="cls-5" d="M70.68,133.96c.05.03.11.05.19.11-.05-.05-.14-.08-.19-.11Z"/>
    <path class="cls-4" d="M67.41,131.82s.08.03.11.08c-.03,0-.03-.03-.05-.03-.03-.03-.03-.05-.05-.05Z"/>
    <path class="cls-4" d="M53.69,104.56c0,11.16,5.39,21.05,13.72,27.27,0,0-.03,0-.05-.03-5.14-3.08-10.8-5.39-16.82-6.82-4.51-1.07-9.24-1.65-14.1-1.65-3.44,0-6.79.27-10.06.82-.19-2.83-.3-5.72-.3-8.63,0-8.66.96-17.1,2.78-25.23,3.08-13.91,8.69-26.85,16.3-38.37.08.05.16.08.27.11,6.24,9.37,13.8,17.76,22.46,24.9-8.6,6.18-14.18,16.24-14.18,27.62Z"/>
  </g>
</svg>