<?xml version="1.0" encoding="UTF-8"?>
<svg id="Layer_1" data-name="Layer 1" xmlns="http://www.w3.org/2000/svg" viewBox="0 0 268.73 249.6">
  <defs>
    <style>
      .cls-1 {
        fill: #6e0a30;
      }

      .cls-2 {
        fill: #1d0f14;
      }

      .cls-3 {
        fill: #9fcc44;
      }

      .cls-4 {
        fill: #e94296;
      }

      .cls-5 {
        fill: #ffd695;
      }

      .cls-6 {
        fill: #1a4f27;
      }
    </style>
  </defs>
  <path class="cls-1" d="M264.33,99.55c2.64,4.04-1.7,8.88-16.16,14.59-1.46-8.27-3.77-16.27-6.9-23.86,12.07,2.42,20.61,5.5,23.06,9.26Z"/>
  <path class="cls-4" d="M249.84,114.09c10.42,0,18.88,8.44,18.88,18.86s-8.47,18.88-18.88,18.88c-.41,0-.82,0-1.24-.08-.03.03-.05,0-.05,0h-.03v-.03c.8-5.17,1.24-10.42,1.32-15.78v-.03c.03-.63.03-1.24.03-1.87,0-6.76-.58-13.39-1.7-19.84v-.03c.55-.05,1.1-.08,1.68-.08Z"/>
  <path class="cls-1" d="M249.84,135.92v.03c-.08,5.36-.52,10.61-1.32,15.78-2.09-.66-4.26-1.21-6.46-1.59h-.03c-2.94-.52-5.91-.8-8.99-.8-19.95,0-37.24,11.43-45.63,28.12-6.35.11-12.42,1.32-18.06,3.44,8.14-26.63,32.54-46.18,61.65-47.03.69-.05,1.35-.05,2.03-.05.22,0,.47,0,.69.03h.03c.08.08.16.19.25.27-.03-.08-.03-.19-.05-.27,5.47.05,10.8.8,15.89,2.09Z"/>
  <path class="cls-3" d="M248.52,151.72v.03c-2.58,16.79-8.8,32.41-17.78,45.98-5-6.27-11.38-11.38-18.69-14.92,1.9.8,3.93,1.24,6.1,1.24,8.66,0,15.67-7.01,15.67-15.67s-7.01-15.69-15.67-15.69-15.67,7.04-15.67,15.69c0,6.35,3.77,11.82,9.21,14.27-1.54-.74-3.13-1.4-4.78-1.98-5.74-2.12-11.98-3.24-18.44-3.24-.36,0-.71,0-1.04.03,8.38-16.68,25.67-28.12,45.63-28.12,3.08,0,6.05.27,8.99.8h.03c2.2.38,4.37.93,6.46,1.59Z"/>
  <path class="cls-3" d="M248.17,114.15v.05c1.13,6.46,1.7,13.08,1.7,19.84,0,.63,0,1.24-.03,1.87-5.08-1.29-10.42-2.03-15.89-2.09-3.16-16.13-17.4-28.31-34.44-28.31-19.35,0-35.04,15.64-35.1,35.02-4.43-3.27-9.24-6.43-14.4-8.55,5.85-18.97,16.96-35.62,31.61-48.24,22.13,1.21,43.89,3.33,59.64,6.54,3.13,7.59,5.44,15.58,6.9,23.86Z"/>
  <path class="cls-5" d="M264.33,99.55c-2.45-3.77-10.99-6.84-23.06-9.26-4.26-10.44-10-20.12-17.01-28.75-4.76-5.94-10.11-11.38-15.97-16.24-7.83-6.54-16.55-12.04-25.95-16.35-14.59-6.68-30.84-10.42-47.93-10.42h-.08c-17.1,0-33.34,3.74-47.93,10.42-9.4,4.32-18.11,9.81-25.95,16.35-5.85,4.86-11.21,10.31-15.97,16.24-7.01,8.63-12.75,18.31-17.01,28.75-12.09,2.42-20.61,5.5-23.06,9.26C51.15,3.77,134.38,0,134.38,0c0,0,83.2,3.77,129.95,99.55Z"/>
  <path class="cls-2" d="M233.96,133.83c-.08-.03-.11-.03-.19,0h-.03c-.82-.96-1.73-1.9-2.67-2.75-7.72-7.26-18.09-11.68-29.52-11.68-15.8,0-29.6,8.47-37.13,21.14.05-19.38,15.75-35.02,35.1-35.02,17.04,0,31.28,12.18,34.44,28.31Z"/>
  <path class="cls-5" d="M231.07,131.08c-.08.6-.11,1.24-.11,1.87,0,.3,0,.6.05.91-29.11.85-53.51,20.39-61.65,47.03-7.37,2.78-13.99,7.12-19.43,12.62-2.97-9.67-4.56-19.95-4.56-30.62,0-.52,0-1.04.03-1.54,5.44-3.6,9.02-9.78,9.02-16.77,0-4.76-1.65-9.1-4.43-12.53,0-.03.03-.05.03-.05,5.17,2.12,9.98,5.28,14.4,8.55,7.53-12.67,21.33-21.14,37.13-21.14,11.43,0,21.8,4.43,29.52,11.68Z"/>
  <path class="cls-4" d="M218.15,152.68c8.66,0,15.67,7.04,15.67,15.69s-7.01,15.67-15.67,15.67c-2.17,0-4.21-.44-6.1-1.24-.11-.05-.25-.11-.36-.16-5.44-2.45-9.21-7.92-9.21-14.27,0-8.66,7.01-15.69,15.67-15.69Z"/>
  <path class="cls-6" d="M224.26,61.54c7.01,8.63,12.75,18.31,17.01,28.75-15.75-3.22-37.52-5.33-59.64-6.54,12.09-10.47,26.63-18.2,42.63-22.21Z"/>
  <path class="cls-6" d="M230.74,197.73c-9.48,14.37-22.13,26.5-36.91,35.4-4.51,2.72-9.24,5.11-14.1,7.2-.03-.03-.03-.05-.05-.05-5.22-7.01-9.1-15.06-11.24-23.8,16.38-7.45,29.9-20.09,38.48-35.81,1.65.58,3.24,1.24,4.78,1.98.11.05.25.11.36.16,7.31,3.55,13.69,8.66,18.69,14.92Z"/>
  <path class="cls-5" d="M208.29,45.3c5.85,4.86,11.21,10.31,15.97,16.24-16,4.01-30.54,11.74-42.63,22.21-16.3-.93-32.79-1.35-47.22-1.35h-.05c-14.43,0-30.95.41-47.25,1.35-12.09-10.47-26.63-18.2-42.63-22.21,4.76-5.94,10.11-11.38,15.97-16.24,19.98,16.79,45.76,26.91,73.88,26.94h.08c28.12-.03,53.9-10.14,73.88-26.94Z"/>
  <path class="cls-4" d="M188.47,177.42c6.46,0,12.7,1.13,18.44,3.24-8.58,15.72-22.1,28.37-38.48,35.81-1.29-5.14-1.98-10.53-1.98-16.08,0-6.79,1.02-13.33,2.91-19.51,5.63-2.12,11.71-3.33,18.06-3.44.33-.03.69-.03,1.04-.03Z"/>
  <path class="cls-3" d="M182.34,28.94c9.4,4.32,18.11,9.81,25.95,16.35-19.98,16.79-45.76,26.91-73.88,26.94h-.08c-28.12-.03-53.9-10.14-73.88-26.94,7.83-6.54,16.55-12.04,25.95-16.35,11.43,13.74,28.67,22.48,47.93,22.51h.08c19.27-.03,36.5-8.77,47.93-22.51Z"/>
  <path class="cls-3" d="M179.73,240.36c-13.06,5.55-27.32,8.8-42.3,9.21-1.84-5.11-2.89-10.55-3.05-16.24.03-.6.03-1.18.03-1.79,0-.47,0-.91-.03-1.37.03-2.14.19-4.29.49-6.35,11.98-.05,23.34-2.69,33.56-7.34,2.14,8.74,6.02,16.79,11.24,23.8.03,0,.03.03.05.05v.03Z"/>
  <path class="cls-4" d="M169.37,180.88c-1.9,6.18-2.91,12.73-2.91,19.51,0,5.55.69,10.94,1.98,16.08-10.22,4.65-21.58,7.28-33.56,7.34,1.68-11.74,7.12-22.26,15.06-30.32,5.44-5.5,12.07-9.84,19.43-12.62Z"/>
  <path class="cls-4" d="M181.62,83.75c-14.65,12.62-25.75,29.27-31.61,48.24,0,0-.03.03-.03.05-3.63-4.59-9.26-7.53-15.58-7.56h-.08c-6.32.03-11.96,2.97-15.58,7.56,0-.03-.03-.05-.03-.05-5.85-18.97-16.96-35.62-31.61-48.24,16.3-.93,32.82-1.35,47.25-1.35h.05c14.43,0,30.92.41,47.22,1.35Z"/>
  <path class="cls-6" d="M182.34,28.94c-11.43,13.74-28.67,22.48-47.93,22.51h-.08c-19.27-.03-36.5-8.77-47.93-22.51,14.59-6.68,30.84-10.42,47.93-10.42h.08c17.1,0,33.34,3.74,47.93,10.42Z"/>
  <path class="cls-1" d="M154.41,144.57c0,6.98-3.57,13.17-9.02,16.77-3.13,2.06-6.93,3.3-10.99,3.33h-.08c-4.07-.03-7.86-1.26-10.99-3.33-5.44-3.6-9.02-9.78-9.02-16.77,0-4.76,1.65-9.1,4.43-12.53,3.63-4.59,9.26-7.53,15.58-7.56h.08c6.32.03,11.96,2.97,15.58,7.56,2.78,3.44,4.43,7.78,4.43,12.53Z"/>
  <path class="cls-3" d="M145.37,162.88c0,10.66,1.59,20.94,4.56,30.62-7.94,8.05-13.39,18.58-15.06,30.32-.3,2.06-.47,4.21-.49,6.35-.05-2.14-.22-4.29-.52-6.35-1.68-11.74-7.12-22.26-15.06-30.32,2.97-9.67,4.56-19.95,4.56-30.62,0-.52,0-1.04-.03-1.54,3.13,2.06,6.93,3.3,10.99,3.33h.08c4.07-.03,7.86-1.26,10.99-3.33-.03.49-.03,1.02-.03,1.54Z"/>
  <path class="cls-3" d="M137.43,249.57c-1.02.03-2.01.03-3.02.03h-.08c-1.02,0-2.01,0-3.02-.03,1.84-5.11,2.89-10.55,3.08-16.24.16,5.69,1.21,11.13,3.05,16.24Z"/>
  <path class="cls-3" d="M134.38,230.16c-.05.47-.05.91-.05,1.37,0,.6,0,1.18.05,1.79-.19,5.69-1.24,11.13-3.08,16.24-14.98-.41-29.24-3.66-42.3-9.21v-.03s.03-.05.05-.05c5.22-7.01,9.1-15.06,11.24-23.8,10.25,4.65,21.6,7.28,33.56,7.34.3,2.06.47,4.21.52,6.35Z"/>
  <path class="cls-4" d="M118.79,193.5c7.94,8.05,13.39,18.58,15.06,30.32-11.96-.05-23.31-2.69-33.56-7.34,1.29-5.14,1.98-10.53,1.98-16.08,0-6.79-1.02-13.33-2.91-19.51,7.37,2.78,13.99,7.12,19.43,12.62Z"/>
  <path class="cls-5" d="M123.33,161.34c.03.49.03,1.02.03,1.54,0,10.66-1.59,20.94-4.56,30.62-5.44-5.5-12.07-9.84-19.43-12.62-8.14-26.63-32.54-46.18-61.65-47.03.05-.3.05-.6.05-.91,0-.63-.03-1.26-.11-1.87,7.72-7.26,18.09-11.68,29.52-11.68,15.8,0,29.6,8.47,37.13,21.14,4.43-3.27,9.24-6.43,14.4-8.55,0,0,.03.03.03.05-2.78,3.44-4.43,7.78-4.43,12.53,0,6.98,3.57,13.17,9.02,16.77Z"/>
  <path class="cls-3" d="M87.1,83.75c14.65,12.62,25.75,29.27,31.61,48.24-5.17,2.12-9.98,5.28-14.4,8.55-.05-19.38-15.75-35.02-35.1-35.02-17.04,0-31.28,12.18-34.44,28.31-5.47.05-10.8.8-15.89,2.09-.03-.63-.03-1.24-.03-1.87,0-6.76.58-13.39,1.7-19.84v-.05c1.46-8.27,3.77-16.27,6.9-23.86,15.75-3.19,37.52-5.33,59.64-6.54Z"/>
  <path class="cls-4" d="M102.27,200.4c0,5.55-.69,10.94-1.98,16.08-16.38-7.45-29.9-20.09-38.48-35.81,5.74-2.12,11.98-3.24,18.44-3.24.36,0,.71,0,1.04.03,6.35.11,12.42,1.32,18.06,3.44,1.9,6.18,2.91,12.73,2.91,19.51Z"/>
  <path class="cls-6" d="M100.29,216.48c-2.14,8.74-6.02,16.79-11.24,23.8-.03,0-.03.03-.05.05-4.86-2.09-9.59-4.48-14.1-7.2-14.79-8.91-27.43-21.03-36.91-35.4,5-6.27,11.38-11.38,18.69-14.92.11-.05.25-.11.36-.16,1.54-.74,3.13-1.4,4.78-1.98,8.58,15.72,22.1,28.37,38.48,35.81Z"/>
  <path class="cls-2" d="M69.21,105.52c19.35,0,35.04,15.64,35.1,35.02-7.53-12.67-21.33-21.14-37.13-21.14-11.43,0-21.8,4.43-29.52,11.68-.93.85-1.84,1.79-2.67,2.75h-.03c-.08-.03-.11-.03-.19,0,3.16-16.13,17.4-28.31,34.44-28.31Z"/>
  <path class="cls-1" d="M99.36,180.88c-5.63-2.12-11.71-3.33-18.06-3.44-8.38-16.68-25.67-28.12-45.63-28.12-3.08,0-6.05.27-8.99.8h-.03c-2.2.38-4.37.93-6.46,1.59-.8-5.17-1.24-10.42-1.32-15.78v-.03c5.08-1.29,10.42-2.03,15.89-2.09-.03.08-.03.19-.05.27.08-.08.16-.19.25-.27h.03c.22-.03.47-.03.69-.03.69,0,1.35,0,2.03.05,29.11.85,53.51,20.39,61.65,47.03Z"/>
  <path class="cls-3" d="M81.3,177.45c-.33-.03-.69-.03-1.04-.03-6.46,0-12.7,1.13-18.44,3.24-1.65.58-3.24,1.24-4.78,1.98,5.44-2.45,9.21-7.92,9.21-14.27,0-8.66-7.01-15.69-15.67-15.69s-15.67,7.04-15.67,15.69,7.01,15.67,15.67,15.67c2.17,0,4.21-.44,6.1-1.24-7.31,3.55-13.69,8.66-18.69,14.92-8.99-13.58-15.2-29.19-17.78-45.98v-.03c2.09-.66,4.26-1.21,6.46-1.59h.03c2.94-.52,5.91-.8,8.99-.8,19.95,0,37.24,11.43,45.63,28.12Z"/>
  <path class="cls-6" d="M44.47,61.54c16,4.01,30.54,11.74,42.63,22.21-22.13,1.21-43.89,3.35-59.64,6.54,4.26-10.44,10-20.12,17.01-28.75Z"/>
  <path class="cls-4" d="M66.24,168.38c0,6.35-3.77,11.82-9.21,14.27-.11.05-.25.11-.36.16-1.9.8-3.93,1.24-6.1,1.24-8.66,0-15.67-7.01-15.67-15.67s7.01-15.69,15.67-15.69,15.67,7.04,15.67,15.69Z"/>
  <path class="cls-1" d="M4.4,99.55c2.45-3.77,10.97-6.84,23.06-9.26-3.13,7.59-5.44,15.58-6.9,23.86-14.46-5.72-18.8-10.55-16.16-14.59Z"/>
  <path class="cls-4" d="M20.56,114.18v.03c-1.13,6.46-1.7,13.08-1.7,19.84,0,.63,0,1.24.03,1.87v.03c.08,5.36.52,10.61,1.32,15.78v.03h-.03s-.03.03-.05,0c-.41.08-.82.08-1.24.08-10.42,0-18.88-8.44-18.88-18.88s8.47-18.86,18.88-18.86c.58,0,1.13.03,1.68.08Z"/>
</svg>