<?xml version="1.0" encoding="UTF-8"?>
<svg id="Layer_1" data-name="Layer 1" xmlns="http://www.w3.org/2000/svg" viewBox="0 0 231.07 231.1">
  <defs>
    <style>
      .cls-1 {
        fill: #6e0a30;
      }

      .cls-2 {
        fill: #9fcc44;
      }

      .cls-3 {
        fill: #e94296;
      }

      .cls-4 {
        fill: #ffd695;
      }

      .cls-5 {
        fill: #1a4f27;
      }

      .cls-6 {
        fill: #fbf9dc;
      }
    </style>
  </defs>
  <path class="cls-5" d="M196.71,150.37c11.3-7.39,18.77-20.15,18.77-34.66,0-15.69-8.71-29.33-21.55-36.36,10.75,5.17,22.32,8.99,34.41,11.21,1.79,8.05,2.72,16.41,2.72,24.98,0,13.14-2.2,25.75-6.24,37.52-2.86-1.26-6.02-1.98-9.37-1.98-12.67,0-22.95,10.28-22.95,22.95,0,7.53,3.63,14.21,9.24,18.42-19.9,22.32-48.37,36.86-80.23,38.51-.85.05-1.7.08-2.58.08-1.13.03-2.25.05-3.38.05s-2.25-.03-3.38-.05c-.88,0-1.73-.03-2.58-.08-31.83-1.62-60.25-16.13-80.18-38.37,5.72-4.18,9.43-10.94,9.43-18.55,0-12.67-10.28-22.95-22.95-22.95-3.41,0-6.68.74-9.59,2.09-4.1-11.79-6.29-24.46-6.29-37.63,0-8.58.93-16.93,2.72-24.98,12.18-2.23,23.8-6.1,34.63-11.3-12.81,7.04-21.47,20.67-21.47,36.31,0,14.51,7.45,27.27,18.75,34.66,4.4,2.91,9.4,5,14.79,6.02-.3,2.61-.47,5.19-.47,7.86,0,36.78,29.82,66.6,66.6,66.6s66.63-29.82,66.63-66.6c0-2.58-.16-5.17-.44-7.7,5.44-1.02,10.53-3.11,14.98-6.05Z"/>
  <path class="cls-2" d="M150.65,46.84c-12.01-13.41-21.41-29.22-27.46-46.59,7.5.49,14.81,1.7,21.85,3.57,15.34,32.05,43.32,56.87,77.45,68.08,2.47,5.99,4.43,12.23,5.85,18.66-12.09-2.23-23.67-6.05-34.41-11.21-.03,0-.05-.03-.05-.03-.91-.49-1.81-.96-2.75-1.35-.14-.11-.27-.16-.44-.22-15.2-7.78-28.78-18.31-40.05-30.92Z"/>
  <path class="cls-3" d="M215.46,151.09c3.35,0,6.51.71,9.37,1.98-5.03,14.68-12.95,28.04-23.09,39.39-5.61-4.21-9.24-10.88-9.24-18.42,0-12.67,10.28-22.95,22.95-22.95Z"/>
  <path class="cls-2" d="M193.94,79.35c12.84,7.04,21.55,20.67,21.55,36.36,0,14.51-7.48,27.27-18.77,34.66-3.63-1.79-7.23-3.46-10.97-5,11.87-4.65,20.31-16.24,20.31-29.79,0-17.67-14.35-32.02-32.02-32.02s-32.02,14.35-32.02,32.02c0,7.04,2.25,13.52,6.1,18.8-3.9-.69-7.86-1.26-11.87-1.7h-.03c-2.34-5.17-3.63-10.91-3.63-16.96,0-16.44,9.54-30.62,23.39-37.3,5.47-2.67,11.57-4.15,18.06-4.15,5.94,0,11.57,1.24,16.66,3.49.16.05.3.11.44.22.85.44,1.68.85,2.56,1.26.08.03.14.05.19.08,0,0,.03.03.05.03Z"/>
  <path class="cls-6" d="M206.06,115.58c0,13.55-8.44,25.15-20.31,29.79-11.98-4.92-24.57-8.66-37.63-10.99-3.85-5.28-6.1-11.76-6.1-18.8,0-17.67,14.32-32.02,32.02-32.02s32.02,14.35,32.02,32.02ZM193.64,111.89c.03-.3.03-.63.03-.99,0-5.39-4.4-9.78-9.81-9.78s-9.81,4.4-9.81,9.78c0-5.39-4.4-9.78-9.81-9.78s-9.84,4.4-9.84,9.78c0,.27,0,.52.05.74.03.41.11.8.16,1.18v.05c.08.22.14.47.16.69.08.25.14.47.22.66.03.19.08.3.16.49,2.45,8.05,9.95,13.96,18.88,13.96s16.99-6.29,19.21-14.84c0-.03.03-.08.03-.16.08-.25.14-.49.16-.8.08-.3.14-.66.19-.99Z"/>
  <path class="cls-3" d="M145.04,3.82c35.24,9.26,63.9,34.8,77.45,68.08-34.14-11.21-62.12-36.03-77.45-68.08Z"/>
  <path class="cls-3" d="M193.88,79.32c-.05-.03-.11-.05-.19-.08-.88-.41-1.7-.82-2.56-1.26.93.38,1.84.85,2.75,1.35Z"/>
  <path class="cls-3" d="M193.66,110.9c0,.36,0,.69-.03.99-.05.33-.11.69-.19.99-.03.3-.08.55-.16.8,0,.08-.03.14-.03.16-2.23,8.55-10,14.84-19.21,14.84s-16.44-5.91-18.88-13.96c-.08-.19-.14-.3-.16-.49-.08-.19-.14-.41-.22-.66-.03-.22-.08-.47-.16-.69v-.05c-.05-.38-.14-.77-.16-1.18-.05-.22-.05-.47-.05-.74,0-5.39,4.4-9.78,9.84-9.78s9.81,4.4,9.81,9.78c0-5.39,4.43-9.78,9.81-9.78s9.81,4.4,9.81,9.78Z"/>
  <path class="cls-1" d="M145.7,145.89c-3.99-3.68-7.23-8.19-9.46-13.22,4.01.44,7.97,1.02,11.87,1.7,13.06,2.34,25.64,6.07,37.63,10.99,3.74,1.54,7.34,3.22,10.97,5-4.45,2.94-9.54,5.03-14.98,6.05-2.5.47-5.06.71-7.7.71-3.88,0-7.64-.52-11.19-1.54v-.03h-.05c-6.49-1.81-12.31-5.17-17.1-9.67Z"/>
  <path class="cls-2" d="M156.48,186.43c4.32-7.17,6.79-15.58,6.79-24.54,0-2.14-.14-4.21-.41-6.27v-.03c3.55,1.02,7.31,1.54,11.19,1.54,2.64,0,5.19-.25,7.7-.71.27,2.53.44,5.11.44,7.7,0,36.78-29.82,66.6-66.63,66.6s-66.6-29.82-66.6-66.6c0-2.67.16-5.25.47-7.86,2.56.52,5.19.77,7.92.77,3.77,0,7.39-.49,10.86-1.46t.05.05c-.3,2.06-.44,4.12-.44,6.27,0,22.62,15.78,41.56,36.91,46.45,3.46.82,7.09,1.24,10.8,1.24,17.4,0,32.6-9.29,40.95-23.14Z"/>
  <path class="cls-4" d="M190.7,77.76c-5.08-2.25-10.72-3.49-16.66-3.49-6.49,0-12.59,1.48-18.06,4.15-8.93-12.78-23.72-21.11-40.49-21.11,13,0,25.07-3.85,35.15-10.47,11.27,12.62,24.85,23.14,40.05,30.92Z"/>
  <path class="cls-3" d="M162.85,155.62c.27,2.06.41,4.12.41,6.27,0,8.96-2.47,17.37-6.79,24.54-4.34-1.59-9.62-2.56-14.46-2.56-16.71,0-31.06,10.06-37.3,24.46-21.14-4.89-36.91-23.83-36.91-46.45,0-2.14.14-4.21.44-6.27,12.56,11.21,29.11,18,47.28,18s34.71-6.79,47.28-18.06t.05.03v.03Z"/>
  <path class="cls-2" d="M162.85,155.57v.03s-.03,0-.05-.03h.05Z"/>
  <path class="cls-1" d="M156.48,186.43c-8.36,13.85-23.56,23.14-40.95,23.14-3.71,0-7.34-.41-10.8-1.24,6.24-14.4,20.59-24.46,37.3-24.46,4.84,0,10.11.96,14.46,2.56Z"/>
  <path class="cls-5" d="M123.19.25c6.05,17.37,15.45,33.18,27.46,46.59-10.09,6.62-22.15,10.47-35.15,10.47s-25.04-3.82-35.1-10.44c12.04-13.41,21.47-29.22,27.51-46.62,2.53-.16,5.08-.25,7.64-.25s5.11.08,7.64.25Z"/>
  <path class="cls-3" d="M155.98,78.42c-13.85,6.68-23.39,20.86-23.39,37.3,0,6.05,1.29,11.79,3.63,16.96h.03c2.23,5.03,5.47,9.54,9.46,13.22-8.3,6.43-18.88,10.33-30.21,10.33s-21.71-3.79-30.07-10.2c4.07-3.74,7.39-8.27,9.67-13.39,2.36-5.19,3.68-10.99,3.68-17.07,0-16.46-9.62-30.7-23.53-37.38,8.99-12.62,23.61-20.89,40.24-20.89s31.55,8.33,40.49,21.11Z"/>
  <path class="cls-5" d="M145.7,145.89c4.78,4.51,10.61,7.86,17.1,9.67-12.56,11.27-29.11,18.06-47.28,18.06s-34.71-6.79-47.28-18v-.08c6.51-1.73,12.37-5.06,17.18-9.51,8.36,6.4,18.77,10.2,30.07,10.2s21.91-3.9,30.21-10.33Z"/>
  <path class="cls-4" d="M80.4,46.86c10.06,6.62,22.13,10.44,35.1,10.44-16.63,0-31.25,8.27-40.24,20.89-5.41-2.61-11.49-4.07-17.92-4.07s-12.04,1.35-17.32,3.79c15.34-7.78,29.02-18.33,40.38-31.06Z"/>
  <path class="cls-2" d="M98.78,115.58c0,6.07-1.32,11.87-3.68,17.07h-.03c-3.93.44-7.86.99-11.71,1.68,3.82-5.28,6.02-11.76,6.02-18.75,0-17.67-14.35-32.02-32.02-32.02s-32.08,14.35-32.08,32.02c0,13.5,8.44,25.07,20.23,29.77-3.68,1.51-7.34,3.16-10.88,4.89-11.3-7.39-18.75-20.15-18.75-34.66,0-15.64,8.66-29.27,21.47-36.31.08-.03.14-.08.22-.11.33-.19.66-.36,1.02-.52.33-.16.69-.33,1.02-.49.14-.08.27-.14.41-.22,5.28-2.45,11.13-3.79,17.32-3.79s12.51,1.46,17.92,4.07c13.91,6.68,23.53,20.92,23.53,37.38Z"/>
  <path class="cls-1" d="M49.42,156.26c-5.39-1.02-10.39-3.11-14.79-6.02,3.55-1.73,7.2-3.38,10.88-4.89,12.01-4.97,24.71-8.71,37.85-11.02,3.85-.69,7.78-1.24,11.71-1.68h.03c-2.28,5.11-5.61,9.65-9.67,13.39-4.81,4.45-10.66,7.78-17.18,9.51-.03.03-.03.05-.05.03-3.46.96-7.09,1.46-10.86,1.46-2.72,0-5.36-.25-7.92-.77Z"/>
  <path class="cls-2" d="M85.92,3.85c7.09-1.9,14.43-3.11,21.99-3.6-6.05,17.4-15.47,33.2-27.51,46.62-11.35,12.73-25.04,23.28-40.38,31.06-.49.22-.96.44-1.43.69-.41.22-.82.41-1.24.66-10.83,5.19-22.46,9.07-34.63,11.3,1.43-6.46,3.38-12.7,5.85-18.69C42.66,60.66,70.56,35.87,85.92,3.88v-.03Z"/>
  <path class="cls-6" d="M89.38,115.58c0,6.98-2.2,13.47-6.02,18.75-13.14,2.31-25.84,6.05-37.85,11.02-11.79-4.7-20.23-16.27-20.23-29.77,0-17.67,14.35-32.02,32.08-32.02s32.02,14.35,32.02,32.02ZM76.93,111.89c.03-.3.03-.63.03-.99,0-5.39-4.4-9.78-9.81-9.78s-9.78,4.4-9.78,9.78c0-5.39-4.4-9.78-9.84-9.78s-9.84,4.4-9.84,9.78c0,.27,0,.52.05.74.05.41.14.8.16,1.18v.05c.08.22.14.47.16.69.11.25.14.47.22.66.05.19.08.3.16.49,2.45,8.05,9.98,13.96,18.91,13.96s16.96-6.29,19.18-14.84c0-.03.03-.08.03-.16.11-.25.14-.49.19-.8.08-.3.11-.66.16-.99Z"/>
  <path class="cls-3" d="M76.96,110.9c0,.36,0,.69-.03.99-.05.33-.08.69-.16.99-.05.3-.08.55-.19.8,0,.08-.03.14-.03.16-2.23,8.55-10,14.84-19.18,14.84s-16.46-5.91-18.91-13.96c-.08-.19-.11-.3-.16-.49-.08-.19-.11-.41-.22-.66-.03-.22-.08-.47-.16-.69v-.05c-.03-.38-.11-.77-.16-1.18-.05-.22-.05-.47-.05-.74,0-5.39,4.43-9.78,9.84-9.78s9.84,4.4,9.84,9.78c0-5.39,4.4-9.78,9.78-9.78s9.81,4.4,9.81,9.78Z"/>
  <path class="cls-3" d="M85.92,3.88c-15.36,31.99-43.26,56.79-77.34,68C22.13,38.64,50.74,13.14,85.92,3.88Z"/>
  <path class="cls-2" d="M40.02,77.92c-.14.08-.27.14-.41.22-.33.16-.69.33-1.02.49v-.03c.47-.25.93-.47,1.43-.69Z"/>
  <path class="cls-2" d="M38.59,78.61v.03c-.36.16-.69.33-1.02.52-.08.03-.14.08-.22.11.41-.25.82-.44,1.24-.66Z"/>
  <path class="cls-3" d="M38.84,174.04c0,7.61-3.71,14.37-9.43,18.55-10.11-11.35-18.06-24.71-23.12-39.41,2.91-1.35,6.18-2.09,9.59-2.09,12.67,0,22.95,10.28,22.95,22.95Z"/>
</svg>