<?xml version="1.0" encoding="UTF-8"?>
<svg id="Layer_1" data-name="Layer 1" xmlns="http://www.w3.org/2000/svg" viewBox="0 0 231.1 231.07">
  <defs>
    <style>
      .cls-1 {
        fill: #6e0a30;
      }

      .cls-2 {
        fill: #1d0f14;
      }

      .cls-3 {
        fill: #9fcc44;
      }

      .cls-4 {
        fill: #e94296;
      }

      .cls-5 {
        fill: #ffd695;
      }

      .cls-6 {
        fill: #1a4f27;
      }

      .cls-7 {
        fill: #fbf9dc;
      }
    </style>
  </defs>
  <g>
    <path class="cls-4" d="M231.1,115.52c0,30.73-12.01,58.68-31.58,79.38-15.17-8.96-25.37-25.51-25.37-44.39,0-3.9.44-7.72,1.26-11.38,16.63-3.71,29.16-18.33,29.66-35.95,6.24-2.67,13.44-4.21,20.61-4.21,1.43,0,2.86.05,4.26.19.77,5.33,1.15,10.8,1.15,16.35Z"/>
    <path class="cls-5" d="M229.94,99.17c-1.4-.14-2.83-.19-4.26-.19-7.17,0-14.38,1.54-20.61,4.21.03-.36.03-.74.03-1.13,0-9.89-3.79-18.91-9.98-25.67l.03-.03c8.36-3.99,15.69-9.73,21.55-16.71,6.65,12.01,11.24,25.37,13.25,39.52Z"/>
    <path class="cls-7" d="M205.07,103.19c-.49,17.62-13.03,32.24-29.66,35.95-2.69.6-5.47.93-8.33.93-8.77,0-16.85-2.97-23.28-7.97,3.79,2.47,8.36,3.9,13.22,3.9,13.44,0,24.32-10.88,24.32-24.32s-10.88-24.32-24.32-24.32-24.32,10.88-24.32,24.32c0,4.45,1.21,8.66,3.33,12.26-4.4-6.18-6.95-13.72-6.95-21.88,0-9.92,3.79-18.94,9.98-25.7h.03c8.49,4.1,17.98,6.38,28.01,6.38s19.54-2.28,28.04-6.35c6.18,6.76,9.98,15.78,9.98,25.67,0,.38,0,.77-.03,1.13Z"/>
    <path class="cls-6" d="M216.7,59.64c-5.85,6.98-13.19,12.73-21.55,16.71l-.03.03c-6.95-7.61-16.93-12.37-28.04-12.37s-21.05,4.76-28.01,12.34h-.03c-9.26-4.43-17.32-11.02-23.5-19.13,8.38-10.94,13.33-24.57,13.33-39.39,0-6.02-.82-11.79-2.36-17.32,6.05.55,11.96,1.59,17.7,3.05-1.48,3.6-2.28,7.48-2.28,11.6,0,16.99,13.77,30.76,30.76,30.76,10,0,18.88-4.78,24.49-12.18,7.64,7.64,14.24,16.35,19.51,25.89Z"/>
    <path class="cls-5" d="M199.52,194.9c-6.76,7.15-14.43,13.44-22.84,18.69,0,0-.03-.03-.06-.03v-.03c.03-.77.06-1.57.06-2.34,0-33.61-27.27-60.85-60.85-60.85s-60.85,27.24-60.85,60.85c0,.77.03,1.57.06,2.34-.11.08-.22.16-.33.25-8.55-5.3-16.35-11.71-23.2-18.96,15.09-8.99,25.2-25.48,25.2-44.31,0-3.93-.44-7.75-1.29-11.43,2.75.66,5.63.99,8.58.99,9.18,0,17.62-3.27,24.21-8.69.08-.08.16-.14.27-.22,1.79-1.32,3.38-2.91,4.73-4.67,4.07,8.27,12.56,13.94,22.35,13.94s18.22-5.61,22.29-13.83c1.65,2.14,3.66,4.01,5.96,5.5,6.43,5,14.51,7.97,23.28,7.97,2.86,0,5.63-.33,8.33-.93-.82,3.66-1.26,7.48-1.26,11.38,0,18.88,10.2,35.43,25.37,44.39Z"/>
    <path class="cls-1" d="M167.08,64.02c11.1,0,21.08,4.76,28.04,12.37-8.49,4.07-17.98,6.35-28.04,6.35s-19.51-2.28-28.01-6.38c6.95-7.59,16.93-12.34,28.01-12.34Z"/>
    <path class="cls-3" d="M197.18,33.75c-5.61,7.39-14.48,12.18-24.49,12.18-16.99,0-30.76-13.77-30.76-30.76,0-4.12.8-8,2.28-11.6,20.34,5.19,38.53,15.8,52.96,30.18Z"/>
    <path class="cls-4" d="M176.68,211.21c0,.77-.03,1.57-.05,2.34-8.25-6.27-17.51-11.27-27.51-14.76-4.34-14.84-18.06-25.67-34.33-25.67s-30.45,11.24-34.52,26.5c-9.13,3.44-17.62,8.14-25.23,13.94-.03-.77-.05-1.57-.05-2.34,0-33.61,27.24-60.85,60.85-60.85s60.85,27.24,60.85,60.85Z"/>
    <path class="cls-6" d="M176.62,213.54v.11c-15.09,9.4-32.54,15.45-51.26,17.04-1.26.11-2.5.19-3.77.25h-.11c-1.98.08-3.96.14-5.94.14s-3.99-.06-5.94-.14h-.11c-19.9-1.04-38.48-7.09-54.45-16.93-.03-.16-.03-.3-.03-.47,7.61-5.8,16.11-10.5,25.23-13.94,11.05-4.18,23.06-6.46,35.57-6.46,11.65,0,22.87,1.98,33.29,5.63,10,3.49,19.27,8.49,27.51,14.76Z"/>
    <path class="cls-2" d="M157.03,87.36c13.44,0,24.32,10.88,24.32,24.32s-10.88,24.32-24.32,24.32c-4.86,0-9.43-1.43-13.22-3.9-2.17-1.68-4.12-3.57-5.88-5.66-.69-.8-1.32-1.65-1.9-2.5-2.12-3.6-3.33-7.81-3.33-12.26,0-13.44,10.88-24.32,24.32-24.32Z"/>
    <path class="cls-1" d="M149.11,198.78c-10.42-3.66-21.63-5.63-33.29-5.63-12.51,0-24.52,2.28-35.57,6.46,4.07-15.25,17.98-26.5,34.52-26.5s29.99,10.83,34.33,25.67Z"/>
    <path class="cls-4" d="M136.03,123.94c.52.93,1.13,1.81,1.81,2.67-4.07,8.22-12.53,13.83-22.29,13.83s-18.28-5.66-22.35-13.94c.3-.38.58-.77.85-1.18.03,0,.03-.03.03-.03,4.97-6.43,7.94-14.48,7.94-23.23,0-9.92-3.79-18.94-9.98-25.7,9.26-4.43,17.32-11.02,23.5-19.13,6.18,8.11,14.24,14.7,23.5,19.13-6.18,6.76-9.98,15.78-9.98,25.7,0,8.16,2.56,15.69,6.95,21.88Z"/>
    <path class="cls-3" d="M128.88,17.84c0,14.81-4.95,28.45-13.33,39.39-8.38-10.94-13.33-24.57-13.33-39.39,0-6.02.82-11.79,2.36-17.32,3.6-.36,7.26-.52,10.97-.52s7.37.16,10.97.52c1.54,5.52,2.36,11.3,2.36,17.32Z"/>
    <path class="cls-6" d="M115.55,57.23c-6.18,8.11-14.24,14.7-23.5,19.13h-.03c-6.95-7.59-16.96-12.34-28.04-12.34s-21.05,4.76-28.01,12.34h-.03c-8.36-3.99-15.69-9.73-21.55-16.71,5.25-9.51,11.85-18.2,19.46-25.81,5.61,7.37,14.48,12.09,24.43,12.09,16.99,0,30.76-13.77,30.76-30.76,0-4.1-.8-8-2.28-11.57,5.77-1.46,11.74-2.5,17.81-3.08-1.54,5.52-2.36,11.3-2.36,17.32,0,14.81,4.95,28.45,13.33,39.39Z"/>
    <path class="cls-2" d="M98.23,111.68c0,5.03-1.54,9.73-4.15,13.61,0,0,0,.03-.03.03-.27.38-.58.74-.88,1.13-1.43,1.7-3.02,3.27-4.7,4.73-.11.08-.19.14-.27.22-4.01,2.89-8.96,4.62-14.29,4.62-13.44,0-24.32-10.88-24.32-24.32s10.88-24.32,24.32-24.32,24.32,10.88,24.32,24.32Z"/>
    <path class="cls-7" d="M94.08,125.29c2.61-3.88,4.15-8.58,4.15-13.61,0-13.44-10.88-24.32-24.32-24.32s-24.32,10.88-24.32,24.32,10.88,24.32,24.32,24.32c5.33,0,10.28-1.73,14.29-4.62-6.6,5.41-15.03,8.69-24.21,8.69-2.94,0-5.83-.33-8.58-.99-16.46-3.77-28.8-18.25-29.41-35.7-.03-.44-.03-.88-.03-1.32,0-9.92,3.79-18.94,9.98-25.7h.03c8.49,4.1,17.98,6.38,28.04,6.38s19.51-2.28,28.01-6.38h.03c6.18,6.76,9.98,15.78,9.98,25.7,0,8.74-2.97,16.79-7.94,23.23Z"/>
    <path class="cls-1" d="M63.99,64.02c11.08,0,21.08,4.76,28.04,12.34-8.49,4.1-17.98,6.38-28.01,6.38s-19.54-2.28-28.04-6.38c6.95-7.59,16.93-12.34,28.01-12.34Z"/>
    <path class="cls-3" d="M89.05,15.17c0,16.99-13.77,30.76-30.76,30.76-9.95,0-18.83-4.73-24.43-12.09,14.4-14.4,32.57-25.01,52.91-30.23,1.48,3.57,2.28,7.48,2.28,11.57Z"/>
    <path class="cls-4" d="M56.7,150.51c0,18.83-10.11,35.32-25.2,44.31-4.34-4.62-8.33-9.59-11.87-14.87C7.67,162.17.49,140.89.03,117.94c-.03-.8-.03-1.59-.03-2.42,0-5.55.38-11.02,1.15-16.38,1.32-.11,2.67-.16,4.01-.16,7.42,0,14.46,1.57,20.83,4.4.6,17.45,12.95,31.94,29.41,35.7.85,3.68,1.29,7.5,1.29,11.43Z"/>
    <path class="cls-6" d="M55.05,214c-.14-.08-.25-.16-.36-.22.11-.08.22-.16.33-.25,0,.16,0,.3.03.47Z"/>
    <path class="cls-5" d="M25.97,102.05c0,.44,0,.88.03,1.32-6.38-2.83-13.41-4.4-20.83-4.4-1.35,0-2.69.05-4.01.16,2.01-14.16,6.6-27.49,13.25-39.5,5.85,6.98,13.19,12.73,21.55,16.71-6.18,6.76-9.98,15.78-9.98,25.7Z"/>
  </g>
  <path class="cls-1" d="M38.23,150.35c0,13.06-7.59,24.3-18.61,29.6C7.67,162.17.49,140.89.03,117.94c1.73-.3,3.52-.44,5.33-.44,18.14,0,32.87,14.7,32.87,32.85Z"/>
  <path class="cls-1" d="M192.87,150.41c0,13.06,7.59,24.3,18.61,29.6,11.96-17.78,19.13-39.06,19.6-62.01-1.73-.3-3.52-.44-5.33-.44-18.14,0-32.87,14.7-32.87,32.85Z"/>
</svg>