<?xml version="1.0" encoding="UTF-8"?>
<svg id="Layer_1" data-name="Layer 1" xmlns="http://www.w3.org/2000/svg" viewBox="0 0 231.1 231.08">
  <defs>
    <style>
      .cls-1 {
        fill: #6e0a30;
      }

      .cls-2 {
        fill: #1d0f14;
      }

      .cls-3 {
        fill: #9fcc44;
      }

      .cls-4 {
        fill: #e94296;
      }

      .cls-5 {
        fill: #ffd695;
      }

      .cls-6 {
        fill: #1a4f27;
      }

      .cls-7 {
        fill: #fbf9dc;
      }
    </style>
  </defs>
  <g>
    <path class="cls-3" d="M206.55,120.48c1.18-2.72,2.09-5.61,2.69-8.63.77-3.88.99-7.72.74-11.49-1.35-18.77-15.06-35.13-34.38-38.97-17.15-3.41-33.94,3.9-43.43,17.32,14.57-22.54,37.6-39.14,64.59-45.32,21.19,20.92,34.33,50,34.33,82.15,0,6.76-.58,13.41-1.7,19.84h-.03c-1.65-.27-3.33-.41-5.06-.41-17.26,0-31.22,13.99-31.22,31.22,0,9.48,4.21,17.98,10.88,23.69-3.66,4.37-7.67,8.49-11.96,12.26-3.24-26.11-19.54-48.18-42.16-59.45,2.8,1.24,5.83,2.17,8.96,2.8,20.2,4.04,39.91-6.82,47.74-25.01Z"/>
    <path class="cls-4" d="M229.37,135.38h.03c-3.55,20.53-12.53,39.22-25.42,54.5-6.68-5.72-10.88-14.21-10.88-23.69,0-17.23,13.96-31.22,31.22-31.22,1.73,0,3.41.14,5.06.41Z"/>
    <path class="cls-7" d="M209.99,100.36c.25,3.77.03,7.61-.74,11.49-.6,3.02-1.51,5.91-2.69,8.63-1.59-5.08-4.01-9.73-7.09-13.83.08-.99.03-2.23.03-3.22,0-5.28-1.4-10.47-3.66-14.87,5.25,3.33,9.98,7.31,14.13,11.79h.03Z"/>
    <path class="cls-4" d="M195.83,88.57c-7.09-4.51-15.09-7.83-23.78-9.56-8.74-1.76-17.43-1.79-25.73-.36-6.02,1.02-11.87,2.83-17.34,5.33.05-.16.14-.3.25-.47.88-1.59,1.84-3.16,2.89-4.7,0-.03.03-.08.05-.11,9.48-13.41,26.28-20.72,43.43-17.32,19.32,3.85,33.04,20.2,34.38,38.97h-.03c-4.15-4.48-8.88-8.47-14.13-11.79Z"/>
    <path class="cls-4" d="M199.46,106.65c3.08,4.1,5.5,8.74,7.09,13.83-7.83,18.2-27.54,29.05-47.74,25.01-3.13-.63-6.16-1.57-8.96-2.8-.6-.3-1.24-.58-1.81-.85-.88-.44-1.7-.91-2.53-1.37-12.23-7.17-20.26-20.06-21.14-34.33,3.22-4.21,7.12-7.92,11.63-10.86,4.86-3.22,10.44-5.55,16.52-6.76,18.36-3.66,36.45,4.04,46.95,18.14Z"/>
    <path class="cls-2" d="M199.49,103.44c0,.99.05,2.23-.03,3.22-10.5-14.1-28.59-21.8-46.95-18.14-6.07,1.21-11.65,3.55-16.52,6.76,1.76-6.46,5.41-12.45,10.33-16.63,8.3-1.43,16.99-1.4,25.73.36,8.69,1.73,16.68,5.06,23.78,9.56,2.25,4.4,3.66,9.59,3.66,14.87Z"/>
    <path class="cls-6" d="M192.01,202.14c-.03.05-.05.08-.08.08-7.75-3.08-15.72-5.69-23.94-7.81-6.6-22.57-27.43-39.08-52.14-39.11,12.04,0,22.76-5.74,29.52-14.65.91.36,1.79.77,2.67,1.18.58.27,1.21.55,1.81.85,22.62,11.27,38.92,33.34,42.16,59.45Z"/>
    <path class="cls-5" d="M191.93,202.21c-6.76,5.99-14.24,11.19-22.29,15.45-4.75,2.53-9.73,4.73-14.87,6.57-7.26-14.32-22.07-24.1-39.19-24.1s-31.99,9.81-39.22,24.13c-4.97-1.79-9.81-3.9-14.43-6.38-8.22-4.29-15.86-9.57-22.76-15.67.06-.03.08-.03.14-.06,7.86-3.11,15.94-5.74,24.27-7.86,16.6-4.29,34.03-6.57,51.98-6.57h.3c.19,0,.36,0,.55.03,17.81.06,35.13,2.36,51.59,6.65,8.22,2.12,16.19,4.73,23.94,7.81Z"/>
    <path class="cls-4" d="M167.99,194.41c-16.74-4.37-34.33-6.68-52.44-6.68s-35.37,2.28-51.98,6.57c6.62-22.54,27.49-39,52.2-39h.08c24.71.03,45.54,16.55,52.14,39.11Z"/>
    <path class="cls-5" d="M148.04,141.83c-.88-.41-1.76-.82-2.67-1.18.05-.05.11-.11.14-.19.82.47,1.65.93,2.53,1.37Z"/>
    <path class="cls-1" d="M115.58,200.13c17.12,0,31.94,9.78,39.19,24.1-12.26,4.45-25.45,6.84-39.22,6.84s-26.96-2.39-39.19-6.82c7.23-14.32,22.07-24.13,39.22-24.13Z"/>
    <path class="cls-7" d="M146.33,78.65c-4.92,4.18-8.58,10.17-10.33,16.63-4.51,2.94-8.41,6.65-11.63,10.86-.22-3.63.03-7.34.77-11.08.8-3.93,2.09-7.64,3.82-11.05,0-.03.03-.03.03-.03,5.47-2.5,11.32-4.32,17.34-5.33Z"/>
    <path class="cls-3" d="M164.09,10.66c-26.22,14.65-44.17,40.87-48.37,70.56-.22-1.7-.52-3.44-.85-5.11-5.8-28.91-23.91-52.2-47.8-65.47,8.22-3.79,16.96-6.68,26.11-8.44,7.23-1.46,14.73-2.2,22.37-2.2s15.56.8,22.98,2.31c8.93,1.79,17.51,4.62,25.56,8.36Z"/>
    <path class="cls-3" d="M128.99,83.98s-.03,0-.03.03c0,0,0-.03.03-.03Z"/>
    <path class="cls-7" d="M105.93,95.05c.71,3.55.96,7.06.8,10.53-3.41-4.34-7.56-8.05-12.23-10.91-1.79-6.07-5.55-12.09-10.22-16.11,6.18,1.02,12.18,2.86,17.81,5.41,1.76,3.41,3.05,7.12,3.85,11.08Z"/>
    <path class="cls-4" d="M84.27,78.56c-8.16-1.35-16.68-1.26-25.26.44-8.82,1.76-16.96,5.14-24.13,9.76-5.08,3.22-9.7,7.09-13.77,11.43,1.4-18.69,15.09-34.96,34.38-38.81,17.48-3.46,34.6,4.21,43.98,18.14.69,1.02,1.32,2.06,1.92,3.13.25.44.47.88.69,1.32-5.63-2.56-11.63-4.4-17.81-5.41Z"/>
    <path class="cls-6" d="M86.22,140.46c6.73,8.99,17.45,14.81,29.55,14.84-24.71,0-45.57,16.46-52.2,39-8.33,2.12-16.41,4.76-24.27,7.86-.05.03-.08.03-.14.05-.03,0-.05-.03-.08-.05,0-.05,0-.11.03-.19,3.3-26.08,19.6-48.1,42.25-59.34.58-.27,1.13-.52,1.68-.8,1.04-.49,2.12-.93,3.19-1.37Z"/>
    <path class="cls-4" d="M94.5,94.67c4.67,2.86,8.82,6.57,12.23,10.91-.69,14.29-8.55,27.29-20.7,34.6-.96.58-1.95,1.13-3,1.65-.55.27-1.1.52-1.68.8-2.86,1.26-5.88,2.23-9.07,2.86-19.93,3.99-39.36-6.51-47.44-24.24,1.46-4.89,3.71-9.51,6.65-13.66,6.65-9.51,16.85-16.63,29.11-19.08,12.15-2.42,24.13.08,33.89,6.16Z"/>
    <path class="cls-3" d="M86.03,140.19c.05.11.11.19.19.27-1.07.44-2.14.88-3.19,1.37,1.04-.52,2.03-1.07,3-1.65Z"/>
    <path class="cls-2" d="M84.27,78.56c4.67,4.01,8.44,10.03,10.22,16.11-9.76-6.07-21.74-8.58-33.89-6.16-12.26,2.45-22.46,9.56-29.11,19.08v-.22c-.16-1.32-.25-2.67-.25-4.04,0-5.08,1.46-10.28,3.63-14.57,7.17-4.62,15.31-8,24.13-9.76,8.58-1.7,17.1-1.79,25.26-.44Z"/>
    <path class="cls-3" d="M21.11,100.19c-.27,3.82-.06,7.72.74,11.65.66,3.3,1.68,6.46,3,9.4,8.08,17.73,27.51,28.23,47.44,24.24,3.19-.63,6.21-1.59,9.07-2.86-22.65,11.24-38.95,33.26-42.25,59.34-.03.08-.03.14-.03.19-4.29-3.79-8.3-7.89-11.96-12.26,6.6-5.74,10.86-14.29,10.86-23.72,0-17.23-13.99-31.22-31.22-31.22-1.7,0-3.44.14-5.06.41-1.13-6.43-1.7-13.08-1.7-19.84,0-9.73,1.21-19.21,3.49-28.26,5.19-20.78,16.05-39.3,30.81-53.9,27.18,6.21,50.35,22.95,64.89,45.74-9.46-13.69-26.39-21.16-43.7-17.73-19.1,3.82-32.71,19.79-34.33,38.23-.03.19-.03.38-.06.58Z"/>
    <path class="cls-4" d="M37.99,166.19c0,9.43-4.26,17.98-10.86,23.72-12.89-15.31-21.88-33.97-25.42-54.53,1.62-.27,3.35-.41,5.06-.41,17.23,0,31.22,13.99,31.22,31.22Z"/>
    <path class="cls-7" d="M31.5,107.37v.22c-2.94,4.15-5.19,8.77-6.65,13.66-1.32-2.94-2.34-6.1-3-9.4-.8-3.93-1.02-7.83-.74-11.65,4.07-4.34,8.69-8.22,13.77-11.43-2.17,4.29-3.63,9.48-3.63,14.57,0,1.37.08,2.72.25,4.04Z"/>
  </g>
  <path class="cls-5" d="M99.2,79.1c-9.46-13.69-26.39-21.16-43.7-17.73-19.1,3.82-32.71,19.79-34.33,38.23-6.6-3.08-12.56-7.26-17.67-12.34,5.19-20.78,16.05-39.3,30.81-53.9,27.18,6.21,50.35,22.95,64.89,45.74Z"/>
  <path class="cls-5" d="M131.88,79.11c9.46-13.69,26.39-21.16,43.7-17.73,19.1,3.82,32.71,19.79,34.33,38.23,6.6-3.08,12.56-7.26,17.67-12.34-5.19-20.78-16.05-39.3-30.81-53.9-27.18,6.21-50.35,22.95-64.89,45.74Z"/>
  <g>
    <path class="cls-6" d="M164.09,10.67c12.2,5.66,23.25,13.36,32.68,22.7-23.47,5.39-43.92,18.61-58.43,36.8-3.11-6.4-8.88-11.27-15.86-13.19,8.3-19.38,22.84-35.81,41.61-46.31Z"/>
    <path class="cls-5" d="M145.51,140.46c-.03.08-.08.14-.14.19-6.76,8.91-17.48,14.65-29.52,14.65h-.08c-12.09-.03-22.81-5.85-29.55-14.84-.08-.08-.14-.16-.19-.27,12.15-7.31,20.01-20.31,20.7-34.6,0-.27.03-.52.03-.8,2.78,1.07,5.8,1.65,8.96,1.65s5.94-.55,8.63-1.51c-.03.41,0,.8.03,1.21.88,14.27,8.91,27.16,21.14,34.33Z"/>
    <path class="cls-6" d="M138.34,70.18c-2.2,2.72-4.26,5.58-6.16,8.52-.03.03-.05.08-.05.11-1.07,1.48-2.03,3.05-2.89,4.7-.11.16-.19.3-.25.47-.03,0-.03.03-.03.03-1.73,3.41-3.02,7.12-3.82,11.05-.66,3.33-.93,6.62-.8,9.87-2.69.96-5.61,1.51-8.63,1.51s-6.18-.58-8.96-1.65c.11-3.22-.16-6.46-.82-9.73-.8-3.96-2.09-7.67-3.85-11.08-.22-.44-.44-.88-.69-1.32-.6-1.07-1.24-2.12-1.92-3.13-2.01-3.16-4.18-6.21-6.51-9.13,3.11-6.49,8.91-11.46,15.97-13.41,2.58,6.02,4.59,12.42,5.94,19.13.33,1.68.63,3.41.85,5.11,1.18-8.41,3.49-16.55,6.76-24.24,6.98,1.92,12.75,6.79,15.86,13.19Z"/>
    <path class="cls-6" d="M108.93,56.99c-7.06,1.95-12.86,6.93-15.97,13.41-14.51-18.33-35.07-31.64-58.65-37.02,9.46-9.35,20.53-17.07,32.76-22.73,18.36,10.2,33.29,26.3,41.86,46.34Z"/>
  </g>
  <path class="cls-3" d="M169.64,217.66c-4.75,2.53-9.73,4.73-14.87,6.57-7.26-14.32-22.07-24.1-39.19-24.1s-31.99,9.81-39.22,24.13c-4.97-1.79-9.81-3.9-14.43-6.38,11.08-18,30.95-30.04,53.62-30.15h.3c.19,0,.36,0,.55.03,22.48.16,42.16,12.07,53.24,29.9Z"/>
  <path class="cls-1" d="M138.53,2.31c-1.15,11.52-10.86,20.5-22.68,20.5s-21.58-9.07-22.68-20.61c7.23-1.46,14.73-2.2,22.37-2.2s15.56.8,22.98,2.31Z"/>
</svg>