<?xml version="1.0" encoding="UTF-8"?>
<svg id="Layer_1" data-name="Layer 1" xmlns="http://www.w3.org/2000/svg" viewBox="0 0 231.1 231.1">
  <defs>
    <style>
      .cls-1 {
        fill: #6e0a30;
      }

      .cls-2 {
        fill: #1d0f14;
      }

      .cls-3 {
        fill: #9fcc44;
      }

      .cls-4 {
        fill: #e94296;
      }

      .cls-5 {
        fill: #ffd695;
      }

      .cls-6 {
        fill: #1a4f27;
      }

      .cls-7 {
        fill: #fbf9dc;
      }
    </style>
  </defs>
  <path class="cls-1" d="M217.41,60.96c8.74,16.24,13.69,34.85,13.69,54.59s-4.95,38.31-13.69,54.56c-6.05-7.06-10.91-15.14-14.35-23.94,10.03-6.49,16.68-17.78,16.68-30.65s-6.65-24.13-16.68-30.62c3.44-8.82,8.3-16.88,14.35-23.94Z"/>
  <path class="cls-4" d="M159.39,71.38c3.16-5.14,6.87-9.92,11.08-14.27,8.33-8.69,18.5-15.56,29.9-20.01,6.65,7.17,12.4,15.17,17.04,23.86-6.05,7.06-10.91,15.12-14.35,23.94-5.69-3.68-12.48-5.83-19.76-5.83-19.49,0-35.4,15.28-36.39,34.52.14-6.6,1.04-12.97,2.64-19.1,2.12-8.27,5.47-16.05,9.84-23.12Z"/>
  <path class="cls-4" d="M203.06,146.17c3.44,8.8,8.3,16.88,14.35,23.94-4.65,8.69-10.39,16.68-17.04,23.86-10.39-4.04-19.76-10.11-27.65-17.7-.41-.38-.8-.77-1.18-1.15-.71-.77-1.46-1.54-2.2-2.28-13.58-14.59-21.99-34.03-22.43-55.41.99,19.27,16.88,34.58,36.39,34.58,2.34,0,4.62-.22,6.82-.63v-.03c4.7-.85,9.07-2.64,12.95-5.17Z"/>
  <path class="cls-7" d="M197.32,115.55v.38h-.03v-.38h.03Z"/>
  <path class="cls-2" d="M197.26,114.23c.03.41.03.85.03,1.29v.41c-.22,13.74-11.41,24.82-25.2,24.82s-24.41-10.5-25.18-23.75c-.03-.05-.03-.11-.03-.16-.03-.44-.03-.88-.03-1.32s0-.88.03-1.32c0-.16,0-.33.03-.47.93-13.11,11.85-23.45,25.18-23.45s24.49,10.61,25.18,23.94Z"/>
  <path class="cls-6" d="M200.37,193.97c-3.66,4.01-7.61,7.72-11.85,11.16-3.16-10.77-8.66-20.59-15.89-28.78l.08-.08c7.89,7.59,17.26,13.66,27.65,17.7Z"/>
  <path class="cls-6" d="M200.37,37.11c-11.41,4.45-21.58,11.32-29.9,20.01-5.33-4.84-11.3-8.96-17.76-12.26,10.44-6.62,18.97-15.94,24.6-26.99,8.52,5.39,16.27,11.87,23.06,19.24Z"/>
  <path class="cls-3" d="M172.64,176.35c7.23,8.19,12.73,18,15.89,28.78-6.16,5.03-12.84,9.43-19.95,13.11-1.7-10.97-6.76-20.81-14.05-28.5-7.78-8.19-18.09-13.96-29.68-15.97-1.65-.55-3.38-.96-5.14-1.21,9.32-1.76,16.6-9.26,18-18.72,12.09,3.66,22.92,10.28,31.64,18.99.74.74,1.48,1.51,2.2,2.28.36.41.74.8,1.1,1.24Z"/>
  <path class="cls-3" d="M177.31,17.87c-5.63,11.05-14.16,20.37-24.6,26.99-10.75,6.84-23.47,10.8-37.16,10.8s-26.41-3.96-37.16-10.8c-10.44-6.6-18.97-15.94-24.6-26.96,5.52-3.52,11.38-6.57,17.48-9.1,8.19,16.11,24.96,27.16,44.28,27.16s36.09-11.05,44.28-27.16c6.1,2.53,11.96,5.58,17.48,9.07Z"/>
  <path class="cls-6" d="M154.52,189.73c7.28,7.7,12.34,17.54,14.05,28.5-15.47,8-32.96,12.62-51.51,12.84,11.38-.58,21.05-7.64,25.42-17.56,1.59-3.63,2.47-7.64,2.47-11.85,0-13-8.44-24.02-20.12-27.9,11.6,2.01,21.91,7.78,29.68,15.97Z"/>
  <path class="cls-5" d="M170.47,57.12c-4.21,4.34-7.92,9.13-11.08,14.27-11.9-9.81-27.21-15.72-43.84-15.72,13.69,0,26.41-3.96,37.16-10.8,6.46,3.3,12.42,7.42,17.76,12.26Z"/>
  <path class="cls-6" d="M169.34,172.83c-8.71-8.71-19.54-15.34-31.64-18.99.16-1.07.25-2.17.25-3.3,0-12.37-10.03-22.4-22.4-22.4s-22.43,10.03-22.43,22.4c0,1.13.08,2.23.25,3.3-12.09,3.66-22.9,10.28-31.61,18.99,13.58-14.59,22.02-34.05,22.43-55.44.03-.19.03-.36.03-.55.03-.41.03-.85.03-1.29s0-.88-.03-1.29c0-.19,0-.41-.03-.6-.14-6.62-1.04-13.06-2.61-19.21,8.3-9.4,20.42-15.34,33.97-15.34s25.7,5.96,34,15.39c-1.59,6.13-2.5,12.51-2.64,19.1v.14c-.03.16-.03.3-.03.47-.03.44-.03.88-.03,1.32s0,.88.03,1.32c0,.19,0,.36.03.55v.03c.44,21.38,8.85,40.82,22.43,55.41Z"/>
  <path class="cls-3" d="M159.39,71.38c-4.37,7.06-7.72,14.84-9.84,23.12-8.3-9.43-20.45-15.39-34-15.39s-25.67,5.94-33.97,15.34c-2.14-8.22-5.47-15.97-9.84-23.01,11.9-9.87,27.16-15.78,43.81-15.78s31.94,5.91,43.84,15.72Z"/>
  <path class="cls-7" d="M197.26,114.23c-.69-13.33-11.68-23.94-25.18-23.94s-24.24,10.33-25.18,23.45v-.14c.99-19.24,16.9-34.52,36.39-34.52,7.28,0,14.07,2.14,19.76,5.83,10.03,6.49,16.68,17.78,16.68,30.62s-6.65,24.16-16.68,30.65c-3.88,2.53-8.25,4.32-12.95,5.17v.03c-2.2.41-4.48.63-6.82.63-19.51,0-35.4-15.31-36.39-34.58v-.03c-.03-.11-.03-.25,0-.38.77,13.25,11.74,23.75,25.18,23.75s24.98-11.08,25.2-24.82h.03v-.38c0-.3,0-.63-.03-.96,0-.14,0-.25-.03-.36Z"/>
  <path class="cls-4" d="M159.83,8.8c-8.19,16.11-24.96,27.16-44.28,27.16s-36.09-11.05-44.28-27.16C84.9,3.13,99.86,0,115.55,0s30.65,3.13,44.28,8.8Z"/>
  <path class="cls-1" d="M144.96,201.66c0,4.21-.88,8.22-2.47,11.85-4.56-10.39-14.9-17.62-26.94-17.62s-22.37,7.23-26.94,17.62c-1.62-3.63-2.5-7.64-2.5-11.85,0-13,8.41-24.02,20.12-27.9,3.02-.55,6.13-.82,9.32-.82s6.27.27,9.29.82c11.68,3.88,20.12,14.9,20.12,27.9Z"/>
  <path class="cls-4" d="M93.37,153.84c-.16-1.07-.25-2.17-.25-3.3,0-12.37,10.03-22.4,22.43-22.4s22.4,10.03,22.4,22.4c0,1.13-.08,2.23-.25,3.3-1.4,9.46-8.69,16.96-18,18.72-1.35-.19-2.75-.3-4.15-.3s-2.8.11-4.15.3c-9.35-1.76-16.63-9.26-18.03-18.72Z"/>
  <path class="cls-4" d="M142.49,213.51c-4.37,9.92-14.05,16.99-25.42,17.56-.49.03-1.02.03-1.51.03s-1.02,0-1.51-.03c-11.41-.58-21.08-7.64-25.42-17.56,4.56-10.39,14.9-17.62,26.94-17.62s22.37,7.23,26.94,17.62Z"/>
  <path class="cls-3" d="M111.4,172.55c-1.79.25-3.52.66-5.17,1.21-11.6,2.01-21.93,7.78-29.66,15.97-7.31,7.7-12.34,17.54-14.05,28.5-7.12-3.68-13.8-8.08-19.95-13.11,3.16-10.77,8.66-20.59,15.89-28.78.36-.44.74-.82,1.1-1.24.71-.77,1.46-1.54,2.2-2.28,8.71-8.71,19.51-15.34,31.61-18.99,1.4,9.46,8.69,16.96,18.03,18.72Z"/>
  <path class="cls-5" d="M78.39,44.86c10.75,6.84,23.47,10.8,37.16,10.8-16.66,0-31.91,5.91-43.81,15.78-3.16-5.17-6.9-9.98-11.1-14.32,5.33-4.84,11.3-8.96,17.76-12.26Z"/>
  <path class="cls-6" d="M76.57,189.73c7.72-8.19,18.06-13.96,29.66-15.97-11.71,3.88-20.12,14.9-20.12,27.9,0,4.21.88,8.22,2.5,11.85,4.34,9.92,14.02,16.99,25.42,17.56-18.55-.22-36.03-4.84-51.51-12.84,1.7-10.97,6.73-20.81,14.05-28.5Z"/>
  <path class="cls-2" d="M84.19,114.26c.03.41.03.85.03,1.26v.03c0,.44,0,.88-.03,1.29,0,.05,0,.11-.03.16-.77,13.25-11.74,23.75-25.15,23.75s-24.87-10.94-25.23-24.57v-.63c0-.63.03-1.29.08-1.9,0-.22.03-.47.05-.69,1.26-12.73,12.01-22.68,25.09-22.68s24.38,10.5,25.15,23.75c.03.05.03.14.03.22Z"/>
  <path class="cls-4" d="M84.19,113.65h-.03c-.96-19.27-16.88-34.58-36.39-34.58-7.28,0-14.05,2.14-19.73,5.83-3.44-8.82-8.3-16.88-14.35-23.94,4.65-8.69,10.39-16.68,17.04-23.86,11.41,4.45,21.58,11.32,29.9,20.01,4.21,4.34,7.94,9.15,11.1,14.32,4.37,7.04,7.7,14.79,9.84,23.01,1.57,6.16,2.47,12.59,2.61,19.21Z"/>
  <path class="cls-4" d="M84.16,117.39h.03c-.41,21.38-8.85,40.84-22.43,55.44-.74.74-1.48,1.51-2.2,2.28-.38.38-.77.77-1.18,1.15-7.89,7.59-17.26,13.66-27.65,17.7-6.65-7.17-12.4-15.17-17.04-23.86,6.05-7.06,10.91-15.14,14.35-23.94,3.88,2.53,8.25,4.32,12.95,5.19,2.2.41,4.48.63,6.79.63,19.51,0,35.43-15.31,36.39-34.6Z"/>
  <path class="cls-6" d="M53.79,17.89c5.63,11.02,14.16,20.37,24.6,26.96-6.46,3.3-12.42,7.42-17.76,12.26-8.33-8.69-18.5-15.56-29.9-20.01,6.79-7.37,14.54-13.85,23.06-19.21Z"/>
  <path class="cls-6" d="M58.38,176.27l.08.08c-7.23,8.19-12.73,18-15.89,28.78-4.23-3.44-8.19-7.15-11.85-11.16,10.39-4.04,19.76-10.11,27.65-17.7Z"/>
  <path class="cls-7" d="M33.78,116.18c.36,13.63,11.52,24.57,25.23,24.57s24.38-10.5,25.15-23.75c.03.14.03.27,0,.38-.96,19.29-16.88,34.6-36.39,34.6-2.31,0-4.59-.22-6.79-.63-4.7-.88-9.07-2.67-12.95-5.19-10.06-6.49-16.71-17.78-16.71-30.65s6.65-24.13,16.71-30.62c5.69-3.68,12.45-5.83,19.73-5.83,19.51,0,35.43,15.31,36.39,34.58.03.11.03.25,0,.38-.77-13.25-11.74-23.75-25.15-23.75s-23.83,9.95-25.09,22.68c-.03.22-.05.47-.05.69-.05.6-.08,1.24-.08,1.87v.66Z"/>
  <path class="cls-1" d="M28.04,84.9c-10.06,6.49-16.71,17.78-16.71,30.62s6.65,24.16,16.71,30.65c-3.44,8.8-8.3,16.88-14.35,23.94C4.95,153.86,0,135.28,0,115.55s4.95-38.34,13.69-54.59c6.05,7.06,10.91,15.12,14.35,23.94Z"/>
</svg>