<?xml version="1.0" encoding="UTF-8"?>
<svg id="Layer_1" data-name="Layer 1" xmlns="http://www.w3.org/2000/svg" viewBox="0 0 800 600">
  <defs>
    <style>
      .cls-1 {
        stroke-width: 0px;
      }
    </style>
  </defs>
  <path class="cls-1" d="M568.59,394.95c6.45-8.45,13.2-16.7,19.28-25.4,10.71-15.31,19.91-31.5,28.23-48.28,8.51-17.18,10.36-34.96,9.51-53.74-2.04-45.1-3.61-90.24-1.12-135.38.53-9.53,1.96-19.01,3.07-28.5.23-1.97.51-4.12,1.47-5.78,1.25-2.17,2.85-4.86,4.93-5.65,3.09-1.17,5.31,1.63,6.87,4.1,1.54,2.42,2.85,5.03,3.95,7.68,6.6,15.84,11.25,32.27,15.07,48.99,5.26,23,8.42,46.31,11.34,69.69,4.26,34.08,5.16,68.26,3.98,102.54-.04,1.28.12,2.57.21,4.43,2.75-.23,5.12-.37,7.48-.62,13.22-1.42,25.33,1.18,35.12,10.66,8.46,8.19,16.32,17.01,24.86,25.11,5.13,4.86,10.9,9.13,16.72,13.17,3.04,2.11,6.68,3.63,10.28,4.59,7.98,2.13,15.07.51,20.01-6.69,2.13-3.1,3.89-6.45,5.77-9.72.99-1.72,1.67-3.84,4.38-2.6-.53,14.39-15.17,26.83-28.87,23.87-5.28-1.14-10.53-3.59-15.12-6.5-12.32-7.79-22.3-18.29-31.81-29.23-1.46-1.68-3.03-3.25-4.53-4.89-12.03-13.16-26.87-16.29-44.42-12.24-.26,2.19-.47,4.55-.82,6.89-.8,5.26-1.44,10.56-2.59,15.74-1.42,6.41-5.61,9.81-12.29,10.17-3.5.19-6.98.78-10.8,1.22,0,6.09-.55,11.87.09,17.51,3.38,29.6,7.89,59.02,15.17,87.96,1.57,6.24,2.8,12.59,3.8,18.95,1.26,8.04-1.29,11.47-9.09,13.38-11.27,2.76-22.55,1.7-33.78.02-5.39-.8-7.16-3.04-7.41-8.53-.17-3.76.03-7.57.32-11.33,1.97-25.49,4.12-50.97,6-76.47,1.52-20.6,2.76-41.23,4.15-62.16-2.77-.76-5.11-1.24-7.33-2.05-4.85-1.77-6.75-5.48-5.28-9.93,1.65-5,7-8.54,11.26-7.42,2.67.7,4.08,2.57,4.58,5.17.5,2.6.9,5.22,1.45,8.42,13.43-1.2,24.47-9.39,37.83-11.38.2-3.02.46-5.63.54-8.24.88-29.15.44-58.29-2.64-87.3-3.9-36.71-9.13-73.22-19.87-108.68-1.93-6.37-4.2-12.65-6.64-18.85-1.6-4.06-3.19-8.27-7.61-11.75-.81,1.88-1.81,3.28-2,4.77-1.4,11.02-3.57,22.04-3.74,33.09-.51,33.13-.37,66.26-.18,99.4.08,14.23.48,28.48,1.53,42.67,1.45,19.64-4.5,37.22-13.22,54.3-16.2,31.72-36.71,60.34-61.4,85.98-1.38,1.43-2.62,3.04-3.66,4.73-19.91,32.43-48.56,53.91-84.1,66.38-32.53,11.41-65.97,13.63-99.97,8.42-44.21-6.77-81.4-27.02-112.69-58.62-19.86-20.06-36.39-42.56-49.11-67.77-2.68-5.31-4.44-11.12-6.17-16.85-.88-2.92-1.01-6.14-1.03-9.23-.03-4.71,1.98-7.49,5.32-8.13,3.31-.63,5.73.62,7.87,4.79,3.45,6.72,6.47,13.66,9.96,20.36,21.55,41.39,51.31,75.2,92.42,98.03,32.57,18.09,67.79,24.99,104.84,22.11,30.73-2.39,59.12-12.34,84.96-28.98,11.92-7.68,23-16.68,34.32-25.28,9.39-7.13,16.15-16.43,21.18-27.04,16.35-34.5,25.45-70.65,23.56-109.01-1.74-35.39-10.55-68.92-28.91-99.51-22.71-37.82-56.1-61.19-98.72-71.55-25.21-6.13-50.8-8.95-76.74-6.8-34.53,2.86-67.53,10.78-96.95,30.21-34.01,22.46-57.29,53.4-72.21,90.99-6.41,16.16-11.21,32.79-14,49.95-.7,4.28-.68,8.67-1.05,13.79,2.39-1.05,3.76-1.69,5.16-2.26,7.04-2.89,13.07-.59,15.73,6.36,2.03,5.29,2.54,10.79.76,16.34-2.4,7.49-9.92,9.92-15.67,4.46-3.29-3.12-5.42-7.47-8-11.32-.58-.86-.85-1.92-1.64-3.77-2.12,2.19-3.95,3.72-5.36,5.58-8.74,11.5-17.53,22.97-25.94,34.71-1.49,2.09-1.96,5.44-1.75,8.12.65,8.41,1.99,16.77,2.82,25.17,3.36,33.85,6.72,67.69,9.83,101.56.46,5.02-.21,10.19-.72,15.26-.49,4.84-3.74,7.45-8.31,8.29-9.91,1.82-19.85,2.35-29.81.23-6.15-1.3-8.55-3.43-8.71-9.89-.25-10.44-.33-20.92.36-31.33,1.23-18.63,3.72-37.2,4.48-55.84.58-14.29,4.74-27,12.13-38.92,3.39-5.48,6.72-11.01,10.42-16.28,1.9-2.71,2.79-5.26,2.46-8.62-1.71-17.48-3.28-34.97-4.72-52.46-.49-5.98-.61-11.99-.64-18-.04-5.95,1.58-11.42,5.61-16,6.46-7.35,9.41-16.15,9.58-25.72.61-32.69.58-65.38-2.38-97.99-.06-.63-.37-1.24-1.02-3.3-.53,10.29-1.04,19.12-1.41,27.95-.52,12.22-.88,24.44-1.42,36.66-.1,2.19-.44,4.47-1.24,6.49-.47,1.19-2.09,2.74-3.11,2.68-1.12-.06-2.41-1.64-3.13-2.85-.64-1.08-.75-2.55-.86-3.87-.44-5.31-1.01-10.62-1.14-15.94-.34-13.79-.45-27.58-.72-41.36-.07-3.54-.4-7.07-1.62-10.7-.11,1.91-.27,3.82-.33,5.73-.43,13.56-.74,27.12-1.29,40.68-.31,7.77-.97,15.53-1.52,23.29-.08,1.09-.09,2.36-.65,3.21-.65,1.01-1.84,2.25-2.82,2.29-.98.03-2.49-1.12-2.9-2.11-.83-2.02-1.39-4.26-1.51-6.44-.56-10.43-.96-20.87-1.35-31.31-.45-12.2-.83-24.39-2.25-36.6-.13,2.33-.32,4.65-.39,6.98-.5,16.67-.92,33.35-1.5,50.02-.16,4.66-.71,9.31-1.21,13.95-.14,1.29-.49,2.66-1.12,3.79-1.32,2.39-4.13,2.5-5.15.04-1-2.41-1.61-5.12-1.74-7.73-.55-10.66-.8-21.33-1.25-32-.38-9.08-.89-18.15-2.19-27.24-.12.72-.32,1.44-.34,2.16-.64,28.68-1.78,57.37-.03,86.05.12,2,.47,3.99.48,5.98.06,11.33,4.18,19.93,14.7,25.59,6.91,3.72,9.79,11.05,10.04,18.64.31,9.74-.07,19.54-.74,29.27-.79,11.3-2.26,22.56-3.34,33.84-.23,2.41-.03,4.87-.03,7.69,1.42,1.02,3.13,2.02,4.57,3.33,3.6,3.25,3.93,9.78.83,13.38-2.69,3.12-8.21,1.93-9.58-2.38-.92-2.88-.95-6.04-1.43-9.44-5.01-.82-9.77.29-14.06,2.57-6.86,3.63-13.59,7.53-20.11,11.73-19.05,12.28-39.47,15.32-61.28,9.62-16.23-4.25-26.72-15.22-34.25-29.56-.53-1.02-.37-2.4-.67-4.66,1.89,1.09,3.1,1.48,3.84,2.3,1.19,1.3,2.14,2.84,3.05,4.36,13.14,21.75,33.14,28.17,57.15,25.54,12.27-1.34,22.87-6.82,33.02-13.44,4.65-3.03,9.24-6.34,14.29-8.5,6.04-2.59,12.55-4.09,19.68-6.32.5-5.05,1.14-10.96,1.68-16.89,1.2-13.28,2.44-26.56,3.47-39.85.29-3.75.03-7.56-.14-11.33-.34-7.65-3.54-13.67-10.37-17.5-8.85-4.97-13.58-12.42-14.1-22.66-.43-8.44-1.57-16.85-1.73-25.28-.55-29.14-.28-58.27,2.15-87.35.23-2.79-.02-5.81,2.76-7.88,3.58.71,3.87,3.61,4.1,6.12.95,10.4,1.83,20.81,2.45,31.23.48,8.21.48,16.45.82,24.67.12,2.85.65,5.68,1.72,8.48.23-10.62.3-21.25.72-31.86.44-11.1,1.16-22.2,1.91-33.28.15-2.28-.16-5.61,3.17-5.72,3.52-.11,3.9,3.19,4.14,5.81.79,8.63,1.69,17.26,2,25.91.44,12.67.36,25.35.6,38.03.05,2.57.53,5.12,1.71,7.62.55-17,1.02-34,1.7-50.99.26-6.44.95-12.86,1.53-19.27.14-1.53.37-3.17,1.07-4.49.52-.98,1.79-1.93,2.86-2.12.72-.13,2.22.95,2.44,1.74.82,2.97,1.69,6.02,1.78,9.07.63,19.34,1.06,38.68,1.54,58.02.05,2.22,0,4.44.85,6.71.41-5.73.9-11.45,1.23-17.18.99-17.54,1.89-35.08,2.9-52.61.1-1.73.49-3.53,1.18-5.11.35-.81,1.68-1.69,2.52-1.65.87.04,2.2,1.03,2.42,1.85.8,2.99,1.45,6.05,1.75,9.13,3.54,35.7,3.53,71.5,2.7,107.31-.24,10.34-3.08,19.77-10.1,27.57-3.52,3.91-4.99,8.36-4.72,13.45.7,13.09,1.38,26.19,2.29,39.27.64,9.22,1.65,18.41,2.59,28.69,1.28-1.55,1.99-2.27,2.53-3.09,8.37-12.64,17.54-24.62,28.35-35.31,1.28-1.27,2.54-3.39,2.47-5.06-.61-14.03,3.05-27.36,6.59-40.66,7.4-27.77,19.27-53.52,36.61-76.51,28.59-37.92,66.59-60.86,113.12-69.58,21.69-4.06,43.58-6.15,65.7-4.29,32.64,2.74,64.12,9.24,92.68,26.55,21.6,13.09,38.76,30.37,51.85,51.81,16.86,27.6,26.05,57.65,29.5,89.77,4.11,38.26-2.15,74.82-16.03,110.37-.96,2.45-1.84,4.92-2.76,7.38.45.35.89.7,1.34,1.06ZM632.2,348.02c-.26,2.61-.61,5.25-.77,7.91-.98,15.97-1.78,31.96-2.91,47.92-1.53,21.51-3.31,43-4.97,64.5-.65,8.42-1.43,16.84-1.85,25.27-.39,7.73.58,8.72,8.47,9.41,4.65.41,9.33.76,13.99.67,4.42-.08,8.91-.42,13.23-1.29,5.54-1.12,6.7-2.89,6.11-8.37-.43-3.97-1.1-7.94-2.04-11.81-7.52-30.91-13.29-62.13-16.46-93.79-.6-5.95-.85-11.98-.67-17.96.15-4.94,1.55-6.07,6.49-6.8,3.07-.46,6.2-.58,9.29-.91,3.39-.36,5.86-2.11,7.06-5.31,2.67-7.13,3.49-14.47,2.48-22.86-12.63,4.53-24.67,8.85-37.45,13.43ZM153.76,358.63c-.66-.15-1.33-.29-1.99-.44-5.25,9.45-10.71,18.78-15.62,28.4-1.76,3.45-2.68,7.53-3.12,11.42-1.04,9.26-1.52,18.57-2.29,27.86-1.16,13.93-2.57,27.84-3.48,41.79-.58,8.84-.68,17.74-.52,26.61.1,5.6,1.61,6.77,7.1,7.8,8.41,1.59,16.79,1.01,25.18-.2,4.04-.58,6.57-2.74,6.87-6.87.31-4.19.74-8.45.36-12.6-2.99-32.26-6.12-64.5-9.31-96.74-.89-9.03-2.11-18.02-3.18-27.03ZM532.41,438.91c-.38-.33-.76-.66-1.14-.99-3.41,2.46-6.82,4.93-10.24,7.38-28.04,20.17-58.63,34.09-93.26,38.33-35.69,4.37-70.04-.24-102.81-15.17-38.29-17.45-67.76-45.14-91.38-79.51-8.84-12.86-16-26.64-22.63-40.73-1.53-3.26-2.44-7.16-6.25-8.95-2.28,3.85-2.92,5.95-1.39,10.79,2.07,6.53,4.38,13.07,7.38,19.22,7.13,14.63,16.35,27.98,26.26,40.87,19.07,24.8,41.5,46.04,69.33,60.45,50.51,26.16,103.21,30.84,157.6,13.16,24.78-8.05,46.3-21.3,64.46-39.99,1.47-1.51,2.72-3.23,4.08-4.86ZM212.67,310.74c-.14-1.4-.17-2.97-.47-4.48-1.55-7.89-5.94-9.95-12.93-6.12-3.84,2.11-4.49,3.27-3.2,7.48.77,2.51,1.88,5,3.32,7.19,2.06,3.12,4.35,6.81,8.88,5.52,4.65-1.33,4.02-5.75,4.41-9.58ZM626.96,332.66c-5.19,1.55-7.91,4.15-7.12,6.55,1.05,3.2,3.87,3.69,7.59,3.57-.15-3.25-.29-6.35-.47-10.11ZM135.85,360.26c4.62-4.31,4.27-5.91-.98-8.07.37,3,.67,5.54.98,8.07Z"/>
</svg>