<?xml version="1.0" encoding="UTF-8"?>
<svg id="Layer_1" data-name="Layer 1" xmlns="http://www.w3.org/2000/svg" viewBox="0 0 1000 1500">
  <defs>
    <style>
      .cls-1 {
        fill: #393939;
      }

      .cls-1, .cls-2 {
        stroke-width: 0px;
      }

      .cls-2 {
        fill: #e74393;
      }
    </style>
  </defs>
  <g>
    <path class="cls-2" d="M813.18,1499.65c-14.49.09-28.97.11-43.46.34-4.38.07-4.75-.6-4.07-5.48,3.69-26.81,6.18-53.78,9.57-80.63,3.23-25.61,7.22-51.13,10.55-76.74,2.19-16.82,3.6-33.73,5.73-50.56,2.75-21.79,6.01-43.52,8.78-65.31,2.67-20.95,4.87-41.95,7.51-62.9,2.75-21.8,5.85-43.55,8.66-65.34,2.05-15.92,3.77-31.89,5.82-47.82,2.88-22.38,6.08-44.72,8.85-67.12,2.67-21.55,4.8-43.17,7.48-64.71,2.61-20.91,5.72-41.77,8.43-62.66,2.14-16.51,3.93-33.07,6.03-49.58,2.74-21.51,5.7-42.98,8.45-64.48,2.11-16.52,3.96-33.06,6.04-49.58,2.19-17.38,4.58-34.74,6.77-52.12,2.04-16.23,4.65-32.43,5.74-48.72,2.18-32.69,5.11-65.22,10.73-97.57,6.05-34.79,14.04-68.97,25.45-102.39,11.79-34.53,27.76-66.92,50.04-95.81,6.86-8.89,16.36-15.73,26.34-25.09-24.71-2.56-46.5-3.94-67.33-11.5-41.12-14.92-71.28-42.36-92.14-80.21-19.19-34.79-28.72-72.52-32.78-111.89-1.87-18.17-3.52-36.29-3.59-54.58-.02-5.42,1.29-7.23,7.02-7.21,62.49.21,124.98.17,187.47.03,4.92,0,6.81,1.11,6.8,6.47-.25,84.82-.31,169.64-.4,254.46-4.91-.44-5.94-4.65-7.54-8.06-27.41-58.7-39.76-121.29-47.53-185.05-.84-6.88-1.43-13.78-1.89-20.71-.45-6.63-.57-13.24-.71-19.86,1.31,57.73,1.81,84.98,15.5,138.85,6.51,25.6,16.37,49.84,28.46,73.25,1.11,2.14,2.25,4.27,3.15,6.51.79,1.96,1.73,4.17-.4,5.74-1.96,1.46-4.19.49-5.92-.66-5.31-3.55-9.52-8.29-13.69-13.06-38.28-43.8-58.9-95.68-69.48-152.12-3.39-18.09-6.11-36.28-6.52-54.73,1.73,49.75,6.26,100.93,34.17,152.53,11.58,21.41,25.45,40.98,43.43,57.52,2.51,2.32,7.37,5.05,5.03,8.48-2.61,3.82-7.23.58-10.53-1.12-36.53-18.75-64.27-46.74-84.44-82.18-23.18-40.75-36.9-84.42-38.42-131.57-.09-2.72-1.12-5.33-.91-7.69,1.75,15.06,1.24,30.66,3.51,46.08,2.28,15.56,5.15,30.96,9.85,45.98,13.01,41.59,34.97,77.37,68.86,105.28,18.67,15.38,40.13,25.55,63,32.96,11.58,3.75,12.73,5.98,6.92,16.78-39.1,72.59-61.61,150.47-72.98,231.71-5.93,42.42-9.4,85.14-13.77,127.76-4.4,42.91-8.9,85.81-13.43,128.7-5.86,55.5-11.71,110.99-17.56,166.49-5.76,54.59-11.53,109.2-17.12,163.81-5.19,50.71-10.41,101.42-15.42,152.15-3.35,33.92-6.83,67.82-10.27,101.72-2.21,21.81-4.35,43.64-6.38,65.47-2.03,21.82-3.72,43.7-6.74,65.43-1.04,7.52,2.13,15.98-4.69,22.31h-.02Z"/>
    <path class="cls-2" d="M943.61,1499.65h-61.6c-2.41-2.4-2.23-5.33-1.97-8.43,1.68-20.08,3.07-40.18,4.95-60.23,2.52-26.91,4.54-53.86,6.55-80.79,1.9-25.54,3.49-51.11,5.38-76.66,2.75-36.99,5.6-73.97,8.35-110.95,2.08-27.96,4.05-55.95,6.16-83.91,2.9-38.49,5.49-76.99,8.36-115.49,2.11-28.27,4.02-56.55,6.05-84.82,2.22-30.98,4.51-61.95,6.66-92.94,1.94-27.98,3.98-55.95,5.91-83.93,2.71-39.41,5.52-78.82,8.73-118.2,4.07-49.94,9.9-99.67,17.39-149.2,6.68-44.26,14.05-88.41,22.73-132.31,1.3-6.55.4-13.96,6.28-19.59,4.5,5.62,2.45,11.82,2.34,17.56-.33,17.75-1.71,35.47-2.61,53.19-1.69,33.05-3.56,66.11-4.91,99.18-1.58,38.56-3.51,77.11-5.56,115.63-2.31,43.35-4.24,86.73-6.42,130.08-1.65,32.81-2.86,65.68-4.37,98.51-1.61,34.93-2.36,69.91-4.84,104.8-1.11,15.64-1.24,31.36-1.72,47.01-1.18,38.58-2.96,77.15-4.45,115.72-1.49,38.55-2.16,77.15-4.66,115.67-1.27,19.55-1.51,39.2-1.93,58.77-1.03,47.33-4.01,94.58-5.01,141.92-.38,17.72.08,35.59-1.56,53.24-1.78,19.29-1.27,38.54-1.6,57.82-.05,3.03-.1,6.08-2.59,8.37l-.03-.02Z"/>
    <path class="cls-2" d="M880.2,1499.65h-65.23c3.02-38.64,7.83-77.12,12.03-115.64,8.84-80.89,18.6-161.67,27.59-242.53,8.24-74.06,16.53-148.12,24.3-222.23,7.08-67.5,14.39-134.99,21.04-202.54,4.79-48.63,9.75-97.24,13.38-145.97,5.81-77.93,18.66-154.34,46.14-227.88,8.35-22.34,18.59-43.81,28.85-65.28.74-1.55,1.75-2.94,2.76-4.1,3.14,1.39,3.13,3.53,2.59,5.56-11.16,42.13-17.99,85.16-25.17,128.04-8.86,52.91-16.6,106.04-21.93,159.48-5.88,59.12-10.02,118.38-14.66,177.6-4.23,54.1-8.13,108.22-11.96,162.35-3.44,48.71-6.6,97.45-9.79,146.18-2.75,41.8-5.57,83.62-8.26,125.42-2.19,33.98-4.1,68-6.18,102-2.14,34.84-4.19,69.69-6.97,104.49-1.39,17.37-2,34.88-3.39,52.26-1.68,20.92-1.34,42.03-5.16,62.77l.02.02Z"/>
    <path class="cls-1" d="M880.2,1499.65c1.21-26.91,1.91-53.85,3.79-80.72,1.44-20.57,2.51-41.14,3.69-61.72,1.8-31.31,3.89-62.6,5.46-93.94.96-19.06,2.37-38.13,3.62-57.19,1.87-28.59,3.65-57.19,5.4-85.8,1.13-18.46,2.44-36.92,3.64-55.38,1.79-27.39,3.57-54.78,5.46-82.16,1.79-25.88,3.48-51.77,5.37-77.64,1.88-25.58,3.73-51.14,5.45-76.73,1.64-24.37,3.63-48.74,5.43-73.1,2.35-31.79,4.83-63.58,7.29-95.36,2.13-27.57,4.18-55.2,7.27-82.66,3.04-27.03,6.39-54.06,10.09-81.03,3.54-25.78,7.33-51.52,11.55-77.18,5.02-30.51,11.16-60.82,17.16-91.16,3.51-17.79,7.69-35.46,11.08-53.36-9.47,19.09-18.8,38.21-26.35,58.13-12.7,33.55-22.42,68.04-30.38,102.95-5.12,22.41-9.3,45.03-11.72,67.99-2.65,25.12-4.87,50.27-7.24,75.42-3.1,32.86-6.21,65.7-9.15,98.58-2.2,24.55-4.63,49.09-7.09,73.62-3.16,31.56-7.3,63.03-10.67,94.57-2.17,20.4-3.39,40.9-5.6,61.29-3.34,30.94-7.33,61.82-10.72,92.76-2.69,24.5-4.66,49.08-7.39,73.58-2.69,24.13-6.14,48.19-8.86,72.32-2.16,19.19-3.42,38.49-5.63,57.67-2.65,22.93-6.7,45.72-8.64,68.7-1.55,18.37-4.17,36.59-5.91,54.93-1.68,17.66-4.68,35.19-6.82,52.8-2.08,17.08-3.69,34.22-5.75,51.3-2.17,17.91-4.55,35.8-7.05,53.67-.69,4.94,1.54,10.28-1.97,14.84h-1.8c1.81-18.9,3.5-37.82,5.46-56.7,2.24-21.53,4.89-43.03,7.06-64.57,1.52-15.11,2.31-30.29,3.82-45.4,2.16-21.54,5.23-43,6.87-64.58,1.07-13.96,2.52-27.85,3.94-41.77,2.21-21.84,4.13-43.7,6.86-65.5,1.69-13.53,2.7-27.22,3.96-40.85,2.04-22.16,4.86-44.25,6.88-66.39,1.33-14.51,3.1-29,4.25-43.54,1.6-20.37,4.66-40.62,6.9-60.95,1.44-13,2.41-26.05,3.8-39.06,2.29-21.53,4.83-43.03,7.1-64.56,1.4-13.31,2.21-26.68,3.82-39.96,2.44-20.3,4.25-40.68,6.71-60.98,1.61-13.24,2.7-26.62,4.12-39.93,2.31-21.82,5.3-43.6,6.92-65.48.96-13.07,2.7-26.03,3.88-39.05,2.02-22.16,4.81-44.25,6.98-66.38,2.51-25.66,6.12-51.09,11.25-76.31,7.49-36.89,17.92-72.96,30.78-108.35,10.19-28.02,23.47-54.63,37.15-81.03,2.62-5.05.76-6.18-3.51-7.37-28.85-8.04-54.59-21.4-76.83-41.99-36.66-33.92-57.62-75.93-67.55-124.25-2.2-10.73-4.32-21.51-5.01-32.33-.91-14.3-.22-28.71.46-43.11,2.99,24.04,5.97,48.04,12.08,71.45,10.15,38.83,26.3,74.65,52.19,105.96,19.27,23.3,42.67,40.48,71.82,54.78-70.12-64.31-88.51-144.63-84.5-232.8,3.11,7.72,2.68,16.27,3.52,24.35,3.38,32.39,9.15,64.23,19.68,95.01,11.91,34.79,28.22,67.25,53.09,94.99,13.25,14.78,12.81,15.18,20.06,17.93-41.34-72.17-52.28-150.41-48.56-232.02,6.13,8.97,3.4,19.32,4.54,28.66,4.2,34.63,9.12,69.02,16.46,103.18,8.06,37.57,20.1,73.57,36.53,108.19.35.74,1.01,1.33,1.52,2v18.1c-.9,2.02-.64,4.16-.59,6.25.6,34.69-.83,69.36-1.09,104.05-.27,36.17-.89,72.36-2.25,108.5-1.89,50.3-3.53,100.62-5.43,150.92-1.73,46.08-3.58,92.16-5.47,138.24-1.76,42.76-3.47,85.53-5.41,128.27-1.84,40.65-3.47,81.3-5.43,121.94-2.45,50.87-4.82,101.76-7.27,152.63-2.27,47.26-4.69,94.52-7.24,141.76-2.44,45.14-5.06,90.27-7.13,135.43-.37,8.12-1.83,16.18-1.84,24.35,0,3.04-.63,6.03-3.08,8.23h-1.8c0-16.6-.71-33.24.14-49.79,1.98-38.36,2.46-76.76,3.98-115.11.7-17.69.2-35.41,1.38-53.05,2.28-34.12,2.64-68.3,3.84-102.44,1.14-32.34,2.42-64.68,3.62-97.02,1.15-31.13,2.45-62.26,3.63-93.39,1.09-28.71,2.48-57.43,3.62-86.16,1.14-28.71,2.47-57.44,3.64-86.15,1.06-26,2.51-51.99,3.59-78.01,1.1-26.6,2.46-53.21,3.65-79.81,1.11-24.8,2.46-49.58,3.6-74.39,1.13-24.8,2.45-49.58,3.63-74.39,1.09-22.99,2.41-45.96,3.6-68.95,1.2-22.99,2.51-45.96,3.64-68.95,1.08-21.78,3.06-43.5,3.55-65.34.17-7.65,2.57-15.24.16-23.16-4.95,28.66-9.98,57.32-14.85,85.99-4.29,25.29-8.78,50.57-12.44,75.96-3.05,21.11-4.98,42.39-7.5,63.58-2.31,19.4-4.9,38.78-7.06,58.21-.89,7.98-.83,16.04-1.65,24.08-2.14,20.77-2.28,41.74-4.06,62.57-2.2,25.85-3.66,51.75-5.58,77.61-1.89,25.57-3.5,51.16-5.35,76.72-1.87,25.87-3.71,51.74-5.54,77.61-1.74,24.67-3.49,49.34-5.32,74.01-2.57,34.49-5.01,68.99-7.38,103.49-1.61,23.46-3.55,46.92-5.24,70.39-2.01,27.89-4.93,55.71-7.07,83.58-1.56,20.24-2.19,40.55-3.78,60.79-2.1,26.67-5.56,53.27-6.86,79.97-.91,18.8-2.91,37.49-4.12,56.25-1.69,26.37-4.63,52.66-7,78.98-.19,2.09-.05,4.22-.07,6.33h-1.84Z"/>
    <path class="cls-2" d="M945.41,1499.65c-.18-29.37,3.23-58.58,3.99-87.93.57-22.06,2.36-44.14,3.5-66.21,1.85-35.83,4.01-71.62,5.49-107.47.98-23.88,2.46-47.76,3.58-71.65,1.24-26.29,2.45-52.6,3.65-78.89,1.11-24.49,2.57-48.96,3.58-73.46,1.2-28.71,2.49-57.42,3.67-86.13,1-24.18,2.75-48.34,3.45-72.57.98-33.55,2.72-67.06,3.83-100.61.98-29.62,2.43-59.23,3.56-88.85,1.31-34.44,2.33-68.9,3.86-103.32.68-15.27.42-30.56,1.34-45.8,2.31-38.33,2.51-76.75,4.1-115.08.74-17.99-.34-36.07,1.52-53.93,2.25-21.62,1.15-43.21,1.61-64.81.03-1.46-.25-3.06,1.49-3.86.1,3.62.29,7.23.29,10.84.02,399.3.02,798.6-.02,1197.9,0,14.06,1.91,12.01-11.77,12.09-13.57.09-27.15-.16-40.73-.26Z"/>
  </g>
  <g>
    <path class="cls-2" d="M.46,257.31c-.1-57.35-.22-114.7-.29-172.05C.14,59.59.34,33.93.04,8.28-.03,2.34,1.04-.08,7.79-.05c61.28.27,122.58.15,183.86.18,3.67,0,7.8-1.36,7.87,5.28.59,55.4-6.83,109.39-31.18,159.69-17.61,36.39-44.39,64.86-81.49,82.26-18.88,8.85-38.71,14.75-59.89,15.54-6.67.25-13.3,2.39-21.44,1.33,35.6,32.19,56.44,71.72,72.41,114.33,13.46,35.89,21.83,73.16,28.59,110.68,3.94,21.87,6.49,44.12,7.97,66.45,1.75,26.4,4.29,52.74,8.52,78.94,3.46,21.41,4.87,43.15,7.62,64.69,3.31,25.91,7.21,51.74,10.58,77.64,2.14,16.52,3.63,33.13,5.7,49.67,2.67,21.21,5.72,42.37,8.44,63.57,2.13,16.51,3.94,33.07,6.03,49.59,2.19,17.38,4.59,34.74,6.79,52.12,2.02,15.92,3.82,31.88,5.88,47.81,2.89,22.38,6.08,44.72,8.84,67.11,2.69,21.85,4.75,43.78,7.52,65.62,2.64,20.9,5.99,41.71,8.72,62.6,2.15,16.52,3.67,33.12,5.74,49.66,2.65,21.21,5.66,42.38,8.36,63.59,2.14,16.81,4,33.66,6.11,50.48,2.15,17.09,4.5,34.15,6.72,51.23,1.99,15.32,3.96,30.64,5.86,45.97.53,4.29-2.66,3.91-5.37,3.89-14.49-.08-28.97-.19-43.46-.28-3.48-4.23-3.82-9.56-4.13-14.5-2.21-35.4-6.07-70.69-9.78-105.93-7.89-74.94-15.08-149.95-22.87-224.9-8.13-78.32-16.17-156.64-24.3-234.96-6.82-65.72-13.97-131.4-20.94-197.1-7.01-65.99-13.11-132.09-20.62-198.04-8.24-72.33-25.66-142.32-55.18-209.1-6.35-14.36-13.08-28.48-20.92-42.1-5-8.68-3.79-12.04,6.3-15.09,24-7.25,45.72-18.69,65.26-34.3,29.86-23.86,49.58-54.9,62.95-90.23,9.35-24.7,14.76-50.25,16.46-76.73.65-10.15,1.64-20.33,2.27-27.41-1.05,33.58-9.03,68.8-22.77,102.73-20,49.42-51.55,89.05-98.53,115.49-3.68,2.07-7.26,4.36-11.46,5.27-1.48.32-3.12.48-4.21-.8-1.56-1.83-.04-3.36.9-4.78,1-1.52,2.44-2.67,3.77-3.89,47.81-43.63,69.39-99.65,77.05-162.37,2.13-17.4,1.7-34.9,3.33-54.22-2.56,58.95-15.61,113.22-42.72,163.7-12.07,22.47-27.23,42.72-45.91,60.22-1.55,1.46-3.16,2.9-5.24,3.47-3.49.96-5.52-.02-4.18-4.02,1.05-3.15,2.72-6.06,4.31-8.97,24.28-44.14,36.02-91.99,41.38-141.6,2.66-24.63,4.41-49.38,3.88-66.27-4.52,64.68-15.65,135.91-43.75,203.6-3.09,7.45-5.04,16.03-13.03,20.54h.03Z"/>
    <path class="cls-2" d="M114.29,1499.57h-59.79c-3.26-3.92-3.78-8.73-4.33-13.52-.17-1.5-.15-3.01-.09-4.52,1.23-34.39-1.26-68.72-2.28-103.04-1.59-53.3-4.19-106.58-5.87-159.88-1.02-31.93-2.25-63.88-3.55-95.81-1.92-47.3-3.58-94.6-5.49-141.9-1.73-43.08-3.47-86.16-5.42-129.23-2.44-53.91-4.8-107.82-7.28-161.74-1.72-37.34-3.24-74.71-5.43-112.02-3.01-51.16-4.96-102.36-7.82-153.51-1.09-19.5-1.4-39.17-2.66-58.64-1.64-25.26-1.14-50.57-3.11-75.79-.22-2.92-.78-6.03.99-9.13,5.26,1.58,4.79,6.64,5.49,10.21,3.86,19.78,7.83,39.56,11.15,59.43,7.19,43.01,14.55,86.01,19.9,129.3,5.71,46.11,10.3,92.32,13.82,138.66,3.57,46.9,6.67,93.84,10.08,140.76,2.8,38.49,5.48,77,8.05,115.51,2.53,37.9,5.33,75.8,8.25,113.67,2.81,36.38,5.1,72.8,7.89,109.18,2.82,36.98,5.49,73.97,8.32,110.95,2.78,36.37,5.6,72.75,8,109.15,2.08,31.51,4.33,63.02,6.95,94.48,2.09,25.14,3.41,50.37,6.65,75.42.53,4.07,1.03,8.53-2.41,11.99h0Z"/>
    <path class="cls-2" d="M181.31,1499.57h-65.23c-1.52-14.92-2.53-29.89-3.58-44.85-2-28.48-4-56.96-5.93-85.44-1.64-24.34-3.14-48.71-4.53-73.07-1.98-34.9-4.25-69.8-6.56-104.69-1.48-22.26-2.74-44.53-4.19-66.8-2.2-33.99-4.45-67.98-6.69-101.98-1.98-30.08-4-60.16-6.13-90.24-2.72-38.19-5.08-76.41-8.19-114.58-2.18-26.74-3.88-53.52-5.98-80.28-2.95-37.57-5.87-75.16-8.8-112.73-4.18-53.58-10.6-106.88-18.33-160.03-8.66-59.52-19.11-118.72-31.47-177.58-.65-3.09-2.37-6.34.09-10,4.25.73,4.84,4.75,6.26,7.62,20.31,40.87,35.25,83.66,46.99,127.76,13.74,51.6,19.33,104.29,24.13,157.22,5.48,60.38,11.11,120.75,17.17,181.08,6.73,66.94,13.88,133.84,20.94,200.74,7.11,67.51,14.67,134.99,22.21,202.45,6.84,61.15,14.05,122.27,20.88,183.43,3.66,32.83,7.1,65.69,11.12,98.49,2.49,20.26,4.31,40.64,6.64,60.95.11.96-.4,1.73-.82,2.52h0Z"/>
    <path class="cls-1" d="M181.31,1499.57c-3.02-24.97-5.95-49.95-9.09-74.91-3.48-27.6-7.35-55.15-10.7-82.77-2.18-17.97-3.52-36.05-5.63-54.04-2.76-23.52-6.67-46.93-8.65-70.51-1.54-18.37-4.17-36.59-5.91-54.93-1.83-19.15-5.17-38.16-6.82-57.32-1.08-12.44-2.51-24.83-3.93-37.23-2.39-20.91-4.92-41.8-7.11-62.74-2.04-19.51-3.52-39.07-5.62-58.58-2.13-19.73-5.53-39.36-6.82-59.14-.94-14.29-2.73-28.45-4.2-42.64-2.08-20.03-4.07-40.08-6.55-60.09-1.75-14.12-2.69-28.43-4.17-42.63-2.38-22.73-4.18-45.51-6.77-68.22-1.71-15.05-2.55-30.25-4.04-45.37-2.39-24.23-4.86-48.46-7.14-72.71-1.4-14.82-2.15-29.7-3.82-44.48-2.46-22-5.81-43.85-10.72-65.49-7.54-33.23-15.66-66.3-27.23-98.39-8.55-23.72-17.9-47.12-31.03-69.08,1.89,9.01,3.79,18.02,5.69,27.02,7.26,34.28,13.99,68.64,20.15,103.15,6.01,33.73,10.53,67.67,15.76,101.49,3.67,23.74,5.01,47.82,7.56,71.74,3.15,29.62,5.44,59.29,7.52,89,1.58,22.56,3.63,45.1,5.24,67.68,1.98,27.89,4.98,55.71,6.98,83.61.68,9.52,1.11,19.06,1.82,28.59,2.4,32.69,3.78,65.46,7.27,98.08,1.02,9.47.71,19.04,1.63,28.61,2.19,22.89,2.26,45.98,4.06,68.92,2.26,28.58,3.92,57.17,5.55,85.79,1.05,18.46,2.49,36.91,3.62,55.38,1.83,29.81,3.87,59.59,5.45,89.41,1.04,19.67,2.53,39.31,3.59,59,1.76,32.82,4.05,65.62,5.49,98.46.96,21.78,3.49,43.49,3.36,65.34h-1.8c-1.77-28.51-4.05-56.98-7.06-85.4-.91-8.58-1.29-17.28-1.71-25.88-1.31-27.44-4.59-54.7-6.07-82.13-1.28-23.77-3.78-47.5-5.26-71.3-1.68-27-4.9-53.9-6.98-80.89-1.61-20.84-2.22-41.76-3.79-62.61-2.14-28.49-4.88-56.93-7.06-85.42-.68-8.92-.93-17.85-1.66-26.8-2.5-30.35-3.4-60.83-5.86-91.19-2.07-25.57-3.63-51.16-5.45-76.73-1.82-25.58-3.66-51.15-5.51-76.73-1.88-25.88-3.51-51.77-5.38-77.64-1.72-23.77-3.48-47.54-5.4-71.29-2.34-28.99-5.2-57.97-9.08-86.78-4.33-32.19-9.02-64.36-13.82-96.49-6.01-40.25-13.99-80.1-21.82-120.13,3.07,14.45.29,29.07,2.14,43.54.22,1.75.97,3.45,1.03,5.2.67,18.28.81,36.59,1.95,54.85,2.21,35.53,4.16,71.04,5.62,106.61.93,22.68,2.55,45.35,3.57,68.06,1.19,26.31,2.26,52.64,3.75,78.91,1.21,21.48,2.14,42.97,3.19,64.46,1.52,31.43,2.97,62.85,4.05,94.3.91,26.6,2.39,53.21,3.53,79.83,1.29,30.23,2.39,60.47,3.85,90.69.61,12.55.6,25.13,1.34,37.67,1.98,33.83,2.64,67.71,4.1,101.55.62,14.37.47,28.76,1.35,43.1,2.19,35.64,2.63,71.33,4.09,106.98.65,15.88-.16,31.84,1.5,47.62,2.14,20.41.07,40.93,2.05,61.17,1.5,15.36.21,30.62,1.49,45.83,2.05,24.31,1.67,48.64,1.71,72.98,0,4.76,2.95,9.13,1.82,14.03h-1.8c-4.58-3.18-4.83-8.04-5.02-12.92-1.97-49.98-5.35-99.89-7.69-149.86-2.21-47.25-4.73-94.49-7.12-141.73-2.59-51.16-5.12-102.31-7.32-153.49-1.71-39.74-3.63-79.46-5.36-119.2-1.9-43.96-3.73-87.9-5.5-131.86-1.82-45.16-3.63-90.32-5.36-135.49-1.97-51.49-4.08-102.98-5.44-154.49-.94-35.56-1.25-71.12-2.15-106.67-.59-23.18.31-46.38-1.26-69.54v-67.01c15.11-26.78,23.95-55.99,32.05-85.33,8.79-31.86,13.48-64.6,18.2-97.26,2.67-18.43,3.92-37.06,6.92-55.41,4.13,82.25-7.13,161.32-48.68,234.3,33.48-29.47,55.8-66.24,71-107.94,14.92-40.89,21.26-83.48,25.82-126.46,4.25,89.32-14.55,170.23-84.01,231.37,66.05-26.27,126.79-104.46,134.73-233.36,3.57,12.95,3.01,23.53,1.99,34.62-1.45,15.67-2.68,31.29-6.16,46.67-7.48,33.08-20.58,63.61-40.26,91.39-17.74,25.05-41.02,43.53-67.67,57.84-11.58,6.23-24.22,10.56-37.01,13.95-4.68,1.24-5.04,2.72-2.64,6.71,8.18,13.65,14.82,28.07,21.46,42.54,15.73,34.29,27.64,69.84,37.32,106.21,7.04,26.48,12.75,53.26,16.29,80.44,3.86,29.67,7.54,59.37,10.82,89.11,2.27,20.69,3.45,41.5,5.61,62.21,2.7,25.95,6.01,51.83,8.85,77.76,1.49,13.6,2.2,27.28,3.83,40.86,2.41,20.01,4.19,40.07,6.69,60.08,1.65,13.23,2.76,26.61,4.12,39.93,2.15,21.24,4.38,42.47,6.81,63.69,1.62,14.15,2.67,28.44,4.11,42.65,2.09,20.64,5.24,41.2,6.77,61.88,1.02,13.67,2.76,27.22,4.06,40.84,2.07,21.55,4.36,43.08,6.83,64.59,1.56,13.56,2.7,27.22,3.94,40.86,2.02,22.17,4.28,44.29,7.11,66.37,1.89,14.75,2.36,29.68,3.89,44.48,2.26,21.83,3.87,43.72,6.92,65.5,2.06,14.72,2.4,29.67,3.96,44.47,2.39,22.73,4.05,45.52,6.73,68.23,1.11,9.37,2.43,18.93,2.26,28.5h-1.8v-.05Z"/>
    <path class="cls-2" d="M.46,324.32c1.74.8,1.54,2.41,1.48,3.86-1.26,28.27,1.94,56.45,1.83,84.71-.09,24.93,1.52,49.84,2.38,74.73.59,17.07.2,34.19,1.31,51.23,2.19,33.51,2.68,67.07,3.85,100.62,1.09,31.12,2.43,62.25,3.62,93.37,1.15,29.92,2.45,59.84,3.61,89.76,1.08,28.11,2.49,56.21,3.62,84.32,1.1,27.51,2.49,55.01,3.63,82.51,1.09,26.3,2.51,52.59,3.62,78.9,1.08,25.69,2.51,51.38,3.63,77.09,1.04,23.88,2.5,47.75,3.62,71.65,1.15,24.48,2.47,48.97,3.63,73.46,1.1,23.28,2.52,46.55,3.61,69.84,1.05,22.37,2.49,44.74,3.63,67.12,1.09,21.47,2.99,42.91,3.42,64.43.05,2.57,1.14,5.12,1.74,7.66-15.39.1-30.78,0-46.16.41-5.37.15-7.04-1.89-6.4-6.8.16-1.19.02-2.41.02-3.62,0-385.4,0-770.8,0-1156.2,0-3.01.19-6.02.29-9.03l.02-.02Z"/>
  </g>
</svg>