<?xml version="1.0" encoding="UTF-8"?>
<svg id="Layer_1" data-name="Layer 1" xmlns="http://www.w3.org/2000/svg" viewBox="0 0 971.01 1080">
  <defs>
    <style>
      .cls-1 {
        fill: #5C102C;
      }

      .cls-1, .cls-2 {
        stroke-width: 0px;
      }

      .cls-2 {
        fill: #F04C92;
      }
    </style>
  </defs>
  <path class="cls-2" d="M483.36,1079.99c-255.4,1.29-465.93-208.18-464.72-465.84,1.19-252.62,205.64-461.06,462.43-461.83,258.38-.78,465.82,209.72,465.07,465.63-.74,254.18-208.41,462.03-462.79,462.04ZM177.03,749.27c3.63,10.83,8.77,20.68,14.36,30.31,1.65,2.84,2.1,4.73-2.34,4.65-8.6-.14-17.21-.14-25.81,0-3.08.05-4.54-1.39-5.83-3.98-24.17-48.45-36.97-99.77-38.67-153.84-1.41-44.98,5.59-88.71,20.57-131.12,1.84-5.22,1.49-7.05-4.69-6.84-19.86.69-39.5-1.91-58.96-5.46-5.14-.94-6.75.58-8.14,5-10.1,32.15-16.36,65.05-18.4,98.63-3.89,63.94,4.84,126.04,28.16,185.96,20.29,52.13,49.42,98.73,87.49,139.56,32,34.32,68.67,62.77,110,85.37,42.51,23.25,87.53,38.96,135.16,47.01,51.78,8.76,103.52,8.01,155.2-1.92,59.82-11.49,114.61-34.88,164.54-69.36,34.64-23.91,65.15-52.55,91.48-85.55,38.77-48.58,66.16-102.89,81.83-162.99,12.31-47.23,15.89-95.29,12.11-143.94-4.15-53.31-17.9-104.11-40.99-152.21-25.11-52.33-59.46-97.89-102.93-136.53-47.46-42.18-101.35-72.87-162.12-91.31-57.74-17.52-116.58-22.69-176.61-15.88-54.74,6.21-106.36,22.4-154.72,48.34-49.94,26.78-93.16,62.16-129.37,105.94-27.18,32.85-49.06,68.89-66.06,107.98-2.48,5.69-.66,6.73,4.34,7.54,21.09,3.4,42.29,4.66,63.63,4.22,3.7-.08,5.21-1.87,6.65-4.84,11-22.72,24.46-43.92,40.2-63.63,33.18-41.56,73.32-74.68,120.83-98.71,36.18-18.3,74.37-30.2,114.55-35.77,3.72-.52,6.06.4,8.26,3.28,5.74,7.51,11.23,15.28,17.68,22.14,5.26,5.59,4.94,10.16,1.47,16.5-24.62,44.9-56.8,83.32-97.32,114.68-32.4,25.07-67.95,44.22-106.85,57.25-24.78,8.3-50.13,13.7-76.01,16.85-3.89.47-5.9,1.97-7.37,5.77-5.55,14.25-10.23,28.77-14,43.57-1.59,6.26-2.51,12.69-3.81,19.42,3.56-.6,4.84-2.81,6.55-4.32,15.87-14.02,33.96-24.13,54.12-30.42,35.31-11.02,70.7-10.61,106.05-.07,37.29,11.12,67.95,31.76,90.15,64.03,30.47,44.31,30.93,96.66,1.31,139.53-10.65,15.42-24.29,27.85-40.66,37.06-4.54,2.55-5.46,4.93-2.92,9.65,8.69,16.13,18.16,31.68,30.58,45.26,16.49,18.04,36.8,28.51,61.17,31.18,4.77.52,6.97-.72,6.46-5.73-.19-1.92-.01-3.87-.01-5.8,0-95.29-.01-190.59-.02-285.88q0-15.08,15.34-15.09,14.83,0,14.84,14.76c0,104.76,0,209.52-.01,314.28,0,3-.44,6.02-.32,9.01.17,4.33-1.94,5.54-5.92,5.36-10.74-.47-21.52-.34-32.22-1.16-26.31-2-49.63-11.53-69.51-29.03-20.5-18.05-35.27-40.37-47.32-64.6-2.41-4.84-4.55-6.44-10.32-4.97-38.2,9.74-75.77,7.46-112.66-6.76-14.95-5.76-28.58-13.76-42.16-22.36ZM164.29,689.76c1.33-3.67,2.1-5.64,2.76-7.65,9.07-27.89,32.3-44.98,61.51-44.99,22.61,0,42.35,8.7,60.4,21.38,27.15,19.08,46.41,44.95,61.64,74.01,2.07,3.94,3.6,4.86,7.53,2.35,22.7-14.51,38.71-33.99,44.3-60.74,6.89-32.96-3.8-61.14-25.8-85.31-39.41-43.3-106.65-58.3-161.14-36.52-41.25,16.49-71.3,54.27-64.74,100.81,1.78,12.66,5.8,24.43,13.54,36.65ZM194.15,454.14c1.58-.21,2.44-.3,3.29-.44,51.13-8.71,97.56-28.78,139.35-59.17,37.27-27.1,67.44-60.94,90.9-100.68,1.09-1.84,3.24-3.97,2.27-5.69-1.35-2.41-4.28-.78-6.43-.4-21.65,3.76-42.8,9.5-63.2,17.64-58.02,23.15-106.14,59.5-144.01,109.23-8.46,11.11-16.47,22.57-22.97,34.98-.89,1.7-3.41,4.5.79,4.53ZM281.48,754.35c16.31.16,27.32-1.43,38.3-3.69,4.89-1,5.35-2.76,3.06-6.92-9.27-16.83-20.09-32.52-33.75-46.07-15.37-15.25-32.86-26.94-54.83-30.39-13.94-2.19-27.71,3.71-34.52,15.12-7.22,12.1-7.8,24.33.33,36.36,4.87,7.21,11.23,12.88,18.35,17.83,20.55,14.3,44.19,16.62,63.06,17.75Z"/>
  <path class="cls-2" d="M482.91.65c12.74-2.5,23.34,2.59,34.24,8.22,59.72,30.87,119.67,61.31,179.5,91.97,53.35,27.34,106.65,54.77,159.98,82.15,25.42,13.04,50.75,26.26,76.36,38.91,6.35,3.14,9.9,6.42,8.84,14.02-.76,5.49-.09,11.16-.17,16.75-.09,6.8-.33,6.94-6.33,3.88-23.92-12.21-47.84-24.44-71.74-36.69-42.64-21.85-85.25-43.75-127.91-65.57-67.7-34.64-135.43-69.21-203.13-103.85-15.11-7.73-30.19-15.54-45.2-23.47-3.33-1.76-6.14-2.05-9.65-.24-65.13,33.55-130.31,67-195.49,100.45-57.34,29.42-114.68,58.82-172.04,88.2-26.77,13.71-53.57,27.36-80.36,41.04-6.21,3.17-6.49,2.99-6.61-4.2-.02-1.51-.01-3.01-.01-4.52,0-21.67.1-21.47,19.41-31.32,55.87-28.51,111.63-57.23,167.46-85.81,52.01-26.63,104.07-53.17,156.09-79.77,31.18-15.94,62.41-31.79,93.45-48.01,7.74-4.04,15.65-1.12,23.31-2.15Z"/>
  <path class="cls-2" d="M786.45,750.07c-4.18.88-6.89,4.18-10.34,6.28-42.91,26.07-88.86,34.59-137.99,23.37-36.09-8.24-66.1-26.38-87.27-57.27-20.78-30.32-26.04-63.66-16.04-98.97,10.95-38.64,35.8-66.86,70.07-86.24,47.94-27.11,98.57-32.16,151-13.98,16.2,5.62,30.73,14.26,43.99,25.08,1.62,1.32,2.85,3.29,5.26,3.43.16.08.32.15.47.23-.17-.07-.33-.13-.5-.2.53-5.64-2.13-10.52-4.19-15.35-33.51-78.38-92.1-124.22-176.91-135.89-39.18-5.4-76,3.91-111.97,18.14-14.63,5.79-14.52,6.04-14.51,21.9,0,10.97-.14,21.94.07,32.9.09,4.42-1.35,6.19-5.92,5.95-6.22-.32-12.48-.28-18.7,0-4.13.18-5.78-1.18-5.76-5.45.14-21.29.13-42.58.06-63.87-.01-3.37,1.08-5.59,4.17-7.23,40.73-21.61,83.91-34.65,130.2-33.95,63.61.97,119.19,23.19,165.78,66.87,44.23,41.46,69.85,92.43,76.65,152.66,5.21,46.2-1.23,91.26-14.48,135.55-5.68,18.99-13.26,37.2-21.86,55.04-1.84,3.81-4.03,5.52-8.36,5.33-7.3-.31-14.62-.23-21.93,0-5.08.16-6.68-.69-3.64-5.91,5.16-8.89,10.23-17.89,13.43-27.75.67-.53,1.25-1.08.3-1.82-.04-.03-.72.77-1.11,1.18ZM699.22,542.58c-23.55.29-43.58,3.96-62.47,12.28-35.82,15.78-62.8,40.14-73.6,79.2-7.35,26.58-2.11,51.2,13.73,73.36,17.34,24.26,41.75,38.33,70.6,43.6,59.1,10.79,109.4-5.02,147.57-52.83,28.87-36.17,25.55-87.94-7.25-120.43-25.25-25.02-56.81-34.22-88.57-35.17Z"/>
  <path class="cls-2" d="M486.3,980.99c-49.93-.23-94.46-8.42-137.37-25.31-26.11-10.28-50.61-23.46-73.78-39.26-3.5-2.39-4.16-4.03-1.66-7.45,3.54-4.86,6.88-9.89,9.95-15.05,2.22-3.72,4.38-4.51,8.18-1.98,11.78,7.87,23.86,15.27,36.46,21.79,37.85,19.59,77.94,31.46,120.36,35.86,41.78,4.34,82.82.72,123.23-10.35,34.89-9.56,67.4-24.42,97.34-44.8,1.6-1.09,3.43-1.84,4.95-3.02,3-2.34,5.02-1.28,6.8,1.52,2.77,4.35,5.58,8.67,8.41,12.98,4.89,7.46,4.95,7.52-2.19,12.3-32.91,22.05-68.32,38.65-106.55,49.33-32.1,8.97-64.81,13.07-94.15,13.43Z"/>
  <path class="cls-1" d="M786.45,750.07c.38-.41,1.07-1.21,1.11-1.18.95.74.36,1.3-.3,1.82-.27-.21-.54-.43-.8-.64Z"/>
  <path class="cls-1" d="M805.12,551.8c.17.07.33.13.5.2-.16-.08-.32-.15-.47-.23,0,0-.03.03-.03.03Z"/>
</svg>