<?xml version="1.0" encoding="UTF-8"?>
<svg id="Layer_1" data-name="Layer 1" xmlns="http://www.w3.org/2000/svg" viewBox="0 0 1920 1080">
  <defs>
    <style>
      .cls-1 {
        fill: #6E0D31;
      }

      .cls-1, .cls-2 {
        stroke-width: 0px;
      }

      .cls-2 {
        fill: #6E0D31;
      }
    </style>
  </defs>
  <g>
    <path class="cls-2" d="M141.6,457.01c65.91-153.36,284.86-153.37,350.75,0,52.64,122.53-41.87,264.43-175.38,264.43s-228.03-141.9-175.37-264.44ZM316.99,698c219.33-3.93,219.3-329.89,0-333.79-219.34,3.93-219.3,329.89,0,333.79Z"/>
    <path class="cls-2" d="M843.59,716.83h-23.91c-15.15-134.25-126.71-239.59-261.12-247.63v234.5l-.04,13.13h-23.44v-367.71l23.49-.26v96.82c23.45,1.28,46.46,5.22,68.77,11.77,47.52-14.76,80.47-58.54,80.54-108.62l23.49.03c.45,49.57-28.17,96.58-71.63,120.14,99.51,41.17,172.25,138.27,183.51,245.21l.36,2.61Z"/>
    <polygon class="cls-2" points="995.47 372.31 995.47 348.86 807.8 348.86 807.8 372.31 889.92 372.31 889.92 693.1 862.32 693.1 862.32 716.54 995.47 716.54 995.47 693.1 913.36 693.1 913.36 372.31 995.47 372.31"/>
    <path class="cls-2" d="M1303.54,715.03h-26.2v-86.71c-33.75,95.73-167,123.32-237.91,50.3-109.67-112.95,12.19-296.25,158.01-237.04-46.67-43.43-109.49-68.72-175-67.73h-26.19v-26.52h26.19c155.26-2.51,284.27,127.49,281.1,277.82v89.88ZM1142.11,454.15c-160.02,2.85-160.03,240.68,0,243.55,159.56-4.55,161.47-239.75,0-243.55Z"/>
    <rect class="cls-2" x="782.27" y="347.29" width="213.98" height="26.58"/>
    <rect class="cls-2" x="824.22" y="690.25" width="171.25" height="26.58"/>
  </g>
  <g>
    <g>
      <path class="cls-2" d="M1559.54,734.17c-98.49.5-179.68-80.28-179.21-179.65.46-97.42,79.3-177.8,178.33-178.1,99.64-.3,179.64,80.88,179.35,179.57-.29,98.02-80.37,178.18-178.47,178.18h0ZM1441.41,606.63c1.4,4.18,3.38,7.98,5.54,11.69.64,1.1.81,1.82-.9,1.79-3.32-.05-6.64-.05-9.95,0-1.19.02-1.75-.54-2.25-1.53-9.32-18.68-14.26-38.48-14.91-59.33-.54-17.35,2.16-34.21,7.93-50.57.71-2.01.57-2.72-1.81-2.64-7.66.27-15.23-.74-22.74-2.11-1.98-.36-2.6.22-3.14,1.93-3.89,12.4-6.31,25.09-7.1,38.04-1.5,24.66,1.87,48.61,10.86,71.71,7.82,20.1,19.06,38.07,33.74,53.82,12.34,13.24,26.48,24.21,42.42,32.92,16.39,8.97,33.76,15.02,52.12,18.13,19.97,3.38,39.92,3.09,59.85-.74,23.07-4.43,44.2-13.45,63.45-26.75,13.36-9.22,25.12-20.27,35.28-32.99,14.95-18.73,25.51-39.68,31.56-62.86,4.75-18.21,6.13-36.75,4.67-55.51-1.6-20.56-6.9-40.15-15.81-58.7-9.68-20.18-22.93-37.75-39.69-52.65-18.3-16.27-39.08-28.1-62.52-35.21-22.27-6.76-44.96-8.75-68.11-6.12-21.11,2.39-41.02,8.64-59.67,18.64-19.26,10.33-35.93,23.97-49.89,40.85-10.48,12.67-18.92,26.57-25.48,41.64-.96,2.19-.25,2.6,1.67,2.91,8.13,1.31,16.31,1.8,24.54,1.63,1.43-.03,2.01-.72,2.56-1.87,4.24-8.76,9.43-16.94,15.5-24.54,12.8-16.03,28.28-28.8,46.6-38.07,13.95-7.06,28.68-11.65,44.18-13.79,1.43-.2,2.34.15,3.19,1.26,2.21,2.9,4.33,5.89,6.82,8.54,2.03,2.16,1.91,3.92.57,6.36-9.49,17.32-21.9,32.13-37.53,44.23-12.49,9.67-26.2,17.05-41.21,22.08-9.56,3.2-19.33,5.28-29.31,6.5-1.5.18-2.28.76-2.84,2.23-2.14,5.5-3.95,11.09-5.4,16.8-.61,2.41-.97,4.89-1.47,7.49,1.37-.23,1.87-1.08,2.53-1.67,6.12-5.41,13.1-9.31,20.87-11.73,13.62-4.25,27.26-4.09,40.9-.03,14.38,4.29,26.2,12.25,34.77,24.69,11.75,17.09,11.93,37.28.51,53.81-4.11,5.95-9.37,10.74-15.68,14.29-1.75.98-2.11,1.9-1.13,3.72,3.35,6.22,7,12.22,11.79,17.45,6.36,6.96,14.19,10.99,23.59,12.02,1.84.2,2.69-.28,2.49-2.21-.07-.74,0-1.49,0-2.24,0-36.75,0-73.5,0-110.25,0-3.88,1.97-5.82,5.92-5.82,3.81,0,5.72,1.9,5.72,5.69,0,40.4,0,80.8,0,121.2,0,1.16-.17,2.32-.12,3.47.07,1.67-.75,2.14-2.28,2.07-4.14-.18-8.3-.13-12.43-.45-10.15-.77-19.14-4.45-26.81-11.2-7.91-6.96-13.6-15.57-18.25-24.91-.93-1.87-1.75-2.48-3.98-1.92-14.73,3.76-29.22,2.88-43.45-2.61-5.77-2.22-11.02-5.31-16.26-8.62h-.01ZM1436.5,583.68c.51-1.42.81-2.18,1.06-2.95,3.5-10.76,12.46-17.35,23.72-17.35,8.72,0,16.33,3.36,23.29,8.24,10.47,7.36,17.9,17.33,23.77,28.54.8,1.52,1.39,1.87,2.9.91,8.75-5.6,14.93-13.11,17.08-23.42,2.66-12.71-1.47-23.58-9.95-32.9-15.2-16.7-41.13-22.48-62.14-14.08-15.91,6.36-27.5,20.93-24.97,38.88.69,4.88,2.24,9.42,5.22,14.13h0ZM1448.01,492.82c.61-.08.94-.12,1.27-.17,19.72-3.36,37.62-11.1,53.74-22.82,14.37-10.45,26.01-23.5,35.05-38.83.42-.71,1.25-1.53.88-2.19-.52-.93-1.65-.3-2.48-.15-8.35,1.45-16.51,3.66-24.37,6.8-22.37,8.93-40.93,22.95-55.54,42.12-3.26,4.28-6.35,8.7-8.86,13.49-.34.66-1.32,1.74.3,1.75h0ZM1481.69,608.59c6.29.06,10.54-.55,14.77-1.42,1.89-.39,2.06-1.06,1.18-2.67-3.57-6.49-7.75-12.54-13.02-17.77-5.93-5.88-12.67-10.39-21.14-11.72-5.38-.84-10.69,1.43-13.31,5.83-2.78,4.67-3.01,9.38.13,14.02,1.88,2.78,4.33,4.97,7.08,6.88,7.92,5.51,17.04,6.41,24.32,6.85h0Z"/>
      <path class="cls-2" d="M1559.37,317.93c4.91-.96,9,1,13.2,3.17,23.03,11.9,46.15,23.64,69.22,35.47,20.57,10.54,41.13,21.12,61.69,31.68,9.8,5.03,19.57,10.13,29.45,15.01,2.45,1.21,3.82,2.48,3.41,5.41-.29,2.12-.03,4.3-.07,6.46-.03,2.62-.13,2.68-2.44,1.5-9.22-4.71-18.45-9.43-27.67-14.15-16.44-8.43-32.88-16.87-49.33-25.29-26.11-13.36-52.23-26.69-78.34-40.05-5.83-2.98-11.64-5.99-17.43-9.05-1.28-.68-2.37-.79-3.72-.09-25.12,12.94-50.25,25.84-75.39,38.74-22.11,11.35-44.23,22.68-66.35,34.01-10.32,5.29-20.66,10.55-30.99,15.83-2.39,1.22-2.5,1.15-2.55-1.62,0-.58,0-1.16,0-1.74,0-8.36.04-8.28,7.49-12.08,21.55-10.99,43.05-22.07,64.58-33.09,20.06-10.27,40.13-20.5,60.19-30.76,12.02-6.15,24.07-12.26,36.04-18.51,2.98-1.56,6.04-.43,8.99-.83h0Z"/>
    </g>
    <path class="cls-2" d="M1676.43,606.94c-1.61.34-2.66,1.61-3.99,2.42-16.55,10.05-34.27,13.34-53.21,9.01-13.92-3.18-25.49-10.17-33.65-22.09-8.01-11.69-10.04-24.55-6.19-38.17,4.22-14.9,13.81-25.78,27.02-33.26,18.49-10.45,38.01-12.4,58.23-5.39,6.25,2.17,11.85,5.5,16.96,9.67.62.51,1.1,1.27,2.03,1.32.06.03.12.06.18.09-.07-.03-.13-.05-.19-.08.2-2.18-.82-4.06-1.62-5.92-12.92-30.23-35.52-47.9-68.22-52.4-15.11-2.08-29.31,1.51-43.18,7-5.64,2.23-5.6,2.33-5.6,8.45,0,4.23-.05,8.46.03,12.69.03,1.7-.52,2.39-2.28,2.29-2.4-.12-4.81-.11-7.21,0-1.59.07-2.23-.46-2.22-2.1.05-8.21.05-16.42.02-24.63,0-1.3.42-2.16,1.61-2.79,15.71-8.33,32.36-13.36,50.21-13.09,24.53.37,45.96,8.94,63.93,25.79,17.06,15.99,26.94,35.64,29.56,58.87,2.01,17.82-.47,35.19-5.58,52.27-2.19,7.32-5.11,14.35-8.43,21.23-.71,1.47-1.55,2.13-3.22,2.06-2.82-.12-5.64-.09-8.46,0-1.96.06-2.58-.27-1.4-2.28,1.99-3.43,3.95-6.9,5.18-10.7.26-.2.48-.42.12-.7-.02-.01-.28.3-.43.46h.01ZM1642.79,526.92c-9.08.11-16.81,1.53-24.09,4.74-13.81,6.09-24.22,15.48-28.38,30.54-2.83,10.25-.81,19.74,5.29,28.29,6.69,9.36,16.1,14.78,27.23,16.81,22.79,4.16,42.19-1.94,56.91-20.37,11.13-13.95,9.85-33.91-2.8-46.44-9.74-9.65-21.91-13.2-34.16-13.56h0Z"/>
    <path class="cls-2" d="M1560.68,695.99c-19.26-.09-36.43-3.25-52.98-9.76-10.07-3.96-19.52-9.05-28.45-15.14-1.35-.92-1.6-1.55-.64-2.87,1.37-1.87,2.65-3.81,3.84-5.8.86-1.43,1.69-1.74,3.15-.76,4.54,3.03,9.2,5.89,14.06,8.4,14.6,7.55,30.06,12.13,46.42,13.83,16.11,1.67,31.94.28,47.52-3.99,13.45-3.69,25.99-9.42,37.54-17.28.62-.42,1.32-.71,1.91-1.16,1.16-.9,1.94-.49,2.62.59,1.07,1.68,2.15,3.34,3.24,5.01,1.89,2.88,1.91,2.9-.84,4.74-12.69,8.5-26.35,14.91-41.09,19.02-12.38,3.46-24.99,5.04-36.31,5.18h0Z"/>
    <path class="cls-1" d="M1676.43,606.94c.15-.16.41-.47.43-.46.37.29.14.5-.12.7-.1-.08-.21-.17-.31-.25h0Z"/>
    <path class="cls-1" d="M1683.63,530.48c.07.03.13.05.19.08-.06-.03-.12-.06-.18-.09h-.01s0,.01,0,.01Z"/>
  </g>
</svg>