<?xml version="1.0" encoding="UTF-8"?>
<svg id="Layer_1" data-name="Layer 1" xmlns="http://www.w3.org/2000/svg" viewBox="0 0 1920 1080">
  <defs>
    <style>
      .cls-1 {
        fill: #6E0D31;
        stroke-width: 0px;
      }
    </style>
  </defs>
  <path class="cls-1" d="M148.26,392.34c93.27-217.04,403.14-217.04,496.38,0,74.5,173.41-59.25,374.22-248.19,374.22s-322.71-200.81-248.19-374.23ZM396.46,733.38c310.4-5.57,310.35-466.86-.01-472.38-310.41,5.57-310.36,466.86.01,472.38Z"/>
  <path class="cls-1" d="M1141.71,760.04h-33.84c-21.45-189.99-179.32-339.07-369.54-350.45v331.87l-.06,18.58h-33.18V239.66l33.24-.37v137.02c33.19,1.81,65.75,7.39,97.32,16.66,67.24-20.88,113.88-82.85,113.98-153.72l33.24.05c.64,70.15-39.87,136.68-101.38,170.03,140.83,58.26,243.77,195.68,259.71,347.03l.51,3.69Z"/>
  <polygon class="cls-1" points="1356.66 272.47 1356.66 239.29 1091.07 239.29 1091.07 272.47 1207.28 272.47 1207.28 726.45 1168.21 726.45 1168.21 759.63 1356.66 759.63 1356.66 726.45 1240.45 726.45 1240.45 272.47 1356.66 272.47"/>
  <path class="cls-1" d="M1792.63,757.49h-37.07v-122.71c-47.76,135.47-236.34,174.52-336.69,71.18-155.21-159.84,17.25-419.26,223.62-335.46-66.05-61.46-154.95-97.26-247.66-95.85h-37.06v-37.54h37.06c219.73-3.55,402.29,180.42,397.81,393.17v127.2ZM1564.18,388.3c-226.46,4.03-226.48,340.61,0,344.67,225.81-6.44,228.52-339.29,0-344.67Z"/>
  <rect class="cls-1" x="1054.93" y="237.06" width="302.82" height="37.62"/>
  <rect class="cls-1" x="1114.3" y="722.42" width="242.36" height="37.62"/>
</svg>